# This file uses centimeters as units for non-parametric coordinates.

mtllib BUILDGASHARVEST.mtl
g default
v 0.683671 0.436472 -0.283185
v 0.523259 0.436472 -0.523259
v 0.283186 0.436472 -0.683671
v 0.000000 0.436472 -0.740000
v -0.283185 0.436472 -0.683671
v -0.523259 0.436472 -0.523259
v -0.683671 0.436472 -0.283186
v -0.740000 0.436472 -0.000000
v -0.683671 0.436472 0.283186
v -0.523259 0.436472 0.523259
v -0.283186 0.436472 0.683671
v -0.000000 0.436472 0.740000
v 0.283186 0.436472 0.683671
v 0.523259 0.436472 0.523259
v 0.683671 0.436472 0.283186
v 0.740000 0.436472 0.000000
v 0.683671 2.228241 -0.283185
v 0.523259 2.228241 -0.523259
v 0.283186 2.228241 -0.683671
v 0.000000 2.228241 -0.740000
v -0.283185 2.228241 -0.683671
v -0.523259 2.228241 -0.523259
v -0.683671 2.228241 -0.283186
v -0.740000 2.228241 -0.000000
v -0.683671 2.228241 0.283186
v -0.523259 2.228241 0.523259
v -0.283186 2.228241 0.683671
v -0.000000 2.228241 0.740000
v 0.283186 2.228241 0.683671
v 0.523259 2.228241 0.523259
v 0.683671 2.228241 0.283186
v 0.740000 2.228241 0.000000
v 0.683671 2.625000 -0.283185
v 0.523259 2.625000 -0.523259
v 0.283186 2.625000 -0.683671
v 0.000000 2.625000 -0.740000
v -0.283185 2.625000 -0.683671
v -0.523259 2.625000 -0.523259
v -0.683671 2.625000 -0.283186
v -0.740000 2.625000 -0.000000
v -0.683671 2.625000 0.283185
v -0.523259 2.625000 0.523259
v -0.283186 2.625000 0.683671
v -0.000000 2.625000 0.740000
v 0.283186 2.625000 0.683671
v 0.523259 2.625000 0.523259
v 0.683671 2.625000 0.283186
v 0.740000 2.625000 -0.000000
v 0.376055 3.013038 -0.155767
v 0.287820 3.013038 -0.287820
v -0.000000 3.013038 -0.000000
v 0.155767 3.013038 -0.376055
v 0.000000 3.013038 -0.407039
v -0.155767 3.013038 -0.376055
v -0.287820 3.013038 -0.287820
v -0.376055 3.013038 -0.155767
v -0.407039 3.013038 -0.000000
v -0.376055 3.013038 0.155767
v -0.287820 3.013038 0.287820
v -0.155767 3.013038 0.376055
v -0.000000 3.013038 0.407039
v 0.155767 3.013038 0.376055
v 0.287820 3.013038 0.287820
v 0.376055 3.013038 0.155767
v 0.407039 3.013038 -0.000000
v 0.592811 0.001798 -0.245550
v 0.453718 0.001798 -0.453718
v 0.000000 0.001798 0.000000
v 0.245551 0.001798 -0.592811
v 0.000000 0.001798 -0.641654
v -0.245550 0.001798 -0.592811
v -0.453718 0.001798 -0.453718
v -0.592811 0.001798 -0.245551
v -0.641654 0.001798 -0.000000
v -0.592811 0.001798 0.884292
v -0.453718 0.001798 1.092459
v -0.245550 0.001798 0.592811
v -0.000000 0.001798 0.641654
v 0.245550 0.001798 0.592811
v 0.453718 0.001798 1.092459
v 0.592811 0.001798 0.884292
v 0.641654 0.001798 0.000000
v 0.273344 0.876660 -0.932719
v 0.104408 1.009924 -0.932719
v -0.104408 1.009924 -0.932719
v -0.273344 0.876660 -0.932719
v -0.337872 0.661034 -0.932719
v -0.273344 0.445408 -0.932719
v -0.104408 0.312144 -0.932719
v 0.104408 0.312144 -0.932719
v 0.273344 0.445408 -0.932719
v 0.337872 0.661034 -0.932719
v 0.273344 0.876660 -0.166939
v 0.104408 1.009924 -0.166939
v -0.104408 1.009924 -0.166939
v -0.273344 0.876660 -0.166939
v -0.337872 0.661034 -0.166939
v -0.273344 0.445408 -0.166939
v -0.104408 0.312144 -0.166939
v 0.104408 0.312144 -0.166939
v 0.273344 0.445408 -0.166939
v 0.337872 0.661034 -0.166939
v 0.000000 0.661034 -0.932719
v 0.000000 0.661034 -0.166939
v 0.404509 1.447517 -0.245332
v 0.154508 1.629153 -0.245332
v -0.154509 1.629153 -0.245332
v -0.404509 1.447517 -0.245332
v -0.500000 1.153624 -0.245332
v -0.404509 0.859732 -0.245332
v -0.154508 0.678096 -0.245332
v 0.154509 0.678096 -0.245332
v 0.404509 0.859732 -0.245332
v 0.500000 1.153624 -0.245332
v 0.404509 1.447517 1.204669
v 0.154508 1.629153 1.204669
v -0.154509 1.629153 1.204669
v -0.404509 1.447517 1.204669
v -0.500000 1.153624 1.204669
v -0.404509 0.859732 1.204669
v -0.154508 0.678096 1.204669
v 0.154509 0.678096 1.204669
v 0.404509 0.859732 1.204669
v 0.500000 1.153624 1.204669
v 0.000000 1.153624 -0.245332
v 0.000000 1.153624 1.204669
vt 0.644356 0.096456
vt 0.610485 0.045765
vt 0.559794 0.011894
vt 0.500000 0.000000
vt 0.440206 0.011894
vt 0.389515 0.045765
vt 0.355644 0.096456
vt 0.343750 0.156250
vt 0.355644 0.216044
vt 0.389515 0.266735
vt 0.440206 0.300606
vt 0.500000 0.312500
vt 0.559794 0.300606
vt 0.610485 0.266735
vt 0.644356 0.216044
vt 0.656250 0.156250
vt 0.375000 0.312500
vt 0.390625 0.312500
vt 0.406250 0.312500
vt 0.421875 0.312500
vt 0.437500 0.312500
vt 0.453125 0.312500
vt 0.468750 0.312500
vt 0.484375 0.312500
vt 0.500000 0.312500
vt 0.515625 0.312500
vt 0.531250 0.312500
vt 0.546875 0.312500
vt 0.562500 0.312500
vt 0.578125 0.312500
vt 0.593750 0.312500
vt 0.609375 0.312500
vt 0.625000 0.312500
vt 0.375000 0.688440
vt 0.390625 0.688440
vt 0.406250 0.688440
vt 0.421875 0.688440
vt 0.437500 0.688440
vt 0.453125 0.688440
vt 0.468750 0.688440
vt 0.484375 0.688440
vt 0.500000 0.688440
vt 0.515625 0.688440
vt 0.531250 0.688440
vt 0.546875 0.688440
vt 0.562500 0.688440
vt 0.578125 0.688440
vt 0.593750 0.688440
vt 0.609375 0.688440
vt 0.625000 0.688440
vt 0.644356 0.783956
vt 0.610485 0.733265
vt 0.559794 0.699394
vt 0.500000 0.687500
vt 0.440206 0.699394
vt 0.389515 0.733265
vt 0.355644 0.783956
vt 0.343750 0.843750
vt 0.355644 0.903544
vt 0.389515 0.954235
vt 0.440206 0.988106
vt 0.500000 1.000000
vt 0.559794 0.988106
vt 0.610485 0.954235
vt 0.644356 0.903544
vt 0.656250 0.843750
vt 0.500000 0.150000
vt 0.500000 0.837500
vt 0.644356 0.903544
vt 0.610485 0.954235
vt 0.559794 0.988106
vt 0.500000 1.000000
vt 0.440206 0.988106
vt 0.389515 0.954235
vt 0.355644 0.903544
vt 0.343750 0.843750
vt 0.355644 0.783956
vt 0.389515 0.733265
vt 0.440206 0.699394
vt 0.500000 0.687500
vt 0.559794 0.699394
vt 0.610485 0.733265
vt 0.644356 0.783956
vt 0.656250 0.843750
vt 0.644356 0.903544
vt 0.610485 0.954235
vt 0.559794 0.988106
vt 0.500000 1.000000
vt 0.440206 0.988106
vt 0.389515 0.954235
vt 0.355644 0.903544
vt 0.343750 0.843750
vt 0.355644 0.783956
vt 0.389515 0.733265
vt 0.440206 0.699394
vt 0.500000 0.687500
vt 0.559794 0.699394
vt 0.610485 0.733265
vt 0.644356 0.783956
vt 0.656250 0.843750
vt 0.610485 0.045765
vt 0.644356 0.096456
vt 0.559794 0.011894
vt 0.500000 0.000000
vt 0.440206 0.011894
vt 0.389515 0.045765
vt 0.355644 0.096456
vt 0.343750 0.156250
vt 0.355644 0.216044
vt 0.389515 0.266735
vt 0.440206 0.300606
vt 0.500000 0.312500
vt 0.559794 0.300606
vt 0.610485 0.266735
vt 0.644356 0.216044
vt 0.656250 0.156250
vt 0.375000 0.312500
vt 0.400000 0.312500
vt 0.400000 0.688440
vt 0.375000 0.688440
vt 0.425000 0.312500
vt 0.425000 0.688440
vt 0.450000 0.312500
vt 0.450000 0.688440
vt 0.475000 0.312500
vt 0.475000 0.688440
vt 0.500000 0.312500
vt 0.500000 0.688440
vt 0.525000 0.312500
vt 0.525000 0.688440
vt 0.550000 0.312500
vt 0.550000 0.688440
vt 0.575000 0.312500
vt 0.575000 0.688440
vt 0.600000 0.312500
vt 0.600000 0.688440
vt 0.625000 0.312500
vt 0.625000 0.688440
vt 0.548284 0.007647
vt 0.626409 0.064409
vt 0.500000 0.150000
vt 0.451716 0.007647
vt 0.373591 0.064409
vt 0.343750 0.156250
vt 0.373591 0.248091
vt 0.451716 0.304853
vt 0.548284 0.304853
vt 0.626409 0.248091
vt 0.656250 0.156250
vt 0.626409 0.935591
vt 0.548284 0.992353
vt 0.500000 0.837500
vt 0.451716 0.992353
vt 0.373591 0.935591
vt 0.343750 0.843750
vt 0.373591 0.751909
vt 0.451716 0.695147
vt 0.548284 0.695147
vt 0.626409 0.751909
vt 0.656250 0.843750
vt 0.375000 0.312500
vt 0.400000 0.312500
vt 0.400000 0.688440
vt 0.375000 0.688440
vt 0.425000 0.312500
vt 0.425000 0.688440
vt 0.450000 0.312500
vt 0.450000 0.688440
vt 0.475000 0.312500
vt 0.475000 0.688440
vt 0.500000 0.312500
vt 0.500000 0.688440
vt 0.525000 0.312500
vt 0.525000 0.688440
vt 0.550000 0.312500
vt 0.550000 0.688440
vt 0.575000 0.312500
vt 0.575000 0.688440
vt 0.600000 0.312500
vt 0.600000 0.688440
vt 0.625000 0.312500
vt 0.625000 0.688440
vt 0.548284 0.007647
vt 0.626409 0.064409
vt 0.500000 0.150000
vt 0.451716 0.007647
vt 0.373591 0.064409
vt 0.343750 0.156250
vt 0.373591 0.248091
vt 0.451716 0.304853
vt 0.548284 0.304853
vt 0.626409 0.248091
vt 0.656250 0.156250
vt 0.626409 0.935591
vt 0.548284 0.992353
vt 0.500000 0.837500
vt 0.451716 0.992353
vt 0.373591 0.935591
vt 0.343750 0.843750
vt 0.373591 0.751909
vt 0.451716 0.695147
vt 0.548284 0.695147
vt 0.626409 0.751909
vt 0.656250 0.843750
vn 0.923110 -0.040806 -0.382365
vn 0.706518 -0.040806 -0.706518
vn 0.707107 -0.000000 -0.707106
vn 0.923880 -0.000000 -0.382683
vn 0.382365 -0.040806 -0.923110
vn 0.382684 -0.000000 -0.923879
vn 0.000001 -0.040806 -0.999167
vn 0.000001 -0.000000 -1.000000
vn -0.382364 -0.040806 -0.923110
vn -0.382683 -0.000000 -0.923880
vn -0.706518 -0.040806 -0.706518
vn -0.707107 -0.000000 -0.707107
vn -0.923110 -0.040806 -0.382365
vn -0.923879 -0.000000 -0.382684
vn -0.998929 -0.046278 -0.000000
vn -1.000000 0.000000 -0.000000
vn -0.950053 -0.020678 0.311403
vn -0.923880 0.000000 0.382683
vn -0.675407 0.120533 0.727528
vn -0.707107 0.000000 0.707107
vn -0.283876 0.029895 0.958395
vn -0.382684 0.000000 0.923880
vn -0.000000 -0.040806 0.999167
vn -0.000000 0.000000 1.000000
vn 0.283876 0.029895 0.958395
vn 0.382683 0.000000 0.923880
vn 0.675407 0.120533 0.727528
vn 0.707107 0.000000 0.707107
vn 0.950053 -0.020678 0.311404
vn 0.923880 0.000000 0.382683
vn 0.998929 -0.046278 0.000000
vn 1.000000 -0.000000 0.000000
vn 0.000000 -1.000000 0.000000
vn 0.000000 -1.000000 0.000000
vn 0.000000 -1.000000 -0.000000
vn 0.000000 -1.000000 -0.000000
vn 0.000000 -1.000000 -0.000000
vn 0.000000 -1.000000 0.000000
vn 0.000000 -1.000000 0.000000
vn 0.000000 -1.000000 0.000000
vn 0.000000 -1.000000 0.000000
vn 0.000000 -1.000000 0.000000
vn 0.000000 -1.000000 0.000000
vn 0.000000 -1.000000 -0.000000
vn 0.000000 -1.000000 -0.000000
vn 0.000000 -1.000000 -0.000000
vn 0.000000 -1.000000 0.000000
vn 0.000000 -1.000000 0.000000
vn 0.000000 -1.000000 0.000000
vn 0.000000 1.000000 0.000002
vn 0.000000 1.000000 0.000000
vn 0.000000 1.000000 0.000000
vn 0.000000 1.000000 0.000000
vn 0.000000 1.000000 0.000000
vn 0.000000 1.000000 0.000001
vn 0.000000 1.000000 0.000000
vn 0.000000 1.000000 0.000002
vn 0.000000 1.000000 0.000002
vn 0.000000 1.000000 0.000000
vn 0.000000 1.000000 0.000000
vn 0.000000 1.000000 0.000000
vn 0.000000 1.000000 0.000000
vn 0.000000 1.000000 -0.000000
vn 0.000000 1.000000 -0.000000
vn 0.000000 1.000000 -0.000002
vn 0.000000 1.000000 0.000000
vn 0.666933 0.332270 -0.666932
vn 0.871389 0.332270 -0.360941
vn 0.360941 0.332270 -0.871389
vn 0.000000 0.332270 -0.943184
vn -0.360940 0.332270 -0.871389
vn -0.666932 0.332270 -0.666933
vn -0.871389 0.332270 -0.360941
vn -0.943184 0.332270 -0.000000
vn -0.871389 0.332270 0.360941
vn -0.666932 0.332270 0.666932
vn -0.360941 0.332270 0.871389
vn -0.000000 0.332270 0.943184
vn 0.360941 0.332270 0.871389
vn 0.666932 0.332270 0.666932
vn 0.871389 0.332270 0.360941
vn 0.943184 0.332270 0.000000
vn 0.536632 0.651194 -0.536631
vn 0.701143 0.651194 -0.290422
vn 0.290423 0.651194 -0.701143
vn 0.000000 0.651194 -0.758911
vn -0.290422 0.651194 -0.701143
vn -0.536631 0.651194 -0.536632
vn -0.701143 0.651194 -0.290423
vn -0.758911 0.651194 -0.000000
vn -0.701143 0.651194 0.290423
vn -0.536632 0.651194 0.536631
vn -0.290423 0.651194 0.701143
vn 0.000000 0.651194 0.758912
vn 0.290423 0.651194 0.701143
vn 0.536631 0.651194 0.536632
vn 0.701143 0.651194 0.290423
vn 0.758912 0.651194 0.000000
vn 0.901104 -0.220675 -0.373249
vn 0.689675 -0.220675 -0.689674
vn 0.373250 -0.220675 -0.901103
vn 0.000001 -0.220675 -0.975348
vn -0.373249 -0.220675 -0.901104
vn -0.689675 -0.220675 -0.689675
vn -0.901103 -0.220675 -0.373250
vn -0.984567 -0.175005 -0.001184
vn -0.870480 0.315492 0.377795
vn -0.099075 0.626812 0.772846
vn 0.191946 0.130694 0.972664
vn -0.000000 -0.220675 0.975348
vn -0.191946 0.130693 0.972664
vn 0.099075 0.626812 0.772846
vn 0.870480 0.315493 0.377795
vn 0.984567 -0.175005 -0.001184
vn 0.619340 0.785123 0.000000
vn 0.619340 0.785123 0.000000
vn 0.619340 0.785123 0.000000
vn 0.619340 0.785123 0.000000
vn 0.000000 1.000000 0.000000
vn 0.000000 1.000000 0.000000
vn 0.000000 1.000000 0.000000
vn 0.000000 1.000000 0.000000
vn -0.619340 0.785123 0.000000
vn -0.619340 0.785123 0.000000
vn -0.619340 0.785123 0.000000
vn -0.619340 0.785123 0.000000
vn -0.958022 0.286696 0.000000
vn -0.958022 0.286696 0.000000
vn -0.958022 0.286696 0.000000
vn -0.958022 0.286696 0.000000
vn -0.958022 -0.286696 0.000000
vn -0.958022 -0.286696 0.000000
vn -0.958022 -0.286696 0.000000
vn -0.958022 -0.286696 0.000000
vn -0.619340 -0.785123 0.000000
vn -0.619340 -0.785123 0.000000
vn -0.619340 -0.785123 0.000000
vn -0.619340 -0.785123 0.000000
vn 0.000000 -1.000000 0.000000
vn 0.000000 -1.000000 0.000000
vn 0.000000 -1.000000 0.000000
vn 0.000000 -1.000000 0.000000
vn 0.619340 -0.785123 0.000000
vn 0.619340 -0.785123 0.000000
vn 0.619340 -0.785123 0.000000
vn 0.619340 -0.785123 0.000000
vn 0.958022 -0.286696 0.000000
vn 0.958022 -0.286696 0.000000
vn 0.958022 -0.286696 0.000000
vn 0.958022 -0.286696 0.000000
vn 0.958022 0.286696 0.000000
vn 0.958022 0.286696 0.000000
vn 0.958022 0.286696 0.000000
vn 0.958022 0.286696 0.000000
vn 0.000000 0.000000 -1.000000
vn 0.000000 0.000000 -1.000000
vn -0.000000 0.000000 -1.000000
vn -0.000000 0.000000 -1.000000
vn -0.000000 0.000000 -1.000000
vn 0.000000 0.000000 -1.000000
vn 0.000000 0.000000 -1.000000
vn 0.000000 0.000000 -1.000000
vn 0.000000 0.000000 -1.000000
vn 0.000000 0.000000 -1.000000
vn 0.000000 0.000000 -1.000000
vn -0.000000 0.000000 1.000000
vn -0.000000 0.000000 1.000000
vn -0.000000 0.000000 1.000000
vn 0.000000 0.000000 1.000000
vn 0.000000 0.000000 1.000000
vn 0.000000 0.000000 1.000000
vn 0.000000 0.000000 1.000000
vn 0.000000 0.000000 1.000000
vn 0.000000 0.000000 1.000000
vn 0.000000 0.000000 1.000000
vn 0.000000 0.000000 1.000000
vn 0.587785 0.809017 0.000000
vn 0.587785 0.809017 0.000000
vn 0.587785 0.809017 0.000000
vn 0.587785 0.809017 0.000000
vn -0.000000 1.000000 0.000000
vn -0.000000 1.000000 0.000000
vn -0.000000 1.000000 0.000000
vn -0.000000 1.000000 0.000000
vn -0.587785 0.809017 0.000000
vn -0.587785 0.809017 0.000000
vn -0.587785 0.809017 0.000000
vn -0.587785 0.809017 0.000000
vn -0.951057 0.309017 0.000000
vn -0.951057 0.309017 0.000000
vn -0.951057 0.309017 0.000000
vn -0.951057 0.309017 0.000000
vn -0.951057 -0.309017 0.000000
vn -0.951057 -0.309017 0.000000
vn -0.951057 -0.309017 0.000000
vn -0.951057 -0.309017 0.000000
vn -0.587785 -0.809017 0.000000
vn -0.587785 -0.809017 0.000000
vn -0.587785 -0.809017 0.000000
vn -0.587785 -0.809017 0.000000
vn 0.000000 -1.000000 0.000000
vn 0.000000 -1.000000 0.000000
vn 0.000000 -1.000000 0.000000
vn 0.000000 -1.000000 0.000000
vn 0.587785 -0.809017 0.000000
vn 0.587785 -0.809017 0.000000
vn 0.587785 -0.809017 0.000000
vn 0.587785 -0.809017 0.000000
vn 0.951057 -0.309017 0.000000
vn 0.951057 -0.309017 0.000000
vn 0.951057 -0.309017 0.000000
vn 0.951057 -0.309017 0.000000
vn 0.951057 0.309017 0.000000
vn 0.951057 0.309017 0.000000
vn 0.951057 0.309017 0.000000
vn 0.951057 0.309017 0.000000
vn 0.000000 0.000000 -1.000000
vn 0.000000 0.000000 -1.000000
vn 0.000000 0.000000 -1.000000
vn 0.000000 0.000000 -1.000000
vn 0.000000 0.000000 -1.000000
vn 0.000000 0.000000 -1.000000
vn 0.000000 0.000000 -1.000000
vn 0.000000 0.000000 -1.000000
vn 0.000000 0.000000 -1.000000
vn 0.000000 0.000000 -1.000000
vn 0.000000 0.000000 -1.000000
vn 0.000000 0.000000 1.000000
vn 0.000000 0.000000 1.000000
vn 0.000000 0.000000 1.000000
vn 0.000000 0.000000 1.000000
vn 0.000000 0.000000 1.000000
vn 0.000000 0.000000 1.000000
vn 0.000000 0.000000 1.000000
vn 0.000000 0.000000 1.000000
vn 0.000000 0.000000 1.000000
vn 0.000000 0.000000 1.000000
vn 0.000000 0.000000 1.000000
s 1
g BUILDGASHARVEST PROPS
usemtl initialShadingGroup
f 1/17/1 2/18/2 18/35/3 17/34/4
f 2/18/2 3/19/5 19/36/6 18/35/3
f 3/19/5 4/20/7 20/37/8 19/36/6
f 4/20/7 5/21/9 21/38/10 20/37/8
f 5/21/9 6/22/11 22/39/12 21/38/10
f 6/22/11 7/23/13 23/40/14 22/39/12
f 7/23/13 8/24/15 24/41/16 23/40/14
f 8/24/15 9/25/17 25/42/18 24/41/16
f 9/25/17 10/26/19 26/43/20 25/42/18
f 10/26/19 11/27/21 27/44/22 26/43/20
f 11/27/21 12/28/23 28/45/24 27/44/22
f 12/28/23 13/29/25 29/46/26 28/45/24
f 13/29/25 14/30/27 30/47/28 29/46/26
f 14/30/27 15/31/29 31/48/30 30/47/28
f 15/31/29 16/32/31 32/49/32 31/48/30
f 16/32/31 1/33/1 17/50/4 32/49/32
s 2
f 67/101/33 66/102/34 68/67/35
f 69/103/36 67/101/33 68/67/35
f 70/104/37 69/103/36 68/67/35
f 71/105/38 70/104/37 68/67/35
f 72/106/39 71/105/38 68/67/35
f 73/107/40 72/106/39 68/67/35
f 74/108/41 73/107/40 68/67/35
f 75/109/42 74/108/41 68/67/35
f 76/110/43 75/109/42 68/67/35
f 77/111/44 76/110/43 68/67/35
f 78/112/45 77/111/44 68/67/35
f 79/113/46 78/112/45 68/67/35
f 80/114/47 79/113/46 68/67/35
f 81/115/48 80/114/47 68/67/35
f 82/116/49 81/115/48 68/67/35
f 66/102/34 82/116/49 68/67/35
s 3
f 49/85/50 50/86/51 51/68/52
f 50/86/51 52/87/53 51/68/52
f 52/87/53 53/88/54 51/68/52
f 53/88/54 54/89/55 51/68/52
f 54/89/55 55/90/56 51/68/52
f 55/90/56 56/91/57 51/68/52
f 56/91/57 57/92/58 51/68/52
f 57/92/58 58/93/59 51/68/52
f 58/93/59 59/94/60 51/68/52
f 59/94/60 60/95/61 51/68/52
f 60/95/61 61/96/62 51/68/52
f 61/96/62 62/97/63 51/68/52
f 62/97/63 63/98/64 51/68/52
f 63/98/64 64/99/65 51/68/52
f 64/99/65 65/100/66 51/68/52
f 65/100/66 49/85/50 51/68/52
s 1
f 17/65/4 18/64/3 34/70/67 33/69/68
f 18/64/3 19/63/6 35/71/69 34/70/67
f 19/63/6 20/62/8 36/72/70 35/71/69
f 20/62/8 21/61/10 37/73/71 36/72/70
f 21/61/10 22/60/12 38/74/72 37/73/71
f 22/60/12 23/59/14 39/75/73 38/74/72
f 23/59/14 24/58/16 40/76/74 39/75/73
f 24/58/16 25/57/18 41/77/75 40/76/74
f 25/57/18 26/56/20 42/78/76 41/77/75
f 26/56/20 27/55/22 43/79/77 42/78/76
f 27/55/22 28/54/24 44/80/78 43/79/77
f 28/54/24 29/53/26 45/81/79 44/80/78
f 29/53/26 30/52/28 46/82/80 45/81/79
f 30/52/28 31/51/30 47/83/81 46/82/80
f 31/51/30 32/66/32 48/84/82 47/83/81
f 32/66/32 17/65/4 33/69/68 48/84/82
f 33/69/68 34/70/67 50/86/83 49/85/84
f 34/70/67 35/71/69 52/87/85 50/86/83
f 35/71/69 36/72/70 53/88/86 52/87/85
f 36/72/70 37/73/71 54/89/87 53/88/86
f 37/73/71 38/74/72 55/90/88 54/89/87
f 38/74/72 39/75/73 56/91/89 55/90/88
f 39/75/73 40/76/74 57/92/90 56/91/89
f 40/76/74 41/77/75 58/93/91 57/92/90
f 41/77/75 42/78/76 59/94/92 58/93/91
f 42/78/76 43/79/77 60/95/93 59/94/92
f 43/79/77 44/80/78 61/96/94 60/95/93
f 44/80/78 45/81/79 62/97/95 61/96/94
f 45/81/79 46/82/80 63/98/96 62/97/95
f 46/82/80 47/83/81 64/99/97 63/98/96
f 47/83/81 48/84/82 65/100/98 64/99/97
f 48/84/82 33/69/68 49/85/84 65/100/98
f 2/2/2 1/1/1 66/102/99 67/101/100
f 3/3/5 2/2/2 67/101/100 69/103/101
f 4/4/7 3/3/5 69/103/101 70/104/102
f 5/5/9 4/4/7 70/104/102 71/105/103
f 6/6/11 5/5/9 71/105/103 72/106/104
f 7/7/13 6/6/11 72/106/104 73/107/105
f 8/8/15 7/7/13 73/107/105 74/108/106
f 9/9/17 8/8/15 74/108/106 75/109/107
f 10/10/19 9/9/17 75/109/107 76/110/108
f 11/11/21 10/10/19 76/110/108 77/111/109
f 12/12/23 11/11/21 77/111/109 78/112/110
f 13/13/25 12/12/23 78/112/110 79/113/111
f 14/14/27 13/13/25 79/113/111 80/114/112
f 15/15/29 14/14/27 80/114/112 81/115/113
f 16/16/31 15/15/29 81/115/113 82/116/114
f 1/1/1 16/16/31 82/116/114 66/102/99
s off
f 83/117/115 84/118/116 94/119/117 93/120/118
f 84/118/119 85/121/120 95/122/121 94/119/122
f 85/121/123 86/123/124 96/124/125 95/122/126
f 86/123/127 87/125/128 97/126/129 96/124/130
f 87/125/131 88/127/132 98/128/133 97/126/134
f 88/127/135 89/129/136 99/130/137 98/128/138
f 89/129/139 90/131/140 100/132/141 99/130/142
f 90/131/143 91/133/144 101/134/145 100/132/146
f 91/133/147 92/135/148 102/136/149 101/134/150
f 92/135/151 83/137/152 93/138/153 102/136/154
s 4
f 84/139/155 83/140/156 103/141/157
f 85/142/158 84/139/155 103/141/157
f 86/143/159 85/142/158 103/141/157
f 87/144/160 86/143/159 103/141/157
f 88/145/161 87/144/160 103/141/157
f 89/146/162 88/145/161 103/141/157
f 90/147/163 89/146/162 103/141/157
f 91/148/164 90/147/163 103/141/157
f 92/149/165 91/148/164 103/141/157
f 83/140/156 92/149/165 103/141/157
s 5
f 93/150/166 94/151/167 104/152/168
f 94/151/167 95/153/169 104/152/168
f 95/153/169 96/154/170 104/152/168
f 96/154/170 97/155/171 104/152/168
f 97/155/171 98/156/172 104/152/168
f 98/156/172 99/157/173 104/152/168
f 99/157/173 100/158/174 104/152/168
f 100/158/174 101/159/175 104/152/168
f 101/159/175 102/160/176 104/152/168
f 102/160/176 93/150/166 104/152/168
s off
f 105/161/177 106/162/178 116/163/179 115/164/180
f 106/162/181 107/165/182 117/166/183 116/163/184
f 107/165/185 108/167/186 118/168/187 117/166/188
f 108/167/189 109/169/190 119/170/191 118/168/192
f 109/169/193 110/171/194 120/172/195 119/170/196
f 110/171/197 111/173/198 121/174/199 120/172/200
f 111/173/201 112/175/202 122/176/203 121/174/204
f 112/175/205 113/177/206 123/178/207 122/176/208
f 113/177/209 114/179/210 124/180/211 123/178/212
f 114/179/213 105/181/214 115/182/215 124/180/216
s 6
f 106/183/217 105/184/218 125/185/219
f 107/186/220 106/183/217 125/185/219
f 108/187/221 107/186/220 125/185/219
f 109/188/222 108/187/221 125/185/219
f 110/189/223 109/188/222 125/185/219
f 111/190/224 110/189/223 125/185/219
f 112/191/225 111/190/224 125/185/219
f 113/192/226 112/191/225 125/185/219
f 114/193/227 113/192/226 125/185/219
f 105/184/218 114/193/227 125/185/219
s 7
f 115/194/228 116/195/229 126/196/230
f 116/195/229 117/197/231 126/196/230
f 117/197/231 118/198/232 126/196/230
f 118/198/232 119/199/233 126/196/230
f 119/199/233 120/200/234 126/196/230
f 120/200/234 121/201/235 126/196/230
f 121/201/235 122/202/236 126/196/230
f 122/202/236 123/203/237 126/196/230
f 123/203/237 124/204/238 126/196/230
f 124/204/238 115/194/228 126/196/230
