# This file uses centimeters as units for non-parametric coordinates.

mtllib STATUE_SHIP_B.mtl
g default
v -0.245000 1.023297 0.258082
v 0.245000 1.023297 0.258082
v -0.245000 1.086208 0.282054
v 0.245000 1.086208 0.282054
v -0.027969 1.332205 -0.399180
v 0.027969 1.332205 -0.399180
v -0.027969 1.293010 -0.414115
v 0.027969 1.293010 -0.414115
v 0.172753 1.163505 0.079195
v -0.172753 1.163505 0.079195
v -0.172753 1.100595 0.055223
v 0.172753 1.100595 0.055223
v 0.411438 1.103915 0.080043
v 0.422896 1.091657 0.112213
v 0.411438 1.144511 0.095511
v 0.422896 1.132253 0.127681
v -0.412250 1.105922 0.083417
v -0.422084 1.095401 0.111030
v -0.422084 1.130245 0.124307
v -0.412250 1.140767 0.096694
v -0.075443 1.145198 0.304531
v 0.075443 1.145198 0.304531
v 0.053196 1.222496 0.101672
v -0.053196 1.222496 0.101672
v -0.008297 0.846300 0.068905
v 0.008297 0.846300 0.068905
v 0.011767 0.842588 0.078648
v -0.011767 0.842588 0.078648
v 0.028666 1.050936 0.133183
v -0.028666 1.050936 0.133183
v -0.040655 1.038110 0.166845
v 0.040655 1.038110 0.166845
v -0.217928 0.005110 0.217928
v 0.217928 0.005110 0.217928
v -0.217010 0.850378 0.217010
v 0.217010 0.850378 0.217010
v -0.217010 0.850378 -0.217010
v 0.217010 0.850378 -0.217010
v -0.217928 0.005110 -0.217928
v 0.217928 0.005110 -0.217928
vt 0.375000 0.000000
vt 0.625000 0.000000
vt 0.375000 0.250000
vt 0.625000 0.250000
vt 0.375000 0.500000
vt 0.625000 0.500000
vt 0.375000 0.750000
vt 0.625000 0.750000
vt 0.375000 1.000000
vt 0.625000 1.000000
vt 0.875000 0.000000
vt 0.875000 0.250000
vt 0.125000 0.000000
vt 0.125000 0.250000
vt 0.625000 0.340261
vt 0.715261 0.250000
vt 0.284739 0.250000
vt 0.375000 0.340261
vt 0.284739 0.000000
vt 0.375000 0.909739
vt 0.625000 0.909739
vt 0.715261 0.000000
vt 0.625000 0.000000
vt 0.715261 0.000000
vt 0.715261 0.250000
vt 0.625000 0.250000
vt 0.284739 0.000000
vt 0.375000 0.000000
vt 0.375000 0.250000
vt 0.284739 0.250000
vt 0.375000 0.250000
vt 0.625000 0.250000
vt 0.625000 0.340261
vt 0.375000 0.340261
vt 0.375000 0.909739
vt 0.625000 0.909739
vt 0.625000 1.000000
vt 0.375000 1.000000
vt 0.625000 0.909739
vt 0.375000 0.909739
vt 0.375000 1.000000
vt 0.625000 1.000000
vt 0.375000 0.000000
vt 0.625000 0.000000
vt 0.625000 0.250000
vt 0.375000 0.250000
vt 0.625000 0.500000
vt 0.375000 0.500000
vt 0.625000 0.750000
vt 0.375000 0.750000
vt 0.625000 1.000000
vt 0.375000 1.000000
vt 0.875000 0.000000
vt 0.875000 0.250000
vt 0.125000 0.000000
vt 0.125000 0.250000
vn 0.000000 -0.356066 0.934461
vn 0.000000 -0.356066 0.934461
vn 0.000000 -0.356066 0.934461
vn 0.000000 -0.356066 0.934461
vn 0.000000 0.934460 0.356067
vn 0.000000 0.934460 0.356067
vn 0.000000 0.934460 0.356067
vn 0.000000 0.934460 0.356067
vn 0.000000 0.356064 -0.934462
vn 0.000000 0.356064 -0.934462
vn 0.000000 0.356064 -0.934462
vn 0.000000 0.356064 -0.934462
vn 0.000000 -0.934460 -0.356069
vn 0.000000 -0.934460 -0.356069
vn 0.000000 -0.934460 -0.356069
vn 0.000000 -0.934460 -0.356069
vn 0.948833 0.112438 -0.295081
vn 0.948834 0.112438 -0.295081
vn 0.948833 0.112438 -0.295081
vn 0.948833 0.112438 -0.295081
vn -0.948833 0.112438 -0.295082
vn -0.948833 0.112438 -0.295082
vn -0.948833 0.112438 -0.295082
vn -0.948833 0.112438 -0.295082
vn 0.000000 0.943076 0.332577
vn 0.000000 0.943076 0.332577
vn 0.000000 0.943076 0.332577
vn 0.000000 0.943076 0.332577
vn -0.961574 0.097756 -0.256553
vn -0.961574 0.097756 -0.256553
vn -0.961574 0.097756 -0.256553
vn -0.961574 0.097756 -0.256553
vn 0.000000 -0.925261 -0.379332
vn 0.000000 -0.925261 -0.379332
vn 0.000000 -0.925261 -0.379332
vn 0.000000 -0.925261 -0.379332
vn 0.961574 0.097756 -0.256553
vn 0.961574 0.097756 -0.256553
vn 0.961574 0.097756 -0.256553
vn 0.961574 0.097756 -0.256553
vn 0.051533 -0.926975 -0.371567
vn 0.051533 -0.926975 -0.371567
vn 0.051533 -0.926975 -0.371567
vn 0.051533 -0.926975 -0.371567
vn 0.091827 0.354560 -0.930513
vn 0.091827 0.354560 -0.930513
vn 0.091827 0.354560 -0.930513
vn 0.091827 0.354560 -0.930513
vn 0.051532 0.939188 0.339514
vn 0.051532 0.939188 0.339514
vn 0.051532 0.939188 0.339514
vn 0.051532 0.939188 0.339514
vn 0.670217 -0.264259 0.693525
vn 0.670217 -0.264259 0.693525
vn 0.670217 -0.264259 0.693525
vn 0.670217 -0.264259 0.693525
vn -0.064758 -0.924608 -0.375375
vn -0.064758 -0.924608 -0.375375
vn -0.064758 -0.924608 -0.375375
vn -0.064758 -0.924608 -0.375375
vn -0.677440 -0.261914 0.687369
vn -0.677440 -0.261914 0.687369
vn -0.677440 -0.261914 0.687369
vn -0.677440 -0.261914 0.687369
vn -0.064756 0.939956 0.335096
vn -0.064756 0.939956 0.335096
vn -0.064756 0.939956 0.335096
vn -0.064756 0.939956 0.335096
vn -0.101558 0.354225 -0.929630
vn -0.101558 0.354225 -0.929630
vn -0.101558 0.354225 -0.929629
vn -0.101558 0.354225 -0.929630
vn 0.000000 -0.356066 0.934461
vn 0.000000 -0.356066 0.934461
vn 0.000000 -0.356066 0.934461
vn 0.000000 -0.356066 0.934461
vn 0.398693 0.884031 0.243992
vn 0.398693 0.884031 0.243992
vn 0.398693 0.884031 0.243992
vn 0.398693 0.884031 0.243992
vn 0.000000 0.356066 -0.934461
vn 0.000000 0.356066 -0.934461
vn 0.000000 0.356066 -0.934461
vn 0.000000 0.356066 -0.934461
vn -0.398693 0.884031 0.243993
vn -0.398693 0.884031 0.243993
vn -0.398693 0.884031 0.243993
vn -0.398693 0.884031 0.243993
vn 0.000000 -0.843429 -0.537240
vn 0.000000 -0.843429 -0.537240
vn 0.000000 -0.706958 -0.707255
vn 0.000000 -0.706958 -0.707255
vn 0.106347 -0.915971 -0.386895
vn 0.106347 -0.915971 -0.386895
vn 0.238980 -0.876016 -0.418908
vn 0.280011 -0.859662 -0.427288
vn 0.000000 -0.987076 -0.160252
vn 0.000000 -0.987076 -0.160252
vn 0.000000 -0.999130 0.041702
vn 0.000000 -0.999130 0.041702
vn -0.106347 -0.915971 -0.386895
vn -0.106347 -0.915971 -0.386895
vn -0.280011 -0.859662 -0.427289
vn -0.238981 -0.876016 -0.418908
vn 0.000000 0.299675 -0.954041
vn 0.000000 0.299675 -0.954041
vn -0.943234 0.010387 -0.331968
vn -0.943234 0.010387 -0.331968
vn 0.000000 -0.411188 0.911551
vn 0.000000 -0.411188 0.911551
vn 0.943234 0.010387 -0.331967
vn 0.943234 0.010387 -0.331967
vn 0.000000 0.001086 0.999999
vn 0.000000 0.001086 0.999999
vn 0.000000 0.001086 0.999999
vn 0.000000 0.001086 0.999999
vn 0.000000 1.000000 0.000000
vn 0.000000 1.000000 0.000000
vn 0.000000 1.000000 0.000000
vn 0.000000 1.000000 0.000000
vn 0.000000 0.001086 -0.999999
vn 0.000000 0.001086 -0.999999
vn 0.000000 0.001086 -0.999999
vn 0.000000 0.001086 -0.999999
vn 0.000000 -1.000000 0.000000
vn 0.000000 -1.000000 0.000000
vn 0.000000 -1.000000 0.000000
vn 0.000000 -1.000000 0.000000
vn 0.999999 0.001086 0.000000
vn 0.999999 0.001086 0.000000
vn 0.999999 0.001086 0.000000
vn 0.999999 0.001086 0.000000
vn -0.999999 0.001086 0.000000
vn -0.999999 0.001086 0.000000
vn -0.999999 0.001086 0.000000
vn -0.999999 0.001086 0.000000
s off
g STATUE_SHIP_B
usemtl initialShadingGroup
f 1/1/1 2/2/2 4/4/3 3/3/4
f 21/31/5 22/32/6 23/33/7 24/34/8
f 5/5/9 6/6/10 8/8/11 7/7/12
f 25/35/13 26/36/14 27/37/15 28/38/16
f 14/23/17 13/24/18 15/25/19 16/26/20
f 17/27/21 18/28/22 19/29/23 20/30/24
f 10/18/25 9/15/26 6/6/27 5/5/28
f 7/13/29 11/19/30 10/17/31 5/14/32
f 7/7/33 8/8/34 12/21/35 11/20/36
f 9/16/37 12/22/38 8/11/39 6/12/40
f 2/2/41 12/22/42 13/24/43 14/23/44
f 12/22/45 9/16/46 15/25/47 13/24/48
f 9/16/49 4/4/50 16/26/51 15/25/52
f 4/4/53 2/2/54 14/23/55 16/26/56
f 11/19/57 1/1/58 18/28/59 17/27/60
f 1/1/61 3/3/62 19/29/63 18/28/64
f 3/3/65 10/17/66 20/30/67 19/29/68
f 10/17/69 11/19/70 17/27/71 20/30/72
f 3/3/73 4/4/74 22/32/75 21/31/76
f 4/4/77 9/15/78 23/33/79 22/32/80
f 9/15/81 10/18/82 24/34/83 23/33/84
f 10/18/85 3/3/86 21/31/87 24/34/88
s 1
f 11/20/89 12/21/90 29/39/91 30/40/92
s 2
f 12/21/93 2/10/94 32/42/95 29/39/96
s 3
f 2/10/97 1/9/98 31/41/99 32/42/100
s 4
f 1/9/101 11/20/102 30/40/103 31/41/104
s 1
f 30/40/92 29/39/91 26/36/105 25/35/106
s 4
f 31/41/104 30/40/103 25/35/107 28/38/108
s 3
f 32/42/100 31/41/99 28/38/109 27/37/110
s 2
f 29/39/96 32/42/95 27/37/111 26/36/112
s off
f 33/43/113 34/44/114 36/45/115 35/46/116
f 35/46/117 36/45/118 38/47/119 37/48/120
f 37/48/121 38/47/122 40/49/123 39/50/124
f 39/50/125 40/49/126 34/51/127 33/52/128
f 34/44/129 40/53/130 38/54/131 36/45/132
f 39/55/133 33/43/134 35/46/135 37/56/136
