# This file uses centimeters as units for non-parametric coordinates.

mtllib L_FLOOR_Q.mtl
g default
v -1.216644 -0.191816 -1.225222
v -1.329885 -0.147960 -1.225222
v -1.216648 -0.147960 -1.338460
v -1.216648 -0.147960 1.332153
v -1.329886 -0.147960 1.218910
v -1.216646 -0.191815 1.218910
v -1.216648 0.155502 -1.338455
v -1.329885 0.155502 -1.225222
v -1.216647 0.199357 -1.225222
v -1.216646 0.199357 1.218912
v -1.329884 0.155502 1.218915
v -1.216645 0.155502 1.332155
v 1.209931 0.155501 -1.338460
v 1.209929 0.199357 -1.225222
v 1.323168 0.155502 -1.225222
v 1.323170 0.155502 1.218910
v 1.209932 0.199356 1.218915
v 1.209930 0.155501 1.332148
v 1.209932 -0.147961 -1.338460
v 1.323170 -0.147960 -1.225217
v 1.209931 -0.191816 -1.225222
v 1.209932 -0.191816 1.218910
v 1.323170 -0.147960 1.218910
v 1.209934 -0.147961 1.332148
v -1.087645 0.199357 1.088977
v -1.087646 0.199357 -1.095287
v 1.080931 0.199356 1.088980
v 1.080928 0.199357 -1.095287
v -1.087645 0.132950 1.088977
v -1.087646 0.132950 -1.095287
v 1.080931 0.132949 1.088980
v 1.080928 0.132950 -1.095287
v -1.009442 0.132950 1.010209
v -1.009443 0.132950 -1.016519
v 1.002728 0.132949 1.010212
v 1.002726 0.132950 -1.016519
v -0.929495 0.204970 0.929684
v -0.929496 0.204970 -0.935993
v 0.922781 0.204969 0.929686
v 0.922778 0.204970 -0.935993
v 0.163775 -0.207659 0.165185
v 0.163775 -0.207659 -0.171497
v -0.170489 -0.207659 0.165185
v -0.170489 -0.207659 -0.171497
v 0.163775 -0.322764 0.165185
v 0.163775 -0.322764 -0.171497
v -0.170489 -0.322764 0.165185
v -0.170489 -0.322764 -0.171497
v 0.040025 -0.322764 0.040540
v 0.040025 -0.322764 -0.046852
v -0.046739 -0.322764 0.040540
v -0.046739 -0.322764 -0.046852
v 0.040025 -0.401467 0.040540
v 0.040025 -0.401467 -0.046852
v -0.046739 -0.401467 0.040540
v -0.046739 -0.401467 -0.046852
vt 0.337082 0.994689
vt 0.330000 0.994689
vt 0.330000 0.755311
vt 0.337082 0.755311
vt 0.337082 0.062494
vt 0.337082 0.000000
vt 0.656251 0.000000
vt 0.656251 0.062494
vt 0.322989 0.062494
vt 0.337082 0.187507
vt 0.322989 0.187507
vt 0.663333 0.994689
vt 0.656251 0.994689
vt 0.656251 0.755311
vt 0.663333 0.755311
vt 0.670486 0.062494
vt 0.670486 0.187506
vt 0.656252 0.187506
vt 0.330000 0.255311
vt 0.337082 0.255311
vt 0.337082 0.494689
vt 0.330000 0.494689
vt 0.656252 0.255311
vt 0.663333 0.255312
vt 0.663333 0.494689
vt 0.656252 0.494689
vt 0.330000 0.562494
vt 0.337082 0.562494
vt 0.337082 0.687506
vt 0.330000 0.687507
vt 0.656251 0.562494
vt 0.663333 0.562494
vt 0.663333 0.687507
vt 0.656251 0.687506
vt 0.992847 0.062493
vt 0.992847 0.187506
vt 0.007011 0.062493
vt 0.007011 0.187506
vt 0.337082 0.255311
vt 0.656252 0.255311
vt 0.656252 0.494689
vt 0.337082 0.494689
vt 0.337082 0.255311
vt 0.656252 0.255311
vt 0.656252 0.494689
vt 0.337082 0.494689
vt 0.337082 0.255311
vt 0.656252 0.255311
vt 0.656252 0.494689
vt 0.337082 0.494689
vt 0.337082 0.255311
vt 0.656252 0.255311
vt 0.656252 0.494689
vt 0.337082 0.494689
vt 0.337082 0.755311
vt 0.656251 0.755311
vt 0.656251 0.994689
vt 0.337082 0.994689
vt 0.337082 0.755311
vt 0.656251 0.755311
vt 0.656251 0.994689
vt 0.337082 0.994689
vt 0.337082 0.755311
vt 0.656251 0.755311
vt 0.656251 0.994689
vt 0.337082 0.994689
vt 0.337082 0.755311
vt 0.656251 0.755311
vt 0.656251 0.994689
vt 0.337082 0.994689
vn -0.000000 -0.932509 -0.361148
vn -0.000000 -0.932509 -0.361148
vn -0.000000 -0.932509 -0.361148
vn -0.000000 -0.932509 -0.361148
vn -0.361141 -0.932511 -0.000000
vn -0.361141 -0.932511 -0.000000
vn -0.361141 -0.932511 -0.000000
vn -0.361141 -0.932511 -0.000000
vn -0.707102 0.000006 -0.707112
vn -0.707102 0.000006 -0.707112
vn -0.707102 0.000006 -0.707112
vn -0.707102 0.000006 -0.707112
vn 0.000000 -0.932513 0.361137
vn 0.000000 -0.932513 0.361137
vn 0.000000 -0.932513 0.361137
vn 0.000000 -0.932513 0.361137
vn -0.707116 -0.000003 0.707097
vn -0.707116 -0.000003 0.707097
vn -0.707116 -0.000003 0.707097
vn -0.707116 -0.000003 0.707097
vn -0.000000 0.932506 -0.361155
vn -0.000000 0.932506 -0.361155
vn -0.000000 0.932506 -0.361155
vn -0.000000 0.932506 -0.361155
vn -0.361144 0.932510 0.000000
vn -0.361144 0.932510 0.000000
vn -0.361144 0.932510 0.000000
vn -0.361144 0.932510 0.000000
vn 0.000001 0.932510 0.361144
vn 0.000001 0.932510 0.361144
vn 0.000001 0.932510 0.361144
vn 0.000001 0.932510 0.361144
vn 0.707116 -0.000003 -0.707098
vn 0.707116 -0.000003 -0.707098
vn 0.707116 -0.000003 -0.707098
vn 0.707116 -0.000003 -0.707098
vn 0.361139 0.932512 -0.000000
vn 0.361139 0.932512 -0.000000
vn 0.361139 0.932512 -0.000000
vn 0.361139 0.932512 -0.000000
vn 0.707106 0.000005 0.707107
vn 0.707106 0.000005 0.707107
vn 0.707106 0.000005 0.707107
vn 0.707106 0.000005 0.707107
vn 0.361149 -0.932508 -0.000000
vn 0.361149 -0.932508 -0.000000
vn 0.361149 -0.932508 -0.000000
vn 0.361149 -0.932508 -0.000000
vn -1.000000 0.000003 0.000000
vn -1.000000 0.000003 0.000000
vn -1.000000 0.000003 0.000000
vn -1.000000 0.000003 0.000000
vn 0.000000 1.000000 0.000000
vn 0.000000 1.000000 0.000000
vn 0.000000 1.000000 0.000000
vn 0.000000 1.000000 0.000000
vn 1.000000 0.000003 -0.000000
vn 1.000000 0.000003 -0.000000
vn 1.000000 0.000003 -0.000000
vn 1.000000 0.000003 -0.000000
vn 0.000000 -1.000000 0.000000
vn 0.000000 -1.000000 0.000000
vn 0.000000 -1.000000 0.000000
vn 0.000000 -1.000000 0.000000
vn 0.000003 -0.000003 1.000000
vn 0.000003 -0.000003 1.000000
vn 0.000003 -0.000003 1.000000
vn 0.000003 -0.000003 1.000000
vn -0.000001 0.000008 -1.000000
vn -0.000001 0.000008 -1.000000
vn -0.000001 0.000008 -1.000000
vn -0.000001 0.000008 -1.000000
vn -0.339671 -0.877068 -0.339668
vn -0.339671 -0.877068 -0.339668
vn -0.339671 -0.877068 -0.339668
vn -0.339669 -0.877075 0.339654
vn -0.339669 -0.877075 0.339654
vn -0.339669 -0.877075 0.339654
vn -0.339670 0.877063 -0.339683
vn -0.339670 0.877063 -0.339683
vn -0.339670 0.877063 -0.339683
vn -0.339664 0.877074 0.339662
vn -0.339664 0.877074 0.339662
vn -0.339664 0.877074 0.339662
vn 0.339669 0.877067 -0.339673
vn 0.339669 0.877068 -0.339673
vn 0.339669 0.877068 -0.339673
vn 0.339675 0.877059 0.339689
vn 0.339675 0.877059 0.339689
vn 0.339675 0.877059 0.339689
vn 0.339691 -0.877061 -0.339667
vn 0.339691 -0.877061 -0.339667
vn 0.339691 -0.877061 -0.339667
vn 0.339679 -0.877066 0.339666
vn 0.339679 -0.877066 0.339665
vn 0.339679 -0.877066 0.339666
vn 0.000000 1.000000 -0.000000
vn 0.000000 1.000000 -0.000000
vn 0.000000 1.000000 -0.000000
vn 0.000000 1.000000 -0.000000
vn 0.000000 1.000000 -0.000000
vn 0.000000 1.000000 -0.000000
vn 0.000000 1.000000 -0.000000
vn 0.000000 1.000000 -0.000000
vn 0.000000 1.000000 0.000000
vn 0.000000 1.000000 0.000000
vn 0.000000 1.000000 0.000000
vn 0.000000 1.000000 0.000000
vn 0.000000 1.000000 0.000001
vn 0.000000 1.000000 0.000001
vn 0.000000 1.000000 0.000001
vn 0.000000 1.000000 0.000001
vn 1.000000 0.000000 -0.000000
vn 1.000000 0.000000 -0.000000
vn 1.000000 0.000000 -0.000000
vn 1.000000 0.000000 -0.000000
vn 0.000001 0.000000 -1.000000
vn 0.000001 0.000000 -1.000000
vn 0.000001 0.000000 -1.000000
vn 0.000001 0.000000 -1.000000
vn -1.000000 0.000000 0.000001
vn -1.000000 0.000000 0.000001
vn -1.000000 0.000000 0.000001
vn -1.000000 0.000000 0.000001
vn 0.000000 0.000000 1.000000
vn 0.000000 0.000000 1.000000
vn 0.000000 0.000000 1.000000
vn 0.000000 0.000000 1.000000
vn 0.000000 1.000000 0.000000
vn 0.000000 1.000000 0.000000
vn 0.000000 1.000000 0.000000
vn 0.000000 1.000000 0.000000
vn 0.000000 1.000000 -0.000000
vn 0.000000 1.000000 -0.000000
vn 0.000000 1.000000 -0.000000
vn 0.000000 1.000000 -0.000000
vn 0.000000 1.000000 0.000000
vn 0.000000 1.000000 0.000000
vn 0.000000 1.000000 0.000000
vn 0.000000 1.000000 0.000000
vn 0.000000 1.000000 0.000000
vn 0.000000 1.000000 0.000000
vn 0.000000 1.000000 0.000000
vn 0.000000 1.000000 0.000000
vn -0.669310 0.742983 0.000000
vn -0.669310 0.742983 0.000000
vn -0.669310 0.742983 0.000000
vn -0.669310 0.742983 0.000000
vn -0.000000 0.745377 0.666644
vn -0.000000 0.745377 0.666644
vn -0.000000 0.745377 0.666644
vn -0.000000 0.745377 0.666644
vn 0.669311 0.742982 -0.000001
vn 0.669311 0.742982 -0.000001
vn 0.669311 0.742982 -0.000001
vn 0.669311 0.742982 -0.000001
vn 0.000000 0.745377 -0.666643
vn 0.000000 0.745377 -0.666643
vn 0.000000 0.745377 -0.666643
vn 0.000000 0.745377 -0.666643
vn 0.015142 -0.999885 -0.000000
vn 0.015142 -0.999885 -0.000000
vn 0.015142 -0.999885 -0.000000
vn 0.015142 -0.999885 -0.000000
vn -0.000000 -0.999887 0.015034
vn -0.000000 -0.999887 0.015034
vn -0.000000 -0.999887 0.015034
vn -0.000000 -0.999887 0.015034
vn -0.015143 -0.999885 0.000000
vn -0.015143 -0.999885 0.000000
vn -0.015143 -0.999885 0.000000
vn -0.015143 -0.999885 0.000000
vn 0.000000 -0.999887 -0.015034
vn 0.000000 -0.999887 -0.015034
vn 0.000000 -0.999887 -0.015034
vn 0.000000 -0.999887 -0.015034
vn 1.000000 -0.000000 0.000000
vn 1.000000 -0.000000 0.000000
vn 1.000000 -0.000000 0.000000
vn 1.000000 -0.000000 0.000000
vn 0.000000 0.000000 1.000000
vn 0.000000 0.000000 1.000000
vn 0.000000 0.000000 1.000000
vn 0.000000 0.000000 1.000000
vn -1.000000 0.000000 -0.000000
vn -1.000000 0.000000 -0.000000
vn -1.000000 0.000000 -0.000000
vn -1.000000 0.000000 -0.000000
vn 0.000000 -0.000000 -1.000000
vn 0.000000 -0.000000 -1.000000
vn 0.000000 -0.000000 -1.000000
vn 0.000000 -0.000000 -1.000000
vn -0.000000 -1.000000 0.000000
vn -0.000000 -1.000000 0.000000
vn -0.000000 -1.000000 0.000000
vn -0.000000 -1.000000 0.000000
vn -0.000000 -1.000000 0.000000
vn -0.000000 -1.000000 0.000000
vn -0.000000 -1.000000 0.000000
vn -0.000000 -1.000000 0.000000
vn 0.000000 -1.000000 0.000000
vn 0.000000 -1.000000 0.000000
vn 0.000000 -1.000000 0.000000
vn 0.000000 -1.000000 0.000000
vn 0.000000 -1.000000 0.000001
vn 0.000000 -1.000000 0.000001
vn 0.000000 -1.000000 0.000001
vn 0.000000 -1.000000 0.000001
vn 1.000000 0.000000 0.000000
vn 1.000000 0.000000 0.000000
vn 1.000000 0.000000 0.000000
vn 1.000000 0.000000 0.000000
vn 0.000000 0.000000 1.000000
vn 0.000000 0.000000 1.000000
vn 0.000000 0.000000 1.000000
vn 0.000000 0.000000 1.000000
vn -1.000000 0.000000 0.000000
vn -1.000000 0.000000 0.000000
vn -1.000000 0.000000 0.000000
vn -1.000000 0.000000 0.000000
vn 0.000000 0.000000 -1.000000
vn 0.000000 0.000000 -1.000000
vn 0.000000 0.000000 -1.000000
vn 0.000000 0.000000 -1.000000
s off
g L_FLOOR_Q LIGHT_FLOORS
usemtl initialShadingGroup
f 1/1/1 3/2/2 19/3/3 21/4/4
f 2/5/5 1/6/6 6/7/7 5/8/8
f 3/9/9 2/5/10 8/10/11 7/11/12
f 4/12/13 6/13/14 22/14/15 24/15/16
f 5/8/17 4/16/18 12/17/19 11/18/20
f 7/19/21 9/20/22 14/21/23 13/22/24
f 9/20/25 8/10/26 11/18/27 10/23/28
f 10/23/29 12/24/30 18/25/31 17/26/32
f 13/27/33 15/28/34 20/29/35 19/30/36
f 15/28/37 14/21/38 17/26/39 16/31/40
f 16/31/41 18/32/42 24/33/43 23/34/44
f 21/4/45 20/29/46 23/34/47 22/14/48
f 2/5/49 5/8/50 11/18/51 8/10/52
f 38/51/53 37/52/54 39/53/55 40/54/56
f 15/28/57 16/31/58 23/34/59 20/29/60
f 54/67/61 53/68/62 55/69/63 56/70/64
f 4/16/65 24/35/66 18/36/67 12/17/68
f 19/37/69 3/9/70 7/11/71 13/38/72
f 1/6/73 2/5/74 3/9/75
f 4/16/76 5/8/77 6/7/78
f 7/11/79 8/10/80 9/20/81
f 10/23/82 11/18/83 12/17/84
f 13/22/85 14/21/86 15/28/87
f 16/31/88 17/26/89 18/25/90
f 19/30/91 20/29/92 21/4/93
f 22/14/94 23/34/95 24/33/96
f 9/20/97 10/23/98 25/40/99 26/39/100
f 10/23/101 17/26/102 27/41/103 25/40/104
f 17/26/105 14/21/106 28/42/107 27/41/108
f 14/21/109 9/20/110 26/39/111 28/42/112
f 26/39/113 25/40/114 29/44/115 30/43/116
f 25/40/117 27/41/118 31/45/119 29/44/120
f 27/41/121 28/42/122 32/46/123 31/45/124
f 28/42/125 26/39/126 30/43/127 32/46/128
f 30/43/129 29/44/130 33/48/131 34/47/132
f 29/44/133 31/45/134 35/49/135 33/48/136
f 31/45/137 32/46/138 36/50/139 35/49/140
f 32/46/141 30/43/142 34/47/143 36/50/144
f 34/47/145 33/48/146 37/52/147 38/51/148
f 33/48/149 35/49/150 39/53/151 37/52/152
f 35/49/153 36/50/154 40/54/155 39/53/156
f 36/50/157 34/47/158 38/51/159 40/54/160
f 21/4/161 22/14/162 41/56/163 42/55/164
f 22/14/165 6/13/166 43/57/167 41/56/168
f 6/13/169 1/1/170 44/58/171 43/57/172
f 1/1/173 21/4/174 42/55/175 44/58/176
f 42/55/177 41/56/178 45/60/179 46/59/180
f 41/56/181 43/57/182 47/61/183 45/60/184
f 43/57/185 44/58/186 48/62/187 47/61/188
f 44/58/189 42/55/190 46/59/191 48/62/192
f 46/59/193 45/60/194 49/64/195 50/63/196
f 45/60/197 47/61/198 51/65/199 49/64/200
f 47/61/201 48/62/202 52/66/203 51/65/204
f 48/62/205 46/59/206 50/63/207 52/66/208
f 50/63/209 49/64/210 53/68/211 54/67/212
f 49/64/213 51/65/214 55/69/215 53/68/216
f 51/65/217 52/66/218 56/70/219 55/69/220
f 52/66/221 50/63/222 54/67/223 56/70/224
