# This file uses centimeters as units for non-parametric coordinates.

mtllib BUILDDECALSIMP4.mtl
g default
v -0.135205 0.000000 0.367531
v -0.027839 0.000000 0.168743
v -0.350137 0.000000 0.434622
v -0.242771 0.000000 0.235834
v -0.624278 0.000000 0.696379
v -0.001300 0.029894 0.552332
v 0.624278 0.029894 0.698544
v 0.001083 0.029894 -0.574449
v -0.001767 0.029894 0.697328
v 0.848526 0.029894 0.896060
v 0.001472 0.029894 -0.834206
v -0.848526 0.000000 0.893118
v -0.084096 0.000000 -0.118258
v 0.000721 0.000000 0.091147
v 0.001127 0.000000 -0.326666
v 0.085944 0.000000 -0.117261
v 0.243352 0.000000 0.230757
v 0.026374 0.000000 0.167791
v 0.354318 0.000000 0.426674
v 0.137340 0.000000 0.363708
v -0.135205 0.037271 0.367531
v -0.027839 0.037271 0.168743
v -0.242771 0.037271 0.235834
v -0.350137 0.037271 0.434622
v 0.624278 0.067165 0.698544
v 0.848526 0.067165 0.896060
v 0.001380 0.067162 -0.833879
v 0.000991 0.067162 -0.574122
v -0.849511 0.037237 0.892857
v -0.002659 0.067134 0.696741
v -0.002192 0.067134 0.551745
v -0.625263 0.037237 0.696118
v -0.084096 0.037271 -0.118258
v 0.000721 0.037271 0.091147
v 0.085944 0.037271 -0.117261
v 0.001127 0.037271 -0.326666
v 0.243352 0.037271 0.230757
v 0.026374 0.037271 0.167791
v 0.137340 0.037271 0.363708
v 0.354318 0.037271 0.426674
vt 0.000000 0.000000
vt 1.000000 0.000000
vt 0.000000 1.000000
vt 1.000000 1.000000
vt 0.885860 0.849970
vt 1.000000 1.000000
vt 0.000000 1.000000
vt 0.081977 0.917853
vt 0.000000 0.000000
vt 1.000000 0.000000
vt 0.721627 0.277811
vt 0.150284 0.114105
vt 0.000000 0.000000
vt 1.000000 0.000000
vt 1.000000 1.000000
vt 0.000000 1.000000
vt 0.000000 0.000000
vt 1.000000 0.000000
vt 1.000000 1.000000
vt 0.000000 1.000000
vt 0.000000 0.000000
vt 1.000000 0.000000
vt 1.000000 1.000000
vt 0.000000 1.000000
vt 0.885860 0.849970
vt 1.000000 1.000000
vt 0.000000 1.000000
vt 0.081977 0.917853
vt 0.000000 0.000000
vt 1.000000 0.000000
vt 0.721627 0.277811
vt 0.150284 0.114105
vt 0.000000 0.000000
vt 1.000000 0.000000
vt 1.000000 1.000000
vt 0.000000 1.000000
vt 0.000000 0.000000
vt 1.000000 0.000000
vt 1.000000 1.000000
vt 0.000000 1.000000
vt 0.000000 0.000000
vt 1.000000 0.000000
vt 1.000000 1.000000
vt 0.000000 1.000000
vt 1.000000 1.000000
vt 0.000000 1.000000
vt 0.081977 0.917853
vt 0.885860 0.849970
vt 0.000000 0.000000
vt 1.000000 0.000000
vt 0.721627 0.277811
vt 0.150284 0.114105
vt 0.000000 0.000000
vt 1.000000 0.000000
vt 1.000000 1.000000
vt 0.000000 1.000000
vt 0.000000 0.000000
vt 1.000000 0.000000
vt 1.000000 1.000000
vt 0.000000 1.000000
vn 0.000000 1.000000 -0.000000
vn 0.000000 1.000000 -0.000000
vn 0.000000 1.000000 -0.000000
vn 0.000000 1.000000 -0.000000
vn -0.000017 1.000000 0.000010
vn -0.000020 1.000000 0.000012
vn -0.002464 0.999959 0.008753
vn -0.002465 0.999959 0.008755
vn -0.022657 0.999740 -0.002677
vn -0.023954 0.999589 -0.015719
vn -0.023896 0.999591 -0.015681
vn -0.019970 0.999801 0.000389
vn 0.000000 1.000000 0.000000
vn 0.000000 1.000000 0.000000
vn 0.000000 1.000000 0.000000
vn 0.000000 1.000000 0.000000
vn 0.000000 1.000000 0.000000
vn 0.000000 1.000000 0.000000
vn 0.000000 1.000000 0.000000
vn 0.000000 1.000000 0.000000
vn 0.000000 -1.000000 0.000000
vn 0.000000 -1.000000 0.000000
vn 0.000000 -1.000000 0.000000
vn 0.000000 -1.000000 0.000000
vn 0.000000 -1.000000 -0.000000
vn 0.002462 -0.999959 -0.008747
vn 0.002460 -0.999959 -0.008739
vn 0.000000 -1.000000 -0.000000
vn 0.022640 -0.999740 0.002677
vn 0.019962 -0.999801 -0.000377
vn 0.023875 -0.999592 0.015700
vn 0.023935 -0.999590 0.015739
vn 0.000000 -1.000000 0.000000
vn 0.000000 -1.000000 0.000000
vn 0.000000 -1.000000 0.000000
vn 0.000000 -1.000000 0.000000
vn 0.000000 -1.000000 0.000000
vn 0.000000 -1.000000 0.000000
vn 0.000000 -1.000000 0.000000
vn 0.000000 -1.000000 0.000000
vn 0.879868 0.000000 0.475218
vn 0.879868 0.000000 0.475218
vn 0.879868 0.000000 0.475218
vn 0.879868 0.000000 0.475218
vn -0.297970 0.000000 -0.954575
vn -0.297970 0.000000 -0.954575
vn -0.297970 0.000000 -0.954575
vn -0.297970 0.000000 -0.954575
vn -0.879868 0.000000 -0.475218
vn -0.879868 0.000000 -0.475218
vn -0.879868 0.000000 -0.475218
vn -0.879868 0.000000 -0.475218
vn 0.297970 0.000000 0.954575
vn 0.297970 0.000000 0.954575
vn 0.297970 0.000000 0.954575
vn 0.297970 0.000000 0.954575
vn 0.898120 0.003032 -0.439741
vn 0.898120 0.003032 -0.439741
vn 0.898120 0.003032 -0.439741
vn 0.898120 0.003032 -0.439741
vn -0.898110 -0.003031 0.439760
vn -0.898110 -0.003031 0.439760
vn -0.898110 -0.003031 0.439760
vn -0.898110 -0.003031 0.439760
vn 0.224852 0.016753 0.974249
vn -0.002963 0.011098 0.999934
vn -0.001140 0.011146 0.999937
vn 0.224852 0.016753 0.974249
vn 0.002161 -0.011120 -0.999936
vn -0.224710 -0.016750 -0.974282
vn -0.224710 -0.016750 -0.974282
vn 0.002164 -0.011120 -0.999936
vn -0.227791 0.004941 0.973697
vn -0.227791 0.004941 0.973698
vn 0.227865 -0.004940 -0.973680
vn 0.227865 -0.004940 -0.973680
vn 0.896895 0.012566 0.442066
vn 0.896895 0.012566 0.442066
vn 0.896895 0.012566 0.442066
vn 0.896895 0.012566 0.442066
vn -0.896969 -0.012567 -0.441914
vn -0.896969 -0.012567 -0.441914
vn -0.896969 -0.012567 -0.441914
vn -0.896969 -0.012567 -0.441914
vn -0.926857 0.000000 0.375414
vn -0.926857 0.000000 0.375414
vn -0.926857 0.000000 0.375414
vn -0.926857 0.000000 0.375414
vn 0.925601 0.000000 0.378500
vn 0.925601 0.000000 0.378500
vn 0.925601 0.000000 0.378500
vn 0.925601 0.000000 0.378500
vn 0.926857 0.000000 -0.375414
vn 0.926857 0.000000 -0.375414
vn 0.926857 0.000000 -0.375414
vn 0.926857 0.000000 -0.375414
vn -0.925601 0.000000 -0.378500
vn -0.925601 0.000000 -0.378500
vn -0.925601 0.000000 -0.378500
vn -0.925601 0.000000 -0.378500
vn 0.278697 0.000000 -0.960379
vn 0.278697 0.000000 -0.960379
vn 0.278697 0.000000 -0.960379
vn 0.278697 0.000000 -0.960379
vn -0.870125 0.000000 0.492831
vn -0.870125 0.000000 0.492831
vn -0.870125 0.000000 0.492831
vn -0.870125 0.000000 0.492831
vn -0.278697 0.000000 0.960379
vn -0.278697 0.000000 0.960379
vn -0.278697 0.000000 0.960379
vn -0.278697 0.000000 0.960379
vn 0.870125 0.000000 -0.492831
vn 0.870125 0.000000 -0.492831
vn 0.870125 0.000000 -0.492831
vn 0.870125 0.000000 -0.492831
s off
g BUILDDECALSIMP4 DECALS
usemtl initialShadingGroup
f 21/41/1 22/42/2 23/43/3 24/44/4
s 1
f 25/48/5 26/45/6 27/46/7 28/47/8
f 29/49/9 30/50/10 31/51/11 32/52/12
f 30/50/10 26/45/6 25/48/5 31/51/11
f 29/49/9 32/52/12 28/47/8 27/46/7
s off
f 33/53/13 34/54/14 35/55/15 36/56/16
f 37/57/17 38/58/18 39/59/19 40/60/20
f 1/21/21 3/24/22 4/23/23 2/22/24
s 2
f 7/25/25 8/28/26 11/27/27 10/26/28
f 12/29/29 5/32/30 6/31/31 9/30/32
f 9/30/32 6/31/31 7/25/25 10/26/28
f 12/29/29 11/27/27 8/28/26 5/32/30
s off
f 13/33/33 15/36/34 16/35/35 14/34/36
f 17/37/37 19/40/38 20/39/39 18/38/40
f 1/1/41 2/2/42 22/42/43 21/41/44
f 2/2/45 4/4/46 23/43/47 22/42/48
f 4/4/49 3/3/50 24/44/51 23/43/52
f 3/3/53 1/1/54 21/41/55 24/44/56
f 10/6/57 11/7/58 27/46/59 26/45/60
f 8/8/61 7/5/62 25/48/63 28/47/64
s 3
f 12/9/65 9/10/66 30/50/67 29/49/68
s 4
f 6/11/69 5/12/70 32/52/71 31/51/72
s 3
f 9/10/66 10/6/73 26/45/74 30/50/67
s 4
f 7/5/75 6/11/69 31/51/72 25/48/76
s off
f 5/12/77 8/8/78 28/47/79 32/52/80
f 11/7/81 12/9/82 29/49/83 27/46/84
f 13/13/85 14/14/86 34/54/87 33/53/88
f 14/14/89 16/15/90 35/55/91 34/54/92
f 16/15/93 15/16/94 36/56/95 35/55/96
f 15/16/97 13/13/98 33/53/99 36/56/100
f 17/17/101 18/18/102 38/58/103 37/57/104
f 18/18/105 20/19/106 39/59/107 38/58/108
f 20/19/109 19/20/110 40/60/111 39/59/112
f 19/20/113 17/17/114 37/57/115 40/60/116
