# This file uses centimeters as units for non-parametric coordinates.

mtllib BUILDDECALSIMP3.mtl
g default
v 0.294212 0.005417 0.158193
v 0.479251 0.005417 -0.082952
v 0.294212 0.044188 0.158193
v 0.479251 0.044188 -0.082952
v -0.404541 0.044188 -0.384773
v -0.219501 0.044188 -0.625917
v -0.404541 0.005417 -0.384773
v -0.219501 0.005417 -0.625917
v 0.138131 0.005417 0.096905
v -0.095197 0.005417 -0.097898
v 0.138131 0.044188 0.096905
v -0.095197 0.044188 -0.097898
v -0.362792 0.044188 0.696892
v -0.596120 0.044188 0.502088
v -0.362792 0.005417 0.696892
v -0.596120 0.005417 0.502088
v 0.427653 0.005417 0.702492
v 0.612693 0.005417 0.461347
v 0.427653 0.044188 0.702492
v 0.612693 0.044188 0.461347
v -0.017686 0.044188 0.349588
v 0.168769 0.044188 0.121767
v -0.017686 0.005417 0.349588
v 0.168769 0.005417 0.121767
v 0.505909 0.005417 -0.330825
v 0.427309 0.005417 -0.295982
v 0.418184 0.005417 -0.210491
v 0.487658 0.005417 -0.159843
v 0.566259 0.005417 -0.194685
v 0.575384 0.005417 -0.280176
v 0.505909 0.044188 -0.330825
v 0.427309 0.044188 -0.295982
v 0.418184 0.044188 -0.210491
v 0.487658 0.044188 -0.159843
v 0.566259 0.044188 -0.194685
v 0.575384 0.044188 -0.280176
v 0.496784 0.005417 -0.245334
v 0.496784 0.044188 -0.245334
vt 0.375000 0.000000
vt 0.625000 0.000000
vt 0.375000 0.250000
vt 0.625000 0.250000
vt 0.375000 0.500000
vt 0.625000 0.500000
vt 0.375000 0.750000
vt 0.625000 0.750000
vt 0.375000 1.000000
vt 0.625000 1.000000
vt 0.875000 0.000000
vt 0.875000 0.250000
vt 0.125000 0.000000
vt 0.125000 0.250000
vt 0.375000 0.000000
vt 0.625000 0.000000
vt 0.625000 0.250000
vt 0.375000 0.250000
vt 0.625000 0.500000
vt 0.375000 0.500000
vt 0.625000 0.750000
vt 0.375000 0.750000
vt 0.625000 1.000000
vt 0.375000 1.000000
vt 0.875000 0.000000
vt 0.875000 0.250000
vt 0.125000 0.000000
vt 0.125000 0.250000
vt 0.375000 0.000000
vt 0.625000 0.000000
vt 0.625000 0.250000
vt 0.375000 0.250000
vt 0.625000 0.500000
vt 0.375000 0.500000
vt 0.625000 0.750000
vt 0.375000 0.750000
vt 0.625000 1.000000
vt 0.375000 1.000000
vt 0.875000 0.000000
vt 0.875000 0.250000
vt 0.125000 0.000000
vt 0.125000 0.250000
vt 0.375000 0.312500
vt 0.416667 0.312500
vt 0.416667 0.688440
vt 0.375000 0.688440
vt 0.458333 0.312500
vt 0.458333 0.688440
vt 0.500000 0.312500
vt 0.500000 0.688440
vt 0.541667 0.312500
vt 0.541667 0.688440
vt 0.583333 0.312500
vt 0.583333 0.688440
vt 0.625000 0.312500
vt 0.625000 0.688440
vt 0.421875 0.020934
vt 0.578125 0.020934
vt 0.500000 0.150000
vt 0.343750 0.156250
vt 0.421875 0.291566
vt 0.578125 0.291566
vt 0.656250 0.156250
vt 0.578125 0.979066
vt 0.421875 0.979066
vt 0.500000 0.837500
vt 0.343750 0.843750
vt 0.421875 0.708434
vt 0.578125 0.708434
vt 0.656250 0.843750
vn 0.793349 0.000000 0.608768
vn 0.793349 0.000000 0.608768
vn 0.793349 0.000000 0.608768
vn 0.793349 0.000000 0.608768
vn 0.000000 1.000000 0.000000
vn 0.000000 1.000000 0.000000
vn 0.000000 1.000000 0.000000
vn 0.000000 1.000000 0.000000
vn -0.793348 0.000000 -0.608768
vn -0.793348 0.000000 -0.608768
vn -0.793348 0.000000 -0.608768
vn -0.793348 0.000000 -0.608768
vn 0.000000 -1.000000 0.000000
vn 0.000000 -1.000000 0.000000
vn 0.000000 -1.000000 0.000000
vn 0.000000 -1.000000 0.000000
vn 0.613582 0.000000 -0.789631
vn 0.613582 0.000000 -0.789631
vn 0.613582 0.000000 -0.789631
vn 0.613582 0.000000 -0.789631
vn -0.613582 0.000000 0.789631
vn -0.613582 0.000000 0.789631
vn -0.613582 0.000000 0.789631
vn -0.613582 0.000000 0.789631
vn 0.640890 0.000000 -0.767633
vn 0.640890 0.000000 -0.767633
vn 0.640890 0.000000 -0.767633
vn 0.640890 0.000000 -0.767633
vn 0.000000 1.000000 0.000000
vn 0.000000 1.000000 0.000000
vn 0.000000 1.000000 0.000000
vn 0.000000 1.000000 0.000000
vn -0.640890 0.000000 0.767633
vn -0.640890 0.000000 0.767633
vn -0.640890 0.000000 0.767633
vn -0.640890 0.000000 0.767633
vn 0.000000 -1.000000 0.000000
vn 0.000000 -1.000000 0.000000
vn 0.000000 -1.000000 0.000000
vn 0.000000 -1.000000 0.000000
vn -0.767633 0.000000 -0.640890
vn -0.767633 0.000000 -0.640890
vn -0.767633 0.000000 -0.640890
vn -0.767633 0.000000 -0.640890
vn 0.767633 0.000000 0.640890
vn 0.767633 0.000000 0.640890
vn 0.767633 0.000000 0.640890
vn 0.767633 0.000000 0.640890
vn 0.793348 0.000000 0.608768
vn 0.793348 0.000000 0.608768
vn 0.793348 0.000000 0.608768
vn 0.793348 0.000000 0.608768
vn 0.000000 1.000000 0.000000
vn 0.000000 1.000000 0.000000
vn 0.000000 1.000000 0.000000
vn 0.000000 1.000000 0.000000
vn -0.773864 0.000000 -0.633352
vn -0.773864 0.000000 -0.633352
vn -0.773864 0.000000 -0.633352
vn -0.773864 0.000000 -0.633352
vn 0.000000 -1.000000 0.000000
vn 0.000000 -1.000000 0.000000
vn 0.000000 -1.000000 0.000000
vn 0.000000 -1.000000 0.000000
vn 0.607573 0.000000 -0.794264
vn 0.607573 0.000000 -0.794264
vn 0.607573 0.000000 -0.794264
vn 0.607573 0.000000 -0.794264
vn -0.621075 0.000000 0.783752
vn -0.621075 0.000000 0.783752
vn -0.621075 0.000000 0.783752
vn -0.621075 0.000000 0.783752
vn -0.405260 0.000000 -0.914201
vn -0.405260 0.000000 -0.914201
vn -0.405260 0.000000 -0.914201
vn -0.405260 0.000000 -0.914201
vn -0.994352 0.000000 -0.106136
vn -0.994352 0.000000 -0.106136
vn -0.994352 0.000000 -0.106136
vn -0.994352 0.000000 -0.106136
vn -0.589092 0.000000 0.808066
vn -0.589092 0.000000 0.808066
vn -0.589092 0.000000 0.808066
vn -0.589092 0.000000 0.808066
vn 0.405259 0.000000 0.914202
vn 0.405259 0.000000 0.914202
vn 0.405259 0.000000 0.914202
vn 0.405259 0.000000 0.914202
vn 0.994352 0.000000 0.106135
vn 0.994352 0.000000 0.106135
vn 0.994352 0.000000 0.106135
vn 0.994352 0.000000 0.106135
vn 0.589093 0.000000 -0.808066
vn 0.589093 0.000000 -0.808066
vn 0.589093 0.000000 -0.808066
vn 0.589093 0.000000 -0.808066
vn 0.000000 -1.000000 0.000000
vn 0.000000 -1.000000 -0.000000
vn 0.000000 -1.000000 0.000000
vn 0.000000 -1.000000 0.000000
vn 0.000000 -1.000000 0.000000
vn 0.000000 -1.000000 0.000000
vn 0.000000 -1.000000 -0.000000
vn 0.000000 1.000000 0.000000
vn 0.000000 1.000000 0.000000
vn 0.000000 1.000000 0.000000
vn 0.000000 1.000000 0.000000
vn 0.000000 1.000000 0.000000
vn 0.000000 1.000000 0.000000
vn 0.000000 1.000000 0.000000
s off
g BUILDDECALSIMP3
usemtl initialShadingGroup
f 1/1/1 2/2/2 4/4/3 3/3/4
f 3/3/5 4/4/6 6/6/7 5/5/8
f 5/5/9 6/6/10 8/8/11 7/7/12
f 7/7/13 8/8/14 2/10/15 1/9/16
f 2/2/17 8/11/18 6/12/19 4/4/20
f 7/13/21 1/1/22 3/3/23 5/14/24
f 9/15/25 10/16/26 12/17/27 11/18/28
f 11/18/29 12/17/30 14/19/31 13/20/32
f 13/20/33 14/19/34 16/21/35 15/22/36
f 15/22/37 16/21/38 10/23/39 9/24/40
f 10/16/41 16/25/42 14/26/43 12/17/44
f 15/27/45 9/15/46 11/18/47 13/28/48
f 17/29/49 18/30/50 20/31/51 19/32/52
f 19/32/53 20/31/54 22/33/55 21/34/56
f 21/34/57 22/33/58 24/35/59 23/36/60
f 23/36/61 24/35/62 18/37/63 17/38/64
f 18/30/65 24/39/66 22/40/67 20/31/68
f 23/41/69 17/29/70 19/32/71 21/42/72
f 25/43/73 26/44/74 32/45/75 31/46/76
f 26/44/77 27/47/78 33/48/79 32/45/80
f 27/47/81 28/49/82 34/50/83 33/48/84
f 28/49/85 29/51/86 35/52/87 34/50/88
f 29/51/89 30/53/90 36/54/91 35/52/92
f 30/53/93 25/55/94 31/56/95 36/54/96
s 1
f 26/57/97 25/58/98 37/59/99
f 27/60/100 26/57/97 37/59/99
f 28/61/101 27/60/100 37/59/99
f 29/62/102 28/61/101 37/59/99
f 30/63/103 29/62/102 37/59/99
f 25/58/98 30/63/103 37/59/99
s 2
f 31/64/104 32/65/105 38/66/106
f 32/65/105 33/67/107 38/66/106
f 33/67/107 34/68/108 38/66/106
f 34/68/108 35/69/109 38/66/106
f 35/69/109 36/70/110 38/66/106
f 36/70/110 31/64/104 38/66/106
