# This file uses centimeters as units for non-parametric coordinates.

mtllib BUILDDECALNUM9.mtl
g default
v 0.131866 0.000093 0.054607
v 0.091837 0.000079 0.151373
v 0.023464 -0.000177 0.258526
v 0.269269 0.000028 0.352064
v 0.168823 -0.000177 0.333733
v 0.139969 0.000145 0.328450
v 0.114461 0.000132 0.442206
v -0.192848 0.000100 -0.221357
v -0.018931 0.083777 -0.287949
v -0.018507 0.000104 -0.287999
v 0.164555 0.083797 -0.235873
v 0.164960 0.000111 -0.235281
v 0.249467 0.000044 -0.111687
v 0.074493 -0.000177 0.551546
v -0.045445 0.000023 0.668090
v 0.269312 0.083825 0.351712
v 0.220884 0.083833 0.500720
v 0.220785 0.000019 0.500884
v 0.145478 -0.000177 0.459200
v 0.119863 0.083835 0.623136
v 0.119874 0.000023 0.623133
v -0.045634 0.083831 0.668074
v -0.274652 0.000109 0.139532
v -0.155118 0.000143 0.293337
v -0.154704 0.083774 0.293528
v -0.192863 0.083776 -0.221346
v -0.286409 0.000102 -0.053347
v -0.286409 0.083777 -0.053347
v -0.274713 0.083779 0.139353
v 0.249334 0.083835 -0.111882
v 0.279686 0.083826 0.043245
v 0.279678 0.000031 0.043188
v 0.020599 0.083954 0.251364
v 0.131866 0.083750 0.054603
v 0.092008 0.083766 0.151190
v -0.144665 0.083954 0.533937
v 0.165469 0.083954 0.332761
v 0.142398 0.083954 0.457570
v 0.073014 0.083954 0.548749
v 0.114444 0.083735 0.442261
v 0.058300 0.000120 0.525796
v 0.058386 0.083747 0.525734
v -0.032716 0.083775 0.547225
v -0.110093 0.083788 0.503711
v -0.205974 0.083838 0.445838
v -0.206208 0.000011 0.600154
v -0.146584 -0.000177 0.537753
v -0.020223 0.083954 -0.211364
v -0.139440 0.083954 -0.160376
v -0.102829 0.083773 -0.124103
v -0.203789 0.083954 -0.035604
v -0.141525 0.083774 -0.024580
v -0.194463 0.083954 0.111658
v -0.134656 0.000075 0.089171
v -0.080609 0.000073 0.174610
v -0.114789 -0.000177 0.231507
v 0.012228 0.000074 0.194678
v -0.019377 -0.000177 -0.214104
v 0.098711 -0.000177 -0.174685
v 0.072510 0.000095 -0.144591
v 0.155787 -0.000177 -0.076497
v 0.124085 0.000120 -0.062036
v 0.172621 -0.000177 0.053661
v -0.206532 0.083828 0.599829
v -0.141107 -0.000177 -0.162259
v -0.102797 0.000080 -0.124133
v -0.017560 0.000084 -0.168115
v -0.198753 -0.000177 0.113962
v -0.206769 -0.000177 -0.036096
v -0.141527 0.000078 -0.024550
v 0.094996 0.083954 -0.171396
v 0.124046 0.083741 -0.062177
v 0.152020 0.083954 -0.075002
v 0.168947 0.083954 0.053815
v -0.017826 0.083770 -0.168078
v 0.072453 0.083750 -0.144649
v -0.134694 0.083774 0.089037
v -0.110644 0.083954 0.225943
v -0.080597 0.083775 0.174622
v 0.012421 0.083770 0.194650
v 0.026073 0.083755 0.313365
v -0.038260 0.083954 0.580695
v 0.025896 0.000166 0.313396
v 0.119672 0.083724 0.244574
v 0.139983 0.083719 0.328359
v 0.119472 0.000177 0.244854
v -0.109999 0.000049 0.503800
v -0.038208 -0.000177 0.584487
v -0.032619 0.000092 0.547248
v 0.287491 0.083823 0.201514
v 0.287479 0.000029 0.201611
v -0.202240 -0.000177 0.459861
v -0.270559 0.083783 0.487118
v -0.148767 0.083779 0.428910
v 0.151518 0.083954 0.198548
v -0.267402 -0.000033 0.464014
v -0.141125 0.000050 0.438644
v 0.153256 -0.000177 0.199887
v -0.252254 0.000000 -0.304263
v 0.241044 0.000000 -0.304263
v -0.252254 0.100000 -0.304263
v 0.241044 0.100000 -0.304263
v -0.252254 0.100000 -0.419027
v 0.241044 0.100000 -0.419027
v -0.252254 0.000000 -0.419027
v 0.241044 0.000000 -0.419027
vt 0.375000 0.000000
vt 0.625000 0.000000
vt 0.625000 0.250000
vt 0.375000 0.250000
vt 0.625000 0.500000
vt 0.375000 0.500000
vt 0.625000 0.750000
vt 0.375000 0.750000
vt 0.625000 1.000000
vt 0.375000 1.000000
vt 0.875000 0.000000
vt 0.875000 0.250000
vt 0.125000 0.000000
vt 0.125000 0.250000
vn -0.924222 0.000519 -0.381855
vn -0.924222 0.000519 -0.381855
vn -0.924222 0.000519 -0.381855
vn -0.924222 0.000519 -0.381855
vn -0.004596 -0.999989 -0.001180
vn -0.004596 -0.999989 -0.001180
vn -0.004596 -0.999989 -0.001180
vn -0.004596 -0.999989 -0.001180
vn -0.007677 -0.999970 0.000657
vn -0.007677 -0.999970 0.000657
vn -0.007677 -0.999970 0.000657
vn -0.007677 -0.999970 0.000657
vn -0.997774 -0.000178 0.066684
vn -0.997774 -0.000178 0.066684
vn -0.997774 -0.000178 0.066684
vn -0.997774 -0.000178 0.066684
vn -0.478557 -0.000065 -0.878056
vn -0.478558 -0.000065 -0.878056
vn -0.478557 -0.000065 -0.878056
vn -0.478557 -0.000065 -0.878056
vn -0.001654 -0.999993 -0.003444
vn -0.001654 -0.999993 -0.003444
vn -0.001654 -0.999993 -0.003444
vn -0.001654 -0.999993 -0.003444
vn 0.000818 -0.999992 -0.003999
vn 0.000818 -0.999992 -0.003999
vn 0.000818 -0.999992 -0.003999
vn 0.000818 -0.999992 -0.003999
vn -0.000730 -0.999985 0.005443
vn -0.000730 -0.999985 0.005443
vn -0.000730 -0.999985 0.005443
vn -0.000730 -0.999985 0.005443
vn 0.004900 -0.999952 0.008520
vn 0.004900 -0.999952 0.008520
vn 0.004900 -0.999952 0.008520
vn 0.004900 -0.999952 0.008520
vn 0.002104 -0.999998 0.000521
vn 0.002104 -0.999998 0.000521
vn 0.002104 -0.999998 0.000521
vn 0.002104 -0.999998 0.000521
vn 0.950922 0.000148 0.309430
vn 0.950922 0.000148 0.309430
vn 0.950922 0.000148 0.309430
vn 0.950922 0.000148 0.309430
vn 0.992755 -0.000000 0.120155
vn 0.992755 -0.000000 0.120155
vn 0.992755 -0.000000 0.120155
vn 0.992755 -0.000000 0.120155
vn 0.001750 -0.999998 0.000011
vn 0.001750 -0.999999 0.000011
vn 0.001750 -0.999999 0.000011
vn 0.001750 -0.999999 0.000011
vn -0.009764 -0.999950 -0.002048
vn -0.009764 -0.999950 -0.002048
vn -0.009764 -0.999950 -0.002048
vn -0.009764 -0.999950 -0.002048
vn -0.009844 -0.999950 0.001484
vn -0.009844 -0.999951 0.001484
vn -0.009844 -0.999950 0.001484
vn -0.009844 -0.999950 0.001484
vn -0.975771 -0.000062 -0.218796
vn -0.975771 -0.000062 -0.218796
vn -0.975771 -0.000062 -0.218796
vn -0.975771 -0.000062 -0.218796
vn -0.971541 0.001769 0.236864
vn -0.971541 0.001769 0.236864
vn -0.971541 0.001769 0.236864
vn -0.971541 0.001769 0.236864
vn -0.830112 0.000316 -0.557597
vn -0.830112 0.000316 -0.557597
vn -0.830112 0.000316 -0.557597
vn -0.830112 0.000316 -0.557597
vn -0.007725 -0.999954 -0.005646
vn -0.007725 -0.999954 -0.005646
vn -0.007725 -0.999954 -0.005646
vn -0.007725 -0.999954 -0.005646
vn -0.357329 -0.000591 -0.933978
vn -0.357329 -0.000591 -0.933978
vn -0.357329 -0.000591 -0.933978
vn -0.357329 -0.000591 -0.933978
vn -0.873676 -0.000039 -0.486508
vn -0.873676 -0.000039 -0.486508
vn -0.873676 -0.000039 -0.486508
vn -0.873676 -0.000039 -0.486508
vn -0.003221 -0.999993 -0.001735
vn -0.003221 -0.999993 -0.001735
vn -0.003221 -0.999993 -0.001735
vn -0.003221 -0.999993 -0.001735
vn -0.001442 -0.999992 -0.003645
vn -0.001442 -0.999992 -0.003645
vn -0.001442 -0.999992 -0.003645
vn -0.001442 -0.999992 -0.003645
vn 0.000574 0.999998 -0.002073
vn 0.000574 0.999998 -0.002073
vn 0.000574 0.999998 -0.002073
vn 0.000574 0.999998 -0.002073
vn -0.000900 0.999997 -0.002232
vn -0.000900 0.999997 -0.002232
vn -0.000900 0.999997 -0.002232
vn -0.000900 0.999997 -0.002232
vn 0.274598 -0.001753 -0.961558
vn 0.274598 -0.001753 -0.961558
vn 0.274598 -0.001753 -0.961558
vn 0.274598 -0.001753 -0.961558
vn 0.001140 -0.999993 -0.003663
vn 0.001140 -0.999993 -0.003663
vn 0.001140 -0.999993 -0.003663
vn 0.001140 -0.999993 -0.003663
vn 0.825485 -0.000001 -0.564424
vn 0.825485 -0.000001 -0.564424
vn 0.825485 -0.000001 -0.564424
vn 0.825485 -0.000001 -0.564424
vn 0.001110 0.999999 -0.000889
vn 0.001110 0.999999 -0.000889
vn 0.001110 0.999999 -0.000889
vn 0.001110 0.999999 -0.000889
vn 0.002168 -0.999996 -0.001687
vn 0.002168 -0.999996 -0.001687
vn 0.002168 -0.999996 -0.001687
vn 0.002168 -0.999996 -0.001687
vn 0.002047 -0.999998 -0.000383
vn 0.002047 -0.999998 -0.000383
vn 0.002047 -0.999998 -0.000383
vn 0.002047 -0.999998 -0.000383
vn 0.981446 0.000577 -0.191737
vn 0.981446 0.000577 -0.191737
vn 0.981446 0.000577 -0.191737
vn 0.981446 0.000577 -0.191737
vn -0.002161 -0.999961 -0.008622
vn -0.002161 -0.999961 -0.008622
vn -0.002161 -0.999961 -0.008622
vn -0.002161 -0.999961 -0.008622
vn 0.000677 -0.999997 0.002415
vn 0.000677 -0.999997 0.002415
vn 0.000677 -0.999997 0.002415
vn 0.000677 -0.999997 0.002415
vn 0.001866 -0.999997 0.001514
vn 0.001866 -0.999997 0.001514
vn 0.001866 -0.999997 0.001514
vn 0.001866 -0.999997 0.001514
vn -0.000909 -0.999997 0.002242
vn -0.000909 -0.999997 0.002242
vn -0.000909 -0.999997 0.002242
vn -0.000909 -0.999997 0.002242
vn -0.389868 0.000674 0.920871
vn -0.389868 0.000674 0.920871
vn -0.389868 0.000674 0.920871
vn -0.389868 0.000674 0.920871
vn 0.262227 0.000380 0.965006
vn 0.262227 0.000380 0.965006
vn 0.262227 0.000380 0.965006
vn 0.262227 0.000380 0.965006
vn 0.001264 0.999999 0.000300
vn 0.001264 0.999999 0.000300
vn 0.001264 0.999999 0.000300
vn 0.001264 0.999999 0.000300
vn 0.001081 0.999999 0.000009
vn 0.001081 0.999999 0.000009
vn 0.001081 0.999999 0.000009
vn 0.001081 0.999999 0.000009
vn 0.771245 0.000201 0.636538
vn 0.771245 0.000201 0.636538
vn 0.771245 0.000201 0.636538
vn 0.771245 0.000201 0.636538
vn 0.001096 0.999999 0.000866
vn 0.001096 0.999999 0.000866
vn 0.001096 0.999999 0.000866
vn 0.001096 0.999999 0.000866
vn 0.000376 0.999999 0.001397
vn 0.000376 0.999999 0.001397
vn 0.000376 0.999999 0.001397
vn 0.000376 0.999999 0.001397
vn -0.000596 0.999999 0.001350
vn -0.000596 0.999999 0.001350
vn -0.000596 0.999999 0.001350
vn -0.000596 0.999999 0.001350
vn -0.789348 0.001623 0.613943
vn -0.789348 0.001623 0.613943
vn -0.789348 0.001623 0.613943
vn -0.789348 0.001623 0.613943
vn -0.003271 -0.999991 0.002578
vn -0.003271 -0.999991 0.002578
vn -0.003271 -0.999991 0.002578
vn -0.003271 -0.999991 0.002578
vn -0.003619 -0.999994 0.000228
vn -0.003619 -0.999993 0.000228
vn -0.003619 -0.999993 0.000228
vn -0.003619 -0.999994 0.000228
vn -0.998155 -0.000296 0.060713
vn -0.998155 -0.000296 0.060713
vn -0.998155 -0.000296 0.060713
vn -0.998155 -0.000296 0.060713
vn -0.109606 -0.000563 0.993975
vn -0.109606 -0.000563 0.993975
vn -0.109606 -0.000563 0.993975
vn -0.109606 -0.000563 0.993975
vn -0.000345 0.999996 0.002814
vn -0.000345 0.999996 0.002814
vn -0.000345 0.999996 0.002814
vn -0.000345 0.999996 0.002814
vn -0.001791 0.999997 0.001377
vn -0.001791 0.999997 0.001377
vn -0.001791 0.999997 0.001377
vn -0.001791 0.999997 0.001377
vn -0.001982 0.999998 -0.001073
vn -0.001982 0.999997 -0.001073
vn -0.001982 0.999998 -0.001073
vn -0.001982 0.999998 -0.001073
vn -0.002147 0.999998 0.000128
vn -0.002147 0.999998 0.000128
vn -0.002147 0.999998 0.000128
vn -0.002147 0.999998 0.000128
vn 0.001149 0.999999 -0.000157
vn 0.001149 0.999999 -0.000157
vn 0.001149 0.999999 -0.000157
vn 0.001149 0.999999 -0.000157
vn 0.998788 -0.000127 -0.049219
vn 0.998788 -0.000127 -0.049219
vn 0.998788 -0.000127 -0.049219
vn 0.998788 -0.000127 -0.049219
vn 0.001050 1.000000 0.000042
vn 0.001050 1.000000 0.000042
vn 0.001050 1.000000 0.000042
vn 0.001050 1.000000 0.000042
vn 0.001718 -0.999999 0.000060
vn 0.001718 -0.999999 0.000060
vn 0.001718 -0.999999 0.000060
vn 0.001718 -0.999999 0.000060
vn 0.002636 0.999986 0.004611
vn 0.002636 0.999986 0.004611
vn 0.002636 0.999986 0.004611
vn 0.002636 0.999986 0.004611
vn 0.000677 0.999995 -0.003220
vn 0.000677 0.999995 -0.003220
vn 0.000677 0.999995 -0.003220
vn 0.000677 0.999995 -0.003220
vn -0.001246 0.999995 -0.002762
vn -0.001246 0.999995 -0.002762
vn -0.001246 0.999995 -0.002762
vn -0.001246 0.999995 -0.002762
vn -0.003606 0.999993 -0.000922
vn -0.003606 0.999993 -0.000922
vn -0.003606 0.999993 -0.000922
vn -0.003606 0.999993 -0.000922
vn -0.006267 0.999980 0.000596
vn -0.006267 0.999980 0.000596
vn -0.006267 0.999980 0.000596
vn -0.006267 0.999980 0.000596
vn 0.001564 0.999997 -0.001722
vn 0.001564 0.999997 -0.001722
vn 0.001564 0.999997 -0.001722
vn 0.001564 0.999997 -0.001722
vn 0.002084 0.999989 -0.004094
vn 0.002084 0.999990 -0.004094
vn 0.002084 0.999989 -0.004094
vn 0.002084 0.999990 -0.004094
vn -0.001379 0.999999 0.000065
vn -0.001379 0.999999 0.000065
vn -0.001379 0.999999 0.000065
vn -0.001379 0.999999 0.000065
vn -0.007872 0.999968 -0.001669
vn -0.007872 0.999968 -0.001669
vn -0.007872 0.999968 -0.001669
vn -0.007872 0.999968 -0.001669
vn -0.007257 0.999973 0.001163
vn -0.007257 0.999973 0.001163
vn -0.007257 0.999973 0.001163
vn -0.007257 0.999973 0.001163
vn -0.006036 0.999972 -0.004404
vn -0.006036 0.999972 -0.004404
vn -0.006036 0.999972 -0.004404
vn -0.006036 0.999972 -0.004404
vn -0.001597 0.999977 -0.006573
vn -0.001597 0.999977 -0.006573
vn -0.001597 0.999977 -0.006573
vn -0.001597 0.999977 -0.006573
vn -0.229621 -0.000512 -0.973280
vn -0.229621 -0.000512 -0.973280
vn -0.229621 -0.000512 -0.973280
vn -0.229621 -0.000512 -0.973280
vn 0.489878 -0.000019 -0.871791
vn 0.489878 -0.000019 -0.871791
vn 0.489878 -0.000019 -0.871791
vn 0.489878 -0.000019 -0.871791
vn 0.894782 0.015155 -0.446246
vn 0.894782 0.015155 -0.446246
vn 0.894782 0.015155 -0.446246
vn 0.894782 0.015155 -0.446246
vn -0.302975 -0.153747 -0.940515
vn -0.302975 -0.153747 -0.940515
vn -0.302975 -0.153747 -0.940515
vn -0.302975 -0.153747 -0.940515
vn -0.330239 0.037474 -0.943153
vn -0.330239 0.037474 -0.943153
vn -0.330239 0.037474 -0.943153
vn -0.330239 0.037474 -0.943153
vn -0.001974 -0.999997 0.001283
vn -0.001974 -0.999997 0.001283
vn -0.001974 -0.999997 0.001283
vn -0.001974 -0.999997 0.001283
vn -0.890451 -0.079385 0.448102
vn -0.890451 -0.079385 0.448102
vn -0.890451 -0.079385 0.448102
vn -0.890451 -0.079385 0.448102
vn 0.002797 -0.999982 -0.005284
vn 0.002797 -0.999982 -0.005284
vn 0.002797 -0.999982 -0.005284
vn 0.002797 -0.999982 -0.005284
vn 0.003447 -0.999992 -0.002103
vn 0.003447 -0.999992 -0.002103
vn 0.003447 -0.999992 -0.002103
vn 0.003447 -0.999992 -0.002103
vn 0.001742 0.999992 0.003716
vn 0.001742 0.999992 0.003716
vn 0.001742 0.999992 0.003716
vn 0.001742 0.999992 0.003716
vn -0.001474 0.999986 0.005099
vn -0.001474 0.999986 0.005099
vn -0.001474 0.999986 0.005099
vn -0.001474 0.999986 0.005099
vn 0.002983 0.999995 0.001366
vn 0.002983 0.999995 0.001366
vn 0.002983 0.999995 0.001366
vn 0.002983 0.999995 0.001366
vn 0.932011 0.000167 0.362430
vn 0.932011 0.000167 0.362430
vn 0.932011 0.000167 0.362430
vn 0.932011 0.000167 0.362430
vn 0.459015 0.000465 0.888428
vn 0.459015 0.000465 0.888428
vn 0.459015 0.000465 0.888428
vn 0.459015 0.000465 0.888428
vn 0.002921 0.999996 -0.000181
vn 0.002921 0.999996 -0.000181
vn 0.002921 0.999996 -0.000181
vn 0.002921 0.999996 -0.000181
vn 0.998189 0.000151 -0.060162
vn 0.998189 0.000151 -0.060162
vn 0.998189 0.000151 -0.060162
vn 0.998189 0.000151 -0.060162
vn 0.002540 0.999995 -0.001755
vn 0.002540 0.999995 -0.001755
vn 0.002540 0.999995 -0.001755
vn 0.002540 0.999995 -0.001755
vn 0.003264 -0.999992 -0.002229
vn 0.003264 -0.999992 -0.002229
vn 0.003264 -0.999992 -0.002229
vn 0.003264 -0.999992 -0.002229
vn 0.845202 -0.000261 -0.534448
vn 0.845202 -0.000261 -0.534448
vn 0.845202 -0.000261 -0.534448
vn 0.845202 -0.000261 -0.534448
vn 0.003900 -0.999992 -0.000230
vn 0.003900 -0.999992 -0.000230
vn 0.003900 -0.999992 -0.000230
vn 0.003900 -0.999992 -0.000230
vn 0.210887 -0.000351 -0.977510
vn 0.210887 -0.000351 -0.977510
vn 0.210887 -0.000351 -0.977510
vn 0.210887 -0.000351 -0.977510
vn -0.001883 -0.999978 0.006395
vn -0.001883 -0.999978 0.006395
vn -0.001883 -0.999978 0.006395
vn -0.001883 -0.999978 0.006395
vn 0.002351 -0.999985 0.005039
vn 0.002351 -0.999985 0.005039
vn 0.002351 -0.999985 0.005039
vn 0.002351 -0.999985 0.005039
vn -0.006636 -0.999970 0.004128
vn -0.006636 -0.999969 0.004128
vn -0.006636 -0.999970 0.004128
vn -0.006636 -0.999970 0.004128
vn -0.251947 -0.000365 0.967741
vn -0.251947 -0.000365 0.967741
vn -0.251947 -0.000365 0.967741
vn -0.251947 -0.000365 0.967741
vn -0.847936 0.000140 0.530099
vn -0.847936 0.000140 0.530099
vn -0.847936 0.000140 0.530099
vn -0.847936 0.000140 0.530099
vn 0.004053 -0.999990 0.001865
vn 0.004053 -0.999990 0.001865
vn 0.004053 -0.999990 0.001865
vn 0.004053 -0.999990 0.001865
vn -0.005552 0.999979 0.003421
vn -0.005552 0.999979 0.003421
vn -0.005552 0.999979 0.003421
vn -0.005552 0.999979 0.003421
vn 0.591560 0.000163 0.806261
vn 0.591560 0.000163 0.806261
vn 0.591560 0.000163 0.806261
vn 0.591560 0.000163 0.806261
vn 0.000000 0.000000 1.000000
vn 0.000000 0.000000 1.000000
vn 0.000000 0.000000 1.000000
vn 0.000000 0.000000 1.000000
vn 0.000000 1.000000 0.000000
vn 0.000000 1.000000 0.000000
vn 0.000000 1.000000 0.000000
vn 0.000000 1.000000 0.000000
vn 0.000000 0.000000 -1.000000
vn 0.000000 0.000000 -1.000000
vn 0.000000 0.000000 -1.000000
vn 0.000000 0.000000 -1.000000
vn 0.000000 -1.000000 0.000000
vn 0.000000 -1.000000 0.000000
vn 0.000000 -1.000000 0.000000
vn 0.000000 -1.000000 0.000000
vn 1.000000 0.000000 0.000000
vn 1.000000 0.000000 0.000000
vn 1.000000 0.000000 0.000000
vn 1.000000 0.000000 0.000000
vn -1.000000 0.000000 0.000000
vn -1.000000 0.000000 0.000000
vn -1.000000 0.000000 0.000000
vn -1.000000 0.000000 0.000000
s off
g BUILDDECALNUM9 DECALS
usemtl initialShadingGroup
f 1//1 2//2 35//3 34//4
f 1//5 63//6 98//7 2//8
f 1//9 62//10 61//11 63//12
f 1//13 34//14 72//15 62//16
f 2//17 57//18 80//19 35//20
f 2//21 98//22 3//23 57//24
f 3//25 56//26 55//27 57//28
f 3//29 83//30 24//31 56//32
f 3//33 98//34 86//35 83//36
f 4//37 18//38 19//39 5//40
f 4//41 16//42 17//43 18//44
f 4//45 91//46 90//47 16//48
f 4//49 5//50 98//51 91//52
f 5//53 19//54 7//55 6//56
f 5//57 6//58 86//59 98//60
f 6//61 7//62 40//63 85//64
f 6//65 85//66 84//67 86//68
f 7//69 41//70 42//71 40//72
f 7//73 19//74 14//75 41//76
f 8//77 26//78 9//79 10//80
f 8//81 27//82 28//83 26//84
f 8//85 65//86 69//87 27//88
f 8//89 10//90 58//91 65//92
f 9//93 48//94 71//95 11//96
f 9//97 26//98 49//99 48//100
f 9//101 11//102 12//103 10//104
f 10//105 12//106 59//107 58//108
f 11//109 30//110 13//111 12//112
f 11//113 71//114 73//115 30//116
f 12//117 13//118 61//119 59//120
f 13//121 32//122 63//123 61//124
f 13//125 30//126 31//127 32//128
f 14//129 88//130 89//131 41//132
f 14//133 21//134 15//135 88//136
f 14//137 19//138 18//139 21//140
f 15//141 46//142 47//143 88//144
f 15//145 22//146 64//147 46//148
f 15//149 21//150 20//151 22//152
f 16//153 37//154 38//155 17//156
f 16//157 90//158 95//159 37//160
f 17//161 20//162 21//163 18//164
f 17//165 38//166 39//167 20//168
f 20//169 39//170 82//171 22//172
f 22//173 82//174 36//175 64//176
f 23//177 24//178 25//179 29//180
f 23//181 68//182 56//183 24//184
f 23//185 27//186 69//187 68//188
f 23//189 29//190 28//191 27//192
f 24//193 83//194 81//195 25//196
f 25//197 81//198 33//199 78//200
f 25//201 78//202 53//203 29//204
f 26//205 28//206 51//207 49//208
f 28//209 29//210 53//211 51//212
f 30//213 73//214 74//215 31//216
f 31//217 90//218 91//219 32//220
f 31//221 74//222 95//223 90//224
f 32//225 91//226 98//227 63//228
f 33//229 81//230 84//231 95//232
f 33//233 80//234 79//235 78//236
f 33//237 95//238 35//239 80//240
f 34//241 35//242 95//243 74//244
f 34//245 74//246 73//247 72//248
f 36//249 44//250 94//251 45//252
f 36//253 82//254 43//255 44//256
f 36//257 45//258 93//259 64//260
f 37//261 85//262 40//263 38//264
f 37//265 95//266 84//267 85//268
f 38//269 40//270 42//271 39//272
f 39//273 42//274 43//275 82//276
f 41//277 89//278 43//279 42//280
f 43//281 89//282 87//283 44//284
f 44//285 87//286 97//287 94//288
f 45//289 94//290 97//291 92//292
f 45//293 92//294 96//295 93//296
f 46//297 96//298 92//299 47//300
f 46//301 64//302 93//303 96//304
f 47//305 87//306 89//307 88//308
f 47//309 92//310 97//311 87//312
f 48//313 49//314 50//315 75//316
f 48//317 75//318 76//319 71//320
f 49//321 51//322 52//323 50//324
f 50//325 52//326 70//327 66//328
f 50//329 66//330 67//331 75//332
f 51//333 53//334 77//335 52//336
f 52//337 77//338 54//339 70//340
f 53//341 78//342 79//343 77//344
f 54//345 55//346 56//347 68//348
f 54//349 77//350 79//351 55//352
f 54//353 68//354 69//355 70//356
f 55//357 79//358 80//359 57//360
f 58//361 59//362 60//363 67//364
f 58//365 67//366 66//367 65//368
f 59//369 61//370 62//371 60//372
f 60//373 76//374 75//375 67//376
f 60//377 62//378 72//379 76//380
f 65//381 66//382 70//383 69//384
f 71//385 76//386 72//387 73//388
f 81//389 83//390 86//391 84//392
f 99/1/393 100/2/394 102/3/395 101/4/396
f 101/4/397 102/3/398 104/5/399 103/6/400
f 103/6/401 104/5/402 106/7/403 105/8/404
f 105/8/405 106/7/406 100/9/407 99/10/408
f 100/2/409 106/11/410 104/12/411 102/3/412
f 105/13/413 99/1/414 101/4/415 103/14/416
