# This file uses centimeters as units for non-parametric coordinates.

mtllib BUILDDECALNUM4.mtl
g default
v 0.123021 -0.000000 0.200146
v 0.015780 0.072569 -0.283224
v 0.187775 0.000000 0.090453
v 0.187775 0.000000 0.202082
v 0.109841 -0.000000 0.313695
v -0.103941 -0.000000 0.424583
v -0.014421 -0.000000 0.424583
v -0.011121 0.072659 0.424583
v -0.085310 -0.000000 -0.095346
v -0.032176 -0.000000 -0.192148
v -0.190218 0.072617 0.095780
v -0.138468 0.072595 0.001499
v -0.086062 0.072579 -0.093976
v -0.033370 0.072573 -0.189972
v -0.206240 0.072660 0.424583
v -0.087588 0.072659 0.313695
v 0.057755 0.072655 0.080141
v 0.057755 0.072656 0.195766
v 0.057755 0.000000 0.080335
v 0.132039 -0.000000 0.085870
v 0.060560 0.072693 0.542317
v 0.124557 0.072693 -0.154575
v 0.126138 0.072693 -0.030755
v -0.083262 -0.000000 0.313695
v 0.108815 0.072567 -0.283224
v 0.187694 0.072693 0.090255
v 0.187696 0.072693 0.202083
v -0.206065 -0.000000 0.424583
v -0.095260 0.072693 0.133616
v -0.143330 0.072693 0.224957
v 0.003961 0.072693 -0.055371
v -0.045294 0.072693 0.033529
v 0.057755 0.000000 -0.036025
v 0.187652 0.072693 0.542716
v 0.187702 0.072560 -0.283224
v 0.187702 0.072553 -0.154575
v -0.104331 0.072661 0.424583
v -0.137774 -0.000000 0.000235
v -0.189743 -0.000000 0.094914
v -0.240381 -0.000000 0.190642
v -0.241420 0.072639 0.189062
v -0.310198 -0.000000 0.313695
v -0.310198 0.072660 0.313695
v 0.004968 -0.000000 -0.057567
v -0.044405 -0.000000 0.037163
v -0.093840 -0.000000 0.132014
v -0.143222 -0.000000 0.226762
v 0.113601 0.072693 -0.283224
v 0.057755 0.072656 -0.035744
v 0.187676 0.072693 -0.154575
v 0.162242 -0.000000 -0.154575
v 0.187678 0.072693 -0.026942
v 0.187702 0.038946 -0.027101
v 0.143356 -0.000000 -0.030211
v 0.057755 0.000000 0.198207
v 0.125437 0.072693 0.086333
v 0.125587 0.072693 0.199337
v 0.115474 0.072693 0.313695
v 0.099114 -0.000000 -0.283224
v 0.187702 -0.000000 0.543279
v 0.059585 -0.000000 0.542715
v 0.187663 -0.000000 -0.283224
v 0.018708 -0.000000 -0.283224
v -0.310198 -0.000000 0.424583
v 0.060362 -0.000000 0.424583
v 0.060513 -0.000000 0.646250
v 0.187636 -0.000000 0.646250
v 0.187696 -0.000000 0.424583
v 0.301752 -0.000000 0.424583
v 0.301753 0.000000 0.313695
v 0.187712 -0.000000 0.313695
v 0.057755 -0.000000 -0.154575
v 0.057277 -0.000000 0.313695
v -0.189771 -0.000000 0.313695
v 0.187675 0.072693 -0.283224
v 0.032247 0.072693 -0.283224
v -0.190173 0.072675 0.313695
v -0.310198 0.072650 0.424583
v 0.060659 0.072693 0.424583
v 0.060560 0.072660 0.646250
v 0.187630 0.072693 0.646250
v 0.187687 0.072693 0.424583
v 0.301752 0.072693 0.424583
v 0.301752 0.072662 0.313695
v 0.187709 0.072682 0.313695
v 0.057196 0.072693 -0.154575
v 0.057257 0.072665 0.313695
v 0.015780 0.000000 -0.304263
v 0.187675 0.000000 -0.304263
v 0.015780 0.100000 -0.304263
v 0.187675 0.100000 -0.304263
v 0.015780 0.100000 -0.419027
v 0.187675 0.100000 -0.419027
v 0.015780 0.000000 -0.419027
v 0.187675 0.000000 -0.419027
vt 0.375000 0.000000
vt 0.625000 0.000000
vt 0.625000 0.250000
vt 0.375000 0.250000
vt 0.625000 0.500000
vt 0.375000 0.500000
vt 0.625000 0.750000
vt 0.375000 0.750000
vt 0.625000 1.000000
vt 0.375000 1.000000
vt 0.875000 0.000000
vt 0.875000 0.250000
vt 0.125000 0.000000
vt 0.125000 0.250000
vn -0.000000 -1.000000 -0.000000
vn -0.000000 -1.000000 -0.000000
vn -0.000000 -1.000000 -0.000000
vn -0.000000 -1.000000 -0.000000
vn 0.000000 -1.000000 -0.000000
vn 0.000000 -1.000000 -0.000000
vn 0.000000 -1.000000 -0.000000
vn 0.000000 -1.000000 -0.000000
vn 0.000000 -1.000000 -0.000000
vn 0.000000 -1.000000 -0.000000
vn 0.000000 -1.000000 -0.000000
vn 0.000000 -1.000000 -0.000000
vn -0.000000 -1.000000 -0.000000
vn -0.000000 -1.000000 -0.000000
vn -0.000000 -1.000000 -0.000000
vn -0.000000 -1.000000 -0.000000
vn -0.002188 0.999998 -0.000256
vn -0.002188 0.999998 -0.000256
vn -0.002188 0.999998 -0.000256
vn -0.002188 0.999998 -0.000256
vn -0.878774 -0.017806 -0.476906
vn -0.878774 -0.017806 -0.476906
vn -0.878774 -0.017806 -0.476906
vn -0.878774 -0.017806 -0.476906
vn -0.000000 -0.000000 -1.000000
vn -0.000000 -0.000000 -1.000000
vn -0.000000 -0.000000 -1.000000
vn -0.000000 -0.000000 -1.000000
vn -0.000000 0.000612 -1.000000
vn -0.000000 0.000612 -1.000000
vn -0.000000 0.000612 -1.000000
vn -0.000000 0.000612 -1.000000
vn 0.999999 0.001099 -0.000008
vn 0.999999 0.001099 -0.000008
vn 0.999999 0.001099 -0.000008
vn 0.999999 0.001099 -0.000008
vn 1.000000 0.000990 -0.000215
vn 1.000000 0.000990 -0.000215
vn 1.000000 0.000990 -0.000215
vn 1.000000 0.000990 -0.000215
vn 0.368335 -0.919753 -0.135591
vn 0.368335 -0.919753 -0.135591
vn 0.368335 -0.919752 -0.135591
vn 0.368335 -0.919753 -0.135591
vn 1.000000 0.000561 0.000219
vn 1.000000 0.000561 0.000219
vn 1.000000 0.000561 0.000219
vn 1.000000 0.000561 0.000219
vn 0.000000 -1.000000 -0.000000
vn 0.000000 -1.000000 -0.000000
vn 0.000000 -1.000000 -0.000000
vn 0.000000 -1.000000 -0.000000
vn -0.000000 -1.000000 -0.000000
vn -0.000000 -1.000000 -0.000000
vn -0.000000 -1.000000 -0.000000
vn -0.000000 -1.000000 -0.000000
vn 0.000000 -1.000000 0.000000
vn 0.000000 -1.000000 0.000000
vn 0.000000 -1.000000 0.000000
vn 0.000000 -1.000000 0.000000
vn 0.000000 -1.000000 0.000000
vn 0.000000 -1.000000 0.000000
vn 0.000000 -1.000000 0.000000
vn 0.000000 -1.000000 0.000000
vn -0.000000 0.000000 1.000000
vn -0.000000 0.000000 1.000000
vn -0.000000 0.000000 1.000000
vn -0.000000 0.000000 1.000000
vn 0.000000 0.000000 1.000000
vn 0.000000 0.000000 1.000000
vn 0.000000 0.000000 1.000000
vn 0.000000 0.000000 1.000000
vn 0.000001 -0.000000 1.000000
vn 0.000001 -0.000000 1.000000
vn 0.000001 -0.000000 1.000000
vn 0.000001 -0.000000 1.000000
vn -0.000019 1.000000 0.000010
vn -0.000019 1.000000 0.000010
vn -0.000019 1.000000 0.000010
vn -0.000019 1.000000 0.000010
vn -0.000471 1.000000 -0.000237
vn -0.000471 1.000000 -0.000237
vn -0.000471 1.000000 -0.000237
vn -0.000471 1.000000 -0.000237
vn -0.876624 -0.000000 -0.481176
vn -0.876624 -0.000000 -0.481176
vn -0.876624 -0.000000 -0.481176
vn -0.876624 -0.000000 -0.481176
vn -0.876624 -0.000000 -0.481176
vn -0.876624 -0.000000 -0.481176
vn -0.876624 -0.000000 -0.481176
vn -0.876624 -0.000000 -0.481176
vn 0.000000 -1.000000 0.000000
vn 0.000000 -1.000000 0.000000
vn 0.000000 -1.000000 0.000000
vn 0.000000 -1.000000 0.000000
vn 0.000000 -1.000000 0.000000
vn 0.000000 -1.000000 0.000000
vn 0.000000 -1.000000 0.000000
vn 0.000000 -1.000000 0.000000
vn -0.000000 -1.000000 0.000000
vn -0.000000 -1.000000 0.000000
vn -0.000000 -1.000000 0.000000
vn -0.000000 -1.000000 0.000000
vn -0.000736 1.000000 -0.000498
vn -0.000736 1.000000 -0.000498
vn -0.000736 1.000000 -0.000498
vn -0.000736 1.000000 -0.000498
vn -0.000518 1.000000 -0.000397
vn -0.000518 1.000000 -0.000397
vn -0.000518 1.000000 -0.000397
vn -0.000518 1.000000 -0.000397
vn -0.880286 -0.011511 -0.474304
vn -0.880286 -0.011511 -0.474304
vn -0.880286 -0.011511 -0.474304
vn -0.880286 -0.011511 -0.474304
vn -0.876624 -0.000000 -0.481176
vn -0.876624 -0.000000 -0.481176
vn -0.876624 -0.000000 -0.481176
vn -0.876624 -0.000000 -0.481176
vn -0.000925 0.999999 -0.000599
vn -0.000925 0.999999 -0.000599
vn -0.000925 0.999999 -0.000599
vn -0.000925 0.999999 -0.000599
vn -0.001050 0.999999 -0.000598
vn -0.001050 0.999999 -0.000598
vn -0.001050 0.999999 -0.000598
vn -0.001050 0.999999 -0.000598
vn 0.000078 1.000000 0.000072
vn 0.000078 1.000000 0.000072
vn 0.000078 1.000000 0.000072
vn 0.000078 1.000000 0.000072
vn 0.000000 -0.000000 1.000000
vn 0.000000 -0.000000 1.000000
vn 0.000000 -0.000000 1.000000
vn 0.000000 -0.000000 1.000000
vn -0.000112 1.000000 0.000104
vn -0.000112 1.000000 0.000104
vn -0.000112 1.000000 0.000104
vn -0.000112 1.000000 0.000104
vn -0.000000 0.000000 -1.000000
vn -0.000000 0.000000 -1.000000
vn -0.000000 0.000000 -1.000000
vn -0.000000 0.000000 -1.000000
vn -0.000000 0.000000 -1.000000
vn -0.000000 0.000000 -1.000000
vn -0.000000 0.000000 -1.000000
vn -0.000000 0.000000 -1.000000
vn -1.000000 -0.000000 0.000000
vn -1.000000 -0.000000 0.000000
vn -1.000000 -0.000000 0.000000
vn -1.000000 -0.000000 0.000000
vn -1.000000 0.000000 0.000000
vn -1.000000 0.000000 0.000000
vn -1.000000 0.000000 0.000000
vn -1.000000 0.000000 0.000000
vn -0.000543 1.000000 0.000004
vn -0.000543 1.000000 0.000004
vn -0.000543 1.000000 0.000004
vn -0.000543 1.000000 0.000004
vn -0.000549 1.000000 -0.000003
vn -0.000549 1.000000 -0.000003
vn -0.000549 1.000000 -0.000003
vn -0.000549 1.000000 -0.000003
vn -0.000512 1.000000 -0.000062
vn -0.000512 1.000000 -0.000062
vn -0.000512 1.000000 -0.000062
vn -0.000512 1.000000 -0.000062
vn -0.999991 -0.000206 -0.004182
vn -0.999991 -0.000206 -0.004182
vn -0.999991 -0.000206 -0.004182
vn -0.999991 -0.000206 -0.004182
vn -0.000000 -1.000000 -0.000000
vn -0.000000 -1.000000 -0.000000
vn -0.000000 -1.000000 -0.000000
vn -0.000000 -1.000000 -0.000000
vn -0.000131 1.000000 0.000160
vn -0.000131 1.000000 0.000160
vn -0.000131 1.000000 0.000160
vn -0.000131 1.000000 0.000160
vn -0.999965 0.007051 0.004476
vn -0.999965 0.007051 0.004476
vn -0.999965 0.007051 0.004476
vn -0.999965 0.007051 0.004476
vn -0.999955 0.008741 -0.003716
vn -0.999955 0.008741 -0.003716
vn -0.999955 0.008741 -0.003716
vn -0.999955 0.008741 -0.003716
vn 0.000000 1.000000 -0.000000
vn 0.000000 1.000000 -0.000000
vn 0.000000 1.000000 -0.000000
vn 0.000000 1.000000 -0.000000
vn 0.000000 1.000000 0.000000
vn 0.000000 1.000000 0.000000
vn 0.000000 1.000000 0.000000
vn 0.000000 1.000000 0.000000
vn -0.000273 1.000000 0.000152
vn -0.000273 1.000000 0.000152
vn -0.000273 1.000000 0.000152
vn -0.000273 1.000000 0.000152
vn 0.000000 1.000000 0.000000
vn 0.000000 1.000000 0.000000
vn 0.000000 1.000000 0.000000
vn 0.000000 1.000000 0.000000
vn 0.000000 1.000000 -0.000000
vn 0.000000 1.000000 -0.000000
vn 0.000000 1.000000 -0.000000
vn 0.000000 1.000000 -0.000000
vn 0.000000 1.000000 0.000000
vn 0.000000 1.000000 0.000000
vn 0.000000 1.000000 0.000000
vn 0.000000 1.000000 0.000000
vn 0.000001 -0.000000 -1.000000
vn 0.000001 -0.000000 -1.000000
vn 0.000001 -0.000000 -1.000000
vn 0.000001 -0.000000 -1.000000
vn 0.000001 0.000447 -1.000000
vn 0.000001 0.000447 -1.000000
vn 0.000001 0.000447 -1.000000
vn 0.000001 0.000447 -1.000000
vn 0.000000 1.000000 -0.000000
vn 0.000000 1.000000 -0.000000
vn 0.000000 1.000000 -0.000000
vn 0.000000 1.000000 -0.000000
vn 0.000081 1.000000 0.000052
vn 0.000081 1.000000 0.000052
vn 0.000081 1.000000 0.000052
vn 0.000081 1.000000 0.000052
vn 0.000000 -1.000000 0.000000
vn 0.000000 -1.000000 0.000000
vn 0.000000 -1.000000 0.000000
vn 0.000000 -1.000000 0.000000
vn 0.885833 0.009954 0.463898
vn 0.885833 0.009954 0.463898
vn 0.885833 0.009954 0.463898
vn 0.885833 0.009954 0.463898
vn 0.890678 0.020491 0.454172
vn 0.890678 0.020491 0.454172
vn 0.890678 0.020491 0.454172
vn 0.890678 0.020491 0.454172
vn 0.882942 0.008928 0.469397
vn 0.882942 0.008928 0.469397
vn 0.882942 0.008928 0.469397
vn 0.882942 0.008928 0.469397
vn -0.000287 1.000000 -0.000173
vn -0.000287 1.000000 -0.000173
vn -0.000287 1.000000 -0.000173
vn -0.000287 1.000000 -0.000173
vn 0.879778 0.002298 0.475380
vn 0.879778 0.002298 0.475380
vn 0.879778 0.002298 0.475380
vn 0.879778 0.002298 0.475380
vn 0.880857 0.016167 0.473106
vn 0.880857 0.016167 0.473106
vn 0.880857 0.016167 0.473106
vn 0.880857 0.016167 0.473106
vn -0.000000 -1.000000 0.000000
vn -0.000000 -1.000000 0.000000
vn -0.000000 -1.000000 0.000000
vn -0.000000 -1.000000 0.000000
vn -0.999990 -0.003852 0.002355
vn -0.999990 -0.003852 0.002355
vn -0.999990 -0.003852 0.002355
vn -0.999990 -0.003852 0.002355
vn 1.000000 0.000389 0.000426
vn 1.000000 0.000389 0.000426
vn 1.000000 0.000389 0.000426
vn 1.000000 0.000389 0.000426
vn 1.000000 0.000411 0.000121
vn 1.000000 0.000411 0.000121
vn 1.000000 0.000411 0.000121
vn 1.000000 0.000411 0.000121
vn 0.980280 -0.172257 0.096848
vn 0.980280 -0.172257 0.096848
vn 0.980280 -0.172257 0.096848
vn 0.980280 -0.172257 0.096848
vn 0.981710 0.190381 -0.000001
vn 0.981710 0.190381 -0.000001
vn 0.981710 0.190381 -0.000001
vn 0.981710 0.190381 -0.000001
vn 0.999999 0.001476 0.000190
vn 0.999999 0.001476 0.000190
vn 0.999999 0.001476 0.000190
vn 0.999999 0.001476 0.000190
vn 0.847657 -0.530496 -0.007227
vn 0.847657 -0.530496 -0.007227
vn 0.847657 -0.530496 -0.007227
vn 0.847657 -0.530496 -0.007227
vn 0.000000 -1.000000 0.000000
vn 0.000000 -1.000000 0.000000
vn 0.000000 -1.000000 0.000000
vn 0.000000 -1.000000 0.000000
vn 0.000000 -1.000000 -0.000000
vn 0.000000 -1.000000 -0.000000
vn 0.000000 -1.000000 -0.000000
vn 0.000000 -1.000000 -0.000000
vn -0.872612 -0.011552 -0.488277
vn -0.872612 -0.011552 -0.488277
vn -0.872612 -0.011552 -0.488277
vn -0.872612 -0.011552 -0.488277
vn 0.000000 -1.000000 0.000000
vn 0.000000 -1.000000 0.000000
vn 0.000000 -1.000000 0.000000
vn 0.000000 -1.000000 0.000000
vn -1.000000 -0.000000 -0.000001
vn -1.000000 -0.000000 -0.000001
vn -1.000000 -0.000000 -0.000001
vn -1.000000 -0.000000 -0.000001
vn -0.000000 -1.000000 0.000000
vn -0.000000 -1.000000 0.000000
vn -0.000000 -1.000000 0.000000
vn -0.000000 -1.000000 0.000000
vn 0.000055 1.000000 -0.000036
vn 0.000055 1.000000 -0.000036
vn 0.000055 1.000000 -0.000036
vn 0.000055 1.000000 -0.000036
vn -0.000000 -1.000000 0.000000
vn -0.000000 -1.000000 0.000000
vn -0.000000 -1.000000 0.000000
vn -0.000000 -1.000000 0.000000
vn 0.000000 -1.000000 -0.000000
vn 0.000000 -1.000000 -0.000000
vn 0.000000 -1.000000 -0.000000
vn 0.000000 -1.000000 -0.000000
vn 0.000000 -0.000000 1.000000
vn 0.000000 -0.000000 1.000000
vn 0.000000 -0.000000 1.000000
vn 0.000000 -0.000000 1.000000
vn 0.000000 0.000000 1.000000
vn 0.000000 0.000000 1.000000
vn 0.000000 0.000000 1.000000
vn 0.000000 0.000000 1.000000
vn 0.000000 -1.000000 -0.000000
vn 0.000000 -1.000000 -0.000000
vn 0.000000 -1.000000 -0.000000
vn 0.000000 -1.000000 -0.000000
vn 1.000000 0.000002 0.000001
vn 1.000000 0.000002 0.000001
vn 1.000000 0.000002 0.000001
vn 1.000000 0.000002 0.000001
vn -0.000000 0.000000 -1.000000
vn -0.000000 0.000000 -1.000000
vn -0.000000 0.000000 -1.000000
vn -0.000000 0.000000 -1.000000
vn 0.000087 1.000000 -0.000189
vn 0.000087 1.000000 -0.000189
vn 0.000087 1.000000 -0.000189
vn 0.000087 1.000000 -0.000189
vn 0.000000 0.000000 1.000000
vn 0.000000 0.000000 1.000000
vn 0.000000 0.000000 1.000000
vn 0.000000 0.000000 1.000000
vn 0.000000 1.000000 0.000000
vn 0.000000 1.000000 0.000000
vn 0.000000 1.000000 0.000000
vn 0.000000 1.000000 0.000000
vn 0.000000 0.000000 -1.000000
vn 0.000000 0.000000 -1.000000
vn 0.000000 0.000000 -1.000000
vn 0.000000 0.000000 -1.000000
vn 0.000000 -1.000000 0.000000
vn 0.000000 -1.000000 0.000000
vn 0.000000 -1.000000 0.000000
vn 0.000000 -1.000000 0.000000
vn 1.000000 0.000000 0.000000
vn 1.000000 0.000000 0.000000
vn 1.000000 0.000000 0.000000
vn 1.000000 0.000000 0.000000
vn -1.000000 0.000000 0.000000
vn -1.000000 0.000000 0.000000
vn -1.000000 0.000000 0.000000
vn -1.000000 0.000000 0.000000
s off
g BUILDDECALNUM4 DECALS
usemtl initialShadingGroup
f 1//1 5//2 73//3 55//4
f 1//5 4//6 71//7 5//8
f 1//9 20//10 3//11 4//12
f 1//13 55//14 19//15 20//16
f 2//17 14//18 86//19 76//20
f 2//21 63//22 10//23 14//24
f 2//25 25//26 59//27 63//28
f 2//29 76//30 48//31 25//32
f 3//33 26//34 27//35 4//36
f 3//37 53//38 52//39 26//40
f 3//41 20//42 54//43 53//44
f 4//45 27//46 85//47 71//48
f 5//49 71//50 68//51 65//52
f 5//53 65//54 7//55 73//56
f 6//57 24//58 73//59 7//60
f 6//61 28//62 74//63 24//64
f 6//65 37//66 15//67 28//68
f 6//69 7//70 8//71 37//72
f 7//73 65//74 79//75 8//76
f 8//77 87//78 16//79 37//80
f 8//81 79//82 58//83 87//84
f 9//85 13//86 14//87 10//88
f 9//89 38//90 12//91 13//92
f 9//93 44//94 45//95 38//96
f 9//97 10//98 72//99 44//100
f 10//101 63//102 59//103 72//104
f 11//105 29//106 32//107 12//108
f 11//109 41//110 30//111 29//112
f 11//113 39//114 40//115 41//116
f 11//117 12//118 38//119 39//120
f 12//121 32//122 31//123 13//124
f 13//125 31//126 86//127 14//128
f 15//129 37//130 16//131 77//132
f 15//133 78//134 64//135 28//136
f 15//137 77//138 43//139 78//140
f 16//141 87//142 73//143 24//144
f 16//145 24//146 74//147 77//148
f 17//149 19//150 55//151 18//152
f 17//153 49//154 33//155 19//156
f 17//157 56//158 23//159 49//160
f 17//161 18//162 57//163 56//164
f 18//165 87//166 58//167 57//168
f 18//169 55//170 73//171 87//172
f 19//173 33//174 54//175 20//176
f 21//177 80//178 81//179 34//180
f 21//181 61//182 66//183 80//184
f 21//185 79//186 65//187 61//188
f 21//189 34//190 82//191 79//192
f 22//193 23//194 52//195 50//196
f 22//197 86//198 49//199 23//200
f 22//201 48//202 76//203 86//204
f 22//205 50//206 75//207 48//208
f 23//209 56//210 26//211 52//212
f 25//213 35//214 62//215 59//216
f 25//217 48//218 75//219 35//220
f 26//221 56//222 57//223 27//224
f 27//225 57//226 58//227 85//228
f 28//229 64//230 42//231 74//232
f 29//233 30//234 47//235 46//236
f 29//237 46//238 45//239 32//240
f 30//241 77//242 74//243 47//244
f 30//245 41//246 43//247 77//248
f 31//249 44//250 72//251 86//252
f 31//253 32//254 45//255 44//256
f 33//257 72//258 51//259 54//260
f 33//261 49//262 86//263 72//264
f 34//265 81//266 67//267 60//268
f 34//269 60//270 68//271 82//272
f 35//273 36//274 51//275 62//276
f 35//277 75//278 50//279 36//280
f 36//281 50//282 52//283 53//284
f 36//285 53//286 54//287 51//288
f 38//289 45//290 46//291 39//292
f 39//293 46//294 47//295 40//296
f 40//297 42//298 43//299 41//300
f 40//301 47//302 74//303 42//304
f 42//305 64//306 78//307 43//308
f 51//309 72//310 59//311 62//312
f 58//313 79//314 82//315 85//316
f 60//317 61//318 65//319 68//320
f 60//321 67//322 66//323 61//324
f 66//325 67//326 81//327 80//328
f 68//329 69//330 83//331 82//332
f 68//333 71//334 70//335 69//336
f 69//337 70//338 84//339 83//340
f 70//341 71//342 85//343 84//344
f 82//345 83//346 84//347 85//348
f 88/1/349 89/2/350 91/3/351 90/4/352
f 90/4/353 91/3/354 93/5/355 92/6/356
f 92/6/357 93/5/358 95/7/359 94/8/360
f 94/8/361 95/7/362 89/9/363 88/10/364
f 89/2/365 95/11/366 93/12/367 91/3/368
f 94/13/369 88/1/370 90/4/371 92/14/372
