# This file uses centimeters as units for non-parametric coordinates.

mtllib SPEC_DECAL03.mtl
g default
v -0.032618 0.045579 -0.184474
v 0.332603 0.045579 -0.304450
v 0.332603 0.000000 -0.304450
v -0.032618 0.000000 -0.184474
v 0.018023 0.045579 -0.481844
v 0.207297 0.045579 -0.494513
v 0.207297 0.000000 -0.494513
v 0.018023 0.000000 -0.481844
v -0.105377 0.045579 -0.634609
v -0.009585 0.045579 -0.765509
v -0.009585 0.000000 -0.765509
v -0.105377 0.000000 -0.634609
v -0.138216 0.045579 -0.729085
v -0.085644 0.045579 -0.797234
v -0.085644 0.000000 -0.797234
v -0.138216 0.000000 -0.729085
v -0.022067 0.106133 -0.181476
v 0.206233 0.106133 -0.163388
v 0.206233 0.000000 -0.163388
v -0.022067 0.000000 -0.181476
v -0.236188 0.106133 -0.371087
v -0.035887 0.106133 -0.479895
v -0.035887 0.000000 -0.479895
v -0.236187 0.000000 -0.371087
v -0.464090 0.106133 -0.471898
v -0.368352 0.106133 -0.647109
v -0.368353 0.000000 -0.647108
v -0.464090 0.000000 -0.471898
v -0.590376 0.106133 -0.628377
v -0.601489 0.106133 -0.756094
v -0.601489 0.000000 -0.756094
v -0.590376 0.000000 -0.628377
v 0.022962 0.080580 -0.112647
v 0.294208 0.080580 -0.137877
v 0.294208 -0.000000 -0.137877
v 0.022962 -0.000000 -0.112647
v -0.093041 0.080580 -0.442191
v 0.135985 0.080580 -0.503615
v 0.135985 -0.000000 -0.503615
v -0.093041 -0.000000 -0.442191
v -0.281398 0.080580 -0.599601
v -0.146064 0.080580 -0.746395
v -0.146063 -0.000000 -0.746395
v -0.281398 -0.000000 -0.599600
v -0.406674 0.080580 -0.750562
v -0.365166 0.080580 -0.888657
v -0.365166 -0.000000 -0.888657
v -0.406674 -0.000000 -0.750562
v -0.032893 0.000000 0.861879
v 0.709944 0.000000 0.632120
v -0.032893 0.132067 0.861879
v 0.709944 0.132067 0.632120
v -0.080328 0.132067 0.628290
v 0.666628 0.132067 0.382651
v -0.080328 0.000000 0.628290
v 0.666628 0.000000 0.382651
v -0.011324 0.132067 0.537503
v 0.564913 0.132067 0.313150
v 0.564913 0.000000 0.313150
v -0.011324 0.000000 0.537503
v -0.104158 0.132067 -0.100030
v 0.342018 0.132067 -0.307788
v 0.342018 -0.000000 -0.307788
v -0.104158 -0.000000 -0.100030
v -0.249242 0.132067 -0.263848
v -0.034632 0.132067 -0.420639
v -0.034632 -0.000000 -0.420639
v -0.249242 -0.000000 -0.263848
v -0.200055 0.132067 0.474521
v -0.200055 0.000000 0.474521
v -0.131772 0.132067 0.125559
v -0.131772 -0.000000 0.125559
v -0.545327 0.132067 0.220966
v -0.545327 0.000000 0.220966
v -0.431678 0.132067 0.021147
v -0.431678 -0.000000 0.021147
v -0.680802 0.132067 -0.175999
v -0.680803 0.000000 -0.175999
v -0.559676 0.132067 -0.170280
v -0.559676 -0.000000 -0.170280
v -0.425882 0.132067 -0.309573
v -0.492155 0.132067 -0.495362
v -0.492155 -0.000000 -0.495362
v -0.425882 -0.000000 -0.309573
v -0.559040 0.132067 -0.198473
v -0.674338 0.132067 -0.206905
v -0.674337 -0.000000 -0.206905
v -0.559040 -0.000000 -0.198473
vt 0.375000 0.500000
vt 0.625000 0.500000
vt 0.625000 0.750000
vt 0.375000 0.750000
vt 0.375000 0.500000
vt 0.625000 0.500000
vt 0.625000 0.750000
vt 0.375000 0.750000
vt 0.375000 0.500000
vt 0.625000 0.500000
vt 0.625000 0.750000
vt 0.375000 0.750000
vt 0.375000 0.500000
vt 0.625000 0.500000
vt 0.625000 0.750000
vt 0.375000 0.750000
vt 0.375000 0.500000
vt 0.625000 0.500000
vt 0.625000 0.750000
vt 0.375000 0.750000
vt 0.375000 0.500000
vt 0.625000 0.500000
vt 0.625000 0.500000
vt 0.375000 0.500000
vt 0.625000 0.750000
vt 0.625000 0.750000
vt 0.375000 0.750000
vt 0.375000 0.750000
vt 0.625000 0.500000
vt 0.375000 0.500000
vt 0.625000 0.750000
vt 0.375000 0.750000
vt 0.375000 0.500000
vt 0.625000 0.500000
vt 0.625000 0.750000
vt 0.375000 0.750000
vt 0.375000 0.500000
vt 0.625000 0.500000
vt 0.625000 0.500000
vt 0.375000 0.500000
vt 0.625000 0.750000
vt 0.625000 0.750000
vt 0.375000 0.750000
vt 0.375000 0.750000
vt 0.625000 0.500000
vt 0.375000 0.500000
vt 0.625000 0.750000
vt 0.375000 0.750000
vt 0.375000 0.000000
vt 0.625000 0.000000
vt 0.625000 0.250000
vt 0.375000 0.250000
vt 0.625000 0.500000
vt 0.375000 0.500000
vt 0.375000 0.500000
vt 0.625000 0.500000
vt 0.625000 0.750000
vt 0.375000 0.750000
vt 0.375000 0.750000
vt 0.625000 0.750000
vt 0.625000 1.000000
vt 0.375000 1.000000
vt 0.875000 0.000000
vt 0.875000 0.250000
vt 0.125000 0.000000
vt 0.125000 0.250000
vt 0.625000 0.500000
vt 0.375000 0.500000
vt 0.625000 0.750000
vt 0.375000 0.750000
vt 0.625000 0.500000
vt 0.375000 0.500000
vt 0.625000 0.750000
vt 0.375000 0.750000
vt 0.375000 0.750000
vt 0.375000 0.500000
vt 0.375000 0.500000
vt 0.375000 0.750000
vt 0.625000 0.500000
vt 0.375000 0.500000
vt 0.625000 0.750000
vt 0.375000 0.750000
vt 0.375000 0.500000
vt 0.375000 0.750000
vt 0.375000 0.500000
vt 0.375000 0.750000
vt 0.375000 0.500000
vt 0.375000 0.750000
vt 0.375000 0.500000
vt 0.375000 0.750000
vt 0.625000 0.500000
vt 0.375000 0.500000
vt 0.625000 0.750000
vt 0.375000 0.750000
vn -0.791785 0.000003 -0.610800
vn -0.791785 0.000003 -0.610800
vn -0.791785 0.000003 -0.610800
vn -0.791785 0.000003 -0.610800
vn -0.000000 1.000000 0.000000
vn -0.000000 1.000000 0.000000
vn -0.000000 1.000000 0.000000
vn -0.000000 1.000000 0.000000
vn 0.834883 0.000001 -0.550428
vn 0.834883 0.000001 -0.550428
vn 0.803005 0.000002 -0.595973
vn 0.803005 0.000002 -0.595973
vn -0.000000 -1.000000 -0.000000
vn -0.000000 -1.000000 -0.000000
vn -0.000000 -1.000000 -0.000000
vn -0.000000 -1.000000 -0.000000
vn -0.985808 0.000001 -0.167879
vn -0.985808 0.000001 -0.167879
vn -0.985808 0.000001 -0.167879
vn -0.985808 0.000001 -0.167879
vn 0.000000 1.000000 0.000000
vn -0.000000 1.000000 0.000000
vn 0.780749 0.000003 -0.624845
vn 0.780749 0.000003 -0.624845
vn 0.000000 -1.000000 0.000000
vn 0.000000 -1.000000 0.000000
vn -0.777908 -0.000001 0.628379
vn -0.777908 -0.000001 0.628379
vn -0.777908 -0.000001 0.628379
vn -0.777908 -0.000001 0.628379
vn 0.000000 1.000000 0.000000
vn 0.000000 1.000000 0.000000
vn 0.384962 0.000001 -0.922932
vn 0.384962 0.000001 -0.922932
vn 0.384962 0.000001 -0.922932
vn 0.384962 0.000001 -0.922932
vn 0.000000 -1.000000 -0.000000
vn 0.000000 -1.000000 -0.000000
vn -0.944568 -0.000001 0.328316
vn -0.944568 -0.000001 0.328316
vn -0.944568 -0.000001 0.328316
vn -0.944568 -0.000001 0.328316
vn -0.996236 0.000001 0.086686
vn -0.996236 0.000001 0.086686
vn -0.996236 0.000001 0.086686
vn -0.996236 0.000001 0.086686
vn -0.000000 1.000000 0.000000
vn -0.000000 1.000000 0.000000
vn -0.000000 1.000000 0.000000
vn -0.000000 1.000000 0.000000
vn 0.794255 0.000000 -0.607584
vn 0.794255 0.000000 -0.607584
vn 0.644027 -0.000001 -0.765003
vn 0.644026 -0.000001 -0.765004
vn -0.000000 -1.000000 0.000000
vn -0.000000 -1.000000 0.000000
vn -0.000000 -1.000000 0.000000
vn -0.000000 -1.000000 0.000000
vn -0.662959 0.000001 0.748656
vn -0.662959 0.000001 0.748656
vn -0.662959 0.000001 0.748656
vn -0.662959 0.000001 0.748656
vn -0.000000 1.000000 0.000000
vn -0.000000 1.000000 0.000000
vn 0.449321 -0.000003 -0.893370
vn 0.449321 -0.000003 -0.893370
vn -0.000000 -1.000000 -0.000000
vn -0.000000 -1.000000 -0.000000
vn -0.404535 0.000000 0.914523
vn -0.404535 0.000000 0.914523
vn -0.404535 0.000000 0.914523
vn -0.404535 0.000000 0.914523
vn -0.000000 1.000000 0.000000
vn -0.000000 1.000000 0.000000
vn 0.423485 -0.000002 -0.905903
vn 0.423485 -0.000002 -0.905903
vn 0.423485 -0.000002 -0.905903
vn 0.423485 -0.000002 -0.905903
vn 0.000000 -1.000000 -0.000000
vn 0.000000 -1.000000 -0.000000
vn -0.778187 0.000000 0.628032
vn -0.778187 0.000000 0.628033
vn -0.778187 0.000000 0.628033
vn -0.778187 0.000000 0.628032
vn -0.957674 -0.000001 -0.287854
vn -0.957674 -0.000001 -0.287854
vn -0.957674 -0.000001 -0.287854
vn -0.957674 -0.000001 -0.287854
vn 0.000000 1.000000 -0.000000
vn 0.000000 1.000000 -0.000000
vn 0.000000 1.000000 -0.000000
vn 0.000000 1.000000 -0.000000
vn 0.917797 -0.000001 -0.397050
vn 0.917797 -0.000001 -0.397051
vn 0.810182 -0.000001 -0.586178
vn 0.810182 -0.000001 -0.586178
vn 0.000000 -1.000000 -0.000000
vn 0.000000 -1.000000 -0.000000
vn 0.000000 -1.000000 -0.000000
vn 0.000000 -1.000000 -0.000000
vn -0.943265 -0.000000 0.332041
vn -0.943265 -0.000000 0.332041
vn -0.943265 -0.000000 0.332041
vn -0.943265 -0.000000 0.332041
vn -0.000000 1.000000 0.000000
vn -0.000000 1.000000 0.000000
vn 0.652377 0.000000 -0.757894
vn 0.652377 0.000000 -0.757894
vn 0.000000 -1.000000 -0.000000
vn 0.000000 -1.000000 -0.000000
vn -0.641255 0.000001 0.767328
vn -0.641255 0.000001 0.767328
vn -0.641255 0.000001 0.767328
vn -0.641255 0.000001 0.767328
vn -0.000000 1.000000 0.000000
vn -0.000000 1.000000 0.000000
vn 0.544571 0.000002 -0.838715
vn 0.544571 0.000002 -0.838715
vn 0.544571 0.000002 -0.838715
vn 0.544571 0.000002 -0.838715
vn 0.000000 -1.000000 -0.000000
vn 0.000000 -1.000000 -0.000000
vn -0.769535 0.000001 0.638604
vn -0.769535 0.000001 0.638604
vn -0.769535 0.000001 0.638604
vn -0.769535 0.000001 0.638604
vn 0.295487 -0.000000 0.955347
vn 0.295487 -0.000000 0.955347
vn 0.295487 -0.000000 0.955347
vn 0.295487 -0.000000 0.955347
vn 0.000000 1.000000 -0.000000
vn 0.000000 1.000000 -0.000000
vn -0.000000 1.000000 -0.000000
vn -0.000000 1.000000 -0.000000
vn -0.072941 -0.000001 0.997336
vn -0.072941 -0.000001 0.997336
vn -0.072941 -0.000001 0.997336
vn -0.072941 -0.000001 0.997336
vn -0.000000 -1.000000 -0.000000
vn -0.000000 -1.000000 -0.000000
vn 0.000000 -1.000000 0.000000
vn 0.000000 -1.000000 0.000000
vn 0.985259 -0.000000 -0.171070
vn 0.910319 -0.000000 -0.413907
vn 0.910319 -0.000000 -0.413907
vn 0.985259 -0.000000 -0.171070
vn -0.997797 -0.000000 -0.066348
vn -0.979998 -0.000000 0.199006
vn -0.979998 -0.000000 0.199006
vn -0.997797 -0.000000 -0.066348
vn -0.000000 1.000000 -0.000000
vn -0.000000 1.000000 -0.000000
vn 0.564169 -0.000000 -0.825659
vn 0.564169 -0.000000 -0.825659
vn -0.000000 -1.000000 -0.000000
vn -0.000000 -1.000000 -0.000000
vn -0.796139 -0.000001 -0.605114
vn -0.796139 -0.000001 -0.605114
vn 0.000000 1.000000 0.000000
vn 0.000000 1.000000 0.000000
vn 0.000000 1.000000 0.000000
vn 0.000000 1.000000 0.000000
vn 0.941197 0.000000 -0.337857
vn 0.941197 0.000000 -0.337857
vn 0.774385 0.000000 -0.632715
vn 0.774385 0.000000 -0.632715
vn 0.000000 -1.000000 0.000000
vn 0.000000 -1.000000 0.000000
vn 0.000000 -1.000000 0.000000
vn 0.000000 -1.000000 0.000000
vn 0.047163 0.000000 -0.998887
vn 0.047163 0.000000 -0.998887
vn 0.047163 0.000000 -0.998887
vn 0.047163 0.000000 -0.998887
vn 0.000000 1.000000 -0.000000
vn 0.000000 1.000000 -0.000000
vn 0.219384 0.000000 -0.975639
vn 0.219384 0.000000 -0.975639
vn -0.000000 -1.000000 0.000000
vn 0.000000 -1.000000 0.000000
vn -0.748616 -0.000000 0.663004
vn -0.748616 -0.000000 0.663004
vn -0.748616 -0.000000 0.663004
vn -0.748616 -0.000000 0.663004
vn -0.316552 0.000000 0.948575
vn -0.316552 0.000000 0.948575
vn -0.316552 0.000000 0.948575
vn -0.316552 0.000000 0.948575
vn -0.000000 1.000000 0.000000
vn -0.000000 1.000000 0.000000
vn -0.992591 -0.000000 -0.121503
vn -0.992591 -0.000000 -0.121503
vn -0.992591 -0.000000 -0.121503
vn -0.992591 -0.000000 -0.121503
vn -0.000000 -1.000000 0.000000
vn -0.000000 -1.000000 0.000000
vn -0.591903 0.000001 0.806009
vn -0.591903 0.000001 0.806009
vn -0.591903 0.000001 0.806009
vn -0.591903 0.000001 0.806009
vn -0.000000 1.000000 0.000000
vn -0.000000 1.000000 0.000000
vn 0.328794 0.000000 -0.944402
vn 0.328794 0.000000 -0.944402
vn 0.328794 0.000000 -0.944402
vn 0.328794 0.000000 -0.944402
vn -0.000000 -1.000000 0.000000
vn -0.000000 -1.000000 0.000000
vn -0.946403 0.000001 0.322987
vn -0.946403 0.000001 0.322987
vn -0.946403 0.000001 0.322987
vn -0.946403 0.000001 0.322987
vn -0.000001 1.000000 0.000000
vn -0.000001 1.000000 0.000000
vn 0.831288 0.000001 -0.555842
vn 0.831288 0.000001 -0.555842
vn 0.831288 0.000001 -0.555842
vn 0.831288 0.000001 -0.555842
vn -0.000001 -1.000000 0.000000
vn -0.000001 -1.000000 0.000000
vn 0.000000 1.000000 0.000000
vn 0.000000 1.000000 0.000000
vn 0.161185 0.000001 -0.986924
vn 0.161185 0.000001 -0.986924
vn 0.000000 -1.000000 0.000000
vn 0.000000 -1.000000 0.000000
vn -0.250599 0.000000 0.968091
vn -0.250599 0.000000 0.968091
vn -0.250599 0.000000 0.968091
vn -0.250599 0.000000 0.968091
vn 0.000000 1.000000 0.000000
vn 0.000000 1.000000 0.000000
vn -0.845490 -0.000001 -0.533992
vn -0.845490 -0.000001 -0.533992
vn -0.845490 -0.000001 -0.533992
vn -0.845490 -0.000001 -0.533992
vn 0.000000 -1.000000 0.000000
vn 0.000000 -1.000000 0.000000
vn 0.640645 0.000000 0.767838
vn 0.640645 0.000000 0.767838
vn 0.640645 0.000000 0.767838
vn 0.640645 0.000000 0.767838
s off
g SPEC_DECAL03 DECALS
usemtl initialShadingGroup
f 13/13/1 14/14/2 15/15/3 16/16/4
s 1
f 1/1/5 2/2/6 6/6/7 5/5/8
s 2
f 2/2/9 3/3/10 7/7/11 6/6/12
s 3
f 3/3/13 4/4/14 8/8/15 7/7/16
s off
f 4/4/17 1/1/18 5/5/19 8/8/20
s 1
f 5/5/8 6/6/7 10/10/21 9/9/22
s 2
f 6/6/12 7/7/11 11/11/23 10/10/24
s 3
f 7/7/16 8/8/15 12/12/25 11/11/26
s off
f 8/8/27 5/5/28 9/9/29 12/12/30
s 1
f 9/9/22 10/10/21 14/14/31 13/13/32
s off
f 10/10/33 11/11/34 15/15/35 14/14/36
s 3
f 11/11/26 12/12/25 16/16/37 15/15/38
s off
f 12/12/39 9/9/40 13/13/41 16/16/42
f 29/17/43 30/18/44 31/19/45 32/20/46
s 4
f 17/21/47 18/22/48 22/23/49 21/24/50
s 5
f 18/22/51 19/25/52 23/26/53 22/23/54
s 6
f 19/25/55 20/27/56 24/28/57 23/26/58
s off
f 20/27/59 17/21/60 21/24/61 24/28/62
s 4
f 21/24/50 22/23/49 26/29/63 25/30/64
s 5
f 22/23/54 23/26/53 27/31/65 26/29/66
s 6
f 23/26/58 24/28/57 28/32/67 27/31/68
s off
f 24/28/69 21/24/70 25/30/71 28/32/72
s 4
f 25/30/64 26/29/63 30/18/73 29/17/74
s off
f 26/29/75 27/31/76 31/19/77 30/18/78
s 6
f 27/31/68 28/32/67 32/20/79 31/19/80
s off
f 28/32/81 25/30/82 29/17/83 32/20/84
f 45/33/85 46/34/86 47/35/87 48/36/88
s 7
f 33/37/89 34/38/90 38/39/91 37/40/92
s 8
f 34/38/93 35/41/94 39/42/95 38/39/96
s 9
f 35/41/97 36/43/98 40/44/99 39/42/100
s off
f 36/43/101 33/37/102 37/40/103 40/44/104
s 7
f 37/40/92 38/39/91 42/45/105 41/46/106
s 8
f 38/39/96 39/42/95 43/47/107 42/45/108
s 9
f 39/42/100 40/44/99 44/48/109 43/47/110
s off
f 40/44/111 37/40/112 41/46/113 44/48/114
s 7
f 41/46/106 42/45/105 46/34/115 45/33/116
s off
f 42/45/117 43/47/118 47/35/119 46/34/120
s 9
f 43/47/110 44/48/109 48/36/121 47/35/122
s off
f 44/48/123 41/46/124 45/33/125 48/36/126
f 49/49/127 50/50/128 52/51/129 51/52/130
s 10
f 51/52/131 52/51/132 54/53/133 53/54/134
s off
f 85/55/135 86/56/136 87/57/137 88/58/138
s 11
f 55/59/139 56/60/140 50/61/141 49/62/142
s 12
f 50/50/143 56/63/144 54/64/145 52/51/146
s 13
f 55/65/147 49/49/148 51/52/149 53/66/150
s 10
f 53/54/134 54/53/133 58/67/151 57/68/152
s 12
f 54/53/145 56/60/144 59/69/153 58/67/154
s 11
f 56/60/140 55/59/139 60/70/155 59/69/156
s 13
f 55/59/147 53/54/150 57/68/157 60/70/158
s 14
f 57/68/159 58/67/160 62/71/161 61/72/162
s 15
f 58/67/163 59/69/164 63/73/165 62/71/166
s 16
f 59/69/167 60/70/168 64/74/169 63/73/170
s off
f 78/75/171 77/76/172 79/77/173 80/78/174
s 14
f 61/72/162 62/71/161 66/79/175 65/80/176
s 15
f 62/71/166 63/73/165 67/81/177 66/79/178
s 16
f 63/73/170 64/74/169 68/82/179 67/81/180
s off
f 64/74/181 61/72/182 65/80/183 68/82/184
f 60/70/185 57/68/186 69/83/187 70/84/188
s 14
f 57/68/159 61/72/162 71/85/189 69/83/190
s off
f 61/72/191 64/74/192 72/86/193 71/85/194
s 16
f 64/74/169 60/70/168 70/84/195 72/86/196
s off
f 70/84/197 69/83/198 73/87/199 74/88/200
s 14
f 69/83/190 71/85/189 75/89/201 73/87/202
s off
f 71/85/203 72/86/204 76/90/205 75/89/206
s 16
f 72/86/196 70/84/195 74/88/207 76/90/208
s off
f 74/88/209 73/87/210 77/76/211 78/75/212
s 14
f 73/87/202 75/89/201 79/77/213 77/76/214
s off
f 75/89/215 76/90/216 80/78/217 79/77/218
s 16
f 76/90/208 74/88/207 78/75/219 80/78/220
s 14
f 65/80/176 66/79/175 82/91/221 81/92/222
s 15
f 66/79/178 67/81/177 83/93/223 82/91/224
s 16
f 67/81/180 68/82/179 84/94/225 83/93/226
s off
f 68/82/227 65/80/228 81/92/229 84/94/230
s 14
f 81/92/222 82/91/221 86/56/231 85/55/232
s off
f 82/91/233 83/93/234 87/57/235 86/56/236
s 16
f 83/93/226 84/94/225 88/58/237 87/57/238
s off
f 84/94/239 81/92/240 85/55/241 88/58/242
