# This file uses centimeters as units for non-parametric coordinates.

mtllib SPEC_DECAL08.mtl
g default
v 0.000378 0.021160 0.011025
v -0.327361 0.021160 0.121037
v -0.456933 0.021160 0.657552
v 0.000378 0.021160 0.841231
v 0.457689 0.021160 0.657552
v 0.328117 0.021160 0.121037
v 0.000378 0.092159 0.011025
v -0.327361 0.092159 0.121037
v -0.456933 0.092159 0.657552
v 0.000378 0.092159 0.841231
v 0.457689 0.092159 0.657552
v 0.328117 0.092159 0.121037
v 0.000378 0.021160 0.231049
v 0.000378 0.092159 0.231049
v 0.197463 0.077986 -0.514016
v 0.000378 0.077986 -0.595651
v -0.196707 0.077986 -0.514016
v -0.278342 0.077986 -0.316931
v -0.196707 0.077986 -0.119846
v 0.000378 0.077986 -0.038211
v 0.279098 0.077986 -0.316931
v 0.288425 0.141278 -0.604979
v 0.000378 0.141278 -0.724292
v -0.287669 0.141278 -0.604979
v -0.406982 0.141278 -0.316931
v -0.287669 0.141278 -0.028884
v 0.000378 0.141278 0.090429
v 0.407738 0.141278 -0.316931
v 0.288425 0.014694 -0.604979
v 0.000378 0.014694 -0.724292
v -0.287669 0.014694 -0.604979
v -0.406982 0.014694 -0.316931
v -0.287669 0.014694 -0.028884
v 0.000378 0.014694 0.090429
v 0.407738 0.014694 -0.316931
v -0.992750 0.000000 0.551662
v 0.000051 0.000000 0.972179
v 0.988393 0.000000 0.573631
v -0.992750 0.047370 0.551662
v 0.000051 0.047370 0.972179
v 0.988393 0.047370 0.573631
v -0.530412 0.047370 -0.086295
v 0.000378 0.047370 -0.828621
v 0.531168 0.047370 -0.086294
v -0.530412 0.000000 -0.086295
v 0.000378 0.000000 -0.828621
v 0.531168 0.000000 -0.086294
v 0.133140 0.016020 -0.481134
v 0.000378 0.016020 -0.536126
v -0.132384 0.016020 -0.481134
v -0.187376 0.016020 -0.348372
v -0.132384 0.016020 -0.215610
v 0.000378 0.016020 -0.160619
v 0.133140 0.016020 -0.215610
v 0.188132 0.016020 -0.348372
v 0.133140 0.112668 -0.481134
v 0.000378 0.112668 -0.536126
v -0.132384 0.112668 -0.481134
v -0.187376 0.112668 -0.348372
v -0.132384 0.112668 -0.215610
v 0.000378 0.112668 -0.160619
v 0.133140 0.112668 -0.215610
v 0.188132 0.112668 -0.348372
v 0.000378 0.016020 -0.348372
v 0.000378 0.112668 -0.348372
vt 0.578125 0.020934
vt 0.421875 0.020934
vt 0.343750 0.156250
vt 0.421875 0.291566
vt 0.578125 0.291566
vt 0.656250 0.156250
vt 0.375000 0.312500
vt 0.416667 0.312500
vt 0.458333 0.312500
vt 0.500000 0.312500
vt 0.541667 0.312500
vt 0.583333 0.312500
vt 0.625000 0.312500
vt 0.375000 0.688440
vt 0.416667 0.688440
vt 0.458333 0.688440
vt 0.500000 0.688440
vt 0.541667 0.688440
vt 0.583333 0.688440
vt 0.625000 0.688440
vt 0.578125 0.708434
vt 0.421875 0.708434
vt 0.343750 0.843750
vt 0.421875 0.979066
vt 0.578125 0.979066
vt 0.656250 0.843750
vt 0.500000 0.150000
vt 0.500000 0.837500
vt 0.125000 1.000000
vt 0.000000 1.000000
vt 0.000000 0.666667
vt 0.125000 0.666667
vt 0.250000 1.000000
vt 0.250000 0.666667
vt 0.375000 1.000000
vt 0.375000 0.666667
vt 0.500000 1.000000
vt 0.500000 0.666667
vt 0.625000 1.000000
vt 0.625000 0.666667
vt 1.000000 1.000000
vt 0.875000 1.000000
vt 0.875000 0.666667
vt 1.000000 0.666667
vt 0.000000 0.333333
vt 0.125000 0.333333
vt 0.250000 0.333333
vt 0.375000 0.333333
vt 0.500000 0.333333
vt 0.625000 0.333333
vt 0.875000 0.333333
vt 1.000000 0.333333
vt 0.000000 -0.000000
vt 0.125000 -0.000000
vt 0.250000 -0.000000
vt 0.375000 -0.000000
vt 0.500000 -0.000000
vt 0.625000 -0.000000
vt 0.875000 -0.000000
vt 1.000000 -0.000000
vt 0.375000 0.000000
vt 0.500000 0.000000
vt 0.500000 0.250000
vt 0.375000 0.250000
vt 0.625000 0.000000
vt 0.625000 0.250000
vt 0.500000 0.500000
vt 0.375000 0.500000
vt 0.625000 0.500000
vt 0.500000 0.750000
vt 0.375000 0.750000
vt 0.625000 0.750000
vt 0.500000 1.000000
vt 0.375000 1.000000
vt 0.625000 1.000000
vt 0.875000 0.000000
vt 0.875000 0.250000
vt 0.125000 0.000000
vt 0.125000 0.250000
vt 0.375000 0.312500
vt 0.406250 0.312500
vt 0.406250 0.688440
vt 0.375000 0.688440
vt 0.437500 0.312500
vt 0.437500 0.688440
vt 0.468750 0.312500
vt 0.468750 0.688440
vt 0.500000 0.312500
vt 0.500000 0.688440
vt 0.531250 0.312500
vt 0.531250 0.688440
vt 0.562500 0.312500
vt 0.562500 0.688440
vt 0.593750 0.312500
vt 0.593750 0.688440
vt 0.625000 0.312500
vt 0.625000 0.688440
vt 0.500000 0.000000
vt 0.610485 0.045765
vt 0.500000 0.150000
vt 0.389515 0.045765
vt 0.343750 0.156250
vt 0.389515 0.266735
vt 0.500000 0.312500
vt 0.610485 0.266735
vt 0.656250 0.156250
vt 0.610485 0.954235
vt 0.500000 1.000000
vt 0.500000 0.837500
vt 0.389515 0.954235
vt 0.343750 0.843750
vt 0.389515 0.733265
vt 0.500000 0.687500
vt 0.610485 0.733265
vt 0.656250 0.843750
vn -0.318220 0.000000 -0.948017
vn -0.318220 0.000000 -0.948017
vn -0.318220 0.000000 -0.948017
vn -0.318220 0.000000 -0.948017
vn -0.972054 0.000000 -0.234757
vn -0.972054 0.000000 -0.234757
vn -0.972054 0.000000 -0.234757
vn -0.972054 0.000000 -0.234757
vn -0.372711 0.000000 0.927947
vn -0.372711 0.000000 0.927947
vn -0.372711 0.000000 0.927947
vn -0.372711 0.000000 0.927947
vn 0.372711 0.000000 0.927947
vn 0.372711 0.000000 0.927947
vn 0.372711 0.000000 0.927947
vn 0.372711 0.000000 0.927947
vn 0.972054 0.000000 -0.234757
vn 0.972054 0.000000 -0.234757
vn 0.972054 0.000000 -0.234757
vn 0.972054 0.000000 -0.234757
vn 0.318220 0.000000 -0.948017
vn 0.318220 0.000000 -0.948017
vn 0.318220 0.000000 -0.948017
vn 0.318220 0.000000 -0.948017
vn 0.000000 -1.000000 -0.000000
vn 0.000000 -1.000000 -0.000000
vn 0.000000 -1.000000 -0.000000
vn 0.000000 -1.000000 -0.000000
vn 0.000000 -1.000000 -0.000000
vn 0.000000 -1.000000 0.000000
vn 0.000000 -1.000000 0.000000
vn 0.000000 1.000000 0.000000
vn 0.000000 1.000000 -0.000000
vn 0.000000 1.000000 0.000000
vn 0.000000 1.000000 0.000000
vn 0.000000 1.000000 0.000000
vn 0.000000 1.000000 -0.000000
vn 0.000000 1.000000 0.000000
vn -0.179879 0.882642 0.434266
vn -0.179879 0.882642 0.434266
vn -0.179879 0.882642 0.434266
vn -0.179879 0.882642 0.434266
vn 0.179879 0.882642 0.434266
vn 0.179879 0.882642 0.434266
vn 0.179879 0.882642 0.434266
vn 0.179879 0.882642 0.434266
vn 0.434266 0.882642 0.179879
vn 0.434266 0.882642 0.179879
vn 0.434266 0.882642 0.179879
vn 0.434266 0.882642 0.179879
vn 0.434266 0.882642 -0.179879
vn 0.434266 0.882642 -0.179879
vn 0.434266 0.882642 -0.179879
vn 0.434266 0.882642 -0.179879
vn 0.179879 0.882642 -0.434266
vn 0.179879 0.882642 -0.434266
vn 0.179879 0.882642 -0.434266
vn 0.179879 0.882642 -0.434266
vn -0.434266 0.882642 0.179879
vn -0.434266 0.882642 0.179879
vn -0.434266 0.882642 0.179879
vn -0.434266 0.882642 0.179879
vn 0.382683 0.000000 -0.923880
vn 0.382683 0.000000 -0.923880
vn 0.382683 0.000000 -0.923880
vn 0.382683 0.000000 -0.923880
vn -0.382683 0.000000 -0.923880
vn -0.382683 0.000000 -0.923880
vn -0.382683 0.000000 -0.923880
vn -0.382683 0.000000 -0.923880
vn -0.923880 0.000000 -0.382683
vn -0.923880 0.000000 -0.382683
vn -0.923880 0.000000 -0.382683
vn -0.923880 0.000000 -0.382683
vn -0.923880 0.000000 0.382683
vn -0.923880 0.000000 0.382683
vn -0.923880 0.000000 0.382683
vn -0.923880 0.000000 0.382683
vn -0.382683 0.000000 0.923880
vn -0.382683 0.000000 0.923880
vn -0.382683 0.000000 0.923880
vn -0.382683 0.000000 0.923880
vn 0.923880 0.000000 -0.382684
vn 0.923880 0.000000 -0.382684
vn 0.923880 0.000000 -0.382684
vn 0.923880 0.000000 -0.382684
vn -0.179879 -0.882642 0.434266
vn -0.179879 -0.882642 0.434266
vn -0.179879 -0.882642 0.434266
vn -0.179879 -0.882642 0.434266
vn 0.179879 -0.882642 0.434266
vn 0.179879 -0.882642 0.434266
vn 0.179879 -0.882642 0.434266
vn 0.179879 -0.882642 0.434266
vn 0.434266 -0.882642 0.179879
vn 0.434266 -0.882642 0.179879
vn 0.434266 -0.882642 0.179879
vn 0.434266 -0.882642 0.179879
vn 0.434266 -0.882642 -0.179879
vn 0.434266 -0.882642 -0.179879
vn 0.434266 -0.882642 -0.179879
vn 0.434266 -0.882642 -0.179879
vn 0.179879 -0.882642 -0.434266
vn 0.179879 -0.882642 -0.434266
vn 0.179879 -0.882642 -0.434266
vn 0.179879 -0.882642 -0.434266
vn -0.434266 -0.882642 0.179879
vn -0.434266 -0.882642 0.179879
vn -0.434266 -0.882642 0.179879
vn -0.434266 -0.882642 0.179879
vn 1.000000 0.000000 0.000000
vn 1.000000 0.000000 0.000000
vn 1.000000 0.000000 0.000000
vn 0.000000 0.000000 1.000000
vn 0.000000 0.000000 1.000000
vn 0.000000 0.000000 1.000000
vn -0.390023 0.000000 0.920805
vn -0.011089 0.000000 0.999939
vn -0.011089 0.000000 0.999939
vn -0.390023 0.000000 0.920805
vn 0.373987 0.000000 0.927434
vn 0.373987 0.000000 0.927434
vn 0.000000 1.000000 -0.000000
vn 0.000000 1.000000 -0.000000
vn 0.000000 1.000000 -0.000000
vn 0.000000 1.000000 -0.000000
vn 0.000000 1.000000 0.000000
vn 0.000000 1.000000 0.000000
vn -0.813445 0.000000 -0.581642
vn 0.000000 0.000000 -1.000000
vn 0.000000 0.000000 -1.000000
vn -0.813445 0.000000 -0.581642
vn 0.813445 0.000000 -0.581642
vn 0.813445 0.000000 -0.581642
vn 0.000000 -1.000000 0.000000
vn 0.000000 -1.000000 0.000000
vn 0.000000 -1.000000 0.000000
vn 0.000000 -1.000000 0.000000
vn 0.000000 -1.000000 0.000000
vn 0.000000 -1.000000 0.000000
vn 0.821986 0.000000 -0.569507
vn 0.821986 0.000000 -0.569507
vn 0.821986 0.000000 -0.569507
vn 0.821986 0.000000 -0.569507
vn -0.809719 0.000000 -0.586818
vn -0.809719 0.000000 -0.586818
vn -0.809719 0.000000 -0.586818
vn -0.809719 0.000000 -0.586818
vn 0.382684 0.000000 -0.923879
vn 0.382684 0.000000 -0.923879
vn 0.382684 0.000000 -0.923879
vn 0.382684 0.000000 -0.923879
vn -0.382684 0.000000 -0.923879
vn -0.382684 0.000000 -0.923879
vn -0.382684 0.000000 -0.923879
vn -0.382684 0.000000 -0.923879
vn -0.923879 0.000000 -0.382684
vn -0.923879 0.000000 -0.382684
vn -0.923879 0.000000 -0.382684
vn -0.923879 0.000000 -0.382684
vn -0.923880 0.000000 0.382683
vn -0.923880 0.000000 0.382683
vn -0.923880 0.000000 0.382683
vn -0.923880 0.000000 0.382683
vn -0.382684 0.000000 0.923880
vn -0.382684 0.000000 0.923880
vn -0.382684 0.000000 0.923880
vn -0.382684 0.000000 0.923880
vn 0.382683 0.000000 0.923880
vn 0.382683 0.000000 0.923880
vn 0.382683 0.000000 0.923880
vn 0.382683 0.000000 0.923880
vn 0.923880 0.000000 0.382683
vn 0.923880 0.000000 0.382683
vn 0.923880 0.000000 0.382683
vn 0.923880 0.000000 0.382683
vn 0.923879 0.000000 -0.382684
vn 0.923879 0.000000 -0.382684
vn 0.923879 0.000000 -0.382684
vn 0.923879 0.000000 -0.382684
vn 0.000000 -1.000000 0.000000
vn 0.000000 -1.000000 0.000000
vn 0.000000 -1.000000 0.000000
vn 0.000000 -1.000000 0.000000
vn 0.000000 -1.000000 0.000000
vn 0.000000 -1.000000 0.000000
vn 0.000000 -1.000000 0.000000
vn 0.000000 -1.000000 0.000000
vn 0.000000 -1.000000 0.000000
vn 0.000000 1.000000 -0.000000
vn 0.000000 1.000000 0.000000
vn 0.000000 1.000000 -0.000000
vn 0.000000 1.000000 -0.000000
vn 0.000000 1.000000 -0.000000
vn 0.000000 1.000000 0.000000
vn 0.000000 1.000000 0.000000
vn 0.000000 1.000000 0.000000
vn 0.000000 1.000000 -0.000000
s off
g SPEC_DECAL08 DECALS
usemtl initialShadingGroup
f 1/7/1 2/8/2 8/15/3 7/14/4
f 2/8/5 3/9/6 9/16/7 8/15/8
f 3/9/9 4/10/10 10/17/11 9/16/12
f 4/10/13 5/11/14 11/18/15 10/17/16
f 5/11/17 6/12/18 12/19/19 11/18/20
f 6/12/21 1/13/22 7/20/23 12/19/24
s 1
f 2/2/25 1/1/26 13/27/27
f 3/3/28 2/2/25 13/27/27
f 4/4/29 3/3/28 13/27/27
f 5/5/30 4/4/29 13/27/27
f 6/6/31 5/5/30 13/27/27
f 1/1/26 6/6/31 13/27/27
s 2
f 7/25/32 8/24/33 14/28/34
f 8/24/33 9/23/35 14/28/34
f 9/23/35 10/22/36 14/28/34
f 10/22/36 11/21/37 14/28/34
f 11/21/37 12/26/38 14/28/34
f 12/26/38 7/25/32 14/28/34
s off
f 16/29/39 15/30/40 22/31/41 23/32/42
f 17/33/43 16/29/44 23/32/45 24/34/46
f 18/35/47 17/33/48 24/34/49 25/36/50
f 19/37/51 18/35/52 25/36/53 26/38/54
f 20/39/55 19/37/56 26/38/57 27/40/58
f 15/41/59 21/42/60 28/43/61 22/44/62
f 23/32/63 22/31/64 29/45/65 30/46/66
f 24/34/67 23/32/68 30/46/69 31/47/70
f 25/36/71 24/34/72 31/47/73 32/48/74
f 26/38/75 25/36/76 32/48/77 33/49/78
f 27/40/79 26/38/80 33/49/81 34/50/82
f 22/44/83 28/43/84 35/51/85 29/52/86
f 30/46/87 29/45/88 15/53/89 16/54/90
f 31/47/91 30/46/92 16/54/93 17/55/94
f 32/48/95 31/47/96 17/55/97 18/56/98
f 33/49/99 32/48/100 18/56/101 19/57/102
f 34/50/103 33/49/104 19/57/105 20/58/106
f 29/52/107 35/51/108 21/59/109 15/60/110
f 27/40/111 34/50/112 20/39/113
f 28/43/114 21/59/115 35/51/116
s 3
f 36/61/117 37/62/118 40/63/119 39/64/120
f 37/62/118 38/65/121 41/66/122 40/63/119
s 4
f 39/64/123 40/63/124 43/67/125 42/68/126
f 40/63/124 41/66/127 44/69/128 43/67/125
s 5
f 42/68/129 43/67/130 46/70/131 45/71/132
f 43/67/130 44/69/133 47/72/134 46/70/131
s 6
f 45/71/135 46/70/136 37/73/137 36/74/138
f 46/70/136 47/72/139 38/75/140 37/73/137
s off
f 38/65/141 47/76/142 44/77/143 41/66/144
f 45/78/145 36/61/146 39/64/147 42/79/148
f 48/80/149 49/81/150 57/82/151 56/83/152
f 49/81/153 50/84/154 58/85/155 57/82/156
f 50/84/157 51/86/158 59/87/159 58/85/160
f 51/86/161 52/88/162 60/89/163 59/87/164
f 52/88/165 53/90/166 61/91/167 60/89/168
f 53/90/169 54/92/170 62/93/171 61/91/172
f 54/92/173 55/94/174 63/95/175 62/93/176
f 55/94/177 48/96/178 56/97/179 63/95/180
s 7
f 49/98/181 48/99/182 64/100/183
f 50/101/184 49/98/181 64/100/183
f 51/102/185 50/101/184 64/100/183
f 52/103/186 51/102/185 64/100/183
f 53/104/187 52/103/186 64/100/183
f 54/105/188 53/104/187 64/100/183
f 55/106/189 54/105/188 64/100/183
f 48/99/182 55/106/189 64/100/183
s 8
f 56/107/190 57/108/191 65/109/192
f 57/108/191 58/110/193 65/109/192
f 58/110/193 59/111/194 65/109/192
f 59/111/194 60/112/195 65/109/192
f 60/112/195 61/113/196 65/109/192
f 61/113/196 62/114/197 65/109/192
f 62/114/197 63/115/198 65/109/192
f 63/115/198 56/107/190 65/109/192
