# This file uses centimeters as units for non-parametric coordinates.

mtllib SPEC_DECAL06.mtl
g default
v 0.113241 0.021686 -0.627467
v -0.096757 0.021686 -0.627467
v -0.654057 0.021686 0.301422
v -0.558266 0.021686 0.380656
v -0.025778 0.021686 0.246779
v 0.042261 0.021686 0.246779
v 0.574750 0.021686 0.380656
v 0.670540 0.021686 0.301422
v 0.113241 0.073848 -0.627467
v -0.096757 0.073848 -0.627467
v -0.654057 0.073848 0.301422
v -0.558266 0.073848 0.380656
v -0.025778 0.073848 0.246779
v 0.042261 0.073848 0.246779
v 0.574750 0.073848 0.380656
v 0.670540 0.073848 0.301422
v 0.008242 0.021686 -0.147605
v 0.008242 0.073848 -0.147605
v -0.611340 0.021686 0.227136
v -0.652555 0.021686 0.298608
v -0.652555 0.073848 0.298608
v -0.611340 0.073848 0.227136
v -0.729767 0.021686 0.098324
v -0.773758 0.021686 0.171648
v -0.773758 0.073848 0.171648
v -0.729767 0.073848 0.098324
v -0.127190 0.021686 -0.589042
v -0.127190 0.073848 -0.589042
v -0.229485 0.021686 -0.419154
v -0.229485 0.073848 -0.419154
v -0.145321 0.021686 -0.627238
v -0.145321 0.073848 -0.627238
v -0.291277 0.021686 -0.623865
v -0.291277 0.073848 -0.623865
v 0.177906 0.000000 -0.884257
v -0.177906 0.000000 -0.884257
v -0.884257 0.000000 -0.195345
v -0.884257 0.000000 0.195345
v -0.177906 0.000000 0.884257
v 0.177906 0.000000 0.884257
v 0.884257 0.000000 0.195345
v 0.884257 0.000000 -0.195345
v 0.177906 0.044665 -0.884257
v -0.177906 0.044665 -0.884257
v -0.884257 0.044665 -0.195345
v -0.884257 0.044665 0.195345
v -0.177906 0.044665 0.884257
v 0.177906 0.044665 0.884257
v 0.884257 0.044665 0.195345
v 0.884257 0.044665 -0.195345
v 0.000000 0.000000 0.000000
v 0.000000 0.044665 0.000000
vt 0.610485 0.045765
vt 0.500000 0.000000
vt 0.389515 0.045765
vt 0.343750 0.156250
vt 0.389515 0.266735
vt 0.500000 0.312500
vt 0.610485 0.266735
vt 0.656250 0.156250
vt 0.375000 0.312500
vt 0.406250 0.312500
vt 0.437500 0.312500
vt 0.468750 0.312500
vt 0.500000 0.312500
vt 0.531250 0.312500
vt 0.562500 0.312500
vt 0.593750 0.312500
vt 0.375000 0.688440
vt 0.406250 0.688440
vt 0.437500 0.688440
vt 0.468750 0.688440
vt 0.500000 0.688440
vt 0.531250 0.688440
vt 0.562500 0.688440
vt 0.593750 0.688440
vt 0.625000 0.688440
vt 0.610485 0.733265
vt 0.500000 0.687500
vt 0.389515 0.733265
vt 0.343750 0.843750
vt 0.389515 0.954235
vt 0.500000 1.000000
vt 0.610485 0.954235
vt 0.656250 0.843750
vt 0.500000 0.150000
vt 0.500000 0.837500
vt 0.406250 0.312500
vt 0.437500 0.312500
vt 0.437500 0.688440
vt 0.406250 0.688440
vt 0.406250 0.312500
vt 0.437500 0.312500
vt 0.437500 0.688440
vt 0.406250 0.688440
vt 0.406250 0.688440
vt 0.406250 0.312500
vt 0.406250 0.312500
vt 0.406250 0.688440
vt 0.406250 0.688440
vt 0.406250 0.312500
vt 0.406250 0.312500
vt 0.406250 0.688440
vt 0.375000 0.312500
vt 0.406250 0.312500
vt 0.406250 0.688440
vt 0.375000 0.688440
vt 0.437500 0.312500
vt 0.437500 0.688440
vt 0.468750 0.312500
vt 0.468750 0.688440
vt 0.500000 0.312500
vt 0.500000 0.688440
vt 0.531250 0.312500
vt 0.531250 0.688440
vt 0.562500 0.312500
vt 0.562500 0.688440
vt 0.593750 0.312500
vt 0.593750 0.688440
vt 0.625000 0.312500
vt 0.625000 0.688440
vt 0.500000 0.000000
vt 0.610485 0.045765
vt 0.500000 0.150000
vt 0.389515 0.045765
vt 0.343750 0.156250
vt 0.389515 0.266735
vt 0.500000 0.312500
vt 0.610485 0.266735
vt 0.656250 0.156250
vt 0.610485 0.954235
vt 0.500000 1.000000
vt 0.500000 0.837500
vt 0.389515 0.954235
vt 0.343750 0.843750
vt 0.389515 0.733265
vt 0.500000 0.687500
vt 0.610485 0.733265
vt 0.656250 0.843750
vn 0.000000 0.000000 -1.000000
vn 0.000000 0.000000 -1.000000
vn 0.000000 0.000000 -1.000000
vn 0.000000 0.000000 -1.000000
vn -0.857507 0.000000 -0.514472
vn -0.857507 0.000000 -0.514472
vn -0.857507 0.000000 -0.514472
vn -0.857507 0.000000 -0.514472
vn -0.637369 0.000000 0.770559
vn -0.637369 0.000000 0.770559
vn -0.637369 0.000000 0.770559
vn -0.637369 0.000000 0.770559
vn 0.243829 0.000000 0.969818
vn 0.243829 0.000000 0.969818
vn 0.243829 0.000000 0.969818
vn 0.243829 0.000000 0.969818
vn -0.000001 0.000000 1.000000
vn -0.000001 0.000000 1.000000
vn -0.000001 0.000000 1.000000
vn -0.000001 0.000000 1.000000
vn -0.243829 0.000000 0.969818
vn -0.243829 0.000000 0.969818
vn -0.243829 0.000000 0.969818
vn -0.243829 0.000000 0.969818
vn 0.637369 0.000000 0.770559
vn 0.637369 0.000000 0.770559
vn 0.637369 0.000000 0.770559
vn 0.637369 0.000000 0.770559
vn 0.000000 -1.000000 0.000000
vn 0.000000 -1.000000 0.000000
vn 0.000000 -1.000000 0.000000
vn 0.000000 -1.000000 0.000000
vn 0.000000 -1.000000 0.000000
vn 0.000000 -1.000000 0.000000
vn 0.000000 -1.000000 -0.000000
vn 0.000000 -1.000000 0.000000
vn 0.000000 -1.000000 0.000000
vn 0.000000 1.000000 -0.000000
vn 0.000000 1.000000 -0.000000
vn 0.000000 1.000000 -0.000000
vn 0.000000 1.000000 0.000000
vn 0.000000 1.000000 -0.000000
vn 0.000000 1.000000 -0.000000
vn 0.000000 1.000000 -0.000000
vn 0.000000 1.000000 -0.000000
vn 0.000000 1.000000 0.000000
vn 0.000000 -1.000000 0.000000
vn 0.000000 -1.000000 0.000000
vn 0.000000 -1.000000 0.000000
vn 0.000000 -1.000000 0.000000
vn -0.882221 0.000000 -0.470835
vn -0.882221 0.000000 -0.470835
vn -0.882221 0.000000 -0.470835
vn -0.882221 0.000000 -0.470835
vn 0.000000 1.000000 0.000003
vn 0.000000 1.000000 0.000003
vn 0.000000 1.000000 0.000003
vn 0.000000 1.000000 0.000003
vn -0.023105 0.000000 -0.999733
vn -0.023105 0.000000 -0.999733
vn -0.023105 0.000000 -0.999733
vn -0.023105 0.000000 -0.999733
vn 0.857507 0.000000 -0.514473
vn 0.857507 0.000000 -0.514473
vn 0.857507 0.000000 -0.514473
vn 0.857507 0.000000 -0.514473
vn 0.000000 -1.000000 0.000000
vn 0.000000 -1.000000 0.000000
vn 0.000000 -1.000000 0.000000
vn 0.000000 -1.000000 0.000000
vn -0.723315 0.000000 0.690518
vn -0.723315 0.000000 0.690518
vn -0.723315 0.000000 0.690518
vn -0.723315 0.000000 0.690518
vn 0.000000 1.000000 -0.000000
vn 0.000000 1.000000 -0.000000
vn 0.000000 1.000000 -0.000000
vn 0.000000 1.000000 -0.000000
vn 0.736159 0.000000 -0.676808
vn 0.736159 0.000000 -0.676808
vn 0.736159 0.000000 -0.676808
vn 0.736159 0.000000 -0.676808
vn -0.783911 0.000000 -0.620873
vn -0.783911 0.000000 -0.620873
vn -0.783911 0.000000 -0.620873
vn -0.783911 0.000000 -0.620873
vn 0.000000 -1.000000 0.000000
vn 0.000000 -1.000000 0.000000
vn 0.000000 -1.000000 0.000000
vn 0.000000 -1.000000 0.000000
vn -0.860952 0.000000 -0.508687
vn -0.860952 0.000000 -0.508687
vn -0.860952 0.000000 -0.508687
vn -0.860952 0.000000 -0.508687
vn 0.000000 1.000000 -0.000000
vn 0.000000 1.000000 -0.000000
vn 0.000000 1.000000 -0.000000
vn 0.000000 1.000000 -0.000000
vn 0.903392 0.000000 -0.428815
vn 0.903392 0.000000 -0.428815
vn 0.903392 0.000000 -0.428815
vn 0.903392 0.000000 -0.428815
vn 0.000000 -1.000000 -0.000000
vn 0.000000 -1.000000 -0.000000
vn -0.957338 0.000000 0.288971
vn -0.957338 0.000000 0.288971
vn -0.957338 0.000000 0.288971
vn -0.957338 0.000000 0.288971
vn 0.000000 1.000000 0.000000
vn 0.000000 1.000000 0.000000
vn 0.000000 0.000000 -1.000000
vn 0.000000 0.000000 -1.000000
vn 0.000000 0.000000 -1.000000
vn 0.000000 0.000000 -1.000000
vn -0.698215 0.000000 -0.715888
vn -0.698215 0.000000 -0.715888
vn -0.698215 0.000000 -0.715888
vn -0.698215 0.000000 -0.715888
vn -1.000000 0.000000 0.000000
vn -1.000000 0.000000 0.000000
vn -1.000000 0.000000 0.000000
vn -1.000000 0.000000 0.000000
vn -0.698215 0.000000 0.715888
vn -0.698215 0.000000 0.715888
vn -0.698215 0.000000 0.715888
vn -0.698215 0.000000 0.715888
vn -0.000000 0.000000 1.000000
vn -0.000000 0.000000 1.000000
vn -0.000000 0.000000 1.000000
vn -0.000000 0.000000 1.000000
vn 0.698215 0.000000 0.715888
vn 0.698215 0.000000 0.715888
vn 0.698215 0.000000 0.715888
vn 0.698215 0.000000 0.715888
vn 1.000000 0.000000 0.000000
vn 1.000000 0.000000 0.000000
vn 1.000000 0.000000 0.000000
vn 1.000000 0.000000 0.000000
vn 0.698215 0.000000 -0.715889
vn 0.698215 0.000000 -0.715889
vn 0.698215 0.000000 -0.715889
vn 0.698215 0.000000 -0.715889
vn 0.000000 -1.000000 0.000000
vn 0.000000 -1.000000 0.000000
vn 0.000000 -1.000000 0.000000
vn 0.000000 -1.000000 0.000000
vn 0.000000 -1.000000 0.000000
vn 0.000000 -1.000000 0.000000
vn 0.000000 -1.000000 0.000000
vn 0.000000 -1.000000 0.000000
vn 0.000000 -1.000000 0.000000
vn 0.000000 1.000000 0.000000
vn 0.000000 1.000000 0.000000
vn 0.000000 1.000000 -0.000000
vn 0.000000 1.000000 0.000000
vn 0.000000 1.000000 0.000000
vn 0.000000 1.000000 -0.000000
vn 0.000000 1.000000 -0.000000
vn 0.000000 1.000000 -0.000000
vn 0.000000 1.000000 0.000000
s off
g SPEC_DECAL06 DECALS
usemtl initialShadingGroup
f 1/9/1 2/10/2 10/18/3 9/17/4
f 23/40/5 24/41/6 25/42/7 26/43/8
f 3/11/9 4/12/10 12/20/11 11/19/12
f 4/12/13 5/13/14 13/21/15 12/20/16
f 5/13/17 6/14/18 14/22/19 13/21/20
f 6/14/21 7/15/22 15/23/23 14/22/24
f 7/15/25 8/16/26 16/24/27 15/23/28
s 1
f 2/2/29 1/1/30 17/34/31
f 3/3/32 2/2/29 17/34/31
f 4/4/33 3/3/32 17/34/31
f 5/5/34 4/4/33 17/34/31
f 6/6/35 5/5/34 17/34/31
f 7/7/36 6/6/35 17/34/31
f 8/8/37 7/7/36 17/34/31
f 1/1/30 8/8/37 17/34/31
s 2
f 9/32/38 10/31/39 18/35/40
f 10/31/39 11/30/41 18/35/40
f 11/30/41 12/29/42 18/35/40
f 12/29/42 13/28/43 18/35/40
f 13/28/43 14/27/44 18/35/40
f 14/27/44 15/26/45 18/35/40
f 15/26/45 16/33/46 18/35/40
f 16/33/46 9/32/38 18/35/40
s off
f 2/10/47 3/11/48 20/37/49 19/36/50
f 3/11/51 11/19/52 21/38/53 20/37/54
f 11/19/55 10/18/56 22/39/57 21/38/58
f 32/48/59 31/49/60 33/50/61 34/51/62
f 16/24/63 8/16/64 1/9/65 9/25/66
f 19/36/67 20/37/68 24/41/69 23/40/70
f 20/37/71 21/38/72 25/42/73 24/41/74
f 21/38/75 22/39/76 26/43/77 25/42/78
f 22/39/79 19/36/80 23/40/81 26/43/82
f 10/18/83 2/10/84 27/45/85 28/44/86
s 3
f 2/10/87 19/36/88 29/46/89 27/45/90
s off
f 19/36/91 22/39/92 30/47/93 29/46/94
s 4
f 22/39/95 10/18/96 28/44/97 30/47/98
s off
f 28/44/99 27/45/100 31/49/101 32/48/102
s 3
f 27/45/90 29/46/89 33/50/103 31/49/104
s off
f 29/46/105 30/47/106 34/51/107 33/50/108
s 4
f 30/47/98 28/44/97 32/48/109 34/51/110
s off
f 35/52/111 36/53/112 44/54/113 43/55/114
f 36/53/115 37/56/116 45/57/117 44/54/118
f 37/56/119 38/58/120 46/59/121 45/57/122
f 38/58/123 39/60/124 47/61/125 46/59/126
f 39/60/127 40/62/128 48/63/129 47/61/130
f 40/62/131 41/64/132 49/65/133 48/63/134
f 41/64/135 42/66/136 50/67/137 49/65/138
f 42/66/139 35/68/140 43/69/141 50/67/142
s 5
f 36/70/143 35/71/144 51/72/145
f 37/73/146 36/70/143 51/72/145
f 38/74/147 37/73/146 51/72/145
f 39/75/148 38/74/147 51/72/145
f 40/76/149 39/75/148 51/72/145
f 41/77/150 40/76/149 51/72/145
f 42/78/151 41/77/150 51/72/145
f 35/71/144 42/78/151 51/72/145
s 6
f 43/79/152 44/80/153 52/81/154
f 44/80/153 45/82/155 52/81/154
f 45/82/155 46/83/156 52/81/154
f 46/83/156 47/84/157 52/81/154
f 47/84/157 48/85/158 52/81/154
f 48/85/158 49/86/159 52/81/154
f 49/86/159 50/87/160 52/81/154
f 50/87/160 43/79/152 52/81/154
