# This file uses centimeters as units for non-parametric coordinates.

v 0.124509 0.123453 -0.121889
v 0.000000 0.123453 -0.172377
v -0.124509 0.123453 -0.121889
v -0.176082 0.123453 0.000000
v -0.124509 0.123453 0.121889
v 0.000000 0.123453 0.172377
v 0.124509 0.123453 0.121889
v 0.176082 0.123453 0.000000
v 0.230062 0.238980 -0.202268
v 0.000000 0.192839 -0.238780
v -0.230062 0.238980 -0.202268
v -0.325357 0.273527 0.000000
v -0.230062 0.269395 0.225221
v 0.000000 0.265535 0.318511
v 0.230062 0.269395 0.225221
v 0.325357 0.273527 0.000000
v 0.300591 0.430032 -0.264065
v -0.300591 0.430032 -0.264065
v -0.425099 0.487024 0.000000
v -0.300591 0.482191 0.294266
v 0.000000 0.478672 0.416155
v 0.300591 0.482191 0.294266
v 0.425099 0.487024 0.000000
v 0.325357 0.719887 -0.318511
v 0.000000 0.719887 -0.450442
v -0.325357 0.719887 -0.318511
v -0.460124 0.761174 0.000000
v -0.325357 0.761174 0.318511
v 0.000000 0.761174 0.450443
v 0.325357 0.761174 0.318511
v 0.460125 0.761174 0.000000
v 0.300591 1.043372 -0.294266
v 0.000000 1.045425 -0.416155
v -0.300591 1.043372 -0.294266
v -0.425099 1.040552 0.000000
v -0.300591 1.043372 0.294266
v 0.000000 1.045425 0.416155
v 0.300591 1.043372 0.294266
v 0.425099 1.040552 0.000000
v 0.230062 1.268776 -0.225221
v 0.000000 1.271027 -0.318511
v -0.230062 1.268776 -0.225221
v -0.325357 1.266365 0.000000
v -0.230062 1.268776 0.225221
v 0.000000 1.271027 0.318511
v 0.230062 1.268776 0.225221
v 0.325357 1.266365 0.000000
v 0.124509 1.421576 -0.121889
v 0.000000 1.421576 -0.172377
v -0.124509 1.421576 -0.121889
v -0.176082 1.421576 0.000000
v -0.124509 1.421576 0.121889
v 0.000000 1.421576 0.172377
v 0.124509 1.421576 0.121889
v 0.176082 1.421576 0.000000
v 0.000000 0.066425 0.000000
v 0.133064 2.071947 -0.133223
v 0.000000 2.071898 -0.188356
v -0.133064 2.071947 -0.133223
v -0.188230 2.071996 0.000000
v -0.133064 2.071947 0.133223
v 0.000000 2.071898 0.188356
v 0.133064 2.071947 0.133223
v 0.188230 2.071996 0.000000
v 0.270613 2.178877 -0.271022
v 0.000000 2.178778 -0.383163
v -0.270613 2.178877 -0.271022
v -0.382822 2.178975 0.000000
v -0.270613 2.178877 0.271022
v 0.000000 2.178778 0.383163
v 0.270613 2.178877 0.271022
v 0.382822 2.178975 0.000000
v 0.323930 2.276881 -0.324421
v 0.000000 2.276763 -0.458657
v -0.323930 2.276881 -0.324420
v -0.458248 2.276999 0.000001
v -0.323931 2.276881 0.324421
v 0.000000 2.276763 0.458657
v 0.323931 2.276881 0.324421
v 0.458248 2.276999 0.000000
v 0.246003 2.365214 -0.246419
v 0.000000 2.365125 -0.348371
v -0.246003 2.365214 -0.246419
v -0.348018 2.365303 0.000000
v -0.246003 2.365214 0.246419
v 0.000000 2.365125 0.348371
v 0.246003 2.365214 0.246419
v 0.348018 2.365303 0.000000
v 0.124396 0.250420 -0.278007
v 0.000000 0.205802 -0.278019
v 0.193637 0.393848 -0.343214
v -0.124396 0.250420 -0.278007
v -0.193637 0.393848 -0.343214
v 0.000000 0.591134 -0.427439
v 0.152174 0.539062 -0.407683
v -0.152174 0.539062 -0.407683
v 0.121246 0.271356 -0.226979
v 0.000000 0.226737 -0.226991
v 0.000000 0.399500 -0.328831
v 0.192157 0.415240 -0.292329
v -0.121246 0.271356 -0.226979
v -0.192157 0.415240 -0.292329
v 0.000000 0.612984 -0.376698
v 0.152365 0.560912 -0.356942
v -0.152364 0.560912 -0.356942
vt 0.000000 0.125000
vt 0.125000 0.125000
vt 0.250000 0.125000
vt 0.375000 0.125000
vt 0.500000 0.125000
vt 0.625000 0.125000
vt 0.750000 0.125000
vt 0.875000 0.125000
vt 1.000000 0.125000
vt 0.000000 0.250000
vt 0.125000 0.250000
vt 0.250000 0.250000
vt 0.375000 0.250000
vt 0.500000 0.250000
vt 0.625000 0.250000
vt 0.750000 0.250000
vt 0.875000 0.250000
vt 1.000000 0.250000
vt 0.000000 0.375000
vt 0.125000 0.375000
vt 0.250000 0.375000
vt 0.375000 0.375000
vt 0.500000 0.375000
vt 0.625000 0.375000
vt 0.750000 0.375000
vt 0.875000 0.375000
vt 1.000000 0.375000
vt 0.000000 0.500000
vt 0.125000 0.500000
vt 0.250000 0.500000
vt 0.375000 0.500000
vt 0.500000 0.500000
vt 0.625000 0.500000
vt 0.750000 0.500000
vt 0.875000 0.500000
vt 1.000000 0.500000
vt 0.000000 0.625000
vt 0.125000 0.625000
vt 0.250000 0.625000
vt 0.375000 0.625000
vt 0.500000 0.625000
vt 0.625000 0.625000
vt 0.750000 0.625000
vt 0.875000 0.625000
vt 1.000000 0.625000
vt 0.000000 0.750000
vt 0.125000 0.750000
vt 0.250000 0.750000
vt 0.375000 0.750000
vt 0.500000 0.750000
vt 0.625000 0.750000
vt 0.750000 0.750000
vt 0.875000 0.750000
vt 1.000000 0.750000
vt 0.000000 0.875000
vt 0.125000 0.875000
vt 0.250000 0.875000
vt 0.375000 0.875000
vt 0.500000 0.875000
vt 0.625000 0.875000
vt 0.750000 0.875000
vt 0.875000 0.875000
vt 1.000000 0.875000
vt 0.062500 0.000000
vt 0.187500 0.000000
vt 0.312500 0.000000
vt 0.437500 0.000000
vt 0.562500 0.000000
vt 0.687500 0.000000
vt 0.812500 0.000000
vt 0.937500 0.000000
vt 0.000000 0.875000
vt 0.125000 0.875000
vt 0.250000 0.875000
vt 0.375000 0.875000
vt 0.500000 0.875000
vt 0.625000 0.875000
vt 0.750000 0.875000
vt 0.875000 0.875000
vt 1.000000 0.875000
vt 0.000000 0.875000
vt 0.125000 0.875000
vt 0.250000 0.875000
vt 0.375000 0.875000
vt 0.500000 0.875000
vt 0.625000 0.875000
vt 0.750000 0.875000
vt 0.875000 0.875000
vt 1.000000 0.875000
vt 0.000000 0.875000
vt 0.125000 0.875000
vt 0.250000 0.875000
vt 0.375000 0.875000
vt 0.500000 0.875000
vt 0.625000 0.875000
vt 0.750000 0.875000
vt 0.875000 0.875000
vt 1.000000 0.875000
vt 0.000000 0.875000
vt 0.125000 0.875000
vt 0.250000 0.875000
vt 0.375000 0.875000
vt 0.500000 0.875000
vt 0.625000 0.875000
vt 0.750000 0.875000
vt 0.875000 0.875000
vt 1.000000 0.875000
vt 0.000000 0.250000
vt 0.125000 0.250000
vt 0.000000 0.375000
vt 0.250000 0.250000
vt 0.250000 0.375000
vt 0.125000 0.500000
vt 0.000000 0.500000
vt 0.250000 0.500000
vt 0.000000 0.250000
vt 0.125000 0.250000
vt 0.000000 0.375000
vt 0.250000 0.250000
vt 0.250000 0.375000
vt 0.125000 0.500000
vt 0.000000 0.500000
vt 0.250000 0.500000
vt 0.413622 0.000000
vt 0.998792 0.000000
vt 0.000221 1.000000
vt 0.000000 0.413932
vt 0.000000 0.000000
vt 0.414709 0.000000
vt 0.415427 1.000000
vt 0.000718 1.000000
vt 0.000000 0.000000
vt 0.586159 0.000000
vt 1.000000 0.413844
vt 0.999779 0.999106
vn 0.256301 -0.686472 -0.680490
vn 0.256301 -0.686472 -0.680490
vn 0.256301 -0.686472 -0.680490
vn 0.256301 -0.686472 -0.680490
vn -0.256301 -0.686472 -0.680490
vn -0.256301 -0.686472 -0.680490
vn -0.256301 -0.686472 -0.680490
vn -0.256301 -0.686472 -0.680490
vn -0.667560 -0.709147 -0.226880
vn -0.667560 -0.709147 -0.226880
vn -0.667560 -0.709147 -0.226880
vn -0.667560 -0.709147 -0.226880
vn -0.677619 -0.680594 0.278610
vn -0.677619 -0.680594 0.278610
vn -0.677619 -0.680594 0.278610
vn -0.677619 -0.680594 0.278610
vn -0.280132 -0.685088 0.672444
vn -0.280132 -0.685088 0.672444
vn -0.280132 -0.685088 0.672444
vn -0.280132 -0.685088 0.672444
vn 0.280132 -0.685088 0.672444
vn 0.280132 -0.685088 0.672444
vn 0.280132 -0.685088 0.672444
vn 0.280132 -0.685088 0.672444
vn 0.677619 -0.680595 0.278610
vn 0.677619 -0.680594 0.278610
vn 0.677619 -0.680595 0.278610
vn 0.677619 -0.680595 0.278610
vn 0.667560 -0.709147 -0.226880
vn 0.667560 -0.709147 -0.226880
vn 0.667560 -0.709147 -0.226880
vn 0.667560 -0.709147 -0.226880
vn 0.193602 -0.491637 -0.849006
vn 0.193602 -0.491637 -0.849006
vn 0.193602 -0.491637 -0.849006
vn 0.193602 -0.491637 -0.849006
vn -0.193602 -0.491637 -0.849006
vn -0.193602 -0.491637 -0.849006
vn -0.193602 -0.491637 -0.849006
vn -0.193602 -0.491637 -0.849006
vn -0.853910 -0.408630 -0.322271
vn -0.853910 -0.408630 -0.322271
vn -0.853910 -0.408630 -0.322271
vn -0.853910 -0.408630 -0.322271
vn -0.848179 -0.395799 0.352046
vn -0.848179 -0.395799 0.352045
vn -0.848179 -0.395799 0.352046
vn -0.848179 -0.395799 0.352046
vn -0.350515 -0.391077 0.850998
vn -0.350515 -0.391077 0.850998
vn -0.350515 -0.391077 0.850998
vn -0.350515 -0.391077 0.850998
vn 0.350515 -0.391077 0.850998
vn 0.350515 -0.391077 0.850998
vn 0.350515 -0.391077 0.850998
vn 0.350515 -0.391077 0.850998
vn 0.848179 -0.395799 0.352045
vn 0.848179 -0.395799 0.352045
vn 0.848179 -0.395799 0.352045
vn 0.848179 -0.395799 0.352045
vn 0.853910 -0.408630 -0.322271
vn 0.853910 -0.408630 -0.322271
vn 0.853910 -0.408630 -0.322271
vn 0.853910 -0.408630 -0.322271
vn 0.125302 -0.283839 -0.950650
vn 0.125302 -0.283839 -0.950650
vn 0.125302 -0.283839 -0.950650
vn 0.125302 -0.283839 -0.950650
vn -0.125303 -0.283839 -0.950650
vn -0.125303 -0.283839 -0.950650
vn -0.125302 -0.283839 -0.950650
vn -0.125302 -0.283839 -0.950650
vn -0.913572 -0.133919 -0.383994
vn -0.913572 -0.133919 -0.383994
vn -0.913572 -0.133919 -0.383994
vn -0.913572 -0.133919 -0.383994
vn -0.915081 -0.115848 0.386271
vn -0.915081 -0.115848 0.386271
vn -0.915081 -0.115848 0.386271
vn -0.915081 -0.115848 0.386272
vn -0.373937 -0.112464 0.920610
vn -0.373937 -0.112464 0.920610
vn -0.373937 -0.112464 0.920610
vn -0.373937 -0.112464 0.920610
vn 0.373937 -0.112464 0.920610
vn 0.373937 -0.112464 0.920610
vn 0.373937 -0.112464 0.920610
vn 0.373937 -0.112464 0.920610
vn 0.915081 -0.115848 0.386271
vn 0.915081 -0.115848 0.386271
vn 0.915081 -0.115848 0.386271
vn 0.915081 -0.115848 0.386271
vn 0.913572 -0.133919 -0.383994
vn 0.913572 -0.133919 -0.383994
vn 0.913572 -0.133919 -0.383994
vn 0.913572 -0.133919 -0.383994
vn 0.374264 0.097450 -0.922188
vn 0.374264 0.097450 -0.922188
vn 0.374264 0.097450 -0.922188
vn 0.374264 0.097450 -0.922188
vn -0.374264 0.097450 -0.922188
vn -0.374264 0.097450 -0.922188
vn -0.374264 0.097450 -0.922188
vn -0.374264 0.097450 -0.922188
vn -0.913313 0.106391 -0.393116
vn -0.913313 0.106391 -0.393116
vn -0.913313 0.106391 -0.393116
vn -0.913313 0.106391 -0.393116
vn -0.915125 0.114128 0.386679
vn -0.915125 0.114128 0.386679
vn -0.915125 0.114128 0.386679
vn -0.915125 0.114128 0.386679
vn -0.373750 0.111491 0.920805
vn -0.373750 0.111491 0.920805
vn -0.373750 0.111491 0.920805
vn -0.373750 0.111491 0.920805
vn 0.373749 0.111491 0.920805
vn 0.373749 0.111491 0.920805
vn 0.373749 0.111491 0.920805
vn 0.373749 0.111491 0.920805
vn 0.915125 0.114128 0.386679
vn 0.915125 0.114128 0.386679
vn 0.915125 0.114128 0.386679
vn 0.915125 0.114128 0.386679
vn 0.913313 0.106391 -0.393116
vn 0.913313 0.106391 -0.393116
vn 0.913313 0.106391 -0.393116
vn 0.913313 0.106391 -0.393116
vn 0.351339 0.372419 -0.858991
vn 0.351339 0.372419 -0.858991
vn 0.351339 0.372419 -0.858991
vn 0.351339 0.372419 -0.858991
vn -0.351339 0.372419 -0.858991
vn -0.351339 0.372419 -0.858991
vn -0.351339 0.372419 -0.858991
vn -0.351339 0.372419 -0.858991
vn -0.854314 0.377115 -0.357675
vn -0.854314 0.377115 -0.357675
vn -0.854314 0.377115 -0.357675
vn -0.854314 0.377115 -0.357675
vn -0.854314 0.377115 0.357675
vn -0.854314 0.377115 0.357675
vn -0.854314 0.377115 0.357675
vn -0.854314 0.377115 0.357675
vn -0.351339 0.372419 0.858991
vn -0.351339 0.372419 0.858991
vn -0.351339 0.372419 0.858991
vn -0.351339 0.372419 0.858991
vn 0.351339 0.372419 0.858991
vn 0.351339 0.372419 0.858991
vn 0.351339 0.372419 0.858991
vn 0.351339 0.372419 0.858991
vn 0.854314 0.377115 0.357675
vn 0.854314 0.377115 0.357675
vn 0.854314 0.377115 0.357675
vn 0.854314 0.377115 0.357675
vn 0.854314 0.377115 -0.357675
vn 0.854314 0.377115 -0.357675
vn 0.854314 0.377115 -0.357675
vn 0.854314 0.377115 -0.357675
vn 0.283927 0.666041 -0.689765
vn 0.283927 0.666041 -0.689765
vn 0.283927 0.666041 -0.689765
vn 0.283927 0.666041 -0.689765
vn -0.283927 0.666041 -0.689765
vn -0.283927 0.666041 -0.689765
vn -0.283927 0.666041 -0.689765
vn -0.283927 0.666041 -0.689765
vn -0.688668 0.665962 -0.286761
vn -0.688668 0.665962 -0.286761
vn -0.688668 0.665962 -0.286761
vn -0.688668 0.665962 -0.286761
vn -0.688668 0.665962 0.286761
vn -0.688668 0.665962 0.286761
vn -0.688668 0.665962 0.286761
vn -0.688668 0.665962 0.286761
vn -0.283927 0.666041 0.689765
vn -0.283927 0.666041 0.689765
vn -0.283927 0.666041 0.689765
vn -0.283927 0.666041 0.689765
vn 0.283927 0.666041 0.689765
vn 0.283927 0.666041 0.689765
vn 0.283927 0.666041 0.689765
vn 0.283927 0.666041 0.689765
vn 0.688668 0.665962 0.286761
vn 0.688668 0.665962 0.286760
vn 0.688668 0.665962 0.286761
vn 0.688668 0.665962 0.286761
vn 0.688668 0.665962 -0.286761
vn 0.688668 0.665962 -0.286761
vn 0.688668 0.665962 -0.286761
vn 0.688668 0.665962 -0.286761
vn 0.126342 -0.941786 -0.311572
vn 0.126342 -0.941786 -0.311572
vn 0.126342 -0.941786 -0.311572
vn -0.126342 -0.941786 -0.311572
vn -0.126342 -0.941786 -0.311572
vn -0.126342 -0.941786 -0.311572
vn -0.305528 -0.943367 -0.129274
vn -0.305528 -0.943367 -0.129274
vn -0.305528 -0.943367 -0.129274
vn -0.305528 -0.943367 0.129274
vn -0.305528 -0.943367 0.129274
vn -0.305528 -0.943367 0.129274
vn -0.126342 -0.941786 0.311572
vn -0.126342 -0.941786 0.311572
vn -0.126342 -0.941786 0.311572
vn 0.126342 -0.941786 0.311572
vn 0.126342 -0.941786 0.311572
vn 0.126342 -0.941786 0.311572
vn 0.305528 -0.943367 0.129274
vn 0.305528 -0.943367 0.129274
vn 0.305528 -0.943367 0.129274
vn 0.305528 -0.943367 -0.129274
vn 0.305528 -0.943367 -0.129274
vn 0.305528 -0.943367 -0.129274
vn 0.379315 -0.021920 -0.925008
vn 0.379315 -0.021920 -0.925008
vn 0.350564 -0.387940 -0.852413
vn 0.350655 -0.387361 -0.852639
vn -0.379316 -0.021920 -0.925008
vn -0.379316 -0.021920 -0.925008
vn -0.350655 -0.387361 -0.852639
vn -0.350564 -0.387940 -0.852413
vn -0.922359 -0.018043 -0.385913
vn -0.922359 -0.018043 -0.385913
vn -0.851020 -0.386932 -0.355033
vn -0.850794 -0.387516 -0.354937
vn -0.922359 -0.018043 0.385913
vn -0.922359 -0.018043 0.385913
vn -0.850794 -0.387517 0.354937
vn -0.851020 -0.386932 0.355033
vn -0.379315 -0.021920 0.925008
vn -0.379315 -0.021920 0.925008
vn -0.350564 -0.387940 0.852413
vn -0.350654 -0.387361 0.852639
vn 0.379315 -0.021920 0.925008
vn 0.379315 -0.021920 0.925008
vn 0.350655 -0.387362 0.852639
vn 0.350564 -0.387940 0.852413
vn 0.922359 -0.018043 0.385913
vn 0.922359 -0.018043 0.385913
vn 0.851020 -0.386932 0.355032
vn 0.850794 -0.387517 0.354936
vn 0.922359 -0.018043 -0.385913
vn 0.922359 -0.018043 -0.385913
vn 0.850794 -0.387517 -0.354937
vn 0.851020 -0.386932 -0.355033
vn 0.195779 -0.859746 -0.471708
vn 0.195779 -0.859746 -0.471708
vn -0.195780 -0.859745 -0.471709
vn -0.195780 -0.859745 -0.471709
vn -0.472471 -0.859432 -0.195312
vn -0.472471 -0.859432 -0.195312
vn -0.472471 -0.859433 0.195312
vn -0.472471 -0.859433 0.195312
vn -0.195779 -0.859746 0.471708
vn -0.195779 -0.859746 0.471708
vn 0.195779 -0.859746 0.471708
vn 0.195779 -0.859746 0.471707
vn 0.472471 -0.859433 0.195311
vn 0.472471 -0.859433 0.195311
vn 0.472471 -0.859433 -0.195311
vn 0.472471 -0.859433 -0.195311
vn 0.312083 -0.579837 -0.752591
vn 0.312083 -0.579837 -0.752591
vn 0.312083 -0.579837 -0.752591
vn 0.312083 -0.579837 -0.752591
vn -0.312084 -0.579837 -0.752590
vn -0.312084 -0.579837 -0.752590
vn -0.312084 -0.579837 -0.752590
vn -0.312084 -0.579837 -0.752590
vn -0.753081 -0.579470 -0.311582
vn -0.753081 -0.579470 -0.311582
vn -0.753081 -0.579470 -0.311582
vn -0.753082 -0.579470 -0.311582
vn -0.753081 -0.579470 0.311582
vn -0.753081 -0.579470 0.311582
vn -0.753081 -0.579470 0.311582
vn -0.753081 -0.579470 0.311582
vn -0.312083 -0.579838 0.752591
vn -0.312083 -0.579838 0.752591
vn -0.312083 -0.579838 0.752591
vn -0.312083 -0.579838 0.752591
vn 0.312083 -0.579837 0.752592
vn 0.312083 -0.579836 0.752591
vn 0.312083 -0.579837 0.752592
vn 0.312083 -0.579836 0.752591
vn 0.753081 -0.579469 0.311583
vn 0.753081 -0.579469 0.311583
vn 0.753081 -0.579469 0.311583
vn 0.753081 -0.579469 0.311583
vn 0.753081 -0.579470 -0.311583
vn 0.753081 -0.579470 -0.311583
vn 0.753081 -0.579470 -0.311583
vn 0.753081 -0.579470 -0.311583
vn 0.250571 0.755528 -0.605303
vn 0.250571 0.755528 -0.605303
vn 0.250571 0.755528 -0.605303
vn 0.250571 0.755528 -0.605303
vn -0.250572 0.755528 -0.605303
vn -0.250572 0.755528 -0.605303
vn -0.250572 0.755528 -0.605303
vn -0.250572 0.755528 -0.605303
vn -0.605238 0.755488 -0.250848
vn -0.605238 0.755488 -0.250848
vn -0.605238 0.755488 -0.250848
vn -0.605238 0.755488 -0.250848
vn -0.605237 0.755488 0.250849
vn -0.605237 0.755488 0.250849
vn -0.605238 0.755488 0.250849
vn -0.605238 0.755488 0.250849
vn -0.250571 0.755528 0.605303
vn -0.250571 0.755528 0.605303
vn -0.250571 0.755528 0.605303
vn -0.250571 0.755528 0.605303
vn 0.250572 0.755529 0.605301
vn 0.250572 0.755529 0.605301
vn 0.250572 0.755529 0.605301
vn 0.250572 0.755529 0.605301
vn 0.605238 0.755488 0.250848
vn 0.605238 0.755488 0.250848
vn 0.605238 0.755488 0.250848
vn 0.605238 0.755488 0.250848
vn 0.605238 0.755488 -0.250848
vn 0.605238 0.755488 -0.250848
vn 0.605238 0.755488 -0.250848
vn 0.605238 0.755488 -0.250848
vn 0.265335 -0.864306 -0.427285
vn 0.265335 -0.864306 -0.427285
vn 0.265335 -0.864306 -0.427285
vn 0.265335 -0.864306 -0.427285
vn 0.550483 -0.487396 -0.677801
vn 0.550483 -0.487396 -0.677801
vn 0.550482 -0.487396 -0.677801
vn 0.550482 -0.487396 -0.677801
vn -0.265335 -0.864306 -0.427285
vn -0.265335 -0.864306 -0.427285
vn -0.265335 -0.864306 -0.427285
vn -0.265335 -0.864306 -0.427285
vn -0.550483 -0.487396 -0.677801
vn -0.550483 -0.487396 -0.677801
vn -0.550482 -0.487396 -0.677801
vn -0.550483 -0.487396 -0.677801
vn 0.305785 0.032325 -0.951552
vn 0.305785 0.032325 -0.951552
vn 0.305785 0.032325 -0.951552
vn 0.305785 0.032325 -0.951552
vn 0.608501 -0.187409 -0.771106
vn 0.608501 -0.187409 -0.771106
vn 0.608501 -0.187409 -0.771106
vn 0.608501 -0.187409 -0.771106
vn -0.608501 -0.187409 -0.771106
vn -0.608501 -0.187409 -0.771106
vn -0.608501 -0.187409 -0.771106
vn -0.608501 -0.187409 -0.771106
vn -0.305785 0.032324 -0.951552
vn -0.305785 0.032324 -0.951552
vn -0.305785 0.032324 -0.951552
vn -0.305785 0.032324 -0.951552
vn -0.317414 0.873839 -0.368312
vn -0.317414 0.873839 -0.368312
vn -0.317414 0.873839 -0.368312
vn -0.317414 0.873839 -0.368312
vn -0.913641 0.359051 -0.190638
vn -0.913641 0.359051 -0.190638
vn -0.913641 0.359051 -0.190638
vn -0.913641 0.359051 -0.190638
vn 0.317414 0.873839 -0.368312
vn 0.317414 0.873839 -0.368312
vn 0.317414 0.873839 -0.368312
vn 0.317414 0.873839 -0.368312
vn 0.913641 0.359051 -0.190638
vn 0.913641 0.359051 -0.190638
vn 0.913641 0.359051 -0.190638
vn 0.913641 0.359051 -0.190638
vn -0.343201 -0.862448 0.372016
vn -0.343201 -0.862448 0.372016
vn -0.343201 -0.862448 0.372016
vn -0.343201 -0.862448 0.372016
vn -0.968805 -0.232230 0.086521
vn -0.968805 -0.232230 0.086521
vn -0.968805 -0.232230 0.086521
vn -0.968805 -0.232230 0.086521
vn 0.968805 -0.232231 0.086521
vn 0.968805 -0.232231 0.086521
vn 0.968805 -0.232231 0.086521
vn 0.968805 -0.232231 0.086521
vn 0.343202 -0.862448 0.372015
vn 0.343202 -0.862449 0.372015
vn 0.343202 -0.862449 0.372015
vn 0.343202 -0.862449 0.372015
vn -0.000000 1.000000 -0.000513
vn -0.000000 1.000000 -0.000513
vn -0.000000 1.000000 -0.000513
vn -0.000000 1.000000 -0.000513
vn 0.000000 1.000000 0.000000
vn 0.000000 1.000000 0.000000
vn 0.000000 1.000000 0.000000
vn 0.000000 1.000000 0.000000
vn 0.000000 1.000000 0.000513
vn 0.000000 1.000000 0.000513
vn 0.000000 1.000000 0.000513
vn 0.000000 1.000000 0.000513
s off
f 1/1/1 2/2/2 10/11/3 9/10/4
f 2/2/5 3/3/6 11/12/7 10/11/8
f 3/3/9 4/4/10 12/13/11 11/12/12
f 4/4/13 5/5/14 13/14/15 12/13/16
f 5/5/17 6/6/18 14/15/19 13/14/20
f 6/6/21 7/7/22 15/16/23 14/15/24
f 7/7/25 8/8/26 16/17/27 15/16/28
f 8/8/29 1/9/30 9/18/31 16/17/32
f 97/116/33 98/117/34 99/20/35 100/118/36
f 98/117/37 101/119/38 102/120/39 99/20/40
f 11/12/41 12/13/42 19/22/43 18/21/44
f 12/13/45 13/14/46 20/23/47 19/22/48
f 13/14/49 14/15/50 21/24/51 20/23/52
f 14/15/53 15/16/54 22/25/55 21/24/56
f 15/16/57 16/17/58 23/26/59 22/25/60
f 16/17/61 9/18/62 17/27/63 23/26/64
f 100/118/65 99/20/66 103/121/67 104/122/68
f 99/20/69 102/120/70 105/123/71 103/121/72
f 18/21/73 19/22/74 27/31/75 26/30/76
f 19/22/77 20/23/78 28/32/79 27/31/80
f 20/23/81 21/24/82 29/33/83 28/32/84
f 21/24/85 22/25/86 30/34/87 29/33/88
f 22/25/89 23/26/90 31/35/91 30/34/92
f 23/26/93 17/27/94 24/36/95 31/35/96
f 24/28/97 25/29/98 33/38/99 32/37/100
f 25/29/101 26/30/102 34/39/103 33/38/104
f 26/30/105 27/31/106 35/40/107 34/39/108
f 27/31/109 28/32/110 36/41/111 35/40/112
f 28/32/113 29/33/114 37/42/115 36/41/116
f 29/33/117 30/34/118 38/43/119 37/42/120
f 30/34/121 31/35/122 39/44/123 38/43/124
f 31/35/125 24/36/126 32/45/127 39/44/128
f 32/37/129 33/38/130 41/47/131 40/46/132
f 33/38/133 34/39/134 42/48/135 41/47/136
f 34/39/137 35/40/138 43/49/139 42/48/140
f 35/40/141 36/41/142 44/50/143 43/49/144
f 36/41/145 37/42/146 45/51/147 44/50/148
f 37/42/149 38/43/150 46/52/151 45/51/152
f 38/43/153 39/44/154 47/53/155 46/52/156
f 39/44/157 32/45/158 40/54/159 47/53/160
f 40/46/161 41/47/162 49/56/163 48/55/164
f 41/47/165 42/48/166 50/57/167 49/56/168
f 42/48/169 43/49/170 51/58/171 50/57/172
f 43/49/173 44/50/174 52/59/175 51/58/176
f 44/50/177 45/51/178 53/60/179 52/59/180
f 45/51/181 46/52/182 54/61/183 53/60/184
f 46/52/185 47/53/186 55/62/187 54/61/188
f 47/53/189 40/54/190 48/63/191 55/62/192
f 2/2/193 1/1/194 56/64/195
f 3/3/196 2/2/197 56/65/198
f 4/4/199 3/3/200 56/66/201
f 5/5/202 4/4/203 56/67/204
f 6/6/205 5/5/206 56/68/207
f 7/7/208 6/6/209 56/69/210
f 8/8/211 7/7/212 56/70/213
f 1/9/214 8/8/215 56/71/216
s 1
f 48/55/217 49/56/218 58/73/219 57/72/220
s 2
f 49/56/221 50/57/222 59/74/223 58/73/224
s 3
f 50/57/225 51/58/226 60/75/227 59/74/228
s 4
f 51/58/229 52/59/230 61/76/231 60/75/232
s 5
f 52/59/233 53/60/234 62/77/235 61/76/236
s 6
f 53/60/237 54/61/238 63/78/239 62/77/240
s 7
f 54/61/241 55/62/242 64/79/243 63/78/244
s 8
f 55/62/245 48/63/246 57/80/247 64/79/248
s 1
f 57/72/220 58/73/219 66/82/249 65/81/250
s 2
f 58/73/224 59/74/223 67/83/251 66/82/252
s 3
f 59/74/228 60/75/227 68/84/253 67/83/254
s 4
f 60/75/232 61/76/231 69/85/255 68/84/256
s 5
f 61/76/236 62/77/235 70/86/257 69/85/258
s 6
f 62/77/240 63/78/239 71/87/259 70/86/260
s 7
f 63/78/244 64/79/243 72/88/261 71/87/262
s 8
f 64/79/248 57/80/247 65/89/263 72/88/264
s off
f 65/81/265 66/82/266 74/91/267 73/90/268
f 66/82/269 67/83/270 75/92/271 74/91/272
f 67/83/273 68/84/274 76/93/275 75/92/276
f 68/84/277 69/85/278 77/94/279 76/93/280
f 69/85/281 70/86/282 78/95/283 77/94/284
f 70/86/285 71/87/286 79/96/287 78/95/288
f 71/87/289 72/88/290 80/97/291 79/96/292
f 72/88/293 65/89/294 73/98/295 80/97/296
f 73/90/297 74/91/298 82/100/299 81/99/300
f 74/91/301 75/92/302 83/101/303 82/100/304
f 75/92/305 76/93/306 84/102/307 83/101/308
f 76/93/309 77/94/310 85/103/311 84/102/312
f 77/94/313 78/95/314 86/104/315 85/103/316
f 78/95/317 79/96/318 87/105/319 86/104/320
f 79/96/321 80/97/322 88/106/323 87/105/324
f 80/97/325 73/98/326 81/107/327 88/106/328
f 9/10/329 10/11/330 90/109/331 89/108/332
f 17/19/333 9/10/334 89/108/335 91/110/336
f 10/11/337 11/12/338 92/111/339 90/109/340
f 11/12/341 18/21/342 93/112/343 92/111/344
f 25/29/345 24/28/346 95/114/347 94/113/348
f 24/28/349 17/19/350 91/110/351 95/114/352
f 18/21/353 26/30/354 96/115/355 93/112/356
f 26/30/357 25/29/358 94/113/359 96/115/360
f 89/108/361 90/109/362 98/117/363 97/116/364
f 91/110/365 89/108/366 97/116/367 100/118/368
f 90/109/369 92/111/370 101/119/371 98/117/372
f 92/111/373 93/112/374 102/120/375 101/119/376
f 94/113/377 95/114/378 104/122/379 103/121/380
f 95/114/381 91/110/382 100/118/383 104/122/384
f 93/112/385 96/115/386 105/123/387 102/120/388
f 96/115/389 94/113/390 103/121/391 105/123/392
f 82/124/393 83/125/394 88/126/395 81/127/396
f 87/128/397 88/129/398 83/130/399 84/131/400
f 84/132/401 85/133/402 86/134/403 87/135/404
