# Blender v3.3.1 OBJ File: ''
# www.blender.org
o Scrub03LOD3
v -0.526855 0.038910 -0.007500
v -0.397217 -0.000513 -0.182373
v -0.602539 0.251709 -0.111450
v -0.513672 0.427246 -0.220215
v -0.209473 0.420898 -0.286377
v -0.223877 0.000990 -0.310791
v -0.429443 0.555176 -0.221924
v -0.573730 -0.004841 -0.309570
v -0.394043 -0.000040 -0.180176
v -0.511719 0.216797 -0.403320
v -0.437988 0.416260 -0.330811
v -0.370605 0.447266 -0.028458
v -0.267578 0.039703 -0.009781
v -0.459961 0.548340 -0.257080
v 0.490479 0.030731 0.167725
v 0.512207 -0.000124 -0.047882
v 0.408691 0.258789 0.126831
v 0.459473 0.434326 -0.000290
v 0.686523 0.404297 -0.205933
v 0.599609 -0.001212 -0.242798
v 0.549805 0.550293 -0.035889
v 0.300537 0.029572 -0.071350
v 0.516113 -0.000264 -0.047546
v 0.342041 0.250732 -0.170044
v 0.469971 0.429199 -0.132935
v 0.675781 0.415527 0.095764
v 0.710938 0.004593 0.039337
v 0.505859 0.551758 -0.051483
v 0.680664 0.004334 0.054413
v 0.449219 -0.000263 0.220093
v 0.768555 0.282471 0.185059
v 0.648926 0.534668 0.260498
v 0.252441 0.575195 0.220581
v 0.189331 0.044769 0.306885
v 0.567383 0.707520 0.213501
v 0.614258 -0.006374 0.445801
v 0.446289 0.000372 0.216187
v 0.541016 0.298340 0.508301
v 0.512695 0.548828 0.366455
v 0.551758 0.545410 -0.032196
v 0.364258 0.037964 -0.046478
v 0.590332 0.701660 0.269287
v -0.121643 0.031372 -0.111084
v -0.160156 -0.000168 -0.418701
v -0.257812 0.353271 -0.127075
v -0.236450 0.611816 -0.308350
v 0.012840 0.592285 -0.668457
v -0.102478 0.013176 -0.716797
v -0.127686 0.783691 -0.379639
v -0.462402 0.031372 -0.380859
v -0.154663 -0.000168 -0.419434
v -0.446289 0.353271 -0.517090
v -0.264893 0.611816 -0.495850
v 0.095093 0.592285 -0.246460
v 0.143311 0.013176 -0.361816
v -0.193726 0.783691 -0.386963
v 0.406738 0.086975 0.022369
v 0.342773 -0.000679 -0.269287
v 0.254883 0.396240 -0.037201
v 0.248169 0.618164 -0.262451
v 0.465088 0.541504 -0.635254
v 0.373047 -0.039642 -0.568848
v 0.342041 0.777344 -0.373047
v 0.044220 0.028091 -0.209229
v 0.348145 -0.000659 -0.270752
v 0.033020 0.320068 -0.401123
v 0.203247 0.583496 -0.443359
v 0.583984 0.620117 -0.230103
v 0.648926 0.031769 -0.245117
v 0.275635 0.773926 -0.374024
v -0.339600 0.028397 -0.139282
v -0.283936 0.000506 0.167725
v -0.279053 0.374268 -0.118836
v -0.352783 0.619141 0.070862
v -0.579590 0.536133 0.439453
v -0.332764 -0.005264 0.469238
v -0.495850 0.761230 0.150268
v 0.003201 0.101257 0.121582
v -0.289307 -0.000757 0.168701
v -0.081055 0.410156 0.267334
v -0.318359 0.622070 0.258301
v -0.674805 0.525391 0.018021
v -0.585938 -0.054810 0.120056
v -0.431152 0.775879 0.155639
v -0.142700 0.027283 0.613770
v -0.000841 -0.000146 0.385010
v -0.226074 0.306885 0.528809
v -0.112610 0.531738 0.417725
v 0.252441 0.514648 0.310303
v 0.200806 0.011452 0.214844
v -0.000154 0.681152 0.428955
v -0.225830 0.027283 0.245483
v 0.003281 -0.000146 0.387451
v -0.140625 0.306885 0.162109
v -0.029602 0.531738 0.275635
v 0.077820 0.514649 0.640625
v 0.173340 0.011452 0.588867
v -0.040802 0.681152 0.387939
v 0.227539 0.035187 0.258789
v -0.004368 -0.000188 -0.000154
v 0.091736 0.395996 0.331055
v -0.004368 0.686035 0.150146
v -0.004368 0.664062 -0.340820
v -0.141479 0.014778 -0.311768
v 0.050446 0.878906 0.015045
v -0.258789 0.035187 0.227539
v 0.000154 -0.000188 -0.004368
v -0.331055 0.395996 0.091736
v -0.150146 0.686035 -0.004368
v 0.340820 0.664062 -0.004368
v 0.311768 0.014778 -0.141479
v -0.015045 0.878906 0.050445
vt 0.105835 0.006836
vt 0.499512 0.006836
vt 0.105835 0.418945
vt 0.330078 0.728027
vt 0.883301 0.704834
vt 0.883301 0.006836
vt 0.482910 0.938049
vt 0.105835 0.006836
vt 0.499512 0.006836
vt 0.105835 0.418945
vt 0.330078 0.728027
vt 0.883301 0.704834
vt 0.883301 0.006836
vt 0.482910 0.938049
vt 0.105835 0.006836
vt 0.499512 0.006836
vt 0.105835 0.418945
vt 0.330078 0.728027
vt 0.883301 0.704834
vt 0.883301 0.006836
vt 0.482910 0.938049
vt 0.105835 0.006836
vt 0.499512 0.006836
vt 0.105835 0.418945
vt 0.330078 0.728027
vt 0.883301 0.704834
vt 0.883301 0.006836
vt 0.482910 0.938049
vt 0.105835 0.006836
vt 0.499512 0.006836
vt 0.105835 0.418945
vt 0.330078 0.728027
vt 0.883301 0.704834
vt 0.883301 0.006836
vt 0.482910 0.938049
vt 0.105835 0.006836
vt 0.499512 0.006836
vt 0.105835 0.418945
vt 0.330078 0.728027
vt 0.883301 0.704834
vt 0.883301 0.006836
vt 0.482910 0.938049
vt 0.105835 0.006836
vt 0.499512 0.006836
vt 0.105835 0.418945
vt 0.330078 0.728027
vt 0.883301 0.704834
vt 0.883301 0.006836
vt 0.482910 0.938049
vt 0.105835 0.006836
vt 0.499512 0.006836
vt 0.105835 0.418945
vt 0.330078 0.728027
vt 0.883301 0.704834
vt 0.883301 0.006836
vt 0.482910 0.938049
vt 0.105835 0.006836
vt 0.499512 0.006836
vt 0.105835 0.418945
vt 0.330078 0.728027
vt 0.883301 0.704834
vt 0.883301 0.006836
vt 0.482910 0.938049
vt 0.105835 0.006836
vt 0.499512 0.006836
vt 0.105835 0.418945
vt 0.330078 0.728027
vt 0.883301 0.704834
vt 0.883301 0.006836
vt 0.482910 0.938049
vt 0.105835 0.006836
vt 0.499512 0.006836
vt 0.105835 0.418945
vt 0.330078 0.728027
vt 0.883301 0.704834
vt 0.883301 0.006836
vt 0.482910 0.938049
vt 0.105835 0.006836
vt 0.499512 0.006836
vt 0.105835 0.418945
vt 0.330078 0.728027
vt 0.883301 0.704834
vt 0.883301 0.006836
vt 0.482910 0.938049
vt 0.105835 0.006836
vt 0.499512 0.006836
vt 0.105835 0.418945
vt 0.330078 0.728027
vt 0.883301 0.704834
vt 0.883301 0.006836
vt 0.482910 0.938049
vt 0.105835 0.006836
vt 0.499512 0.006836
vt 0.105835 0.418945
vt 0.330078 0.728027
vt 0.883301 0.704834
vt 0.883301 0.006836
vt 0.482910 0.938049
vt 0.105835 0.006836
vt 0.499512 0.006836
vt 0.105835 0.418945
vt 0.330078 0.728027
vt 0.883301 0.704834
vt 0.883301 0.006836
vt 0.482910 0.938049
vt 0.105835 0.006836
vt 0.499512 0.006836
vt 0.105835 0.418945
vt 0.330078 0.728027
vt 0.883301 0.704834
vt 0.883301 0.006836
vt 0.482910 0.938049
vn 0.7511 0.4856 0.4473
vn 0.5497 0.2209 0.8056
vn 0.2132 0.1435 0.9664
vn 0.5943 -0.0670 0.8014
vn 0.2084 -0.1243 0.9701
vn -0.5292 0.4518 0.7182
vn -0.8315 0.1093 0.5447
vn -0.9753 -0.0234 0.2198
vn -0.7726 -0.1672 0.6124
vn -0.9285 -0.2864 0.2363
vn 0.9377 0.3444 0.0452
vn 0.8954 0.0604 0.4411
vn 0.6713 0.0003 0.7412
vn 0.8882 -0.2267 0.3996
vn 0.6280 -0.2645 0.7319
vn -0.0431 0.4139 0.9093
vn -0.4388 0.1296 0.8892
vn -0.7407 0.0536 0.6697
vn -0.3989 -0.1582 0.9033
vn -0.7323 -0.2150 0.6462
vn -0.5131 0.4924 -0.7031
vn -0.2515 0.1659 -0.9535
vn 0.1038 0.0363 -0.9939
vn -0.3323 -0.1128 -0.9364
vn 0.0743 -0.2288 -0.9706
vn 0.7740 0.3004 -0.5574
vn 0.9624 -0.0431 -0.2682
vn 0.9845 -0.1460 0.0977
vn 0.8904 -0.3199 -0.3239
vn 0.9103 -0.4035 0.0927
vn 0.9128 0.3785 -0.1531
vn 0.9703 0.0798 0.2282
vn 0.8222 -0.0001 0.5692
vn 0.9623 -0.2064 0.1770
vn 0.7859 -0.2657 0.5584
vn 0.1532 0.3786 0.9128
vn -0.2278 0.0801 0.9704
vn -0.5695 0.0001 0.8220
vn -0.1768 -0.2064 0.9624
vn -0.5586 -0.2663 0.7855
vn 0.8770 0.3720 -0.3041
vn 0.9819 0.1488 0.1173
vn 0.8685 0.1275 0.4791
vn 0.9828 -0.1422 0.1178
vn 0.8437 -0.1369 0.5191
vn 0.2157 0.5421 0.8122
vn -0.1448 0.2472 0.9581
vn -0.4940 0.1314 0.8595
vn -0.0812 -0.0344 0.9961
vn -0.4741 -0.1365 0.8698
vn -0.9689 0.1584 0.1901
vn -0.9703 -0.1390 -0.1978
vn -0.8201 -0.1765 -0.5444
vn -0.8960 -0.4169 -0.1531
vn -0.7243 -0.4265 -0.5417
vn -0.2669 0.3507 -0.8976
vn 0.1693 0.1481 -0.9744
vn 0.5257 0.1451 -0.8382
vn 0.1854 -0.1426 -0.9723
vn 0.5767 -0.1168 -0.8086
vn 0.8063 0.3785 0.4546
vn 0.6117 0.0801 0.7870
vn 0.2823 0.0003 0.9593
vn 0.6380 -0.2062 0.7419
vn 0.2607 -0.2659 0.9281
vn -0.4543 0.3789 0.8063
vn -0.7872 0.0799 0.6116
vn -0.9593 0.0000 0.2823
vn -0.7417 -0.2064 0.6381
vn -0.9282 -0.2656 0.2607
vn 0.6631 0.3789 -0.6456
vn 0.9277 0.0799 -0.3647
vn 1.0000 0.0000 0.0000
vn 0.8919 -0.2064 -0.4024
vn 0.9640 -0.2656 0.0119
vn 0.6456 0.3789 0.6631
vn 0.3647 0.0799 0.9277
vn -0.0000 0.0000 1.0000
vn 0.4024 -0.2064 0.8919
vn -0.0119 -0.2656 0.9640
s off
f 1/1/1 2/2/1 3/3/1
f 3/3/2 2/2/2 4/4/2
f 5/5/3 4/4/3 2/2/3
f 5/5/4 2/2/4 6/6/4
f 7/7/5 4/4/5 5/5/5
f 8/8/6 9/9/6 10/10/6
f 10/10/7 9/9/7 11/11/7
f 12/12/8 11/11/8 9/9/8
f 12/12/9 9/9/9 13/13/9
f 14/14/10 11/11/10 12/12/10
f 15/15/11 16/16/11 17/17/11
f 17/17/12 16/16/12 18/18/12
f 19/19/13 18/18/13 16/16/13
f 19/19/14 16/16/14 20/20/14
f 21/21/15 18/18/15 19/19/15
f 22/22/16 23/23/16 24/24/16
f 24/24/17 23/23/17 25/25/17
f 26/26/18 25/25/18 23/23/18
f 26/26/19 23/23/19 27/27/19
f 28/28/20 25/25/20 26/26/20
f 29/29/21 30/30/21 31/31/21
f 31/31/22 30/30/22 32/32/22
f 33/33/23 32/32/23 30/30/23
f 33/33/24 30/30/24 34/34/24
f 35/35/25 32/32/25 33/33/25
f 36/36/26 37/37/26 38/38/26
f 38/38/27 37/37/27 39/39/27
f 40/40/28 39/39/28 37/37/28
f 40/40/29 37/37/29 41/41/29
f 42/42/30 39/39/30 40/40/30
f 43/43/31 44/44/31 45/45/31
f 45/45/32 44/44/32 46/46/32
f 47/47/33 46/46/33 44/44/33
f 47/47/34 44/44/34 48/48/34
f 49/49/35 46/46/35 47/47/35
f 50/50/36 51/51/36 52/52/36
f 52/52/37 51/51/37 53/53/37
f 54/54/38 53/53/38 51/51/38
f 54/54/39 51/51/39 55/55/39
f 56/56/40 53/53/40 54/54/40
f 57/57/41 58/58/41 59/59/41
f 59/59/42 58/58/42 60/60/42
f 61/61/43 60/60/43 58/58/43
f 61/61/44 58/58/44 62/62/44
f 63/63/45 60/60/45 61/61/45
f 64/64/46 65/65/46 66/66/46
f 66/66/47 65/65/47 67/67/47
f 68/68/48 67/67/48 65/65/48
f 68/68/49 65/65/49 69/69/49
f 70/70/50 67/67/50 68/68/50
f 71/71/51 72/72/51 73/73/51
f 73/73/52 72/72/52 74/74/52
f 75/75/53 74/74/53 72/72/53
f 75/75/54 72/72/54 76/76/54
f 77/77/55 74/74/55 75/75/55
f 78/78/56 79/79/56 80/80/56
f 80/80/57 79/79/57 81/81/57
f 82/82/58 81/81/58 79/79/58
f 82/82/59 79/79/59 83/83/59
f 84/84/60 81/81/60 82/82/60
f 85/85/61 86/86/61 87/87/61
f 87/87/62 86/86/62 88/88/62
f 89/89/63 88/88/63 86/86/63
f 89/89/64 86/86/64 90/90/64
f 91/91/65 88/88/65 89/89/65
f 92/92/66 93/93/66 94/94/66
f 94/94/67 93/93/67 95/95/67
f 96/96/68 95/95/68 93/93/68
f 96/96/69 93/93/69 97/97/69
f 98/98/70 95/95/70 96/96/70
f 99/99/71 100/100/71 101/101/71
f 101/101/72 100/100/72 102/102/72
f 103/103/73 102/102/73 100/100/73
f 103/103/74 100/100/74 104/104/74
f 105/105/75 102/102/75 103/103/75
f 106/106/76 107/107/76 108/108/76
f 108/108/77 107/107/77 109/109/77
f 110/110/78 109/109/78 107/107/78
f 110/110/79 107/107/79 111/111/79
f 112/112/80 109/109/80 110/110/80
