# Blender v3.3.1 OBJ File: ''
# www.blender.org
o Scrub02LOD3
v 0.956543 -0.006611 -0.259521
v 0.878906 -0.008690 -0.131104
v 0.996582 0.489258 -0.227295
v 0.918945 0.487305 -0.098877
v 0.743652 -0.001656 -0.070679
v 0.783691 0.494141 -0.038361
v 0.623047 0.009491 -0.092102
v 0.663086 0.505371 -0.059845
v 0.521484 0.016159 -0.067871
v 0.561523 0.511719 -0.035614
v -0.205078 0.128418 -0.006416
v -0.182007 0.079651 0.144409
v -0.472900 0.552734 0.171509
v -0.449707 0.503906 0.322266
v -0.240967 -0.007297 0.263184
v -0.508789 0.417236 0.441162
v -0.338623 -0.085327 0.302490
v -0.606445 0.339111 0.480469
v -0.395752 -0.150879 0.373047
v -0.663574 0.273438 0.550781
v 0.397949 0.002411 -0.088989
v 0.524902 -0.018661 0.105286
v 0.566895 0.758301 -0.117554
v 0.693848 0.737305 0.076660
v 0.520996 -0.009064 0.335938
v 0.689941 0.747070 0.307373
v 0.413818 0.020783 0.490967
v 0.582520 0.776856 0.462402
v 0.381348 0.033997 0.649902
v 0.550293 0.790039 0.621582
v 0.389404 -0.025620 -0.714355
v 0.578613 -0.006531 -0.579102
v 0.326172 0.746582 -0.734863
v 0.515137 0.765625 -0.600098
v 0.655273 0.005604 -0.362061
v 0.592285 0.777832 -0.382813
v 0.607422 0.006630 -0.177368
v 0.544434 0.778809 -0.198120
v 0.632324 0.012993 -0.016418
v 0.569336 0.785156 -0.037171
v -0.667480 -0.025620 -0.440918
v -0.478271 -0.006531 -0.306152
v -0.730469 0.746582 -0.461670
v -0.541504 0.765625 -0.326904
v -0.401367 0.005604 -0.088745
v -0.464355 0.777832 -0.109497
v -0.449463 0.006630 0.095825
v -0.512207 0.778809 0.075134
v -0.424316 0.012993 0.256836
v -0.487549 0.785156 0.236084
v -0.225342 -0.028122 -0.891113
v -0.017624 -0.007168 -0.743164
v -0.294678 0.819824 -0.914063
v -0.086914 0.840820 -0.765625
v 0.066895 0.006153 -0.504395
v -0.002390 0.854004 -0.526856
v 0.014130 0.007278 -0.301758
v -0.055176 0.854980 -0.324463
v 0.041534 0.014267 -0.125000
v -0.027771 0.862305 -0.147705
v 0.005566 0.093872 0.164673
v 0.181274 0.051270 0.324707
v 0.007771 0.870606 0.368896
v 0.183472 0.828125 0.528808
v 0.229858 -0.008423 0.551270
v 0.232056 0.768067 0.755371
v 0.154175 -0.054657 0.728027
v 0.156372 0.722168 0.932129
v 0.157104 -0.097595 0.891602
v 0.159302 0.679199 1.095703
v -0.231934 0.000000 0.419434
v -0.199829 0.000000 0.133789
v -0.231934 0.956055 0.419433
v -0.199829 0.956055 0.133789
v -0.011566 -0.000000 -0.079834
v -0.011566 0.956055 -0.079834
v 0.216309 -0.000000 -0.138428
v 0.216309 0.956055 -0.138428
v 0.374756 -0.000000 -0.261719
v 0.374756 0.956055 -0.261719
vt 0.156860 0.277344
vt 0.263672 0.277344
vt 0.156860 1.000000
vt 0.263672 1.000000
vt 0.369873 0.277344
vt 0.369873 1.000000
vt 0.456055 0.277344
vt 0.456055 1.000000
vt 0.529785 0.277344
vt 0.529785 1.000000
vt 0.156860 0.277344
vt 0.263672 0.277344
vt 0.156860 1.000000
vt 0.263672 1.000000
vt 0.369873 0.277344
vt 0.369873 1.000000
vt 0.456055 0.277344
vt 0.456055 1.000000
vt 0.529785 0.277344
vt 0.529785 1.000000
vt 0.156860 0.277344
vt 0.263672 0.277344
vt 0.156860 1.000000
vt 0.263672 1.000000
vt 0.369873 0.277344
vt 0.369873 1.000000
vt 0.456055 0.277344
vt 0.456055 1.000000
vt 0.529785 0.277344
vt 0.529785 1.000000
vt 0.156860 0.277344
vt 0.263672 0.277344
vt 0.156860 1.000000
vt 0.263672 1.000000
vt 0.369873 0.277344
vt 0.369873 1.000000
vt 0.456055 0.277344
vt 0.456055 1.000000
vt 0.529785 0.277344
vt 0.529785 1.000000
vt 0.156860 0.277344
vt 0.263672 0.277344
vt 0.156860 1.000000
vt 0.263672 1.000000
vt 0.369873 0.277344
vt 0.369873 1.000000
vt 0.456055 0.277344
vt 0.456055 1.000000
vt 0.529785 0.277344
vt 0.529785 1.000000
vt 0.156860 0.277344
vt 0.263672 0.277344
vt 0.156860 1.000000
vt 0.263672 1.000000
vt 0.369873 0.277344
vt 0.369873 1.000000
vt 0.456055 0.277344
vt 0.456055 1.000000
vt 0.529785 0.277344
vt 0.529785 1.000000
vt 0.156860 0.277344
vt 0.263672 0.277344
vt 0.156860 1.000000
vt 0.263672 1.000000
vt 0.369873 0.277344
vt 0.369873 1.000000
vt 0.456055 0.277344
vt 0.456055 1.000000
vt 0.529785 0.277344
vt 0.529785 1.000000
vt 0.156860 0.277344
vt 0.263672 0.277344
vt 0.156860 1.000000
vt 0.263672 1.000000
vt 0.369873 0.277344
vt 0.369873 1.000000
vt 0.456055 0.277344
vt 0.456055 1.000000
vt 0.529785 0.277344
vt 0.529785 1.000000
vn -0.8520 0.1022 -0.5134
vn -0.8520 0.1021 -0.5135
vn -0.4022 0.0917 -0.9110
vn -0.4028 0.0919 -0.9107
vn 0.1791 0.0496 -0.9826
vn 0.1796 0.0494 -0.9825
vn -0.2262 0.0814 -0.9707
vn -0.2265 0.0815 -0.9706
vn -0.8522 -0.5218 -0.0384
vn -0.8522 -0.5218 -0.0379
vn -0.7803 -0.2525 -0.5722
vn -0.7804 -0.2526 -0.5719
vn -0.4381 0.0982 -0.8935
vn -0.4382 0.0982 -0.8935
vn -0.6979 -0.1464 -0.7011
vn -0.6969 -0.1457 -0.7023
vn -0.8097 0.2018 0.5510
vn -0.8097 0.2018 0.5511
vn -0.9758 0.2171 -0.0256
vn -0.9758 0.2171 -0.0257
vn -0.7981 0.1563 -0.5819
vn -0.7976 0.1560 -0.5826
vn -0.9554 0.2052 -0.2123
vn -0.9557 0.2057 -0.2105
vn -0.5796 -0.0258 0.8145
vn -0.5788 -0.0254 0.8151
vn -0.9395 -0.0681 0.3357
vn -0.9390 -0.0675 0.3372
vn -0.9646 -0.0854 -0.2494
vn -0.9646 -0.0854 -0.2495
vn -0.9849 -0.0762 0.1554
vn -0.5783 -0.0253 0.8155
vn -0.5787 -0.0255 0.8151
vn -0.9394 -0.0679 0.3361
vn -0.9391 -0.0675 0.3370
vn -0.9643 -0.0854 -0.2508
vn -0.9646 -0.0851 -0.2496
vn -0.9847 -0.0758 0.1568
vn -0.9851 -0.0765 0.1539
vn -0.5783 -0.0252 0.8155
vn -0.5794 -0.0258 0.8146
vn -0.9393 -0.0678 0.3363
vn -0.9393 -0.0679 0.3363
vn -0.9643 -0.0854 -0.2506
vn -0.9642 -0.0856 -0.2511
vn -0.9848 -0.0763 0.1557
vn -0.9848 -0.0763 0.1559
vn -0.6859 -0.1832 0.7043
vn -0.6856 -0.1832 0.7046
vn -0.9792 -0.0490 0.1971
vn -0.9792 -0.0490 0.1970
vn -0.9239 0.0997 -0.3695
vn -0.9238 0.0997 -0.3697
vn -0.9998 -0.0018 0.0174
vn 0.9937 0.0000 0.1117
vn 0.7502 0.0000 0.6612
vn 0.2490 0.0000 0.9685
vn 0.6141 0.0000 0.7892
s off
f 1/1/1 2/2/1 3/3/1
f 3/3/2 2/2/2 4/4/2
f 2/2/3 5/5/3 4/4/3
f 4/4/4 5/5/4 6/6/4
f 5/5/5 7/7/5 6/6/5
f 6/6/6 7/7/6 8/8/6
f 7/7/7 9/9/7 8/8/7
f 8/8/8 9/9/8 10/10/8
f 11/11/9 12/12/9 13/13/9
f 13/13/10 12/12/10 14/14/10
f 12/12/11 15/15/11 14/14/11
f 14/14/12 15/15/12 16/16/12
f 15/15/13 17/17/13 16/16/13
f 16/16/14 17/17/14 18/18/14
f 17/17/15 19/19/15 18/18/15
f 18/18/16 19/19/16 20/20/16
f 21/21/17 22/22/17 23/23/17
f 23/23/18 22/22/18 24/24/18
f 22/22/19 25/25/19 24/24/19
f 24/24/20 25/25/20 26/26/20
f 25/25/21 27/27/21 26/26/21
f 26/26/22 27/27/22 28/28/22
f 27/27/23 29/29/23 28/28/23
f 28/28/24 29/29/24 30/30/24
f 31/31/25 32/32/25 33/33/25
f 33/33/26 32/32/26 34/34/26
f 32/32/27 35/35/27 34/34/27
f 34/34/28 35/35/28 36/36/28
f 35/35/29 37/37/29 36/36/29
f 36/36/30 37/37/30 38/38/30
f 37/37/31 39/39/31 38/38/31
f 38/38/31 39/39/31 40/40/31
f 41/41/32 42/42/32 43/43/32
f 43/43/33 42/42/33 44/44/33
f 42/42/34 45/45/34 44/44/34
f 44/44/35 45/45/35 46/46/35
f 45/45/36 47/47/36 46/46/36
f 46/46/37 47/47/37 48/48/37
f 47/47/38 49/49/38 48/48/38
f 48/48/39 49/49/39 50/50/39
f 51/51/40 52/52/40 53/53/40
f 53/53/41 52/52/41 54/54/41
f 52/52/42 55/55/42 54/54/42
f 54/54/43 55/55/43 56/56/43
f 55/55/44 57/57/44 56/56/44
f 56/56/45 57/57/45 58/58/45
f 57/57/46 59/59/46 58/58/46
f 58/58/47 59/59/47 60/60/47
f 61/61/48 62/62/48 63/63/48
f 63/63/49 62/62/49 64/64/49
f 62/62/50 65/65/50 64/64/50
f 64/64/51 65/65/51 66/66/51
f 65/65/52 67/67/52 66/66/52
f 66/66/53 67/67/53 68/68/53
f 67/67/54 69/69/54 68/68/54
f 68/68/54 69/69/54 70/70/54
f 71/71/55 72/72/55 73/73/55
f 73/73/55 72/72/55 74/74/55
f 72/72/56 75/75/56 74/74/56
f 74/74/56 75/75/56 76/76/56
f 75/75/57 77/77/57 76/76/57
f 76/76/57 77/77/57 78/78/57
f 77/77/58 79/79/58 78/78/58
f 78/78/58 79/79/58 80/80/58
