# This file uses centimeters as units for non-parametric coordinates.

mtllib BASE_TOYCUBE.mtl
g default
v -0.117599 0.784754 0.465986
v 0.315566 0.389849 0.337850
v 0.123804 1.174981 0.079400
v 0.556968 0.780075 -0.048736
v -0.213974 0.947442 -0.361205
v 0.219190 0.552537 -0.489341
v -0.455376 0.557216 0.025381
v -0.022212 0.162311 -0.102755
v -0.330000 0.000000 0.330000
v 0.330000 0.000000 0.330000
v -0.330000 0.140000 0.330000
v 0.330000 0.140000 0.330000
v -0.330000 0.140000 -0.330000
v 0.330000 0.140000 -0.330000
v -0.330000 0.000000 -0.330000
v 0.330000 0.000000 -0.330000
vt 0.375000 0.000000
vt 0.625000 0.000000
vt 0.375000 0.250000
vt 0.625000 0.250000
vt 0.375000 0.500000
vt 0.625000 0.500000
vt 0.375000 0.750000
vt 0.625000 0.750000
vt 0.375000 1.000000
vt 0.625000 1.000000
vt 0.875000 0.000000
vt 0.875000 0.250000
vt 0.125000 0.000000
vt 0.125000 0.250000
vt 0.375000 0.000000
vt 0.625000 0.000000
vt 0.625000 0.250000
vt 0.375000 0.250000
vt 0.625000 0.500000
vt 0.375000 0.500000
vt 0.625000 0.750000
vt 0.375000 0.750000
vt 0.625000 1.000000
vt 0.375000 1.000000
vt 0.875000 0.000000
vt 0.875000 0.250000
vt 0.125000 0.000000
vt 0.125000 0.250000
vn 0.562963 0.379230 0.734342
vn 0.562963 0.379230 0.734342
vn 0.562963 0.379230 0.734342
vn 0.562963 0.379230 0.734342
vn 0.402337 0.650377 -0.644310
vn 0.402337 0.650377 -0.644310
vn 0.402337 0.650377 -0.644310
vn 0.402337 0.650377 -0.644310
vn -0.562963 -0.379230 -0.734341
vn -0.562963 -0.379230 -0.734341
vn -0.562963 -0.379230 -0.734342
vn -0.562963 -0.379230 -0.734341
vn -0.402337 -0.650377 0.644310
vn -0.402337 -0.650377 0.644310
vn -0.402337 -0.650377 0.644310
vn -0.402337 -0.650377 0.644310
vn 0.721940 -0.658175 -0.213560
vn 0.721940 -0.658175 -0.213560
vn 0.721940 -0.658175 -0.213560
vn 0.721940 -0.658175 -0.213560
vn -0.721940 0.658175 0.213560
vn -0.721940 0.658175 0.213560
vn -0.721940 0.658175 0.213560
vn -0.721940 0.658175 0.213560
vn 0.000000 0.000000 1.000000
vn 0.000000 0.000000 1.000000
vn 0.000000 0.000000 1.000000
vn 0.000000 0.000000 1.000000
vn 0.000000 1.000000 0.000000
vn 0.000000 1.000000 0.000000
vn 0.000000 1.000000 0.000000
vn 0.000000 1.000000 0.000000
vn 0.000000 0.000000 -1.000000
vn 0.000000 0.000000 -1.000000
vn 0.000000 0.000000 -1.000000
vn 0.000000 0.000000 -1.000000
vn 0.000000 -1.000000 0.000000
vn 0.000000 -1.000000 0.000000
vn 0.000000 -1.000000 0.000000
vn 0.000000 -1.000000 0.000000
vn 1.000000 0.000000 0.000000
vn 1.000000 0.000000 0.000000
vn 1.000000 0.000000 0.000000
vn 1.000000 0.000000 0.000000
vn -1.000000 0.000000 0.000000
vn -1.000000 0.000000 0.000000
vn -1.000000 0.000000 0.000000
vn -1.000000 0.000000 0.000000
s off
g BASE_TOYCUBE
usemtl initialShadingGroup
f 1/1/1 2/2/2 4/4/3 3/3/4
f 3/3/5 4/4/6 6/6/7 5/5/8
f 5/5/9 6/6/10 8/8/11 7/7/12
f 7/7/13 8/8/14 2/10/15 1/9/16
f 2/2/17 8/11/18 6/12/19 4/4/20
f 7/13/21 1/1/22 3/3/23 5/14/24
f 9/15/25 10/16/26 12/17/27 11/18/28
f 11/18/29 12/17/30 14/19/31 13/20/32
f 13/20/33 14/19/34 16/21/35 15/22/36
f 15/22/37 16/21/38 10/23/39 9/24/40
f 10/16/41 16/25/42 14/26/43 12/17/44
f 15/27/45 9/15/46 11/18/47 13/28/48
