# Blender v3.3.1 OBJ File: ''
# www.blender.org
o Scrub06LOD3
v 0.313477 0.038025 -0.171509
v 0.331787 0.504883 -0.463379
v 0.285156 0.543945 -0.333984
v 0.373535 -0.012070 -0.338135
v 0.322998 0.437500 -0.667969
v 0.366455 -0.066712 -0.503906
v 0.187988 -0.016495 -0.376465
v 0.368408 0.601562 -0.459229
v 0.201416 0.592285 -0.516602
v 0.372803 -0.005993 -0.313232
v 0.610352 0.588379 -0.490479
v 0.596191 -0.018295 -0.342041
v -0.151123 0.056519 -0.208740
v -0.391357 0.486084 -0.455078
v -0.322998 0.541504 -0.342529
v -0.239136 -0.014641 -0.353516
v -0.551270 0.396728 -0.568848
v -0.368652 -0.086975 -0.445801
v -0.385742 -0.014427 -0.233765
v -0.370605 0.580566 -0.491211
v -0.519531 0.572754 -0.396973
v -0.220703 -0.005798 -0.338135
v -0.241089 0.552246 -0.696289
v -0.101196 -0.031952 -0.527344
v 0.057770 -0.006206 0.155273
v 0.182617 0.572754 0.265381
v 0.108032 0.572754 0.128052
v 0.153809 -0.006206 0.332275
v 0.362793 0.562988 0.417724
v 0.299561 -0.014084 0.455566
v 0.321777 -0.007324 0.210571
v 0.133545 0.674805 0.269287
v 0.303467 0.674805 0.177124
v 0.133667 -0.007324 0.312744
v -0.017960 0.681152 0.489746
v -0.006241 -0.001894 0.516113
v 0.237915 -0.006027 0.073486
v 0.361328 0.556152 -0.030991
v 0.218750 0.556152 0.021347
v 0.421387 -0.006027 0.006134
v 0.532715 0.546875 -0.182495
v 0.560059 -0.013672 -0.116638
v 0.328125 -0.007111 -0.172241
v 0.358154 0.655273 0.016678
v 0.293457 0.655273 -0.159546
v 0.399658 -0.007111 0.022705
v 0.548340 0.661133 0.193237
v 0.575195 -0.001838 0.185669
v -0.025406 -0.007732 -0.198975
v 0.005566 0.713379 -0.404053
v -0.087891 0.713379 -0.233154
v 0.094910 -0.007732 -0.418701
v 0.043427 0.701660 -0.695313
v 0.125488 -0.017532 -0.654785
v -0.145630 -0.009125 -0.512207
v 0.042847 0.840820 -0.355225
v -0.168457 0.840820 -0.470947
v 0.088074 -0.009125 -0.384521
v 0.375732 0.848144 -0.345459
v 0.395508 -0.002358 -0.375488
v -0.167603 0.026642 0.086548
v -0.424805 0.631836 -0.073059
v -0.319824 0.661621 0.064331
v -0.302734 -0.011925 -0.090332
v -0.645996 0.572266 -0.206177
v -0.481934 -0.059845 -0.198120
v -0.465820 -0.023209 0.075134
v -0.389648 0.751465 -0.097534
v -0.560059 0.737305 0.035889
v -0.277100 -0.007423 -0.072510
v -0.261719 0.752441 -0.369385
v -0.159180 -0.006653 -0.323242
v -0.038300 0.008293 0.223999
v -0.227173 0.608887 0.381103
v -0.062622 0.622559 0.347412
v -0.250000 -0.008858 0.267578
v -0.438477 0.571777 0.517578
v -0.421143 -0.038971 0.377930
v -0.175781 -0.027084 0.477295
v -0.222778 0.724121 0.340820
v -0.179565 0.706055 0.543945
v -0.223633 -0.006992 0.252686
v -0.404053 0.742676 0.117615
v -0.391113 0.009933 0.046783
v 0.000764 -0.007732 0.217407
v -0.070496 0.713379 0.022598
v -0.070496 0.713379 0.217407
v 0.000764 -0.007732 -0.033264
v -0.177124 0.701660 -0.250977
v -0.085632 -0.017532 -0.254883
v -0.255127 -0.009125 0.000000
v -0.014442 0.840820 0.047394
v -0.255127 0.840820 0.047394
v 0.011200 -0.009125 0.000000
v 0.282471 0.848145 -0.103760
v 0.285156 -0.002358 -0.139526
vt 0.010506 0.130371
vt 0.239502 0.982452
vt 0.010506 0.982452
vt 0.305176 0.130371
vt 0.584961 0.982452
vt 0.584961 0.130371
vt 0.010506 0.130371
vt 0.251465 0.982452
vt 0.010506 0.982452
vt 0.277100 0.130371
vt 0.584961 0.982452
vt 0.584961 0.130371
vt 0.010506 0.130371
vt 0.239502 0.982452
vt 0.010506 0.982452
vt 0.305176 0.130371
vt 0.584961 0.982452
vt 0.584961 0.130371
vt 0.010506 0.130371
vt 0.251465 0.982452
vt 0.010506 0.982452
vt 0.277100 0.130371
vt 0.584961 0.982452
vt 0.584961 0.130371
vt 0.010506 0.130371
vt 0.239502 0.982452
vt 0.010506 0.982452
vt 0.305176 0.130371
vt 0.584961 0.982452
vt 0.584961 0.130371
vt 0.010506 0.130371
vt 0.251465 0.982452
vt 0.010506 0.982452
vt 0.277100 0.130371
vt 0.584961 0.982452
vt 0.584961 0.130371
vt 0.010506 0.130371
vt 0.239502 0.982452
vt 0.010506 0.982452
vt 0.305176 0.130371
vt 0.584961 0.982452
vt 0.584961 0.130371
vt 0.010506 0.130371
vt 0.251465 0.982452
vt 0.010506 0.982452
vt 0.277100 0.130371
vt 0.584961 0.982452
vt 0.584961 0.130371
vt 0.010506 0.130371
vt 0.239502 0.982452
vt 0.010506 0.982452
vt 0.305176 0.130371
vt 0.584961 0.982452
vt 0.584961 0.130371
vt 0.010506 0.130371
vt 0.251465 0.982452
vt 0.010506 0.982452
vt 0.277100 0.130371
vt 0.584961 0.982452
vt 0.584961 0.130371
vt 0.010506 0.130371
vt 0.239502 0.982452
vt 0.010506 0.982452
vt 0.305176 0.130371
vt 0.584961 0.982452
vt 0.584961 0.130371
vt 0.010506 0.130371
vt 0.251465 0.982452
vt 0.010506 0.982452
vt 0.277100 0.130371
vt 0.584961 0.982452
vt 0.584961 0.130371
vt 0.010506 0.130371
vt 0.239502 0.982452
vt 0.010506 0.982452
vt 0.305176 0.130371
vt 0.584961 0.982452
vt 0.584961 0.130371
vt 0.010506 0.130371
vt 0.251465 0.982452
vt 0.010506 0.982452
vt 0.277100 0.130371
vt 0.584961 0.982452
vt 0.584961 0.130371
vt 0.010506 0.130371
vt 0.239502 0.982452
vt 0.010506 0.982452
vt 0.305176 0.130371
vt 0.584961 0.982452
vt 0.584961 0.130371
vt 0.010506 0.130371
vt 0.251465 0.982452
vt 0.010506 0.982452
vt 0.277100 0.130371
vt 0.584961 0.982452
vt 0.584961 0.130371
vn 0.9438 0.1477 0.2955
vn 0.9438 0.1479 0.2957
vn 0.9958 0.0649 -0.0641
vn 0.9958 0.0650 -0.0640
vn -0.3279 0.2188 0.9190
vn -0.3270 0.2186 0.9194
vn 0.1370 0.2324 0.9629
vn 0.8162 0.1343 -0.5619
vn 0.8161 0.1341 -0.5621
vn 0.5762 0.0094 -0.8173
vn 0.5766 0.0099 -0.8170
vn 0.4911 0.3354 0.8039
vn 0.4909 0.3354 0.8040
vn 0.8176 0.3319 0.4705
vn -0.8745 0.0983 0.4750
vn -0.8747 0.0984 0.4746
vn -0.6372 0.1197 0.7613
vn -0.6374 0.1198 0.7612
vn -0.4760 -0.0558 -0.8777
vn -0.4765 -0.0560 -0.8774
vn -0.8241 -0.0362 -0.5653
vn -0.8238 -0.0360 -0.5658
vn 0.3429 0.0983 0.9342
vn 0.6612 0.1195 0.7406
vn 0.6618 0.1192 0.7401
vn -0.9373 -0.0557 0.3441
vn -0.9373 -0.0556 0.3439
vn -0.6793 -0.0359 0.7330
vn -0.6794 -0.0359 0.7329
vn 0.8731 0.0983 0.4775
vn 0.8729 0.0984 0.4779
vn 0.9851 0.1196 0.1232
vn 0.9852 0.1193 0.1227
vn -0.4796 -0.0554 0.8757
vn -0.4787 -0.0557 0.8762
vn -0.0285 -0.0359 0.9989
vn -0.0286 -0.0359 0.9989
vn 0.7668 0.1621 -0.6211
vn 0.4891 0.1159 -0.8645
vn 0.4890 0.1159 -0.8645
vn 0.6064 0.1157 0.7867
vn 0.6060 0.1158 0.7870
vn 0.8948 0.1466 0.4216
vn 0.8950 0.1465 0.4214
vn -0.2118 0.1844 -0.9597
vn -0.2125 0.1842 -0.9596
vn -0.5555 0.1701 -0.8139
vn -0.5550 0.1704 -0.8142
vn 0.9783 0.0238 -0.2060
vn 0.9782 0.0237 -0.2063
vn 0.7771 0.0744 -0.6249
vn 0.7766 0.0742 -0.6256
vn 0.9952 0.0983 -0.0000
vn 0.9233 0.1195 -0.3650
vn 0.9232 0.1194 -0.3652
vn 0.0000 -0.0557 0.9984
vn 0.4541 -0.0359 0.8902
vn 0.4542 -0.0360 0.8901
s off
f 1/1/1 2/2/1 3/3/1
f 4/4/2 2/2/2 1/1/2
f 2/2/3 4/4/3 5/5/3
f 5/5/4 4/4/4 6/6/4
f 7/7/5 8/8/5 9/9/5
f 10/10/6 8/8/6 7/7/6
f 8/8/7 10/10/7 11/11/7
f 11/11/7 10/10/7 12/12/7
f 13/13/8 14/14/8 15/15/8
f 16/16/9 14/14/9 13/13/9
f 14/14/10 16/16/10 17/17/10
f 17/17/11 16/16/11 18/18/11
f 19/19/12 20/20/12 21/21/12
f 22/22/13 20/20/13 19/19/13
f 20/20/14 22/22/14 23/23/14
f 23/23/14 22/22/14 24/24/14
f 25/25/15 26/26/15 27/27/15
f 28/28/16 26/26/16 25/25/16
f 26/26/17 28/28/17 29/29/17
f 29/29/18 28/28/18 30/30/18
f 31/31/19 32/32/19 33/33/19
f 34/34/20 32/32/20 31/31/20
f 32/32/21 34/34/21 35/35/21
f 35/35/22 34/34/22 36/36/22
f 37/37/23 38/38/23 39/39/23
f 40/40/23 38/38/23 37/37/23
f 38/38/24 40/40/24 41/41/24
f 41/41/25 40/40/25 42/42/25
f 43/43/26 44/44/26 45/45/26
f 46/46/27 44/44/27 43/43/27
f 44/44/28 46/46/28 47/47/28
f 47/47/29 46/46/29 48/48/29
f 49/49/30 50/50/30 51/51/30
f 52/52/31 50/50/31 49/49/31
f 50/50/32 52/52/32 53/53/32
f 53/53/33 52/52/33 54/54/33
f 55/55/34 56/56/34 57/57/34
f 58/58/35 56/56/35 55/55/35
f 56/56/36 58/58/36 59/59/36
f 59/59/37 58/58/37 60/60/37
f 61/61/38 62/62/38 63/63/38
f 64/64/38 62/62/38 61/61/38
f 62/62/39 64/64/39 65/65/39
f 65/65/40 64/64/40 66/66/40
f 67/67/41 68/68/41 69/69/41
f 70/70/42 68/68/42 67/67/42
f 68/68/43 70/70/43 71/71/43
f 71/71/44 70/70/44 72/72/44
f 73/73/45 74/74/45 75/75/45
f 76/76/46 74/74/46 73/73/46
f 74/74/47 76/76/47 77/77/47
f 77/77/48 76/76/48 78/78/48
f 79/79/49 80/80/49 81/81/49
f 82/82/50 80/80/50 79/79/50
f 80/80/51 82/82/51 83/83/51
f 83/83/52 82/82/52 84/84/52
f 85/85/53 86/86/53 87/87/53
f 88/88/53 86/86/53 85/85/53
f 86/86/54 88/88/54 89/89/54
f 89/89/55 88/88/55 90/90/55
f 91/91/56 92/92/56 93/93/56
f 94/94/56 92/92/56 91/91/56
f 92/92/57 94/94/57 95/95/57
f 95/95/58 94/94/58 96/96/58
