# This file uses centimeters as units for non-parametric coordinates.

mtllib PANEL_GLASS.mtl
g default
v 0.644614 0.000000 0.568019
v 1.275000 0.000000 0.697753
v 1.947917 0.000000 0.903514
v 0.644614 3.000000 0.568019
v 1.275000 3.000000 0.697753
v 1.947917 3.000000 0.903514
v 0.628998 3.000000 -0.021684
v 1.416667 3.000000 0.118199
v 2.125000 3.000000 0.371561
v 0.628998 0.000000 -0.021684
v 1.416667 0.000000 0.118199
v 2.125000 0.000000 0.371561
v 0.559687 2.249322 -0.859924
v 0.562046 2.278019 -0.846948
v 0.562046 0.721981 -0.846948
v 0.559687 0.750678 -0.859924
v 1.161741 2.248890 -0.727397
v 1.165714 2.278095 -0.714219
v 1.165714 0.721905 -0.714219
v 1.161741 0.751110 -0.727397
v 1.685017 2.249500 -0.542021
v 1.708253 2.278873 -0.521178
v 1.685259 0.750243 -0.541936
v 1.708253 0.721127 -0.521178
v 0.905756 2.249074 -0.783746
v 0.909043 2.278063 -0.770654
v 0.915536 3.000000 0.029701
v 0.890881 3.000000 0.599026
v 0.890881 0.000000 0.599026
v 0.915536 0.000000 0.029701
v 0.909043 0.721937 -0.770654
v 0.905756 0.750926 -0.783746
v 1.036415 2.278079 -0.742648
v 1.032788 2.248982 -0.755783
v 1.032787 0.751018 -0.755783
v 1.036415 0.721921 -0.742648
v 1.037773 0.000000 0.059216
v 1.023890 0.000000 0.626399
v 1.023890 3.000000 0.626399
v 1.037773 3.000000 0.059216
v 0.000000 3.000000 -0.021684
v 0.000000 3.000000 0.568019
v 0.000000 0.000000 0.568019
v 0.000000 0.000000 -0.021684
v 0.925109 2.267027 -0.871666
v 0.925472 2.330360 -0.843850
v 1.052844 2.330376 -0.815845
v 1.052141 2.266936 -0.843703
v 0.925472 0.669640 -0.843850
v 0.925109 0.732973 -0.871666
v 1.052141 0.733064 -0.843703
v 1.052844 0.669624 -0.815845
v 0.929812 3.000000 -0.032268
v 1.052049 3.000000 -0.002753
v 0.929812 0.000000 -0.032268
v 1.052049 0.000000 -0.002753
v 0.000000 2.249322 -0.859924
v 0.000000 0.721981 -0.846948
v 0.000000 2.278019 -0.846948
v 0.000000 2.633324 -0.440815
v 0.000000 0.366676 -0.440815
v 0.000000 0.750678 -0.859924
v -0.644614 0.000000 0.568019
v -1.275000 0.000000 0.697753
v -1.947917 0.000000 0.903514
v -0.644614 3.000000 0.568019
v -1.275000 3.000000 0.697753
v -1.947917 3.000000 0.903514
v -0.628998 3.000000 -0.021684
v -1.416667 3.000000 0.118199
v -2.125000 3.000000 0.371561
v -0.628998 0.000000 -0.021684
v -1.416667 0.000000 0.118199
v -2.125000 0.000000 0.371561
v -0.559687 2.249322 -0.859924
v -0.562046 2.278019 -0.846948
v -0.562046 0.721981 -0.846948
v -0.559687 0.750678 -0.859924
v -1.161741 2.248890 -0.727397
v -1.165714 2.278095 -0.714219
v -1.165714 0.721905 -0.714219
v -1.161741 0.751110 -0.727397
v -1.685017 2.249500 -0.542021
v -1.708253 2.278873 -0.521178
v -1.685259 0.750243 -0.541936
v -1.708253 0.721127 -0.521178
v -0.905756 2.249074 -0.783746
v -0.909043 2.278063 -0.770654
v -0.915536 3.000000 0.029701
v -0.890881 3.000000 0.599026
v -0.890881 0.000000 0.599026
v -0.915536 0.000000 0.029701
v -0.909043 0.721937 -0.770654
v -0.905756 0.750926 -0.783746
v -1.036415 2.278079 -0.742648
v -1.032788 2.248982 -0.755783
v -1.032787 0.751018 -0.755783
v -1.036415 0.721921 -0.742648
v -1.037773 0.000000 0.059216
v -1.023890 0.000000 0.626399
v -1.023890 3.000000 0.626399
v -1.037773 3.000000 0.059216
v -0.925109 2.267027 -0.871666
v -0.925472 2.330360 -0.843850
v -1.052844 2.330376 -0.815845
v -1.052141 2.266936 -0.843703
v -0.925472 0.669640 -0.843850
v -0.925109 0.732973 -0.871666
v -1.052141 0.733064 -0.843703
v -1.052844 0.669624 -0.815845
v -0.929812 3.000000 -0.032268
v -1.052049 3.000000 -0.002753
v -0.929812 0.000000 -0.032268
v -1.052049 0.000000 -0.002753
vt 0.525000 0.000000
vt 0.575000 0.000000
vt 0.625000 0.000000
vt 0.525000 0.250000
vt 0.575000 0.250000
vt 0.625000 0.250000
vt 0.525000 1.000000
vt 0.575000 1.000000
vt 0.625000 1.000000
vt 0.875000 0.000000
vt 0.875000 0.250000
vt 0.623523 0.747243
vt 0.525000 0.502828
vt 0.575000 0.502899
vt 0.525000 0.747172
vt 0.623500 0.502799
vt 0.575000 0.747102
vt 0.525000 0.500000
vt 0.525000 0.750000
vt 0.575000 0.500000
vt 0.525000 0.500000
vt 0.525000 0.750000
vt 0.575000 0.750000
vt 0.625000 0.500000
vt 0.575000 0.500000
vt 0.625000 0.750000
vt 0.625000 0.500000
vt 0.575000 0.750000
vt 0.625000 0.750000
vt 0.553741 0.502869
vt 0.553741 0.500000
vt 0.553741 0.500000
vt 0.553741 0.250000
vt 0.553741 0.000000
vt 0.553741 1.000000
vt 0.553741 0.750000
vt 0.553741 0.750000
vt 0.553741 0.747131
vt 0.564291 0.500000
vt 0.564291 0.502883
vt 0.564291 0.747117
vt 0.564291 0.750000
vt 0.564291 0.750000
vt 0.564291 0.000000
vt 0.564291 1.000000
vt 0.564291 0.250000
vt 0.564291 0.500000
vt 0.500033 0.500000
vt 0.500033 0.250000
vt 0.500033 0.000000
vt 0.500033 1.000000
vt 0.500033 0.750000
vt 0.553741 0.502869
vt 0.553741 0.500000
vt 0.564291 0.500000
vt 0.564291 0.502883
vt 0.553741 0.750000
vt 0.553741 0.747131
vt 0.564291 0.747117
vt 0.564291 0.750000
vt 0.553741 0.500000
vt 0.564291 0.500000
vt 0.564291 0.750000
vt 0.553741 0.750000
vt 0.500034 0.502828
vt 0.500034 0.750000
vt 0.500034 0.500000
vt 0.500033 0.500000
vt 0.500033 0.750000
vt 0.500034 0.747172
vt 0.500033 0.000000
vt 0.525000 0.000000
vt 0.525000 0.250000
vt 0.500033 0.250000
vt 0.553741 0.000000
vt 0.564291 0.000000
vt 0.564291 0.250000
vt 0.553741 0.250000
vt 0.575000 0.000000
vt 0.625000 0.000000
vt 0.625000 0.250000
vt 0.575000 0.250000
vt 0.525000 0.500000
vt 0.500033 0.500000
vt 0.564291 0.500000
vt 0.553741 0.500000
vt 0.625000 0.500000
vt 0.575000 0.500000
vt 0.500033 0.750000
vt 0.525000 0.750000
vt 0.525000 1.000000
vt 0.500033 1.000000
vt 0.553741 0.750000
vt 0.564291 0.750000
vt 0.564291 1.000000
vt 0.553741 1.000000
vt 0.575000 0.750000
vt 0.625000 0.750000
vt 0.625000 1.000000
vt 0.575000 1.000000
vt 0.875000 0.000000
vt 0.875000 0.250000
vt 0.553741 0.502869
vt 0.553741 0.500000
vt 0.564291 0.500000
vt 0.564291 0.502883
vt 0.553741 0.750000
vt 0.553741 0.747131
vt 0.564291 0.747117
vt 0.564291 0.750000
vt 0.575000 0.502899
vt 0.575000 0.500000
vt 0.625000 0.500000
vt 0.623500 0.502799
vt 0.575000 0.750000
vt 0.575000 0.747102
vt 0.623523 0.747243
vt 0.625000 0.750000
vt 0.525000 0.500000
vt 0.500034 0.500000
vt 0.500033 0.500000
vt 0.500033 0.750000
vt 0.500034 0.750000
vt 0.525000 0.750000
vt 0.553741 0.500000
vt 0.564291 0.500000
vt 0.564291 0.750000
vt 0.553741 0.750000
vt 0.525000 0.502828
vt 0.553741 0.500000
vt 0.553741 0.502869
vt 0.553741 0.750000
vt 0.525000 0.747172
vt 0.553741 0.747131
vt 0.564291 0.502883
vt 0.564291 0.500000
vt 0.564291 0.747117
vt 0.564291 0.750000
vt 0.500034 0.502828
vt 0.500034 0.747172
vn 0.000000 0.000000 1.000000
vn -0.034783 0.000000 0.999395
vn -0.034783 0.000000 0.999395
vn 0.000000 0.000000 1.000000
vn -0.152133 0.000000 0.988360
vn -0.248932 0.000000 0.968521
vn -0.248932 0.000000 0.968521
vn -0.152133 0.000000 0.988360
vn -0.287259 0.000000 0.957853
vn -0.292410 0.000000 0.956293
vn -0.292410 0.000000 0.956293
vn -0.287259 0.000000 0.957853
vn 0.000000 1.000000 0.000000
vn 0.000000 1.000000 0.000000
vn 0.000000 1.000000 0.000000
vn 0.000000 1.000000 0.000000
vn 0.000000 1.000000 0.000000
vn 0.000000 1.000000 0.000000
vn 0.000000 1.000000 0.000000
vn 0.000000 1.000000 0.000000
vn 0.000000 1.000000 0.000000
vn 0.000000 1.000000 0.000000
vn 0.000000 1.000000 0.000000
vn 0.000000 1.000000 0.000000
vn 0.000000 -1.000000 0.000000
vn 0.000000 -1.000000 0.000000
vn 0.000000 -1.000000 0.000000
vn 0.000000 -1.000000 0.000000
vn 0.000000 -1.000000 0.000000
vn 0.000000 -1.000000 0.000000
vn 0.000000 -1.000000 0.000000
vn 0.000000 -1.000000 0.000000
vn 0.000000 -1.000000 0.000000
vn 0.000000 -1.000000 0.000000
vn 0.000000 -1.000000 0.000000
vn 0.000000 -1.000000 0.000000
vn 0.948809 0.000000 0.315852
vn 0.948809 0.000000 0.315852
vn 0.948809 0.000000 0.315852
vn 0.948809 0.000000 0.315852
vn 0.214952 0.016028 -0.976493
vn 0.150038 0.741205 -0.654296
vn 0.148695 0.747280 -0.647659
vn 0.214944 0.017951 -0.976461
vn 0.150037 -0.741206 -0.654296
vn 0.214952 -0.016028 -0.976493
vn 0.214945 -0.017951 -0.976461
vn 0.148695 -0.747280 -0.647659
vn 0.311355 0.006907 -0.950269
vn 0.191434 0.706255 -0.681584
vn 0.241659 0.693795 -0.678417
vn 0.361293 0.010365 -0.932395
vn 0.191411 -0.706306 -0.681537
vn 0.311358 -0.006905 -0.950268
vn 0.361304 -0.010368 -0.932391
vn 0.241652 -0.693814 -0.678400
vn 0.904840 0.000000 -0.425752
vn 0.904839 0.000000 -0.425754
vn 0.000000 0.752633 -0.658440
vn 0.051049 0.748627 -0.661023
vn 0.041986 0.741536 -0.669598
vn -0.000000 0.745383 -0.666636
vn 0.000000 0.752633 -0.658440
vn 0.051049 -0.748627 -0.661023
vn 0.000000 -0.752633 -0.658440
vn 0.000000 -0.752633 -0.658440
vn 0.000000 -0.745383 -0.666636
vn 0.041986 -0.741536 -0.669598
vn 0.145023 0.763315 -0.629538
vn 0.145023 0.763315 -0.629538
vn 0.145022 -0.763315 -0.629538
vn 0.145022 -0.763316 -0.629538
vn 0.216048 0.705324 -0.675160
vn 0.240764 0.696595 -0.675861
vn 0.906130 0.000000 -0.422998
vn 0.906130 0.000000 -0.422998
vn 0.240764 -0.696595 -0.675861
vn 0.216048 -0.705324 -0.675160
vn 0.083633 0.008275 -0.996462
vn 0.135187 0.730896 -0.668966
vn 0.214969 0.008879 -0.976580
vn 0.133268 0.737989 -0.661522
vn 0.135187 -0.730896 -0.668966
vn 0.133268 -0.737989 -0.661522
vn 0.083633 -0.008275 -0.996462
vn 0.214969 -0.008879 -0.976580
vn 0.214972 0.006911 -0.976596
vn 0.116580 0.730244 -0.673167
vn 0.214972 -0.006911 -0.976596
vn 0.116580 -0.730244 -0.673167
vn 0.114809 -0.735609 -0.667607
vn 0.114809 0.735609 -0.667607
vn -0.976931 0.003633 -0.213524
vn -0.972358 0.177661 -0.151512
vn -0.972380 0.177507 -0.151553
vn -0.976929 0.003614 -0.213532
vn 0.972824 -0.173664 0.153146
vn 0.976948 -0.003828 0.213443
vn 0.976947 -0.003816 0.213448
vn 0.972843 -0.173531 0.153176
vn -0.972358 -0.177660 -0.151512
vn -0.976931 -0.003633 -0.213524
vn -0.976929 -0.003614 -0.213532
vn -0.972380 -0.177506 -0.151553
vn 0.976948 0.003828 0.213442
vn 0.972825 0.173664 0.153145
vn 0.972843 0.173531 0.153176
vn 0.976947 0.003816 0.213447
vn 0.000000 1.000000 0.000000
vn 0.000000 1.000000 0.000000
vn 0.000000 1.000000 0.000000
vn 0.000000 1.000000 0.000000
vn 0.972319 -0.177179 0.152329
vn 0.972319 -0.177179 0.152329
vn -0.971764 0.181799 -0.150415
vn -0.971764 0.181799 -0.150415
vn 0.000000 -1.000000 0.000000
vn 0.000000 -1.000000 0.000000
vn 0.000000 -1.000000 0.000000
vn 0.000000 -1.000000 0.000000
vn -0.971764 -0.181798 -0.150415
vn -0.971764 -0.181798 -0.150415
vn 0.972319 0.177178 0.152329
vn 0.972319 0.177178 0.152329
vn -0.000000 0.008513 -0.999964
vn 0.000000 -0.008513 -0.999964
vn 0.034783 0.000000 0.999395
vn 0.034783 0.000000 0.999395
vn 0.152133 0.000000 0.988360
vn 0.152133 0.000000 0.988360
vn 0.248932 0.000000 0.968521
vn 0.248932 0.000000 0.968521
vn 0.287259 0.000000 0.957853
vn 0.287259 0.000000 0.957853
vn 0.292410 0.000000 0.956293
vn 0.292410 0.000000 0.956293
vn 0.000000 1.000000 0.000000
vn 0.000000 1.000000 0.000000
vn 0.000000 1.000000 0.000000
vn 0.000000 1.000000 0.000000
vn 0.000000 1.000000 0.000000
vn 0.000000 1.000000 0.000000
vn 0.000000 1.000000 0.000000
vn 0.000000 1.000000 0.000000
vn 0.000000 1.000000 0.000000
vn 0.000000 1.000000 0.000000
vn 0.000000 -1.000000 0.000000
vn 0.000000 -1.000000 0.000000
vn 0.000000 -1.000000 0.000000
vn 0.000000 -1.000000 0.000000
vn 0.000000 -1.000000 0.000000
vn 0.000000 -1.000000 0.000000
vn 0.000000 -1.000000 0.000000
vn 0.000000 -1.000000 0.000000
vn 0.000000 -1.000000 0.000000
vn 0.000000 -1.000000 0.000000
vn -0.948809 0.000000 0.315852
vn -0.948809 0.000000 0.315852
vn -0.948809 0.000000 0.315852
vn -0.948809 0.000000 0.315852
vn -0.214952 0.016028 -0.976493
vn -0.214945 0.017951 -0.976461
vn -0.148695 0.747280 -0.647659
vn -0.150038 0.741205 -0.654296
vn -0.150037 -0.741206 -0.654296
vn -0.148695 -0.747280 -0.647659
vn -0.214945 -0.017951 -0.976461
vn -0.214952 -0.016028 -0.976493
vn -0.311355 0.006907 -0.950269
vn -0.361293 0.010365 -0.932395
vn -0.241659 0.693795 -0.678417
vn -0.191434 0.706255 -0.681584
vn -0.191411 -0.706306 -0.681537
vn -0.241652 -0.693814 -0.678400
vn -0.361304 -0.010368 -0.932391
vn -0.311358 -0.006905 -0.950268
vn -0.904839 0.000000 -0.425754
vn -0.904840 0.000000 -0.425752
vn -0.041986 0.741536 -0.669598
vn -0.051049 0.748627 -0.661023
vn -0.051049 -0.748627 -0.661023
vn -0.041986 -0.741536 -0.669598
vn -0.145023 0.763315 -0.629538
vn -0.145023 0.763315 -0.629538
vn -0.145022 -0.763315 -0.629538
vn -0.145022 -0.763315 -0.629538
vn -0.216048 0.705324 -0.675160
vn -0.240764 0.696595 -0.675861
vn -0.906130 0.000000 -0.422999
vn -0.906130 0.000000 -0.422999
vn -0.240764 -0.696595 -0.675861
vn -0.216048 -0.705324 -0.675160
vn -0.083633 0.008275 -0.996462
vn -0.214969 0.008879 -0.976580
vn -0.135187 0.730896 -0.668966
vn -0.133268 0.737989 -0.661522
vn -0.135187 -0.730896 -0.668966
vn -0.133268 -0.737989 -0.661522
vn -0.214969 -0.008879 -0.976580
vn -0.083633 -0.008275 -0.996462
vn -0.214972 0.006911 -0.976596
vn -0.116580 0.730244 -0.673167
vn -0.214972 -0.006911 -0.976596
vn -0.116580 -0.730244 -0.673167
vn -0.114809 -0.735609 -0.667607
vn -0.114809 0.735609 -0.667607
vn 0.976931 0.003633 -0.213524
vn 0.976929 0.003614 -0.213532
vn 0.972380 0.177507 -0.151553
vn 0.972358 0.177661 -0.151512
vn -0.972825 -0.173664 0.153146
vn -0.972843 -0.173531 0.153176
vn -0.976947 -0.003816 0.213447
vn -0.976948 -0.003828 0.213443
vn 0.972358 -0.177660 -0.151512
vn 0.972380 -0.177506 -0.151553
vn 0.976929 -0.003614 -0.213532
vn 0.976931 -0.003633 -0.213524
vn -0.976948 0.003828 0.213443
vn -0.976947 0.003816 0.213447
vn -0.972843 0.173531 0.153176
vn -0.972825 0.173664 0.153145
vn 0.000000 1.000000 0.000000
vn 0.000000 1.000000 0.000000
vn 0.000000 1.000000 0.000000
vn 0.000000 1.000000 0.000000
vn -0.972319 -0.177178 0.152329
vn -0.972319 -0.177178 0.152329
vn 0.971764 0.181799 -0.150416
vn 0.971764 0.181799 -0.150416
vn 0.000000 -1.000000 0.000000
vn 0.000000 -1.000000 0.000000
vn 0.000000 -1.000000 0.000000
vn 0.000000 -1.000000 0.000000
vn 0.971764 -0.181798 -0.150415
vn 0.971764 -0.181798 -0.150415
vn -0.972319 0.177178 0.152329
vn -0.972319 0.177178 0.152329
s 1
g PANEL_GLASS MAIN_WINDOWS
usemtl initialShadingGroup
f 43/50/1 1/1/2 4/4/3 42/49/4
f 29/34/5 38/44/6 39/46/7 28/33/8
f 2/2/9 3/3/10 6/6/11 5/5/12
s 3
f 42/49/13 4/4/14 7/18/15 41/48/16
f 28/33/17 39/46/18 40/47/19 27/32/20
f 5/5/21 6/6/22 9/24/23 8/20/24
s 5
f 44/52/25 10/22/26 1/7/27 43/51/28
f 30/36/29 37/43/30 38/45/31 29/35/32
f 11/28/33 12/26/34 3/9/35 2/8/36
s off
f 3/3/37 12/10/38 9/11/39 6/6/40
s 7
f 45/53/41 46/54/42 47/55/43 48/56/44
f 49/57/45 50/58/46 51/59/47 52/60/48
s 8
f 17/14/49 18/25/50 22/27/51 21/16/52
f 19/23/53 20/17/54 23/12/55 24/29/56
f 21/16/52 22/27/57 24/29/58 23/12/55
s 7
f 50/58/46 45/53/41 48/56/44 51/59/47
s 8
f 17/14/49 21/16/52 23/12/55 20/17/54
s 11
f 41/48/59 7/18/60 14/21/61 59/67/62 60/68/63
f 10/22/64 44/52/65 61/69/66 58/66/67 15/19/68
s 7
f 53/61/69 54/62/70 47/55/43 46/54/42
f 56/63/71 55/64/72 49/57/45 52/60/48
s 8
f 8/20/73 9/24/74 22/27/51 18/25/50
f 9/24/75 12/26/76 24/29/58 22/27/57
f 12/26/77 11/28/78 19/23/53 24/29/56
s 11
f 13/13/79 14/21/61 26/31/80 25/30/81
f 7/18/60 27/32/82 26/31/80 14/21/61
s 3
f 4/4/14 28/33/17 27/32/20 7/18/15
s 1
f 1/1/2 29/34/5 28/33/8 4/4/3
s 5
f 10/22/26 30/36/29 29/35/32 1/7/27
s 11
f 31/37/83 30/36/84 10/22/64 15/19/68
f 15/19/68 16/15/85 32/38/86 31/37/83
f 13/13/79 25/30/81 32/38/86 16/15/85
s 8
f 34/40/87 33/39/88 18/25/50 17/14/49
f 35/41/89 34/40/87 17/14/49 20/17/54
f 36/42/90 35/41/89 20/17/54 19/23/53
f 11/28/78 37/43/91 36/42/90 19/23/53
s 5
f 38/45/31 37/43/30 11/28/33 2/8/36
s 1
f 39/46/7 38/44/6 2/2/9 5/5/12
s 3
f 40/47/19 39/46/18 5/5/21 8/20/24
s 8
f 33/39/88 40/47/92 8/20/73 18/25/50
s 13
f 25/30/93 26/31/94 46/54/95 45/53/96
s 14
f 33/39/97 34/40/98 48/56/99 47/55/100
s 13
f 31/37/101 32/38/102 50/58/103 49/57/104
s 14
f 35/41/105 36/42/106 52/60/107 51/59/108
s 13
f 32/38/102 25/30/93 45/53/96 50/58/103
s 14
f 34/40/98 35/41/105 51/59/108 48/56/99
s off
f 27/32/109 40/47/110 54/62/111 53/61/112
s 14
f 40/47/113 33/39/97 47/55/100 54/62/114
s 13
f 26/31/94 27/32/115 53/61/116 46/54/95
s off
f 37/43/117 30/36/118 55/64/119 56/63/120
s 13
f 30/36/121 31/37/101 49/57/104 55/64/122
s 14
f 36/42/106 37/43/123 56/63/124 52/60/107
s 11
f 57/65/125 59/67/62 14/21/61 13/13/79
f 58/66/67 62/70/126 16/15/85 15/19/68
f 62/70/126 57/65/125 13/13/79 16/15/85
s 1
f 43/71/1 42/74/4 66/73/127 63/72/128
f 91/75/129 90/78/130 101/77/131 100/76/132
f 64/79/133 67/82/134 68/81/135 65/80/136
s 3
f 42/74/13 41/84/16 69/83/137 66/73/138
f 90/78/139 89/86/140 102/85/141 101/77/142
f 67/82/143 70/88/144 71/87/145 68/81/146
s 5
f 44/89/25 43/92/28 63/91/147 72/90/148
f 92/93/149 91/96/150 100/95/151 99/94/152
f 73/97/153 64/100/154 65/99/155 74/98/156
s off
f 65/80/157 68/81/158 71/102/159 74/101/160
s 16
f 103/103/161 106/106/162 105/105/163 104/104/164
f 107/107/165 110/110/166 109/109/167 108/108/168
s 18
f 79/111/169 83/114/170 84/113/171 80/112/172
f 81/115/173 86/118/174 85/117/175 82/116/176
f 83/114/170 85/117/175 86/118/177 84/113/178
s 16
f 108/108/168 109/109/167 106/106/162 103/103/161
s 18
f 79/111/169 82/116/176 85/117/175 83/114/170
s 11
f 41/84/59 60/121/63 59/120/62 76/119/179 69/83/180
f 72/90/181 77/124/182 58/123/67 61/122/66 44/89/65
s 16
f 111/125/183 104/104/164 105/105/163 112/126/184
f 114/127/185 110/110/166 107/107/165 113/128/186
s 18
f 70/88/187 80/112/172 84/113/171 71/87/188
f 71/87/189 84/113/178 86/118/177 74/98/190
f 74/98/191 86/118/174 81/115/173 73/97/192
s 11
f 75/129/193 87/131/194 88/130/195 76/119/179
f 69/83/180 76/119/179 88/130/195 89/86/196
s 3
f 66/73/138 69/83/137 89/86/140 90/78/139
s 1
f 63/72/128 66/73/127 90/78/130 91/75/129
s 5
f 72/90/148 63/91/147 91/96/150 92/93/149
s 11
f 93/132/197 77/124/182 72/90/181 92/93/198
f 77/124/182 93/132/197 94/134/199 78/133/200
f 75/129/193 78/133/200 94/134/199 87/131/194
s 18
f 96/135/201 79/111/169 80/112/172 95/136/202
f 97/137/203 82/116/176 79/111/169 96/135/201
f 98/138/204 81/115/173 82/116/176 97/137/203
f 73/97/192 81/115/173 98/138/204 99/94/205
s 5
f 100/95/151 64/100/154 73/97/153 99/94/152
s 1
f 101/77/131 67/82/134 64/79/133 100/76/132
s 3
f 102/85/141 70/88/144 67/82/143 101/77/142
s 18
f 95/136/202 80/112/172 70/88/187 102/85/206
s 21
f 87/131/207 103/103/208 104/104/209 88/130/210
s 22
f 95/136/211 105/105/212 106/106/213 96/135/214
s 21
f 93/132/215 107/107/216 108/108/217 94/134/218
s 22
f 97/137/219 109/109/220 110/110/221 98/138/222
s 21
f 94/134/218 108/108/217 103/103/208 87/131/207
s 22
f 96/135/214 106/106/213 109/109/220 97/137/219
s off
f 89/86/223 111/125/224 112/126/225 102/85/226
s 22
f 102/85/227 112/126/228 105/105/212 95/136/211
s 21
f 88/130/210 104/104/209 111/125/229 89/86/230
s off
f 99/94/231 114/127/232 113/128/233 92/93/234
s 21
f 92/93/235 113/128/236 107/107/216 93/132/215
s 22
f 98/138/222 110/110/221 114/127/237 99/94/238
s 11
f 57/139/125 75/129/193 76/119/179 59/120/62
f 58/123/67 77/124/182 78/133/200 62/140/126
f 62/140/126 78/133/200 75/129/193 57/139/125
