# This file uses centimeters as units for non-parametric coordinates.

mtllib CUBEROOMC_SPACE.mtl
g default
v -3.949912 0.000000 3.949912
v -3.949912 0.149985 4.099896
v -4.099896 0.149985 3.949912
v 4.099896 0.149985 3.949912
v 3.949912 0.149985 4.099896
v 3.949912 0.000000 3.949912
v 3.949912 4.000000 3.949912
v 3.949912 3.850015 4.099896
v 4.099896 3.850015 3.949912
v -4.099896 3.850015 3.949912
v -3.949912 3.850015 4.099896
v -3.949912 4.000000 3.949912
v 3.949912 3.850015 -4.099896
v 3.949912 4.000000 -3.949912
v 4.099896 3.850015 -3.949912
v -4.099896 3.850015 -3.949912
v -3.949912 4.000000 -3.949912
v -3.949912 3.850015 -4.099896
v 3.949912 0.000000 -3.949912
v 3.949912 0.149985 -4.099896
v 4.099896 0.149985 -3.949912
v -4.099896 0.149985 -3.949912
v -3.949912 0.149985 -4.099896
v -3.949912 0.000000 -3.949912
vt 0.342499 0.990626
vt 0.330000 0.990626
vt 0.330000 0.759374
vt 0.342499 0.759374
vt 0.342499 0.009374
vt 0.342499 0.000000
vt 0.650834 0.000000
vt 0.650834 0.009374
vt 0.317626 0.009374
vt 0.342499 0.240626
vt 0.317626 0.240626
vt 0.663333 0.990626
vt 0.650834 0.990626
vt 0.650834 0.759374
vt 0.663333 0.759374
vt 0.675957 0.009374
vt 0.675957 0.240626
vt 0.650834 0.240626
vt 0.650834 0.259374
vt 0.663333 0.259374
vt 0.663333 0.490626
vt 0.650834 0.490626
vt 0.342499 0.259374
vt 0.330000 0.259374
vt 0.342499 0.490626
vt 0.330000 0.490626
vt 0.650834 0.509374
vt 0.663333 0.509374
vt 0.663333 0.740626
vt 0.650834 0.740626
vt 0.342499 0.509374
vt 0.330000 0.509374
vt 0.342499 0.740626
vt 0.330000 0.740626
vt 0.987376 0.009374
vt 0.987376 0.240626
vt 0.012374 0.009374
vt 0.012374 0.240626
vn -0.707107 -0.707107 0.000000
vn -0.707107 -0.707107 0.000000
vn -0.707107 -0.707107 0.000000
vn -0.707107 -0.707107 0.000000
vn 0.000000 -0.707106 0.707107
vn 0.000000 -0.707106 0.707107
vn 0.000000 -0.707106 0.707107
vn 0.000000 -0.707106 0.707107
vn -0.707106 0.000000 0.707107
vn -0.707106 0.000000 0.707107
vn -0.707106 0.000000 0.707107
vn -0.707106 0.000000 0.707107
vn 0.707107 -0.707107 0.000000
vn 0.707107 -0.707107 0.000000
vn 0.707107 -0.707107 0.000000
vn 0.707107 -0.707107 0.000000
vn 0.707106 0.000000 0.707107
vn 0.707106 0.000000 0.707107
vn 0.707106 0.000000 0.707107
vn 0.707106 0.000000 0.707107
vn 0.707107 0.707106 0.000000
vn 0.707107 0.707106 0.000000
vn 0.707107 0.707106 0.000000
vn 0.707107 0.707106 0.000000
vn 0.000000 0.707106 0.707108
vn 0.000000 0.707106 0.707108
vn 0.000000 0.707106 0.707108
vn 0.000000 0.707106 0.707108
vn -0.707107 0.707106 0.000000
vn -0.707107 0.707106 0.000000
vn -0.707107 0.707106 0.000000
vn -0.707107 0.707106 0.000000
vn 0.707106 0.000000 -0.707107
vn 0.707106 0.000000 -0.707107
vn 0.707106 0.000000 -0.707107
vn 0.707106 0.000000 -0.707107
vn 0.000000 0.707106 -0.707108
vn 0.000000 0.707106 -0.707108
vn 0.000000 0.707106 -0.707108
vn 0.000000 0.707106 -0.707108
vn -0.707106 0.000000 -0.707107
vn -0.707106 0.000000 -0.707107
vn -0.707106 0.000000 -0.707107
vn -0.707106 0.000000 -0.707107
vn 0.000000 -0.707106 -0.707107
vn 0.000000 -0.707106 -0.707107
vn 0.000000 -0.707106 -0.707107
vn 0.000000 -0.707106 -0.707107
vn 0.000000 0.000000 1.000000
vn 0.000000 0.000000 1.000000
vn 0.000000 0.000000 1.000000
vn 0.000000 0.000000 1.000000
vn 0.000000 0.000000 -1.000000
vn 0.000000 0.000000 -1.000000
vn 0.000000 0.000000 -1.000000
vn 0.000000 0.000000 -1.000000
vn 0.000000 -1.000000 0.000000
vn 0.000000 -1.000000 0.000000
vn 0.000000 -1.000000 0.000000
vn 0.000000 -1.000000 0.000000
vn 1.000000 0.000000 0.000000
vn 1.000000 0.000000 0.000000
vn 1.000000 0.000000 0.000000
vn 1.000000 0.000000 0.000000
vn -1.000000 0.000000 0.000000
vn -1.000000 0.000000 0.000000
vn -1.000000 0.000000 0.000000
vn -1.000000 0.000000 0.000000
vn -0.577351 -0.577351 0.577350
vn -0.577351 -0.577351 0.577350
vn -0.577351 -0.577351 0.577350
vn 0.577351 -0.577351 0.577350
vn 0.577351 -0.577351 0.577350
vn 0.577351 -0.577351 0.577350
vn 0.577350 0.577350 0.577350
vn 0.577350 0.577350 0.577350
vn 0.577350 0.577350 0.577350
vn -0.577350 0.577350 0.577350
vn -0.577350 0.577350 0.577350
vn -0.577350 0.577350 0.577350
vn 0.577350 0.577350 -0.577350
vn 0.577350 0.577350 -0.577350
vn 0.577350 0.577350 -0.577350
vn -0.577350 0.577350 -0.577350
vn -0.577350 0.577350 -0.577350
vn -0.577350 0.577350 -0.577350
vn 0.577351 -0.577351 -0.577350
vn 0.577351 -0.577351 -0.577350
vn 0.577351 -0.577351 -0.577350
vn -0.577351 -0.577351 -0.577350
vn -0.577351 -0.577351 -0.577350
vn -0.577351 -0.577351 -0.577350
s off
g CUBEROOMC_SPACE FREIGHTER_CUBES
usemtl initialShadingGroup
f 1/1/1 3/2/2 22/3/3 24/4/4
f 2/5/5 1/6/6 6/7/7 5/8/8
f 3/9/9 2/5/10 11/10/11 10/11/12
f 4/12/13 6/13/14 19/14/15 21/15/16
f 5/8/17 4/16/18 9/17/19 8/18/20
f 7/19/21 9/20/22 15/21/23 14/22/24
f 8/18/25 7/19/26 12/23/27 11/10/28
f 10/24/29 12/23/30 17/25/31 16/26/32
f 13/27/33 15/28/34 21/29/35 20/30/36
f 14/22/37 13/27/38 18/31/39 17/25/40
f 16/32/41 18/31/42 23/33/43 22/34/44
f 20/30/45 19/14/46 24/4/47 23/33/48
f 2/5/49 5/8/50 8/18/51 11/10/52
f 18/31/53 13/27/54 20/30/55 23/33/56
f 24/4/57 19/14/58 6/13/59 1/1/60
f 4/16/61 21/35/62 15/36/63 9/17/64
f 22/37/65 3/9/66 10/11/67 16/38/68
f 1/6/69 2/5/70 3/9/71
f 4/16/72 5/8/73 6/7/74
f 7/19/75 8/18/76 9/17/77
f 10/11/78 11/10/79 12/23/80
f 13/27/81 14/22/82 15/21/83
f 16/26/84 17/25/85 18/31/86
f 19/14/87 20/30/88 21/29/89
f 22/34/90 23/33/91 24/4/92
