# This file uses centimeters as units for non-parametric coordinates.

mtllib FOOTLOCKER.mtl
g default
v 0.310000 0.833990 0.389766
v 0.310000 0.793990 0.389766
v 0.310000 0.773990 0.424407
v 0.310000 0.793990 0.459048
v 0.310000 0.833990 0.459048
v 0.310000 0.853990 0.424407
v -0.310000 0.833990 0.389766
v -0.310000 0.793990 0.389766
v -0.310000 0.773990 0.424407
v -0.310000 0.793990 0.459048
v -0.310000 0.833990 0.459048
v -0.310000 0.853990 0.424407
v 0.310000 0.813990 0.424407
v -0.310000 0.813990 0.424407
v -0.745066 0.000000 0.468010
v -0.745066 0.031990 0.500000
v -0.777055 0.031990 0.468010
v 0.777055 0.031990 0.468010
v 0.745066 0.031990 0.500000
v 0.745066 0.000000 0.468010
v -0.745066 0.860897 0.500000
v -0.745066 0.892886 0.468010
v -0.777055 0.860897 0.468010
v 0.777055 0.860897 0.468010
v 0.745066 0.892886 0.468010
v 0.745066 0.860897 0.500000
v -0.777055 0.860897 -0.468010
v -0.745066 0.892886 -0.468010
v -0.745066 0.860897 -0.500000
v 0.745066 0.860897 -0.500000
v 0.745066 0.892886 -0.468010
v 0.777055 0.860897 -0.468010
v -0.745066 0.031990 -0.500000
v -0.745066 0.000000 -0.468010
v -0.777055 0.031990 -0.468010
v 0.777055 0.031990 -0.468010
v 0.745066 0.000000 -0.468010
v 0.745066 0.031990 -0.500000
v -0.777055 0.584276 0.468010
v -0.745066 0.584276 0.500000
v 0.745066 0.584276 0.500000
v 0.777055 0.584276 0.468010
v -0.777055 0.626280 -0.468010
v -0.745066 0.626280 -0.500000
v 0.745066 0.626280 -0.500000
v 0.777055 0.626280 -0.468010
v 0.777055 0.626280 0.468010
v 0.745066 0.626280 0.500000
v -0.745066 0.626280 0.500000
v -0.777055 0.626280 0.468010
v -0.745066 0.584276 -0.500000
v -0.777055 0.584276 -0.468010
v 0.777055 0.584276 -0.468010
v 0.745066 0.584276 -0.500000
v 0.723271 0.584276 0.478206
v 0.755261 0.584276 0.446216
v -0.723271 0.584276 0.478206
v -0.755261 0.584276 0.446216
v 0.723271 0.626280 0.478206
v 0.755261 0.626280 0.446216
v -0.723271 0.626280 0.478206
v -0.755261 0.626280 0.446216
v -0.755261 0.584276 -0.446216
v -0.723271 0.584276 -0.478206
v -0.755261 0.626280 -0.446216
v -0.723271 0.626280 -0.478206
v 0.723271 0.626280 -0.478206
v 0.755261 0.626280 -0.446216
v 0.723271 0.584276 -0.478206
v 0.755261 0.584276 -0.446216
v -0.210295 0.892886 0.468010
v -0.210295 0.860897 0.500000
v 0.210295 0.860897 0.500000
v 0.210295 0.892886 0.468010
v 0.210295 0.892886 0.208969
v -0.210295 0.892886 0.208969
v -0.210295 0.661496 0.500000
v 0.210295 0.661496 0.500000
v -0.210295 0.744900 0.267631
v -0.210295 0.684753 0.314722
v 0.210295 0.684753 0.314722
v 0.210295 0.744900 0.267631
v 0.210295 0.859963 0.208969
v -0.210295 0.859963 0.208969
v -0.210295 0.661496 0.467077
v 0.210295 0.661496 0.467077
v 0.200097 0.187657 0.429957
v -0.200097 0.187657 0.429957
v 0.200097 0.428609 0.429957
v -0.200097 0.428609 0.429957
v 0.214478 0.151672 0.500000
v 0.200097 0.168137 0.487394
v -0.214190 0.151916 0.500000
v -0.200097 0.168051 0.487646
v 0.214190 0.464350 0.500000
v 0.200097 0.448215 0.487646
v -0.214478 0.464593 0.500000
v -0.200097 0.448129 0.487394
vt 0.578125 0.020934
vt 0.421875 0.020934
vt 0.343750 0.156250
vt 0.421875 0.291566
vt 0.578125 0.291566
vt 0.656250 0.156250
vt 0.375000 0.312500
vt 0.416667 0.312500
vt 0.458333 0.312500
vt 0.500000 0.312500
vt 0.541667 0.312500
vt 0.583333 0.312500
vt 0.625000 0.312500
vt 0.375000 0.688440
vt 0.416667 0.688440
vt 0.458333 0.688440
vt 0.500000 0.688440
vt 0.541667 0.688440
vt 0.583333 0.688440
vt 0.625000 0.688440
vt 0.578125 0.708434
vt 0.421875 0.708434
vt 0.343750 0.843750
vt 0.421875 0.979066
vt 0.578125 0.979066
vt 0.656250 0.843750
vt 0.500000 0.150000
vt 0.500000 0.837500
vt 0.380146 0.992003
vt 0.375000 0.992003
vt 0.375000 0.757997
vt 0.380146 0.757997
vt 0.380146 0.008957
vt 0.380146 -0.000000
vt 0.619854 -0.000000
vt 0.619854 0.008957
vt 0.367003 0.008957
vt 0.380146 0.163592
vt 0.367003 0.163592
vt 0.625000 0.992003
vt 0.619854 0.992003
vt 0.619854 0.757997
vt 0.625000 0.757997
vt 0.632997 0.008957
vt 0.632997 0.163592
vt 0.619854 0.163592
vt 0.380146 0.241043
vt 0.367003 0.241043
vt 0.367003 0.175353
vt 0.380146 0.175353
vt 0.380146 0.257997
vt 0.380146 0.241043
vt 0.619854 0.241043
vt 0.619854 0.257997
vt 0.375000 0.257997
vt 0.380146 0.257997
vt 0.380146 0.492003
vt 0.375000 0.492003
vt 0.632997 0.241043
vt 0.619854 0.241043
vt 0.619854 0.175353
vt 0.632997 0.175353
vt 0.619854 0.257997
vt 0.625000 0.257997
vt 0.625000 0.492003
vt 0.619854 0.492003
vt 0.132997 0.241043
vt 0.125000 0.241043
vt 0.125000 0.175353
vt 0.132997 0.175353
vt 0.380146 0.508957
vt 0.619854 0.508957
vt 0.625000 0.508957
vt 0.625000 0.574647
vt 0.619854 0.574647
vt 0.380146 0.741043
vt 0.375000 0.741043
vt 0.375000 0.586408
vt 0.380146 0.586408
vt 0.619854 0.741043
vt 0.625000 0.741043
vt 0.619854 0.586408
vt 0.625000 0.586408
vt 0.380296 0.163592
vt 0.366638 0.163592
vt 0.633362 0.163592
vt 0.619706 0.163592
vt 0.125000 0.175353
vt 0.133362 0.175353
vt 0.625000 0.574647
vt 0.619706 0.574647
vt 0.619704 0.175353
vt 0.633362 0.175353
vt 0.366638 0.175353
vt 0.380294 0.175353
vt 0.125000 0.163592
vt 0.132997 0.163592
vt 0.133362 0.163592
vt 0.125000 0.163592
vt 0.619704 0.586408
vt 0.625000 0.586408
vt 0.380146 0.008957
vt 0.619854 0.008957
vt 0.619854 0.163592
vt 0.380146 0.163592
vt 0.619854 0.492003
vt 0.380146 0.492003
vt 0.867003 0.008957
vt 0.867003 0.163592
vt 0.132997 0.008957
vt 0.380146 0.175353
vt 0.619854 0.175353
vt 0.380146 0.574647
vt 0.867003 0.175353
vt 0.867003 0.241043
vt 0.380296 0.574647
vt 0.380294 0.586408
vt 0.866638 0.163592
vt 0.866638 0.175353
vt 0.380146 0.241043
vt 0.380146 0.257997
vt 0.619854 0.257997
vt 0.619854 0.241043
vt 0.619854 0.492003
vt 0.380146 0.492003
vt 0.619854 0.175353
vt 0.380146 0.175353
vt 0.598316 0.008957
vt 0.619854 0.008957
vt 0.380146 0.008957
vt 0.385815 0.008957
vt 0.614185 0.163592
vt 0.619854 0.163592
vt 0.380146 0.163592
vt 0.401684 0.163592
vn 0.000000 0.000001 -1.000000
vn 0.000000 0.000001 -1.000000
vn 0.000000 0.000001 -1.000000
vn 0.000000 0.000001 -1.000000
vn 0.000000 -0.866025 -0.500001
vn 0.000000 -0.866025 -0.500001
vn 0.000000 -0.866025 -0.500001
vn 0.000000 -0.866025 -0.500001
vn 0.000000 -0.866025 0.500001
vn 0.000000 -0.866025 0.500001
vn 0.000000 -0.866025 0.500001
vn 0.000000 -0.866025 0.500001
vn 0.000000 0.000000 1.000000
vn 0.000000 0.000000 1.000000
vn 0.000000 0.000000 1.000000
vn 0.000000 0.000000 1.000000
vn 0.000000 0.866025 0.500001
vn 0.000000 0.866025 0.500001
vn 0.000000 0.866025 0.500001
vn 0.000000 0.866025 0.500001
vn 0.000000 0.866025 -0.500001
vn 0.000000 0.866025 -0.500001
vn 0.000000 0.866025 -0.500001
vn 0.000000 0.866025 -0.500001
vn 1.000000 0.000000 0.000000
vn 1.000000 0.000000 0.000000
vn 1.000000 0.000000 0.000000
vn 1.000000 0.000000 0.000000
vn 1.000000 0.000000 0.000000
vn 1.000000 0.000000 0.000000
vn 1.000000 0.000000 0.000000
vn -1.000000 0.000000 0.000000
vn -1.000000 0.000000 0.000000
vn -1.000000 0.000000 0.000000
vn -1.000000 0.000000 0.000000
vn -1.000000 0.000000 0.000000
vn -1.000000 0.000000 0.000000
vn -1.000000 0.000000 0.000000
vn -0.707106 -0.707107 0.000000
vn -0.707106 -0.707107 0.000000
vn -0.707106 -0.707107 0.000000
vn -0.707106 -0.707107 0.000000
vn 0.000000 -0.707107 0.707107
vn 0.000000 -0.707107 0.707107
vn 0.000000 -0.707107 0.707107
vn 0.000000 -0.707107 0.707107
vn -0.707107 0.000000 0.707107
vn -0.707107 0.000000 0.707107
vn -0.707107 0.000000 0.707107
vn -0.707107 0.000000 0.707107
vn 0.707106 -0.707107 0.000000
vn 0.707106 -0.707107 0.000000
vn 0.707106 -0.707107 0.000000
vn 0.707106 -0.707107 0.000000
vn 0.707107 0.000000 0.707107
vn 0.707107 0.000000 0.707107
vn 0.707107 0.000000 0.707107
vn 0.707107 0.000000 0.707107
vn -0.707107 0.000000 0.707107
vn -0.707107 0.000000 0.707107
vn -0.707107 0.000000 0.707107
vn -0.707107 0.000000 0.707107
vn 0.000000 0.616466 0.787381
vn 0.000000 0.616466 0.787381
vn 0.000000 0.616466 0.787381
vn 0.000000 0.616466 0.787381
vn -0.707106 0.707107 0.000000
vn -0.707106 0.707107 0.000000
vn -0.707106 0.707107 0.000000
vn -0.707106 0.707107 0.000000
vn 0.707107 0.000000 0.707107
vn 0.707107 0.000000 0.707107
vn 0.707107 0.000000 0.707107
vn 0.707107 0.000000 0.707107
vn 0.707106 0.707107 0.000000
vn 0.707106 0.707107 0.000000
vn 0.707106 0.707107 0.000000
vn 0.707106 0.707107 0.000000
vn -0.707107 0.000000 -0.707107
vn -0.707107 0.000000 -0.707107
vn -0.707107 0.000000 -0.707107
vn -0.707107 0.000000 -0.707107
vn 0.000000 0.707106 -0.707107
vn 0.000000 0.707106 -0.707107
vn 0.000000 0.707106 -0.707107
vn 0.000000 0.707106 -0.707107
vn 0.707107 0.000000 -0.707107
vn 0.707107 0.000000 -0.707107
vn 0.707107 0.000000 -0.707107
vn 0.707107 0.000000 -0.707107
vn -0.707107 0.000000 -0.707107
vn -0.707107 0.000000 -0.707107
vn -0.707107 0.000000 -0.707107
vn -0.707107 0.000000 -0.707107
vn 0.000000 -0.707107 -0.707107
vn 0.000000 -0.707107 -0.707107
vn 0.000000 -0.707107 -0.707107
vn 0.000000 -0.707107 -0.707107
vn 0.707107 0.000000 -0.707107
vn 0.707107 0.000000 -0.707107
vn 0.707107 0.000000 -0.707107
vn 0.707107 0.000000 -0.707107
vn 0.000000 1.000000 0.000000
vn 0.000000 1.000000 -0.000000
vn 0.000000 1.000000 -0.000000
vn 0.000000 1.000000 0.000000
vn 0.000000 1.000000 -0.000000
vn 0.000000 1.000000 0.000000
vn 0.000000 1.000000 0.000000
vn 0.000000 1.000000 -0.000000
vn 0.000000 -1.000000 0.000000
vn 0.000000 -1.000000 -0.000001
vn 0.000000 -1.000000 -0.000001
vn 0.000000 -1.000000 0.000000
vn 0.000000 -1.000000 -0.000001
vn 0.000000 -1.000000 0.000000
vn 0.000000 -1.000000 0.000000
vn 0.000000 -1.000000 -0.000001
vn 0.000000 -1.000000 -0.000000
vn 0.000000 -1.000000 0.000001
vn 0.000000 -1.000000 0.000001
vn 0.000000 -1.000000 -0.000000
vn 0.000000 -1.000000 0.000001
vn 0.000000 -1.000000 0.000000
vn 0.000000 -1.000000 0.000000
vn 0.000000 -1.000000 0.000001
vn 0.000000 1.000000 0.000000
vn 0.000000 1.000000 0.000000
vn 0.000000 1.000000 0.000000
vn 0.000000 1.000000 0.000000
vn 0.000000 1.000000 0.000000
vn 0.000000 1.000000 0.000000
vn 0.000000 1.000000 0.000000
vn 0.000000 1.000000 0.000000
vn 0.707107 0.000000 0.707107
vn 0.707107 0.000000 0.707107
vn 0.707107 0.000000 0.707107
vn 0.707107 0.000000 0.707107
vn -0.707107 0.000000 0.707107
vn -0.707107 0.000000 0.707107
vn -0.707107 0.000000 0.707107
vn -0.707107 0.000000 0.707107
vn -0.707107 0.000000 -0.707107
vn -0.707107 0.000000 -0.707107
vn -0.707107 0.000000 -0.707107
vn -0.707107 0.000000 -0.707107
vn 0.707107 0.000000 -0.707107
vn 0.707107 0.000000 -0.707107
vn 0.707107 0.000000 -0.707107
vn 0.707107 0.000000 -0.707107
vn 0.000000 0.000000 1.000000
vn 0.000000 0.000000 1.000000
vn 0.000000 0.000000 1.000000
vn 0.000000 0.000000 1.000000
vn 0.000000 0.454205 0.890897
vn 0.000000 0.454205 0.890897
vn 0.000000 0.454205 0.890897
vn 0.000000 0.454205 0.890897
vn 0.000000 0.000000 -1.000000
vn 0.000000 0.000000 -1.000000
vn 0.000000 0.000000 -1.000000
vn 0.000000 0.000000 -1.000000
vn 0.000000 -1.000000 0.000000
vn 0.000000 -1.000000 0.000000
vn 0.000000 -1.000000 0.000000
vn 0.000000 -1.000000 0.000000
vn 1.000000 0.000000 0.000000
vn 1.000000 0.000000 0.000000
vn 1.000000 0.000000 0.000000
vn 1.000000 0.000000 0.000000
vn -1.000000 0.000000 0.000000
vn -1.000000 0.000000 0.000000
vn -1.000000 0.000000 0.000000
vn -1.000000 0.000000 0.000000
vn 0.000000 0.988549 0.150904
vn 0.000000 0.988549 0.150904
vn 0.000000 0.988549 0.150904
vn 0.000000 0.988549 0.150904
vn -1.000000 0.000000 0.000000
vn -1.000000 0.000000 0.000000
vn -1.000000 0.000000 0.000000
vn -1.000000 0.000000 0.000000
vn 0.000000 0.000000 -1.000000
vn 0.000000 0.000000 -1.000000
vn 0.000000 0.000000 -1.000000
vn 0.000000 0.000000 -1.000000
vn 1.000000 0.000000 0.000000
vn 1.000000 0.000000 0.000000
vn 1.000000 0.000000 0.000000
vn 1.000000 0.000000 0.000000
vn 0.000000 0.000000 1.000000
vn 0.000000 0.000000 1.000000
vn 0.000000 0.000000 1.000000
vn 0.000000 0.000000 1.000000
vn -1.000000 0.000000 0.000000
vn -1.000000 0.000000 0.000000
vn -1.000000 0.000000 0.000000
vn -1.000000 0.000000 0.000000
vn 0.000000 0.000000 -1.000000
vn 0.000000 0.000000 -1.000000
vn 0.000000 0.000000 -1.000000
vn 0.000000 0.000000 -1.000000
vn 1.000000 0.000000 0.000000
vn 1.000000 0.000000 0.000000
vn 1.000000 0.000000 0.000000
vn 1.000000 0.000000 0.000000
vn -0.577350 -0.577351 0.577350
vn -0.577350 -0.577351 0.577350
vn -0.577350 -0.577351 0.577350
vn 0.577350 -0.577351 0.577350
vn 0.577350 -0.577351 0.577350
vn 0.577350 -0.577351 0.577350
vn -0.577350 0.577351 0.577351
vn -0.577350 0.577351 0.577351
vn -0.577350 0.577351 0.577351
vn 0.577350 0.577351 0.577351
vn 0.577350 0.577351 0.577351
vn 0.577350 0.577351 0.577351
vn -0.577350 0.577351 -0.577351
vn -0.577350 0.577351 -0.577351
vn -0.577350 0.577351 -0.577351
vn 0.577350 0.577351 -0.577351
vn 0.577350 0.577351 -0.577351
vn 0.577350 0.577351 -0.577351
vn -0.577350 -0.577351 -0.577350
vn -0.577350 -0.577351 -0.577350
vn -0.577350 -0.577351 -0.577350
vn 0.577350 -0.577351 -0.577350
vn 0.577350 -0.577351 -0.577350
vn 0.577350 -0.577351 -0.577350
vn 0.000000 0.707107 0.707106
vn 0.000000 0.707107 0.707106
vn 0.000000 0.707107 0.707106
vn 0.000000 0.707107 0.707106
vn 0.000000 0.707107 0.707106
vn 0.000000 0.707107 0.707106
vn 0.000000 0.707107 0.707106
vn 0.000000 0.707107 0.707106
vn 0.000000 1.000000 0.000000
vn 0.000000 1.000000 0.000000
vn 0.000000 1.000000 0.000000
vn 0.000000 1.000000 0.000000
vn 0.000000 1.000000 0.000000
vn 0.000000 1.000000 0.000000
vn 0.000000 1.000000 0.000000
vn 0.000000 1.000000 0.000000
vn 0.000000 1.000000 0.000000
vn 0.000000 1.000000 0.000000
vn 0.000000 1.000000 0.000000
vn 0.000000 1.000000 0.000000
vn 0.000000 0.000000 1.000000
vn 0.000000 0.000000 1.000000
vn 0.000000 0.000000 1.000000
vn 0.000000 0.000000 1.000000
vn 0.000000 0.000000 1.000000
vn 0.000000 0.000000 1.000000
vn 0.000000 0.000000 1.000000
vn 0.000000 0.000000 1.000000
vn 1.000000 0.000000 0.000000
vn 1.000000 0.000000 0.000000
vn 1.000000 0.000000 0.000000
vn 1.000000 0.000000 0.000000
vn -1.000000 -0.000000 0.000000
vn -1.000000 0.000000 0.000000
vn -1.000000 0.000000 0.000000
vn -1.000000 -0.000000 0.000000
vn -1.000000 0.000000 0.000000
vn -1.000000 0.000000 0.000000
vn 0.000000 0.000000 1.000000
vn 0.000000 0.000000 1.000000
vn 0.000000 0.000000 1.000000
vn 0.000000 0.000000 1.000000
vn 1.000000 0.000000 0.000000
vn 1.000000 0.000000 0.000000
vn 0.000000 1.000000 0.000000
vn 0.000000 1.000000 0.000000
vn 0.000000 1.000000 0.000000
vn 0.000000 1.000000 0.000000
vn -1.000000 -0.000000 0.000000
vn -1.000000 -0.000000 0.000000
vn 1.000000 0.000000 0.000000
vn 1.000000 0.000000 0.000000
vn 0.000358 0.607935 0.793987
vn 0.000358 0.607935 0.793987
vn 0.000358 0.607935 0.793987
vn 0.000358 0.607935 0.793987
vn -0.659201 -0.000641 0.751967
vn -0.659201 -0.000641 0.751967
vn -0.659201 -0.000641 0.751967
vn -0.659201 -0.000641 0.751967
vn 0.659201 0.000641 0.751967
vn 0.659201 0.000641 0.751967
vn 0.659201 0.000641 0.751967
vn 0.659201 0.000641 0.751967
vn -0.000358 -0.607936 0.793986
vn -0.000358 -0.607936 0.793986
vn -0.000358 -0.607936 0.793986
vn -0.000358 -0.607936 0.793986
vn 0.000000 0.000000 1.000000
vn 0.000000 0.000000 1.000000
vn 0.000000 0.000000 1.000000
vn 0.000000 0.000000 1.000000
vn 0.000000 0.000000 1.000000
vn 0.000000 0.000000 1.000000
vn 0.000000 0.000000 1.000000
vn 0.000000 0.000000 1.000000
vn 0.000000 0.946817 0.321774
vn 0.000000 0.946817 0.321774
vn 0.000000 0.946817 0.321774
vn 0.000000 0.946817 0.321774
vn -1.000000 0.000000 0.000000
vn -1.000000 0.000000 0.000000
vn -1.000000 0.000000 0.000000
vn -1.000000 0.000000 0.000000
vn 0.000000 -0.946816 0.321775
vn 0.000000 -0.946816 0.321775
vn 0.000000 -0.946816 0.321775
vn 0.000000 -0.946816 0.321775
vn 1.000000 0.000000 0.000000
vn 1.000000 0.000000 0.000000
vn 1.000000 0.000000 0.000000
vn 1.000000 0.000000 0.000000
s off
g FOOTLOCKER
usemtl initialShadingGroup
f 1/7/1 2/8/2 8/15/3 7/14/4
f 2/8/5 3/9/6 9/16/7 8/15/8
f 3/9/9 4/10/10 10/17/11 9/16/12
f 4/10/13 5/11/14 11/18/15 10/17/16
f 5/11/17 6/12/18 12/19/19 11/18/20
f 6/12/21 1/13/22 7/20/23 12/19/24
s 1
f 2/2/25 1/1/26 13/27/27
f 3/3/28 2/2/25 13/27/27
f 4/4/29 3/3/28 13/27/27
f 5/5/30 4/4/29 13/27/27
f 6/6/31 5/5/30 13/27/27
f 1/1/26 6/6/31 13/27/27
s 2
f 7/25/32 8/24/33 14/28/34
f 8/24/33 9/23/35 14/28/34
f 9/23/35 10/22/36 14/28/34
f 10/22/36 11/21/37 14/28/34
f 11/21/37 12/26/38 14/28/34
f 12/26/38 7/25/32 14/28/34
s off
f 15/29/39 17/30/40 35/31/41 34/32/42
f 16/33/43 15/34/44 20/35/45 19/36/46
f 17/37/47 16/33/48 40/38/49 39/39/50
f 18/40/51 20/41/52 37/42/53 36/43/54
f 19/36/55 18/44/56 42/45/57 41/46/58
f 21/47/59 23/48/60 50/49/61 49/50/62
f 79/51/63 80/52/64 81/53/65 82/54/66
f 23/55/67 22/56/68 28/57/69 27/58/70
f 24/59/71 26/60/72 48/61/73 47/62/74
f 25/63/75 24/64/76 32/65/77 31/66/78
f 27/67/79 29/68/80 44/69/81 43/70/82
f 29/71/83 28/57/84 31/66/85 30/72/86
f 30/72/87 32/73/88 46/74/89 45/75/90
f 33/76/91 35/77/92 52/78/93 51/79/94
f 34/32/95 33/76/96 38/80/97 37/42/98
f 36/81/99 38/80/100 54/82/101 53/83/102
s 3
f 39/39/103 40/38/104 57/84/105 58/85/106
f 41/46/107 42/45/108 56/86/109 55/87/110
s 5
f 43/70/111 44/69/112 66/88/113 65/89/114
f 45/75/115 46/74/116 68/90/117 67/91/118
f 47/62/119 48/61/120 59/92/121 60/93/122
f 49/50/123 50/49/124 62/94/125 61/95/126
s 3
f 51/96/127 52/97/128 63/98/129 64/99/130
f 53/83/131 54/82/132 69/100/133 70/101/134
s off
f 55/87/135 56/86/136 60/93/137 59/92/138
f 58/85/139 57/84/140 61/95/141 62/94/142
f 64/99/143 63/98/144 65/89/145 66/88/146
f 67/91/147 68/90/148 70/101/149 69/100/150
f 88/102/151 87/103/152 89/104/153 90/105/154
f 79/51/155 82/54/156 83/106/157 84/107/158
f 51/79/159 54/82/160 38/80/161 33/76/162
f 34/32/163 37/42/164 20/41/165 15/29/166
f 18/44/167 36/108/168 53/109/169 42/45/170
f 35/110/171 17/37/172 39/39/173 52/97/174
f 85/111/175 86/112/176 81/53/177 80/52/178
f 43/70/179 50/49/180 23/48/181 27/67/182
f 29/71/183 30/72/184 45/75/185 44/113/186
f 47/62/187 46/114/188 32/115/189 24/59/190
f 57/84/191 55/87/192 59/92/193 61/95/194
f 63/98/195 58/85/196 62/94/197 65/89/198
f 66/116/199 67/91/200 69/100/201 64/117/202
f 56/86/203 70/118/204 68/119/205 60/93/206
s 3
f 40/38/104 41/46/107 55/87/110 57/84/105
s 5
f 48/61/120 49/50/123 61/95/126 59/92/121
s 3
f 52/97/128 39/39/103 58/85/106 63/98/129
s 5
f 50/49/124 43/70/111 65/89/114 62/94/125
f 44/113/112 45/75/115 67/91/118 66/116/113
s 3
f 54/82/132 51/79/127 64/117/130 69/100/133
f 42/45/108 53/109/131 70/118/134 56/86/109
s 5
f 46/114/116 47/62/119 60/93/122 68/119/117
s off
f 15/34/207 16/33/208 17/37/209
f 18/44/210 19/36/211 20/35/212
f 21/47/213 22/56/214 23/55/215
f 24/64/216 25/63/217 26/60/218
f 27/58/219 28/57/220 29/71/221
f 30/72/222 31/66/223 32/65/224
f 33/76/225 34/32/226 35/77/227
f 36/81/228 37/42/229 38/80/230
f 22/56/231 21/47/232 72/120/233 71/121/234
f 26/60/235 25/63/236 74/122/237 73/123/238
f 25/63/239 31/66/240 75/124/241 74/122/242
f 31/66/243 28/57/244 76/125/245 75/124/246
f 28/57/247 22/56/248 71/121/249 76/125/250
s 8
f 49/50/251 48/61/252 78/126/253 77/127/254
f 48/61/252 26/60/255 73/123/256 78/126/253
f 21/47/257 49/50/251 77/127/254 72/120/258
s 9
f 71/121/259 72/120/260 80/52/261 79/51/262
s 10
f 73/123/263 74/122/264 82/54/265 81/53/266
f 74/122/264 75/124/267 83/106/268 82/54/265
s off
f 75/124/269 76/125/270 84/107/271 83/106/272
s 9
f 76/125/273 71/121/259 79/51/262 84/107/274
s off
f 77/127/275 78/126/276 86/112/277 85/111/278
s 10
f 78/126/279 73/123/263 81/53/266 86/112/280
s 9
f 72/120/260 77/127/281 85/111/282 80/52/261
s off
f 91/128/283 92/129/284 94/130/285 93/131/286
f 92/129/287 91/128/288 95/132/289 96/133/290
f 93/131/291 94/130/292 98/134/293 97/135/294
f 96/133/295 95/132/296 97/135/297 98/134/298
s 11
f 16/33/299 19/36/300 91/128/301 93/131/302
f 19/36/300 41/46/303 95/132/304 91/128/301
f 41/46/303 40/38/305 97/135/306 95/132/304
f 40/38/305 16/33/299 93/131/302 97/135/306
s off
f 94/130/307 92/129/308 87/103/309 88/102/310
f 92/129/311 96/133/312 89/104/313 87/103/314
f 96/133/315 98/134/316 90/105/317 89/104/318
f 98/134/319 94/130/320 88/102/321 90/105/322
