# This file uses centimeters as units for non-parametric coordinates.

mtllib LOCKER2.mtl
g default
v -0.424808 2.668499 -0.450657
v 0.424765 2.668499 -0.450657
v -0.424808 0.157062 -0.450657
v 0.424765 0.157062 -0.450657
v -0.325716 0.419298 0.398115
v 0.325685 0.419298 0.398115
v 0.325685 2.527310 0.398115
v -0.325716 2.527310 0.398115
v -0.249041 0.667541 0.476805
v 0.249009 0.667541 0.476805
v 0.249009 2.279067 0.476805
v -0.249041 2.279067 0.476805
v 0.424765 2.756485 -0.483966
v -0.424808 2.756485 -0.483966
v 0.398119 2.957144 -0.483966
v -0.398177 2.957144 -0.483966
v 0.424765 2.875296 -0.302061
v 0.398119 2.957144 -0.302061
v -0.398177 2.957144 -0.302061
v -0.424808 2.875296 -0.302061
v -0.467585 2.798489 -0.314603
v -0.467585 0.157062 -0.314603
v 0.467542 0.157062 -0.314603
v 0.467542 2.798490 -0.314603
v -0.420296 0.077624 -0.314603
v 0.420239 0.077624 -0.314603
v -0.420296 0.077624 -0.485697
v 0.420239 0.077624 -0.485697
v -0.420296 -0.000098 -0.314603
v 0.420239 -0.000098 -0.314603
v 0.420239 -0.000098 0.377476
v -0.420296 -0.000098 0.377476
v -0.420296 -0.000098 -0.485697
v 0.420239 -0.000098 -0.485697
v 0.475094 2.875296 -0.327149
v 0.444731 2.996403 -0.342751
v -0.444564 2.996403 -0.342751
v -0.475377 2.875296 -0.327149
v -0.475377 2.798489 -0.339690
v -0.475377 0.157062 -0.339690
v 0.475094 0.157062 -0.339690
v 0.475094 2.798490 -0.339690
v 0.445292 0.077624 -0.339690
v -0.445575 0.077624 -0.339690
v 0.445292 -0.000098 -0.339690
v -0.445575 -0.000098 -0.339690
v -0.175061 1.535304 0.476805
v 0.175059 1.535304 0.476805
v 0.175059 2.105985 0.476805
v -0.167287 2.105985 0.476805
v -0.175061 1.535304 0.423272
v 0.175059 1.535304 0.423272
v 0.175059 2.105985 0.423272
v -0.167287 2.105985 0.423272
v -0.380125 0.077624 0.479152
v -0.420296 0.077624 0.447488
v -0.380125 -0.000098 0.479152
v -0.420296 -0.000098 0.447488
v 0.420239 0.077624 0.447488
v 0.380067 0.077624 0.479152
v 0.380067 -0.000098 0.479152
v 0.420239 -0.000098 0.447488
v 0.449932 2.756485 -0.483966
v 0.475094 2.771044 -0.460678
v 0.432826 2.996403 -0.459727
v 0.408107 2.967369 -0.483966
v -0.444564 2.996403 -0.458633
v -0.421704 2.967542 -0.483966
v -0.475377 2.771044 -0.460505
v -0.450872 2.756485 -0.483966
v -0.475377 2.680955 -0.425324
v -0.450858 2.668499 -0.450657
v -0.475377 0.151522 -0.425324
v -0.450858 0.157062 -0.450657
v 0.450576 0.157062 -0.450657
v 0.475094 0.151522 -0.425324
v 0.475094 2.680955 -0.425324
v 0.450576 2.668499 -0.450657
v 0.422311 0.077624 -0.485697
v 0.445292 0.072084 -0.460364
v -0.445575 0.072084 -0.460364
v -0.422594 0.077624 -0.485697
v 0.445292 -0.000098 -0.460364
v 0.422311 -0.000098 -0.485697
v -0.445575 -0.000098 -0.460364
v -0.422594 -0.000098 -0.485697
v -0.393684 0.157062 0.377476
v -0.405019 0.190319 0.382152
v -0.467585 0.157062 0.343424
v -0.467585 2.817458 0.345440
v -0.393753 2.798183 0.377516
v 0.467542 0.157062 0.343424
v 0.404977 0.190319 0.382152
v 0.393642 0.157062 0.377476
v 0.393710 2.798183 0.377516
v 0.467542 2.817458 0.345440
v -0.424808 2.894336 0.441335
v -0.393684 2.875296 0.474014
v 0.393642 2.875296 0.474014
v 0.424765 2.894336 0.441335
v -0.369005 2.920509 0.474014
v -0.398177 2.957144 0.441335
v 0.368947 2.920509 0.474014
v 0.398119 2.957144 0.441335
v 0.420239 0.077624 0.411583
v 0.420239 0.038766 0.377476
v 0.420239 0.077624 0.345318
v 0.389446 0.077624 0.377476
v -0.420296 0.077624 0.411583
v -0.389503 0.077624 0.377476
v -0.420296 0.077624 0.345318
v -0.420296 0.038766 0.377476
v 0.467542 0.290897 0.262391
v 0.467542 2.598806 0.263893
v 0.467542 0.752588 -0.233063
v 0.467542 2.122861 -0.233063
v 0.441419 0.414464 0.227475
v 0.441419 2.475239 0.228778
v 0.441419 0.823108 -0.197941
v 0.441419 2.054090 -0.197941
v -0.467585 0.749337 -0.229491
v -0.467585 0.294926 0.258833
v -0.467585 2.594777 0.260329
v -0.467585 2.126289 -0.229491
v -0.420212 0.816586 -0.196693
v -0.403443 0.419191 0.226235
v -0.403443 2.470512 0.227530
v -0.403443 2.060674 -0.196693
vt 0.625000 0.500000
vt 0.375000 0.750000
vt 0.375000 0.000000
vt 0.625000 0.000000
vt 0.625000 0.250000
vt 0.375000 0.250000
vt 0.157654 0.250000
vt 0.375000 0.782654
vt 0.842346 0.000000
vt 0.625000 0.467346
vt 0.625000 0.782654
vt 0.375000 0.782654
vt 0.625000 0.782654
vt 0.375000 0.467346
vt 0.157654 0.000000
vt 0.842346 0.250000
vt 0.625000 0.782654
vt 0.375000 0.000000
vt 0.625000 0.000000
vt 0.625000 0.250000
vt 0.375000 0.250000
vt 0.375000 0.000000
vt 0.625000 0.000000
vt 0.625000 0.250000
vt 0.375000 0.250000
vt 0.613052 1.000000
vt 0.386948 1.000000
vt 0.386948 1.000000
vt 0.613052 1.000000
vt 0.625000 1.000000
vt 0.625000 0.750000
vt 0.375000 0.782654
vt 0.375000 0.782654
vt 0.625000 0.494215
vt 0.375000 0.500000
vt 0.139204 0.245559
vt 0.125000 0.000000
vt 0.375000 0.764204
vt 0.625000 0.750000
vt 0.860829 0.000000
vt 0.875000 0.250000
vt 0.625000 0.750000
vt 0.375000 0.755830
vt 0.625000 0.467346
vt 0.625000 0.492673
vt 0.625000 0.467346
vt 0.375000 0.492342
vt 0.375000 0.494293
vt 0.375000 0.467346
vt 0.375000 0.494215
vt 0.375000 0.467346
vt 0.139173 -0.000000
vt 0.157654 0.250000
vt 0.842346 0.000000
vt 0.860796 0.245559
vt 0.625000 0.467346
vt 0.625000 0.495421
vt 0.625000 0.764204
vt 0.625000 0.782654
vt 0.375000 0.782654
vt 0.375000 0.755830
vt 0.625000 0.755830
vt 0.625000 0.782654
vt 0.625000 0.755830
vt 0.375000 0.782654
vt 0.625000 0.500000
vt 0.625000 0.500000
vt 0.375000 0.500000
vt 0.625000 0.500000
vt 0.375000 0.500000
vt 0.375000 0.500000
vt 0.375000 0.500000
vt 0.375000 0.500000
vt 0.125000 0.250000
vt 0.125000 0.000000
vt 0.125000 0.250000
vt 0.875000 0.000000
vt 0.875000 0.250000
vt 0.875000 0.000000
vt 0.625000 0.500000
vt 0.625000 0.500000
vt 0.625000 0.750000
vt 0.625000 0.750000
vt 0.375000 0.750000
vt 0.375000 0.750000
vt 0.625000 0.750000
vt 0.375000 0.750000
vt 0.375000 0.750000
vt 0.375000 0.750000
vt 0.384159 0.000000
vt 0.375000 0.000000
vt 0.625000 1.000000
vt 0.625000 1.000000
vt 0.625000 1.000000
vt 0.375000 1.000000
vt 0.375000 1.000000
vt 0.375000 1.000000
vt 0.375000 1.000000
vt 0.375000 1.000000
vt 0.625000 0.782654
vt 0.615841 1.000000
vt 0.375000 0.989306
vt 0.384159 1.000000
vt 0.375000 0.989901
vt 0.375000 0.000000
vt 0.375000 0.265623
vt 0.625000 0.989306
vt 0.615841 1.000000
vt 0.635694 -0.000000
vt 0.636633 0.250000
vt 0.384159 0.250000
vt 0.625000 0.259012
vt 0.375000 0.467346
vt 0.842346 0.250000
vt 0.157654 0.000000
vt 0.364306 -0.000000
vt 0.365016 0.250000
vt 0.625000 0.000000
vt 0.625000 0.000000
vt 0.615912 0.250000
vt 0.384189 0.250000
vt 0.625000 0.250000
vt 0.375000 0.250000
vt 0.615841 0.250000
vt 0.625000 0.265623
vt 0.625000 0.467346
vt 0.375000 0.467346
vt 0.375000 0.259012
vt 0.384159 0.250000
vt 0.615841 0.250000
vt 0.625000 0.259012
vt 0.625000 0.467346
vt 0.375000 0.467346
vt 0.375000 0.259012
vt 0.615841 0.000000
vt 0.625000 1.000000
vt 0.625000 0.989901
vt 0.384159 1.000000
vt 0.636633 0.250000
vt 0.635694 -0.000000
vt 0.842346 0.000000
vt 0.842346 0.250000
vt 0.636633 0.250000
vt 0.635694 -0.000000
vt 0.842346 0.000000
vt 0.842346 0.250000
vt 0.157654 0.000000
vt 0.364306 -0.000000
vt 0.365016 0.250000
vt 0.157654 0.250000
vt 0.157654 0.000000
vt 0.364306 -0.000000
vt 0.365016 0.250000
vt 0.157654 0.250000
vn 0.000000 0.000000 1.000000
vn 0.000000 0.000000 1.000000
vn 0.000000 0.000000 1.000000
vn 0.000000 0.000000 1.000000
vn 0.000000 0.000000 -1.000000
vn 0.000000 0.000000 -1.000000
vn 0.000000 0.012864 -0.999917
vn 0.000000 0.012866 -0.999917
vn 0.000000 -1.000000 0.000000
vn 0.000000 -1.000000 0.000000
vn 0.000000 -1.000000 0.000000
vn 0.000000 -1.000000 0.000000
vn 0.000000 -0.302172 0.953254
vn 0.000000 -0.302172 0.953254
vn 0.000000 -0.302172 0.953254
vn 0.000000 -0.302172 0.953254
vn 0.716215 0.000000 0.697880
vn 0.716215 0.000000 0.697880
vn 0.716215 0.000000 0.697880
vn 0.716215 0.000000 0.697880
vn 0.118358 0.081747 0.989600
vn -0.118348 0.081742 0.989602
vn 0.000000 0.302172 0.953253
vn 0.000000 0.302172 0.953253
vn -0.716215 0.000000 0.697880
vn -0.716215 0.000000 0.697880
vn -0.716215 0.000000 0.697880
vn -0.716215 0.000000 0.697880
vn 0.000000 -0.354054 -0.935225
vn 0.000000 -0.354054 -0.935225
vn 0.000000 -0.354054 -0.935225
vn 0.000000 -0.354054 -0.935225
vn 0.000000 0.000000 -1.000000
vn -0.000000 0.000000 -1.000000
vn -0.000000 0.000000 -1.000000
vn 0.000000 0.000000 -1.000000
vn 0.000000 -1.000000 0.000000
vn 0.000000 -1.000000 0.000000
vn 0.859204 -0.511633 0.000000
vn 0.859204 -0.511633 0.000000
vn 0.972404 -0.233304 0.000000
vn 0.959024 -0.283326 0.000000
vn 0.000000 0.000000 1.000000
vn 0.000000 -0.063069 0.998009
vn 0.000000 -0.063067 0.998009
vn 0.000000 0.000000 1.000000
vn -0.972421 -0.233234 0.000000
vn -0.859276 -0.511513 0.000000
vn -0.859276 -0.511513 0.000000
vn -0.959048 -0.283243 0.000000
vn 0.000000 0.222815 -0.974861
vn 0.000000 0.222803 -0.974863
vn 1.000000 -0.000001 0.000000
vn 1.000000 -0.000001 0.000000
vn 1.000000 -0.000001 0.000000
vn 0.000000 0.000000 1.000000
vn 0.000000 0.000000 1.000000
vn 0.000000 0.000000 1.000000
vn 0.000000 0.000000 1.000000
vn 0.000000 0.000000 -1.000000
vn 0.000000 0.000000 -1.000000
vn 0.005934 0.996448 0.084002
vn 0.527757 0.174362 0.831306
vn 0.551632 0.154206 0.819709
vn 0.019238 0.981659 0.189673
vn -0.005940 0.996452 0.083949
vn -0.018243 0.983471 0.180142
vn -0.526849 0.174747 0.831801
vn -0.550471 0.154155 0.820498
vn -0.947095 0.002780 0.320943
vn -0.948950 0.002147 0.315420
vn -0.951839 -0.014750 0.306243
vn -0.952314 -0.012619 0.304860
vn 0.949838 0.002832 0.312730
vn 0.954471 -0.014758 0.297940
vn 0.954923 -0.012681 0.296583
vn 0.951642 0.002190 0.307203
vn 0.753682 -0.160444 0.637355
vn 0.761492 -0.200451 0.616400
vn -0.750367 -0.159584 0.641469
vn -0.758247 -0.199615 0.620657
vn 0.707582 0.000000 0.706631
vn 0.707582 0.000000 0.706631
vn 0.000000 -1.000000 0.000000
vn 0.000000 -1.000000 0.000000
vn 0.000000 -1.000000 0.000000
vn 0.000000 -1.000000 0.000000
vn 0.000000 -1.000000 0.000000
vn 0.000000 -1.000000 0.000000
vn -0.704416 0.000000 0.709788
vn -0.704416 0.000000 0.709788
vn 0.000000 0.000000 1.000000
vn 0.000000 0.000000 1.000000
vn 0.000000 0.000000 1.000000
vn 0.000000 0.000000 1.000000
vn 0.000000 0.000000 1.000000
vn 0.000000 0.000000 1.000000
vn 0.000000 0.000000 1.000000
vn 0.000000 0.000000 1.000000
vn 0.000000 0.000000 1.000000
vn 0.000000 0.000000 1.000000
vn 0.000000 0.000000 1.000000
vn 0.000000 0.000000 1.000000
vn -0.000000 0.000000 1.000000
vn -0.000000 0.000000 1.000000
vn -0.000000 0.000000 1.000000
vn -0.000000 0.000000 1.000000
vn 0.000000 1.000000 0.000000
vn 0.000000 1.000000 0.000000
vn 0.000000 1.000000 0.000000
vn 0.000000 1.000000 0.000000
vn -1.000000 0.000000 0.000000
vn -1.000000 0.000000 0.000000
vn -1.000000 0.000000 0.000000
vn -1.000000 0.000000 0.000000
vn 0.000000 -1.000000 0.000000
vn 0.000000 -1.000000 0.000000
vn 0.000000 -1.000000 0.000000
vn 0.000000 -1.000000 0.000000
vn 0.999907 -0.013621 0.000000
vn 0.999907 -0.013621 0.000000
vn 0.999907 -0.013621 0.000000
vn 0.999907 -0.013621 0.000000
vn 0.000000 -1.000000 -0.000000
vn 0.000000 -1.000000 -0.000000
vn 0.000000 -1.000000 -0.000000
vn 0.000000 -1.000000 -0.000000
vn 1.000000 0.000000 0.000000
vn 1.000000 0.000000 0.000000
vn 1.000000 0.000000 0.000000
vn -0.619041 0.000000 0.785359
vn -0.619041 0.000000 0.785359
vn -0.619041 0.000000 0.785359
vn -0.619041 0.000000 0.785359
vn 0.619041 0.000000 0.785359
vn 0.619041 0.000000 0.785359
vn 0.619041 0.000000 0.785359
vn 0.619041 0.000000 0.785359
vn 0.742412 -0.238690 -0.625980
vn 0.742412 -0.238690 -0.625980
vn 0.742412 -0.238690 -0.625980
vn 0.742412 -0.238690 -0.625980
vn 0.626451 0.122438 -0.769785
vn 0.626450 0.122438 -0.769785
vn 0.626450 0.122438 -0.769785
vn 0.626450 0.122438 -0.769785
vn -0.000421 0.650410 -0.759583
vn -0.000421 0.650410 -0.759583
vn -0.000421 0.650410 -0.759583
vn -0.000421 0.650410 -0.759583
vn -0.670542 0.095315 -0.735723
vn -0.670542 0.095315 -0.735723
vn -0.670542 0.095315 -0.735723
vn -0.670542 0.095315 -0.735723
vn -0.747937 -0.238330 -0.619507
vn -0.747937 -0.238330 -0.619507
vn -0.747937 -0.238330 -0.619507
vn -0.747937 -0.238330 -0.619507
vn -0.718557 0.000000 -0.695469
vn -0.718557 0.000000 -0.695469
vn -0.719089 0.001171 -0.694917
vn -0.718966 0.000899 -0.695045
vn -0.736726 0.016165 -0.675998
vn -0.736210 0.018229 -0.676507
vn 0.719089 0.001171 -0.694917
vn 0.718966 0.000899 -0.695045
vn 0.736210 0.018229 -0.676507
vn 0.736727 0.016165 -0.675998
vn 0.718557 0.000000 -0.695469
vn 0.718557 0.000000 -0.695469
vn 0.740647 0.000000 -0.671895
vn 0.740647 0.000000 -0.671895
vn -0.740647 0.000000 -0.671895
vn -0.740647 0.000000 -0.671895
vn 0.979009 0.170959 -0.110969
vn 0.992355 0.103518 -0.067193
vn 0.971666 0.198256 -0.128688
vn 0.971666 0.198256 -0.128688
vn 0.000000 1.000000 0.000000
vn 0.000000 1.000000 0.000000
vn -0.995411 0.088279 -0.036925
vn -0.987094 0.147739 -0.061797
vn -0.982486 0.171906 -0.071905
vn -0.982486 0.171906 -0.071905
vn -1.000000 0.000000 0.000000
vn -1.000000 0.000000 0.000000
vn -0.999842 -0.017772 0.000954
vn -0.999923 -0.012403 0.000666
vn 1.000000 0.000000 0.000000
vn 0.999923 -0.012403 0.000666
vn 0.999842 -0.017772 0.000954
vn 1.000000 0.000000 0.000000
vn 0.983320 -0.181621 0.009754
vn 0.989391 -0.145070 0.007791
vn -0.989391 -0.145070 0.007791
vn -0.983320 -0.181621 0.009754
vn 1.000000 0.000000 0.000000
vn 1.000000 0.000000 0.000000
vn -1.000000 0.000000 0.000000
vn -1.000000 0.000000 0.000000
vn 0.000000 0.000000 -1.000000
vn 0.000000 0.000000 -1.000000
vn -0.000000 0.000000 -1.000000
vn -0.000001 0.000000 -1.000000
vn 0.000000 -0.354052 -0.935226
vn 0.000000 -0.354052 -0.935226
vn 0.000000 0.005988 -0.999982
vn 0.000000 0.000000 -1.000000
vn 0.000000 0.000000 -1.000000
vn 0.000000 0.005945 -0.999982
vn 0.000000 -0.354053 -0.935225
vn 0.000000 -0.354053 -0.935225
vn 0.000000 0.366115 -0.930570
vn 0.000000 0.363042 -0.931773
vn 0.000000 0.000000 -1.000000
vn 0.000000 0.000000 -1.000000
vn -0.026735 -0.070459 0.997156
vn 0.026732 -0.070461 0.997156
vn 0.139483 -0.033000 0.989675
vn -0.139469 -0.032998 0.989677
vn 0.000000 1.000000 0.000000
vn 0.000000 1.000000 0.000000
vn 0.000000 1.000000 0.000000
vn 0.000000 1.000000 0.000000
vn 0.000000 1.000000 0.000000
vn 0.000000 1.000000 0.000000
vn 0.000000 1.000000 0.000000
vn 0.000000 1.000000 0.000000
vn -1.000000 0.000000 0.000000
vn -1.000000 0.000000 0.000000
vn -1.000000 0.000000 0.000000
vn -1.000000 0.000000 0.000000
vn -1.000000 0.000000 0.000000
vn -1.000000 0.000000 0.000000
vn -0.505335 -0.180134 0.843912
vn -0.462412 -0.002924 0.886660
vn -0.527522 -0.160949 0.834156
vn -0.527522 -0.160949 0.834156
vn -0.460649 0.000189 0.887582
vn -0.460839 0.001427 0.887483
vn -0.460839 0.001427 0.887483
vn -0.571428 -0.573902 0.586607
vn -0.571427 -0.573902 0.586607
vn -0.571427 -0.573902 0.586607
vn -0.571427 -0.573902 0.586607
vn 0.462412 -0.002926 0.886660
vn 0.505330 -0.180211 0.843899
vn 0.527514 -0.161046 0.834142
vn 0.527514 -0.161046 0.834142
vn 0.460649 0.000189 0.887582
vn 0.460839 0.001427 0.887483
vn 0.460839 0.001427 0.887483
vn 0.571428 -0.573903 0.586605
vn 0.571428 -0.573903 0.586605
vn 0.571428 -0.573903 0.586605
vn 0.571428 -0.573903 0.586605
vn -0.578596 0.274834 0.767915
vn -0.578596 0.274834 0.767915
vn -0.578596 0.274834 0.767915
vn -0.578596 0.274834 0.767915
vn 0.578511 0.274955 0.767936
vn 0.578511 0.274955 0.767936
vn 0.578511 0.274955 0.767936
vn 0.578511 0.274955 0.767936
vn 0.000000 0.665667 0.746249
vn 0.000000 0.665667 0.746249
vn 0.000000 0.665667 0.746249
vn 0.000000 0.665667 0.746249
vn 0.000000 1.000000 0.000000
vn 0.000000 1.000000 0.000000
vn 1.000000 0.000000 0.000000
vn 1.000000 0.000000 0.000000
vn 1.000000 0.000000 0.000000
vn 1.000000 0.000000 0.000000
vn -0.999793 0.005080 0.019715
vn -0.999793 0.005080 0.019715
vn -0.999793 0.005080 0.019715
vn -0.999793 0.005080 0.019715
vn 0.036814 0.064768 0.997221
vn -0.036819 0.064765 0.997221
vn 0.000000 -0.781207 0.624272
vn 0.000000 -0.781207 0.624272
vn 0.000000 -0.781207 0.624272
vn 0.000000 -0.781207 0.624272
vn 0.869623 0.493535 -0.013366
vn 0.869623 0.493535 -0.013366
vn 0.903984 0.427465 -0.009317
vn 0.918758 0.394752 -0.007345
vn -0.869624 0.493534 -0.013366
vn -0.869624 0.493534 -0.013366
vn -0.918806 0.394640 -0.007344
vn -0.904019 0.427391 -0.009316
vn 0.000000 0.000000 1.000000
vn 0.000000 0.000000 1.000000
vn 0.000000 0.000000 1.000000
vn 0.000000 0.000000 1.000000
vn 0.938338 0.345690 -0.004427
vn 0.938338 0.345690 -0.004427
vn -0.938401 0.345519 -0.004425
vn -0.938401 0.345519 -0.004425
vn 0.783741 0.621087 0.000000
vn 0.783741 0.621087 0.000000
vn 0.783741 0.621087 0.000000
vn 0.783741 0.621087 0.000000
vn -0.783742 0.621087 0.000000
vn -0.783742 0.621087 0.000000
vn -0.783742 0.621087 0.000000
vn -0.783742 0.621087 0.000000
vn 1.000000 0.000000 0.000000
vn 1.000000 0.000000 0.000000
vn 1.000000 0.000000 0.000000
vn 1.000000 0.000000 0.000000
vn 1.000000 0.000000 0.000000
vn 1.000000 0.000000 0.000000
vn 1.000000 0.000000 0.000000
vn 1.000000 0.000000 0.000000
vn 1.000000 0.000000 0.000000
vn 1.000000 0.000000 0.000000
vn 1.000000 0.000000 0.000000
vn 1.000000 0.000000 0.000000
vn 1.000000 0.000000 0.000000
vn 1.000000 0.000000 0.000000
vn 1.000000 0.000000 0.000000
vn 1.000000 0.000000 0.000000
vn 0.801513 0.000384 -0.597977
vn 0.801513 0.000384 -0.597977
vn 0.801513 0.000384 -0.597977
vn 0.801513 0.000384 -0.597977
vn 0.937853 0.252211 0.238370
vn 0.937854 0.252211 0.238370
vn 0.937853 0.252211 0.238370
vn 0.937854 0.252211 0.238370
vn 0.802389 0.000000 0.596802
vn 0.802389 0.000000 0.596802
vn 0.802389 0.000000 0.596802
vn 0.802389 0.000000 0.596802
vn 0.935199 -0.254031 0.246720
vn 0.935199 -0.254031 0.246720
vn 0.935199 -0.254031 0.246720
vn 0.935199 -0.254031 0.246720
vn -1.000000 0.000000 0.000000
vn -1.000000 0.000000 0.000000
vn -1.000000 0.000000 0.000000
vn -1.000000 0.000000 0.000000
vn -1.000000 0.000000 0.000000
vn -1.000000 0.000000 0.000000
vn -1.000000 0.000000 0.000000
vn -1.000000 0.000000 0.000000
vn -1.000000 0.000000 0.000000
vn -1.000000 0.000000 0.000000
vn -1.000000 0.000000 0.000000
vn -1.000000 0.000000 0.000000
vn -1.000000 0.000000 0.000000
vn -1.000000 0.000000 0.000000
vn -1.000000 0.000000 0.000000
vn -1.000000 0.000000 0.000000
vn -0.777470 0.452247 0.437051
vn -0.777470 0.452247 0.437051
vn -0.777470 0.452247 0.437051
vn -0.777470 0.452247 0.437051
vn -0.454172 0.000572 -0.890914
vn -0.454172 0.000572 -0.890914
vn -0.454172 0.000572 -0.890914
vn -0.454172 0.000572 -0.890914
vn -0.729733 -0.493008 0.473743
vn -0.729733 -0.493008 0.473743
vn -0.729733 -0.493008 0.473743
vn -0.729733 -0.493008 0.473743
vn -0.507052 0.003244 0.861909
vn -0.507052 0.003244 0.861909
vn -0.507052 0.003244 0.861909
vn -0.507052 0.003244 0.861909
s off
g LOCKER2 PROPS
usemtl initialShadingGroup
f 51/22/1 52/23/2 53/24/3 54/25/4
s 1
f 1/72/5 2/1/6 4/82/7 3/2/8
s 2
f 29/32/9 30/13/10 31/92/11 32/99/12
s off
f 5/91/13 6/119/14 10/4/15 9/3/16
f 6/119/17 7/122/18 11/5/19 10/4/20
s 3
f 7/122/21 8/123/22 12/6/23 11/5/24
s off
f 8/123/25 5/91/26 9/3/27 12/6/28
s 4
f 2/1/29 1/72/30 14/70/31 13/80/32
s 5
f 13/80/33 14/70/34 16/68/35 15/66/36
s 2
f 33/87/37 34/31/38 30/13/10 29/32/9
s 6
f 23/100/39 92/107/40 107/137/41 26/11/42
s 3
f 108/108/43 94/101/44 87/103/45 110/138/46
s 8
f 111/104/47 89/102/48 22/8/49 25/12/50
s 1
f 3/2/8 4/82/7 28/86/51 27/84/52
s 6
f 26/11/42 107/137/41 106/136/53 31/92/54 30/13/55
s off
f 61/26/56 60/29/57 55/27/58 57/28/59
s 1
f 27/84/52 28/86/51 34/31/60 33/87/61
s 9
f 18/132/62 17/126/63 35/44/64 36/46/65
f 19/113/66 18/132/62 36/46/65 37/49/67
f 20/133/68 19/113/66 37/49/67 38/51/69
f 21/127/70 20/133/68 38/51/69 39/14/71
f 22/115/72 21/7/70 39/53/71 40/15/73
f 24/114/74 23/9/75 41/54/76 42/16/77
f 17/126/63 24/10/74 42/56/77 35/44/64
f 23/100/75 26/11/78 43/59/79 41/17/76
f 25/12/80 22/8/72 40/60/73 44/65/81
f 26/11/78 30/13/82 45/63/83 43/59/79
s 2
f 30/13/10 34/31/38 84/42/84 83/64/85 45/63/86
f 33/87/37 29/32/9 46/33/87 85/43/88 86/88/89
s 9
f 29/32/90 25/12/80 44/65/81 46/33/91
s off
f 9/3/92 10/4/93 48/19/94 47/18/95
f 10/4/96 11/5/97 49/20/98 48/19/99
f 11/5/100 12/6/101 50/21/102 49/20/103
f 12/6/104 9/3/105 47/18/106 50/21/107
f 47/18/108 48/19/109 52/23/110 51/22/111
f 48/19/112 49/20/113 53/24/114 52/23/115
f 49/20/116 50/21/117 54/25/118 53/24/119
f 50/21/120 47/18/121 51/22/122 54/25/123
s 2
f 32/99/12 31/92/11 62/30/124 61/26/125 57/28/126 58/96/127
s 6
f 31/92/54 106/136/53 105/93/128 59/94/129 62/30/130
s off
f 55/27/131 56/97/132 58/96/133 57/28/134
f 59/94/135 60/29/136 61/26/137 62/30/138
f 63/67/139 64/57/140 77/34/141 78/81/142
f 64/57/143 63/67/144 66/69/145 65/45/146
f 65/45/147 66/69/148 68/71/149 67/47/150
f 67/47/151 68/71/152 70/73/153 69/48/154
f 69/48/155 70/73/156 72/35/157 71/50/158
s 11
f 71/36/159 72/76/160 74/37/161 73/52/162
f 73/38/162 74/85/161 82/89/163 81/61/164
s 12
f 75/39/165 76/58/166 80/62/167 79/83/168
f 76/40/166 75/79/165 78/41/169 77/55/170
f 79/83/168 80/62/167 83/64/171 84/42/172
s 11
f 81/61/164 82/89/163 86/88/173 85/43/174
s 13
f 35/44/175 64/57/176 65/45/177 36/46/178
s 9
f 37/49/67 36/46/65 65/45/179 67/47/180
s 14
f 69/48/181 38/51/182 37/49/183 67/47/184
f 71/50/185 39/14/186 38/51/182 69/48/181
f 73/52/187 40/15/188 39/53/186 71/36/185
s 13
f 42/16/189 41/54/190 76/40/191 77/55/192
f 35/44/175 42/56/189 77/34/192 64/57/176
f 76/58/191 41/17/190 43/59/193 80/62/194
s 14
f 40/60/188 73/38/187 81/61/195 44/65/196
s 13
f 80/62/194 43/59/193 45/63/197 83/64/198
s 14
f 44/65/196 81/61/195 85/43/199 46/33/200
s 5
f 13/80/33 15/66/36 66/69/201 63/67/202
f 15/66/36 16/68/35 68/71/203 66/69/201
f 16/68/35 14/70/34 70/73/204 68/71/203
s 4
f 14/70/31 1/72/30 72/35/205 70/73/206
s 1
f 1/74/5 3/75/8 74/37/207 72/76/208
f 4/77/7 2/78/6 78/41/209 75/79/210
s 4
f 2/1/29 13/80/32 63/67/211 78/81/212
s 1
f 28/86/51 4/82/7 75/39/210 79/83/213
f 3/2/8 27/84/52 82/89/214 74/85/207
f 34/31/60 28/86/51 79/83/213 84/42/215
f 27/84/52 33/87/61 86/88/216 82/89/214
s 3
f 88/105/217 87/90/45 94/135/44 93/118/218 6/119/219 5/91/220
s off
f 105/93/221 108/108/222 110/138/223 109/95/224 56/97/225 55/27/226 60/29/227 59/94/228
s 8
f 109/95/229 112/98/230 32/99/231 58/96/232 56/97/233
f 112/98/230 111/104/47 25/12/50 29/32/234 32/99/231
s 16
f 87/103/235 89/102/236 111/104/237 110/138/238
f 89/116/236 88/105/239 91/121/240 90/117/241
s off
f 90/106/242 91/121/243 98/129/244 97/128/245
s 17
f 92/107/246 94/101/247 108/108/248 107/137/249
f 93/118/250 92/109/246 96/110/251 95/120/252
s off
f 95/120/253 96/125/254 100/131/255 99/124/256
f 97/128/257 98/129/258 101/111/259 102/134/260
f 99/124/261 100/131/262 104/112/263 103/130/264
f 102/134/265 101/111/266 103/130/267 104/112/268
s 9
f 102/134/269 104/112/270 18/132/62 19/113/66
s off
f 118/143/271 117/144/272 119/145/273 120/146/274
f 125/151/275 126/152/276 127/153/277 128/154/278
s 3
f 93/118/218 95/120/279 7/122/21 6/119/219
f 95/120/279 91/121/280 8/123/22 7/122/21
f 91/121/280 88/105/217 5/91/220 8/123/22
s off
f 91/121/281 95/120/282 99/124/283 98/129/284
s 18
f 96/125/285 24/10/286 17/126/287 100/131/288
s 19
f 21/127/289 90/106/290 97/128/291 20/133/292
s off
f 98/129/293 99/124/294 103/130/295 101/111/296
s 18
f 100/131/288 17/126/287 18/132/297 104/112/298
s 19
f 20/133/292 97/128/291 102/134/299 19/113/300
s 16
f 87/90/235 88/105/239 89/116/236
s 17
f 92/109/246 93/118/250 94/135/247
s off
f 105/93/301 106/136/302 107/137/303 108/108/304
f 109/95/305 110/138/306 111/104/307 112/98/308
f 96/110/309 92/109/310 113/140/311 114/139/312
f 92/109/313 23/9/314 115/141/315 113/140/316
f 23/9/317 24/114/318 116/142/319 115/141/320
f 24/114/321 96/110/322 114/139/323 116/142/324
f 114/139/325 113/140/326 117/144/327 118/143/328
f 113/140/329 115/141/330 119/145/331 117/144/332
f 115/141/333 116/142/334 120/146/335 119/145/336
f 116/142/337 114/139/338 118/143/339 120/146/340
f 22/115/341 89/116/342 122/148/343 121/147/344
f 89/116/345 90/117/346 123/149/347 122/148/348
f 90/117/349 21/7/350 124/150/351 123/149/352
f 21/7/353 22/115/354 121/147/355 124/150/356
f 121/147/357 122/148/358 126/152/359 125/151/360
f 122/148/361 123/149/362 127/153/363 126/152/364
f 123/149/365 124/150/366 128/154/367 127/153/368
f 124/150/369 121/147/370 125/151/371 128/154/372
