# This file uses centimeters as units for non-parametric coordinates.

mtllib LIGHTBOX.mtl
g default
v 0.525113 0.200000 0.159658
v 0.545455 0.220342 0.159658
v 0.525113 0.220342 0.180000
v 0.525113 0.220342 -0.180000
v 0.545455 0.220342 -0.159658
v 0.525113 0.200000 -0.159658
v 0.525113 0.539658 0.180000
v 0.545455 0.539658 0.159658
v 0.525113 0.560000 0.159658
v 0.525113 0.560000 -0.159658
v 0.545455 0.539658 -0.159658
v 0.525113 0.539658 -0.180000
v 0.374939 0.539658 0.180000
v 0.374939 0.560000 0.159658
v 0.354597 0.539658 0.159658
v 0.354597 0.539658 -0.159658
v 0.374939 0.560000 -0.159658
v 0.374939 0.539658 -0.180000
v 0.374939 0.220342 0.180000
v 0.354597 0.220342 0.159658
v 0.374939 0.200000 0.159658
v 0.374939 0.200000 -0.159658
v 0.354597 0.220342 -0.159658
v 0.374939 0.220342 -0.180000
v 0.545455 0.345105 -0.034895
v 0.545455 0.345105 0.034895
v 0.545455 0.414895 -0.034895
v 0.545455 0.414895 0.034895
v 0.631009 0.362551 -0.017449
v 0.613563 0.345105 -0.034895
v 0.613563 0.345105 0.034895
v 0.631009 0.362551 0.017449
v 0.631009 0.397449 -0.017449
v 0.613563 0.414895 -0.034895
v 0.631009 0.397449 0.017449
v 0.613563 0.414895 0.034895
v 0.342004 0.000000 0.342004
v 0.380000 0.037996 0.342004
v 0.342004 0.037996 0.380000
v 0.342004 0.037996 -0.380000
v 0.380000 0.037996 -0.342004
v 0.342004 0.000000 -0.342004
v 0.342004 0.722004 0.380000
v 0.380000 0.722004 0.342004
v 0.342004 0.760000 0.342004
v 0.342004 0.760000 -0.342004
v 0.380000 0.722004 -0.342004
v 0.342004 0.722004 -0.380000
v -0.342004 0.722004 0.380000
v -0.342004 0.760000 0.342004
v -0.380000 0.722004 0.342004
v -0.380000 0.722004 -0.342004
v -0.342004 0.760000 -0.342004
v -0.342004 0.722004 -0.380000
v -0.342004 0.037996 0.380000
v -0.380000 0.037996 0.342004
v -0.342004 0.000000 0.342004
v -0.342004 0.000000 -0.342004
v -0.380000 0.037996 -0.342004
v -0.342004 0.037996 -0.380000
v 0.380000 0.307970 -0.072030
v 0.380000 0.307970 0.072030
v 0.380000 0.452030 -0.072030
v 0.380000 0.452030 0.072030
v 0.521657 0.307970 -0.072030
v 0.521657 0.307970 0.072030
v 0.521657 0.452030 -0.072030
v 0.521657 0.452030 0.072030
vt 0.389126 0.965003
vt 0.375000 0.965003
vt 0.375000 0.784997
vt 0.389126 0.784997
vt 0.389126 0.014126
vt 0.389126 -0.000000
vt 0.610874 -0.000000
vt 0.610874 0.014126
vt 0.340004 0.014127
vt 0.389126 0.235874
vt 0.340003 0.235874
vt 0.625000 0.965003
vt 0.610874 0.965003
vt 0.610874 0.784997
vt 0.625000 0.784997
vt 0.659996 0.014127
vt 0.659997 0.235874
vt 0.610874 0.235874
vt 0.375000 0.284996
vt 0.389126 0.284997
vt 0.389126 0.465003
vt 0.375000 0.465003
vt 0.610874 0.284997
vt 0.625000 0.284997
vt 0.625000 0.465003
vt 0.610874 0.465003
vt 0.375000 0.514126
vt 0.389126 0.514126
vt 0.389126 0.735874
vt 0.375000 0.735874
vt 0.610874 0.514126
vt 0.625000 0.514126
vt 0.625000 0.735874
vt 0.610874 0.735874
vt 0.840003 0.014127
vt 0.840004 0.235874
vt 0.159997 0.014127
vt 0.159997 0.235874
vt 0.610874 0.014126
vt 0.389126 0.014126
vt 0.610874 0.235874
vt 0.389126 0.235874
vt 0.555442 0.069558
vt 0.610874 0.014126
vt 0.610874 0.235874
vt 0.555442 0.180442
vt 0.444558 0.069558
vt 0.389126 0.014126
vt 0.444558 0.180442
vt 0.389126 0.235874
vt 0.387499 0.987501
vt 0.375000 0.987501
vt 0.375000 0.762499
vt 0.387499 0.762499
vt 0.387499 0.012499
vt 0.387499 0.000000
vt 0.612501 0.000000
vt 0.612501 0.012499
vt 0.362501 0.012499
vt 0.387499 0.237501
vt 0.362501 0.237501
vt 0.625000 0.987501
vt 0.612501 0.987501
vt 0.612501 0.762499
vt 0.625000 0.762499
vt 0.637499 0.012499
vt 0.637499 0.237501
vt 0.612501 0.237501
vt 0.375000 0.262499
vt 0.387499 0.262499
vt 0.387499 0.487501
vt 0.375000 0.487501
vt 0.612501 0.262499
vt 0.625000 0.262499
vt 0.625000 0.487501
vt 0.612501 0.487501
vt 0.375000 0.512499
vt 0.387499 0.512499
vt 0.387499 0.737501
vt 0.375000 0.737501
vt 0.612501 0.512499
vt 0.625000 0.512499
vt 0.625000 0.737501
vt 0.612501 0.737501
vt 0.387499 0.012499
vt 0.612501 0.012499
vt 0.612501 0.237501
vt 0.387499 0.237501
vt 0.862501 0.012499
vt 0.862501 0.237501
vt 0.137499 0.012499
vt 0.137499 0.237501
vt 0.612501 0.012499
vt 0.387499 0.012499
vt 0.612501 0.237501
vt 0.387499 0.237501
vn 0.000000 -0.707107 0.707107
vn 0.000000 -0.707107 0.707107
vn 0.000000 -0.707107 0.707107
vn 0.000000 -0.707107 0.707107
vn 0.707106 -0.707107 0.000000
vn 0.707106 -0.707107 0.000000
vn 0.707106 -0.707107 0.000000
vn 0.707106 -0.707107 0.000000
vn 0.707107 0.000000 0.707107
vn 0.707107 0.000000 0.707107
vn 0.707107 0.000000 0.707107
vn 0.707107 0.000000 0.707107
vn 0.000000 -0.707107 -0.707107
vn 0.000000 -0.707107 -0.707107
vn 0.000000 -0.707107 -0.707107
vn 0.000000 -0.707107 -0.707107
vn 0.707107 0.000000 -0.707107
vn 0.707107 0.000000 -0.707107
vn 0.707107 0.000000 -0.707107
vn 0.707107 0.000000 -0.707107
vn 0.000000 0.707107 0.707106
vn 0.000000 0.707107 0.707106
vn 0.000000 0.707107 0.707106
vn 0.000000 0.707107 0.707106
vn 0.707106 0.707107 0.000000
vn 0.707106 0.707107 0.000000
vn 0.707106 0.707107 0.000000
vn 0.707106 0.707107 0.000000
vn 0.000000 0.707107 -0.707106
vn 0.000000 0.707107 -0.707106
vn 0.000000 0.707107 -0.707106
vn 0.000000 0.707107 -0.707106
vn -0.707107 0.000000 0.707107
vn -0.707107 0.000000 0.707107
vn -0.707107 0.000000 0.707107
vn -0.707107 0.000000 0.707107
vn -0.707107 0.707107 0.000000
vn -0.707107 0.707107 0.000000
vn -0.707107 0.707107 0.000000
vn -0.707107 0.707107 0.000000
vn -0.707107 0.000000 -0.707107
vn -0.707107 0.000000 -0.707107
vn -0.707107 0.000000 -0.707107
vn -0.707107 0.000000 -0.707107
vn -0.707107 -0.707107 0.000000
vn -0.707107 -0.707107 0.000000
vn -0.707107 -0.707107 0.000000
vn -0.707107 -0.707107 0.000000
vn 0.000000 1.000000 0.000000
vn 0.000000 1.000000 0.000000
vn 0.000000 1.000000 0.000000
vn 0.000000 1.000000 0.000000
vn -1.000000 0.000000 0.000000
vn -1.000000 0.000000 0.000000
vn -1.000000 0.000000 0.000000
vn -1.000000 0.000000 0.000000
vn 0.000000 -1.000000 0.000000
vn 0.000000 -1.000000 0.000000
vn 0.000000 -1.000000 0.000000
vn 0.000000 -1.000000 0.000000
vn 0.000000 0.000000 -1.000000
vn 0.000000 0.000000 -1.000000
vn 0.000000 0.000000 -1.000000
vn 0.000000 0.000000 -1.000000
vn 0.000000 0.000000 1.000000
vn 0.000000 0.000000 1.000000
vn 0.000000 0.000000 1.000000
vn 0.000000 0.000000 1.000000
vn 0.577350 -0.577350 0.577350
vn 0.577350 -0.577350 0.577350
vn 0.577350 -0.577350 0.577350
vn 0.577350 -0.577350 -0.577350
vn 0.577350 -0.577350 -0.577350
vn 0.577350 -0.577350 -0.577350
vn 0.577350 0.577350 0.577350
vn 0.577350 0.577350 0.577350
vn 0.577350 0.577350 0.577350
vn 0.577350 0.577350 -0.577350
vn 0.577350 0.577350 -0.577350
vn 0.577350 0.577350 -0.577350
vn -0.577350 0.577350 0.577350
vn -0.577350 0.577350 0.577350
vn -0.577350 0.577350 0.577350
vn -0.577350 0.577350 -0.577350
vn -0.577350 0.577350 -0.577350
vn -0.577350 0.577350 -0.577350
vn -0.577350 -0.577350 0.577350
vn -0.577350 -0.577350 0.577350
vn -0.577350 -0.577350 0.577350
vn -0.577350 -0.577350 -0.577350
vn -0.577350 -0.577350 -0.577350
vn -0.577350 -0.577350 -0.577350
vn 1.000000 0.000000 0.000000
vn 1.000000 0.000000 0.000000
vn 1.000000 0.000000 0.000000
vn 1.000000 0.000000 0.000000
vn 1.000000 0.000000 0.000000
vn 1.000000 0.000000 0.000000
vn 1.000000 0.000000 0.000000
vn 1.000000 0.000000 0.000000
vn 1.000000 0.000000 0.000000
vn 1.000000 0.000000 0.000000
vn 1.000000 0.000000 0.000000
vn 1.000000 0.000000 0.000000
vn 1.000000 0.000000 0.000000
vn 1.000000 0.000000 0.000000
vn 1.000000 0.000000 0.000000
vn 1.000000 0.000000 0.000000
vn 0.707107 0.000000 -0.707107
vn 0.707107 0.000000 -0.707107
vn 0.707107 0.000000 -0.707107
vn 0.707107 0.000000 -0.707107
vn 0.707108 -0.707106 0.000000
vn 0.707108 -0.707106 0.000000
vn 0.707108 -0.707106 0.000000
vn 0.707108 -0.707106 0.000000
vn 0.707107 0.000000 0.707107
vn 0.707107 0.000000 0.707107
vn 0.707107 0.000000 0.707107
vn 0.707107 0.000000 0.707107
vn 0.707108 0.707106 0.000000
vn 0.707108 0.707106 0.000000
vn 0.707108 0.707106 0.000000
vn 0.707108 0.707106 0.000000
vn 1.000000 0.000000 0.000000
vn 1.000000 0.000000 0.000000
vn 1.000000 0.000000 0.000000
vn 1.000000 0.000000 0.000000
vn 0.000000 -1.000000 0.000000
vn 0.000000 -1.000000 0.000000
vn 0.000000 -1.000000 0.000000
vn 0.000000 -1.000000 0.000000
vn 0.000000 0.000000 -1.000000
vn 0.000000 0.000000 -1.000000
vn 0.000000 0.000000 -1.000000
vn 0.000000 0.000000 -1.000000
vn 0.000000 1.000000 0.000000
vn 0.000000 1.000000 0.000000
vn 0.000000 1.000000 0.000000
vn 0.000000 1.000000 0.000000
vn 0.000000 0.000000 1.000000
vn 0.000000 0.000000 1.000000
vn 0.000000 0.000000 1.000000
vn 0.000000 0.000000 1.000000
vn 0.000000 -0.707107 0.707107
vn 0.000000 -0.707107 0.707107
vn 0.000000 -0.707107 0.707107
vn 0.000000 -0.707107 0.707107
vn 0.707106 -0.707107 0.000000
vn 0.707106 -0.707107 0.000000
vn 0.707106 -0.707107 0.000000
vn 0.707106 -0.707107 0.000000
vn 0.707106 0.000000 0.707107
vn 0.707106 0.000000 0.707107
vn 0.707106 0.000000 0.707107
vn 0.707106 0.000000 0.707107
vn 0.000000 -0.707107 -0.707107
vn 0.000000 -0.707107 -0.707107
vn 0.000000 -0.707107 -0.707107
vn 0.000000 -0.707107 -0.707107
vn 0.707107 0.000000 -0.707107
vn 0.707107 0.000000 -0.707107
vn 0.707107 0.000000 -0.707107
vn 0.707107 0.000000 -0.707107
vn 0.000000 0.707107 0.707107
vn 0.000000 0.707107 0.707107
vn 0.000000 0.707107 0.707107
vn 0.000000 0.707107 0.707107
vn 0.707106 0.707107 0.000000
vn 0.707106 0.707107 0.000000
vn 0.707106 0.707107 0.000000
vn 0.707106 0.707107 0.000000
vn 0.000000 0.707107 -0.707107
vn 0.000000 0.707107 -0.707107
vn 0.000000 0.707107 -0.707107
vn 0.000000 0.707107 -0.707107
vn -0.707107 0.000000 0.707107
vn -0.707107 0.000000 0.707107
vn -0.707107 0.000000 0.707107
vn -0.707107 0.000000 0.707107
vn -0.707106 0.707107 0.000000
vn -0.707106 0.707107 0.000000
vn -0.707106 0.707107 0.000000
vn -0.707106 0.707107 0.000000
vn -0.707106 0.000000 -0.707107
vn -0.707106 0.000000 -0.707107
vn -0.707106 0.000000 -0.707107
vn -0.707106 0.000000 -0.707107
vn -0.707106 -0.707107 0.000000
vn -0.707106 -0.707107 0.000000
vn -0.707106 -0.707107 0.000000
vn -0.707106 -0.707107 0.000000
vn 1.000000 0.000000 0.000000
vn 1.000000 0.000000 0.000000
vn 1.000000 0.000000 0.000000
vn 1.000000 0.000000 0.000000
vn 0.000000 1.000000 0.000000
vn 0.000000 1.000000 0.000000
vn 0.000000 1.000000 0.000000
vn 0.000000 1.000000 0.000000
vn -1.000000 0.000000 0.000000
vn -1.000000 0.000000 0.000000
vn -1.000000 0.000000 0.000000
vn -1.000000 0.000000 0.000000
vn 0.000000 -1.000000 0.000000
vn 0.000000 -1.000000 0.000000
vn 0.000000 -1.000000 0.000000
vn 0.000000 -1.000000 0.000000
vn 0.000000 0.000000 -1.000000
vn 0.000000 0.000000 -1.000000
vn 0.000000 0.000000 -1.000000
vn 0.000000 0.000000 -1.000000
vn 0.000000 0.000000 1.000000
vn 0.000000 0.000000 1.000000
vn 0.000000 0.000000 1.000000
vn 0.000000 0.000000 1.000000
vn 0.577350 -0.577350 0.577350
vn 0.577350 -0.577350 0.577350
vn 0.577350 -0.577350 0.577350
vn 0.577351 -0.577351 -0.577350
vn 0.577351 -0.577351 -0.577350
vn 0.577351 -0.577351 -0.577350
vn 0.577351 0.577351 0.577350
vn 0.577351 0.577351 0.577350
vn 0.577350 0.577350 0.577350
vn 0.577350 0.577351 -0.577350
vn 0.577350 0.577351 -0.577350
vn 0.577350 0.577351 -0.577350
vn -0.577350 0.577351 0.577350
vn -0.577350 0.577351 0.577350
vn -0.577350 0.577351 0.577350
vn -0.577351 0.577351 -0.577350
vn -0.577350 0.577350 -0.577350
vn -0.577351 0.577351 -0.577350
vn -0.577351 -0.577351 0.577350
vn -0.577351 -0.577351 0.577350
vn -0.577351 -0.577351 0.577350
vn -0.577350 -0.577350 -0.577350
vn -0.577350 -0.577350 -0.577350
vn -0.577350 -0.577350 -0.577350
vn 1.000000 0.000000 0.000000
vn 1.000000 0.000000 0.000000
vn 1.000000 0.000000 0.000000
vn 1.000000 0.000000 0.000000
vn 1.000000 0.000000 0.000000
vn 1.000000 0.000000 0.000000
vn 1.000000 0.000000 0.000000
vn 1.000000 0.000000 0.000000
vn 1.000000 0.000000 0.000000
vn 1.000000 0.000000 0.000000
vn 1.000000 0.000000 0.000000
vn 1.000000 0.000000 0.000000
vn 1.000000 0.000000 0.000000
vn 1.000000 0.000000 0.000000
vn 1.000000 0.000000 0.000000
vn 1.000000 0.000000 0.000000
vn 0.000000 -1.000000 0.000000
vn 0.000000 -1.000000 0.000000
vn 0.000000 -1.000000 0.000000
vn 0.000000 -1.000000 0.000000
vn 0.000000 0.000000 -1.000000
vn 0.000000 0.000000 -1.000000
vn 0.000000 0.000000 -1.000000
vn 0.000000 0.000000 -1.000000
vn 0.000000 1.000000 0.000000
vn 0.000000 1.000000 0.000000
vn 0.000000 1.000000 0.000000
vn 0.000000 1.000000 0.000000
vn 0.000000 0.000000 1.000000
vn 0.000000 0.000000 1.000000
vn 0.000000 0.000000 1.000000
vn 0.000000 0.000000 1.000000
s off
g LIGHTBOX LIGHT_CUBES
usemtl initialShadingGroup
f 1/1/1 3/2/2 19/3/3 21/4/4
f 2/5/5 1/6/6 6/7/7 5/8/8
f 3/9/9 2/5/10 8/10/11 7/11/12
f 4/12/13 6/13/14 22/14/15 24/15/16
f 5/8/17 4/16/18 12/17/19 11/18/20
f 7/19/21 9/20/22 14/21/23 13/22/24
f 9/20/25 8/10/26 11/18/27 10/23/28
f 10/23/29 12/24/30 18/25/31 17/26/32
f 13/27/33 15/28/34 20/29/35 19/30/36
f 15/28/37 14/21/38 17/26/39 16/31/40
f 16/31/41 18/32/42 24/33/43 23/34/44
f 21/4/45 20/29/46 23/34/47 22/14/48
f 9/20/49 10/23/50 17/26/51 14/21/52
f 15/28/53 16/31/54 23/34/55 20/29/56
f 21/4/57 22/14/58 6/13/59 1/1/60
f 4/16/61 24/35/62 18/36/63 12/17/64
f 19/37/65 3/9/66 7/11/67 13/38/68
f 1/6/69 2/5/70 3/9/71
f 4/16/72 5/8/73 6/7/74
f 7/11/75 8/10/76 9/20/77
f 10/23/78 11/18/79 12/17/80
f 13/22/81 14/21/82 15/28/83
f 16/31/84 17/26/85 18/25/86
f 19/30/87 20/29/88 21/4/89
f 22/14/90 23/34/91 24/33/92
f 2/5/93 5/8/94 25/39/95 26/40/96
f 5/8/97 11/18/98 27/41/99 25/39/100
f 11/18/101 8/10/102 28/42/103 27/41/104
f 8/10/105 2/5/106 26/40/107 28/42/108
f 29/43/109 30/44/110 34/45/111 33/46/112
f 30/44/113 29/43/114 32/47/115 31/48/116
f 31/48/117 32/47/118 35/49/119 36/50/120
f 33/46/121 34/45/122 36/50/123 35/49/124
f 32/47/125 29/43/126 33/46/127 35/49/128
f 26/40/129 25/39/130 30/44/131 31/48/132
f 25/39/133 27/41/134 34/45/135 30/44/136
f 27/41/137 28/42/138 36/50/139 34/45/140
f 28/42/141 26/40/142 31/48/143 36/50/144
f 37/51/145 39/52/146 55/53/147 57/54/148
f 38/55/149 37/56/150 42/57/151 41/58/152
f 39/59/153 38/55/154 44/60/155 43/61/156
f 40/62/157 42/63/158 58/64/159 60/65/160
f 41/58/161 40/66/162 48/67/163 47/68/164
f 43/69/165 45/70/166 50/71/167 49/72/168
f 45/70/169 44/60/170 47/68/171 46/73/172
f 46/73/173 48/74/174 54/75/175 53/76/176
f 49/77/177 51/78/178 56/79/179 55/80/180
f 51/78/181 50/71/182 53/76/183 52/81/184
f 52/81/185 54/82/186 60/83/187 59/84/188
f 57/54/189 56/79/190 59/84/191 58/64/192
f 66/85/193 65/86/194 67/87/195 68/88/196
f 45/70/197 46/73/198 53/76/199 50/71/200
f 51/78/201 52/81/202 59/84/203 56/79/204
f 57/54/205 58/64/206 42/63/207 37/51/208
f 40/66/209 60/89/210 54/90/211 48/67/212
f 55/91/213 39/59/214 43/61/215 49/92/216
f 37/56/217 38/55/218 39/59/219
f 40/66/220 41/58/221 42/57/222
f 43/61/223 44/60/224 45/70/225
f 46/73/226 47/68/227 48/67/228
f 49/72/229 50/71/230 51/78/231
f 52/81/232 53/76/233 54/75/234
f 55/80/235 56/79/236 57/54/237
f 58/64/238 59/84/239 60/83/240
f 38/55/241 41/58/242 61/93/243 62/94/244
f 41/58/245 47/68/246 63/95/247 61/93/248
f 47/68/249 44/60/250 64/96/251 63/95/252
f 44/60/253 38/55/254 62/94/255 64/96/256
f 62/94/257 61/93/258 65/86/259 66/85/260
f 61/93/261 63/95/262 67/87/263 65/86/264
f 63/95/265 64/96/266 68/88/267 67/87/268
f 64/96/269 62/94/270 66/85/271 68/88/272
