# This file uses centimeters as units for non-parametric coordinates.

mtllib BOXEDSCREEN.mtl
g default
v 0.160777 0.109429 -0.406627
v 0.130777 0.109429 -0.406627
v 0.115777 0.083448 -0.406627
v 0.130777 0.057467 -0.406627
v 0.160777 0.057467 -0.406627
v 0.175777 0.083448 -0.406627
v 0.160777 0.109429 -0.276627
v 0.130777 0.109429 -0.276627
v 0.115777 0.083448 -0.276627
v 0.130777 0.057467 -0.276627
v 0.160777 0.057467 -0.276627
v 0.175777 0.083448 -0.276627
v 0.145777 0.083448 -0.406627
v 0.145777 0.083448 -0.276627
v 0.248326 0.109429 -0.406627
v 0.218326 0.109429 -0.406627
v 0.203326 0.083448 -0.406627
v 0.218326 0.057467 -0.406627
v 0.248326 0.057467 -0.406627
v 0.263326 0.083448 -0.406627
v 0.248326 0.109429 -0.276627
v 0.218326 0.109429 -0.276627
v 0.203326 0.083448 -0.276627
v 0.218326 0.057467 -0.276627
v 0.248326 0.057467 -0.276627
v 0.263326 0.083448 -0.276627
v 0.233326 0.083448 -0.406627
v 0.233326 0.083448 -0.276627
v -0.309237 0.240223 -0.246792
v 0.309237 0.240223 -0.246792
v -0.309237 0.510095 -0.246792
v 0.309237 0.510095 -0.246792
v -0.403984 0.577682 0.061903
v -0.260958 0.700350 0.061903
v 0.260958 0.700350 0.061903
v 0.403984 0.577682 0.061903
v 0.403984 0.163081 0.061903
v 0.403984 0.000000 0.092196
v -0.403984 0.000000 0.092196
v -0.403984 0.163081 0.061903
v 0.355995 0.204762 0.090993
v 0.355995 0.498147 0.090993
v 0.355995 -0.004199 0.138906
v -0.355995 -0.004199 0.138906
v -0.355995 0.204762 0.090993
v -0.355995 0.498147 0.090993
v -0.324955 0.224506 -0.403984
v -0.309237 0.240223 -0.388266
v 0.324955 0.224506 -0.403984
v 0.309237 0.240223 -0.388267
v -0.324955 0.525813 -0.403984
v -0.309237 0.510095 -0.388266
v 0.324955 0.525813 -0.403984
v 0.309237 0.510095 -0.388267
v 0.382358 0.012592 -0.294121
v 0.403984 0.000000 -0.266138
v -0.383151 0.012130 -0.293784
v -0.403984 0.000000 -0.266828
v 0.253695 0.680725 -0.403984
v 0.260958 0.700350 -0.384359
v -0.260958 0.700350 -0.384359
v -0.253695 0.680725 -0.403984
v 0.403984 0.169483 -0.384360
v 0.384359 0.163081 -0.403984
v -0.403984 0.169483 -0.384359
v -0.384360 0.163081 -0.403984
v 0.403984 0.577682 -0.384360
v 0.384359 0.568660 -0.403984
v -0.403984 0.577682 -0.384359
v -0.384360 0.568660 -0.403984
v 0.253695 0.680725 0.341168
v 0.260958 0.700350 0.321543
v -0.253695 0.680725 0.341168
v -0.260958 0.700350 0.321543
v 0.403984 0.577682 0.320804
v 0.380579 0.577682 0.341168
v -0.380579 0.577682 0.341168
v -0.403984 0.577682 0.320805
v -0.336370 0.204762 0.312077
v -0.355995 0.204762 0.292452
v -0.336370 0.015426 0.312077
v -0.355995 -0.004199 0.292452
v 0.336370 0.015426 0.312077
v 0.355995 -0.004199 0.292452
v 0.336370 0.204762 0.312077
v 0.355995 0.204762 0.292452
v -0.336276 0.498147 0.312077
v -0.355995 0.498147 0.292358
v 0.336276 0.498147 0.312077
v 0.355995 0.498147 0.292359
vt 0.578125 0.020934
vt 0.421875 0.020934
vt 0.343750 0.156250
vt 0.421875 0.291566
vt 0.578125 0.291566
vt 0.656250 0.156250
vt 0.375000 0.312500
vt 0.416667 0.312500
vt 0.458333 0.312500
vt 0.500000 0.312500
vt 0.541667 0.312500
vt 0.583333 0.312500
vt 0.625000 0.312500
vt 0.375000 0.688440
vt 0.416667 0.688440
vt 0.458333 0.688440
vt 0.500000 0.688440
vt 0.541667 0.688440
vt 0.583333 0.688440
vt 0.625000 0.688440
vt 0.578125 0.708434
vt 0.421875 0.708434
vt 0.343750 0.843750
vt 0.421875 0.979066
vt 0.578125 0.979066
vt 0.656250 0.843750
vt 0.500000 0.150000
vt 0.500000 0.837500
vt 0.375000 0.312500
vt 0.416667 0.312500
vt 0.416667 0.688440
vt 0.375000 0.688440
vt 0.458333 0.312500
vt 0.458333 0.688440
vt 0.500000 0.312500
vt 0.500000 0.688440
vt 0.541667 0.312500
vt 0.541667 0.688440
vt 0.583333 0.312500
vt 0.583333 0.688440
vt 0.625000 0.312500
vt 0.625000 0.688440
vt 0.421875 0.020934
vt 0.578125 0.020934
vt 0.500000 0.150000
vt 0.343750 0.156250
vt 0.421875 0.291566
vt 0.578125 0.291566
vt 0.656250 0.156250
vt 0.578125 0.979066
vt 0.421875 0.979066
vt 0.500000 0.837500
vt 0.343750 0.843750
vt 0.421875 0.708434
vt 0.578125 0.708434
vt 0.656250 0.843750
vt 0.375000 0.050460
vt 0.625000 0.050460
vt 0.625000 0.212044
vt 0.375000 0.212044
vt 0.202557 0.050460
vt 0.202557 0.212044
vt 0.202557 0.212044
vt 0.202557 0.050460
vt 0.202557 0.000000
vt 0.202557 0.000000
vt 0.625000 0.827557
vt 0.375000 0.827557
vt 0.375000 0.827557
vt 0.625000 0.827557
vt 0.797443 0.050460
vt 0.797443 0.000000
vt 0.797443 0.000000
vt 0.797443 0.050460
vt 0.797443 0.212044
vt 0.797443 0.212044
vt 0.625000 0.051286
vt 0.625000 0.050460
vt 0.375000 0.050460
vt 0.375000 0.051286
vt 0.616272 0.212044
vt 0.625000 0.212044
vt 0.375000 0.212044
vt 0.386403 0.212044
vt 0.386671 1.000000
vt 0.375000 0.992635
vt 0.625000 0.992905
vt 0.618681 1.000000
vt 0.367635 0.000000
vt 0.381691 0.003896
vt 0.381072 0.050460
vt 0.368599 0.052441
vt 0.618554 0.003753
vt 0.632095 0.000000
vt 0.631401 0.052441
vt 0.618928 0.050460
vt 0.384327 0.243928
vt 0.368599 0.250000
vt 0.368599 0.212044
vt 0.379062 0.212044
vt 0.610560 0.243928
vt 0.625000 0.256401
vt 0.621663 0.212044
vt 0.631401 0.212044
vt 0.375000 0.256401
vt 0.625000 0.422443
vt 0.375000 0.422443
vt 0.797443 0.250000
vt 0.631401 0.250000
vt 0.202557 0.250000
vt 0.389440 0.506072
vt 0.375000 0.494550
vt 0.625000 0.494550
vt 0.615673 0.506072
vt 0.382242 0.537956
vt 0.375000 0.537955
vt 0.625000 0.537956
vt 0.617758 0.537956
vt 0.381924 0.537956
vt 0.375000 0.537956
vt 0.625000 0.537956
vt 0.618076 0.537956
vt 0.618109 0.699540
vt 0.625000 0.699540
vt 0.625000 0.758789
vt 0.618109 0.745261
vt 0.375000 0.758789
vt 0.381891 0.745261
vt 0.375000 0.699540
vt 0.381891 0.699540
vt 0.869345 0.212044
vt 0.869550 0.250000
vt 0.130655 0.212044
vt 0.130450 0.250000
vt 0.131884 0.050460
vt 0.131917 0.212044
vt 0.133789 0.000000
vt 0.866211 0.000000
vt 0.868116 0.050460
vt 0.868083 0.212044
vn 0.000000 1.000000 0.000000
vn 0.000000 1.000000 0.000000
vn 0.000000 1.000000 0.000000
vn 0.000000 1.000000 0.000000
vn -0.866025 0.500000 0.000000
vn -0.866025 0.500000 0.000000
vn -0.866025 0.500000 0.000000
vn -0.866025 0.500000 0.000000
vn -0.866025 -0.500000 0.000000
vn -0.866025 -0.500000 0.000000
vn -0.866025 -0.500000 0.000000
vn -0.866025 -0.500000 0.000000
vn 0.000000 -1.000000 0.000000
vn 0.000000 -1.000000 0.000000
vn 0.000000 -1.000000 0.000000
vn 0.000000 -1.000000 0.000000
vn 0.866025 -0.500000 0.000000
vn 0.866025 -0.500000 0.000000
vn 0.866025 -0.500000 0.000000
vn 0.866025 -0.500000 0.000000
vn 0.866025 0.500000 0.000000
vn 0.866025 0.500000 0.000000
vn 0.866025 0.500000 0.000000
vn 0.866025 0.500000 0.000000
vn 0.000000 0.000000 -1.000000
vn 0.000000 0.000000 -1.000000
vn 0.000000 0.000000 -1.000000
vn 0.000000 0.000000 -1.000000
vn 0.000000 0.000000 -1.000000
vn 0.000000 0.000000 -1.000000
vn 0.000000 0.000000 -1.000000
vn 0.000000 0.000000 1.000000
vn 0.000000 0.000000 1.000000
vn -0.000000 0.000000 1.000000
vn -0.000000 0.000000 1.000000
vn -0.000000 0.000000 1.000000
vn 0.000000 0.000000 1.000000
vn 0.000000 0.000000 1.000000
vn 0.000000 1.000000 0.000000
vn 0.000000 1.000000 0.000000
vn 0.000000 1.000000 0.000000
vn 0.000000 1.000000 0.000000
vn -0.866025 0.500000 0.000000
vn -0.866025 0.500000 0.000000
vn -0.866025 0.500000 0.000000
vn -0.866025 0.500000 0.000000
vn -0.866025 -0.500000 0.000000
vn -0.866025 -0.500000 0.000000
vn -0.866025 -0.500000 0.000000
vn -0.866025 -0.500000 0.000000
vn 0.000000 -1.000000 0.000000
vn 0.000000 -1.000000 0.000000
vn 0.000000 -1.000000 0.000000
vn 0.000000 -1.000000 0.000000
vn 0.866025 -0.500000 0.000000
vn 0.866025 -0.500000 0.000000
vn 0.866025 -0.500000 0.000000
vn 0.866025 -0.500000 0.000000
vn 0.866025 0.500000 0.000000
vn 0.866025 0.500000 0.000000
vn 0.866025 0.500000 0.000000
vn 0.866025 0.500000 0.000000
vn 0.000000 0.000000 -1.000000
vn 0.000000 0.000000 -1.000000
vn 0.000000 0.000000 -1.000000
vn 0.000000 0.000000 -1.000000
vn 0.000000 0.000000 -1.000000
vn 0.000000 0.000000 -1.000000
vn 0.000000 0.000000 -1.000000
vn 0.000000 0.000000 1.000000
vn 0.000000 0.000000 1.000000
vn -0.000000 0.000000 1.000000
vn -0.000000 0.000000 1.000000
vn -0.000000 0.000000 1.000000
vn 0.000000 0.000000 1.000000
vn 0.000000 0.000000 1.000000
vn -0.000000 0.000000 -1.000000
vn -0.000000 0.000000 -1.000000
vn -0.000000 0.000000 -1.000000
vn -0.000000 0.000000 -1.000000
vn 0.518375 0.000000 0.855153
vn 0.518375 0.000000 0.855153
vn 0.518375 0.000000 0.855154
vn 0.518375 0.000000 0.855153
vn 0.649061 0.156491 0.744467
vn 0.649061 0.156491 0.744467
vn 0.649061 0.156491 0.744467
vn 0.649061 0.156491 0.744467
vn 0.000000 -0.999987 -0.005116
vn 0.000000 -0.999987 -0.005116
vn 0.000000 -0.999564 -0.029524
vn 0.000000 -0.999564 -0.029524
vn -0.649061 0.156491 0.744466
vn -0.649061 0.156491 0.744466
vn -0.649061 0.156491 0.744466
vn -0.649061 0.156491 0.744466
vn -0.518377 0.000000 0.855152
vn -0.518377 0.000000 0.855152
vn -0.518377 0.000000 0.855152
vn -0.518377 0.000000 0.855152
vn -0.000000 0.707097 -0.707116
vn -0.000000 0.707097 -0.707116
vn -0.000000 0.707097 -0.707116
vn -0.000000 0.707097 -0.707116
vn 0.707110 0.000000 -0.707104
vn 0.707110 0.000000 -0.707104
vn 0.707110 0.000000 -0.707104
vn 0.707110 0.000000 -0.707104
vn -0.707080 0.000000 -0.707133
vn -0.707080 0.000000 -0.707133
vn -0.707080 0.000000 -0.707133
vn -0.707080 0.000000 -0.707133
vn -0.000000 -0.707095 -0.707119
vn -0.000000 -0.707095 -0.707119
vn -0.000000 -0.707095 -0.707119
vn -0.000000 -0.707095 -0.707119
vn 0.000000 1.000000 0.000000
vn 0.000000 1.000000 0.000000
vn 0.000000 1.000000 0.000000
vn 0.000000 1.000000 0.000000
vn 1.000000 0.000000 0.000001
vn 1.000000 0.000000 0.000001
vn 1.000000 0.000000 0.000001
vn 1.000000 0.000000 0.000001
vn 0.000000 -1.000000 -0.000000
vn 0.000000 -1.000000 -0.000000
vn 0.000000 -1.000000 -0.000000
vn 0.000000 -1.000000 -0.000000
vn -1.000000 0.000000 -0.000001
vn -1.000000 0.000000 -0.000001
vn -1.000000 0.000000 -0.000001
vn -1.000000 0.000000 -0.000001
vn 0.000068 -0.662845 -0.748756
vn 0.000017 -0.999809 -0.019525
vn 0.000017 -0.999808 -0.019575
vn 0.000068 -0.663094 -0.748536
vn 0.647313 -0.445114 -0.618756
vn 0.647313 -0.445114 -0.618756
vn 0.704134 -0.146815 -0.694723
vn 0.704238 -0.145390 -0.694918
vn -0.649578 -0.442065 -0.618568
vn -0.649578 -0.442065 -0.618568
vn -0.704878 -0.142446 -0.694879
vn -0.704791 -0.143736 -0.694702
vn 0.122286 0.678805 -0.724065
vn 0.122284 0.678805 -0.724065
vn 0.460336 0.536740 -0.707108
vn 0.460336 0.536740 -0.707108
vn -0.122286 0.678805 -0.724065
vn -0.122285 0.678806 -0.724065
vn -0.460340 0.536742 -0.707104
vn -0.460340 0.536742 -0.707104
vn 0.707101 0.000000 -0.707113
vn 0.707101 0.000000 -0.707113
vn -0.707111 0.000000 -0.707102
vn -0.707111 0.000000 -0.707102
vn -0.000002 -0.000001 -1.000000
vn 0.000000 -0.000001 -1.000000
vn 0.000000 0.000001 -1.000000
vn 0.000000 0.000001 -1.000000
vn 0.000000 1.000000 -0.000000
vn 0.000000 1.000000 -0.000000
vn 0.000000 1.000000 -0.000000
vn 0.000000 1.000000 -0.000000
vn -0.651017 0.759063 0.000000
vn -0.651017 0.759063 0.000000
vn -0.651017 0.759063 0.000000
vn -0.651017 0.759063 0.000000
vn 0.651017 0.759063 -0.000000
vn 0.651017 0.759063 -0.000000
vn 0.651017 0.759063 -0.000000
vn 0.651017 0.759063 -0.000000
vn 1.000000 -0.000001 0.000000
vn 1.000000 -0.000001 0.000000
vn 1.000000 -0.000000 -0.000000
vn 1.000000 -0.000000 -0.000000
vn -0.000000 -0.589633 -0.807672
vn -0.000000 -0.589633 -0.807672
vn -1.000000 0.000000 0.000001
vn -1.000000 0.000000 0.000001
vn -1.000000 0.000000 0.000001
vn -1.000000 0.000000 0.000001
vn 1.000000 0.000000 -0.000000
vn 1.000000 0.000000 -0.000000
vn -1.000000 0.000000 0.000001
vn -1.000000 0.000000 0.000001
vn -0.000003 0.000004 -1.000000
vn 0.000000 0.000003 -1.000000
vn 0.000000 0.000003 -1.000000
vn -0.000003 0.000003 -1.000000
vn 0.000001 -0.000005 -1.000000
vn -0.000004 -0.000005 -1.000000
vn 0.121265 0.692104 0.711539
vn 0.122441 0.691906 0.711529
vn -0.122440 0.691906 0.711530
vn -0.121265 0.692104 0.711539
vn 0.485277 0.578162 0.655923
vn 0.485277 0.578162 0.655923
vn -0.485275 0.578162 0.655924
vn -0.485275 0.578163 0.655924
vn 0.568214 -0.550810 0.611344
vn 0.568214 -0.550810 0.611344
vn 0.568214 -0.550810 0.611344
vn 0.568214 -0.550810 0.611344
vn -0.568211 -0.550809 0.611347
vn -0.568211 -0.550809 0.611347
vn -0.568211 -0.550809 0.611347
vn -0.568211 -0.550809 0.611347
vn -0.707101 0.000135 0.707113
vn -0.707101 0.000135 0.707113
vn -0.707101 -0.000000 0.707112
vn -0.707101 -0.000000 0.707112
vn -0.707101 0.000226 0.707113
vn -0.707101 0.000226 0.707113
vn -0.000000 -0.707102 0.707111
vn -0.000000 -0.707102 0.707111
vn -0.000000 -0.707102 0.707111
vn -0.000000 -0.707102 0.707111
vn 0.707100 0.000000 0.707114
vn 0.707100 0.000000 0.707114
vn 0.707101 0.000135 0.707113
vn 0.707101 0.000135 0.707113
vn 0.707101 0.000226 0.707112
vn 0.707101 0.000226 0.707112
vn 0.000000 0.000002 1.000000
vn 0.000000 0.000002 1.000000
vn 0.000000 -0.208222 0.978082
vn 0.000000 -0.208222 0.978082
vn -0.000000 0.000000 1.000000
vn -0.000000 0.000000 1.000000
vn -0.000000 0.000000 1.000000
vn -0.000000 0.000000 1.000000
vn -0.000000 -0.099734 0.995014
vn -0.000000 -0.099733 0.995014
vn -0.651017 0.759063 -0.000000
vn -0.651017 0.759063 -0.000000
vn 0.000000 1.000000 0.000000
vn 0.000000 1.000000 0.000000
vn 0.651016 0.759064 -0.000000
vn 0.651016 0.759064 -0.000000
vn 1.000000 0.000000 0.000000
vn 1.000000 0.000000 0.000000
vn 1.000000 0.000000 0.000000
vn 1.000000 0.000000 0.000000
vn 1.000000 0.000000 0.000000
vn 1.000000 0.000000 0.000000
vn 0.000000 -1.000000 -0.000000
vn 0.000000 -1.000000 -0.000000
vn -1.000000 -0.000000 -0.000001
vn -1.000000 -0.000001 -0.000001
vn -1.000000 -0.000001 -0.000001
vn -1.000000 -0.000000 -0.000001
vn -1.000000 -0.000000 -0.000000
vn -1.000000 -0.000000 -0.000000
vn 0.856213 -0.516623 -0.000001
vn 0.856213 -0.516623 -0.000001
vn 0.856213 -0.516623 -0.000001
vn 0.856213 -0.516623 -0.000001
vn -0.856216 -0.516619 -0.000000
vn -0.856216 -0.516619 -0.000000
vn -0.856216 -0.516619 -0.000000
vn -0.856216 -0.516619 -0.000000
s off
g BOXEDSCREEN
usemtl initialShadingGroup
f 1/7/1 2/8/2 8/15/3 7/14/4
f 2/8/5 3/9/6 9/16/7 8/15/8
f 3/9/9 4/10/10 10/17/11 9/16/12
f 4/10/13 5/11/14 11/18/15 10/17/16
f 5/11/17 6/12/18 12/19/19 11/18/20
f 6/12/21 1/13/22 7/20/23 12/19/24
s 1
f 2/2/25 1/1/26 13/27/27
f 3/3/28 2/2/25 13/27/27
f 4/4/29 3/3/28 13/27/27
f 5/5/30 4/4/29 13/27/27
f 6/6/31 5/5/30 13/27/27
f 1/1/26 6/6/31 13/27/27
s 2
f 7/25/32 8/24/33 14/28/34
f 8/24/33 9/23/35 14/28/34
f 9/23/35 10/22/36 14/28/34
f 10/22/36 11/21/37 14/28/34
f 11/21/37 12/26/38 14/28/34
f 12/26/38 7/25/32 14/28/34
s off
f 15/29/39 16/30/40 22/31/41 21/32/42
f 16/30/43 17/33/44 23/34/45 22/31/46
f 17/33/47 18/35/48 24/36/49 23/34/50
f 18/35/51 19/37/52 25/38/53 24/36/54
f 19/37/55 20/39/56 26/40/57 25/38/58
f 20/39/59 15/41/60 21/42/61 26/40/62
s 3
f 16/43/63 15/44/64 27/45/65
f 17/46/66 16/43/63 27/45/65
f 18/47/67 17/46/66 27/45/65
f 19/48/68 18/47/67 27/45/65
f 20/49/69 19/48/68 27/45/65
f 15/44/64 20/49/69 27/45/65
s 4
f 21/50/70 22/51/71 28/52/72
f 22/51/71 23/53/73 28/52/72
f 23/53/73 24/54/74 28/52/72
f 24/54/74 25/55/75 28/52/72
f 25/55/75 26/56/76 28/52/72
f 26/56/76 21/50/70 28/52/72
s off
f 30/57/77 29/58/78 31/59/79 32/60/80
f 37/61/81 36/62/82 42/63/83 41/64/84
f 38/65/85 37/61/86 41/64/87 43/66/88
s 5
f 39/67/89 38/68/90 43/69/91 44/70/92
s off
f 40/71/93 39/72/94 44/73/95 45/74/96
f 33/75/97 40/71/98 45/74/99 46/76/100
f 47/77/101 48/78/102 50/79/103 49/80/104
f 48/78/105 47/77/106 51/81/107 52/82/108
f 49/80/109 50/79/110 54/83/111 53/84/112
f 52/82/113 51/81/114 53/84/115 54/83/116
f 50/79/117 48/78/118 29/58/119 30/57/120
f 48/78/121 52/82/122 31/59/123 29/58/124
f 52/82/125 54/83/126 32/60/127 31/59/128
f 54/83/129 50/79/130 30/57/131 32/60/132
s 5
f 55/85/133 56/86/134 58/87/135 57/88/136
s 6
f 56/89/137 55/90/138 64/91/139 63/92/140
s 7
f 57/93/141 58/94/142 65/95/143 66/96/144
s 8
f 59/97/145 60/98/146 67/99/147 68/100/148
f 60/98/146 59/97/145 62/101/149 61/102/150
f 61/102/150 62/101/149 70/103/151 69/104/152
s 6
f 63/92/140 64/91/139 68/100/153 67/99/154
s 7
f 66/96/144 65/95/143 69/104/155 70/103/156
s 9
f 68/100/157 70/103/158 62/101/159 59/97/160
s 10
f 60/105/161 61/102/162 34/106/163 35/107/164
s 5
f 38/68/90 39/67/89 58/87/135 56/86/134
s 11
f 69/104/165 33/75/166 34/108/167 61/109/168
s 12
f 36/62/169 67/99/170 60/98/171 35/110/172
s 13
f 38/65/173 56/89/174 63/92/175 37/61/176
s 5
f 55/90/133 57/93/136 66/96/177 64/91/178
s 14
f 58/94/179 39/72/180 40/71/181 65/95/182
s 13
f 37/61/176 63/92/175 67/99/183 36/62/184
s 14
f 65/95/182 40/71/181 33/75/185 69/104/186
s 9
f 64/91/187 66/96/188 47/77/189 49/80/190
f 66/96/188 70/103/158 51/81/191 47/77/189
f 70/103/158 68/100/157 53/84/192 51/81/191
f 68/100/157 64/91/187 49/80/190 53/84/192
s 16
f 71/111/193 72/112/194 74/113/195 73/114/196
f 72/112/194 71/111/193 76/115/197 75/116/198
f 73/114/196 74/113/195 78/117/199 77/118/200
s off
f 75/116/201 76/115/202 89/119/203 90/120/204
f 77/118/205 78/117/206 88/121/207 87/122/208
s 17
f 79/123/209 80/124/210 82/125/211 81/126/212
f 80/124/210 79/123/209 87/122/213 88/121/214
s off
f 81/126/215 82/125/216 84/127/217 83/128/218
s 18
f 83/128/219 84/127/220 86/129/221 85/130/222
f 85/130/222 86/129/221 90/120/223 89/119/224
s 19
f 71/111/225 73/114/226 77/118/227 76/115/228
f 85/130/229 79/123/230 81/126/231 83/128/232
f 89/119/233 87/122/234 79/123/230 85/130/229
s 11
f 33/75/166 78/131/235 74/132/236 34/108/167
s 10
f 35/107/164 34/106/163 74/113/237 72/112/238
s 12
f 75/133/239 36/62/169 35/110/172 72/134/240
s 21
f 86/135/241 41/64/242 42/63/243 90/136/244
f 84/137/245 43/66/246 41/64/242 86/135/241
s 5
f 84/127/247 82/125/248 44/70/92 43/69/91
s 22
f 45/74/249 44/73/250 82/138/251 80/139/252
f 46/76/253 45/74/249 80/139/252 88/140/254
s 19
f 76/115/228 77/118/227 87/122/234 89/119/233
s off
f 36/62/255 75/133/256 90/136/257 42/63/258
f 78/131/259 33/75/260 46/76/261 88/140/262
