# This file uses centimeters as units for non-parametric coordinates.

mtllib C_TRIFLOOR.mtl
g default
v -2.516149 -0.191816 0.100038
v -2.936047 -0.147960 0.109964
v -2.935410 -0.147960 -0.006281
v 1.561563 -0.147960 2.501159
v 1.365856 -0.147960 2.618937
v 1.365856 -0.191815 2.394831
v -2.935402 0.155502 -0.006276
v -2.936047 0.155502 0.109964
v -2.529398 0.199357 0.100038
v 1.365860 0.199357 2.394833
v 1.365865 0.155502 2.618938
v 1.561566 0.155502 2.501155
v -2.935411 0.155501 -0.006329
v -2.529396 0.199357 -0.112648
v -2.936045 0.155502 -0.122573
v 1.365856 0.155502 -2.631546
v 1.365865 0.199356 -2.407450
v 1.561554 0.155501 -2.513760
v -2.935410 -0.147961 -0.006329
v -2.936039 -0.147960 -0.122579
v -2.516150 -0.191816 -0.112648
v 1.365856 -0.191816 -2.407445
v 1.365856 -0.147960 -2.631546
v 1.561554 -0.147961 -2.513768
v 1.163118 0.199357 2.042324
v -2.093769 0.199357 0.084426
v 1.163123 0.199356 -2.054940
v -2.093768 0.199357 -0.097037
v 1.069198 0.107047 1.924168
v -1.999848 0.107047 0.079193
v 1.069202 0.107047 -1.936785
v -1.999846 0.107047 -0.091804
v 0.950806 0.107047 1.714426
v -1.784794 0.107047 0.069903
v 0.950809 0.107047 -1.727042
v -1.784792 0.107047 -0.082515
v 0.834172 0.202053 1.530348
v -1.608783 0.202053 0.061750
v 0.834175 0.202053 -1.542964
v -1.608782 0.202053 -0.074363
vt 0.337082 0.994689
vt 0.330000 0.994689
vt 0.330000 0.755311
vt 0.337082 0.755311
vt 0.337082 0.062494
vt 0.337082 0.000000
vt 0.656251 0.000000
vt 0.656251 0.062494
vt 0.322989 0.062494
vt 0.337082 0.187507
vt 0.322989 0.187507
vt 0.663333 0.994689
vt 0.656251 0.994689
vt 0.656251 0.755311
vt 0.663333 0.755311
vt 0.670486 0.062494
vt 0.670486 0.187506
vt 0.656252 0.187506
vt 0.330000 0.255311
vt 0.337082 0.255311
vt 0.337082 0.494689
vt 0.330000 0.494689
vt 0.656252 0.255311
vt 0.663333 0.255312
vt 0.663333 0.494689
vt 0.656252 0.494689
vt 0.330000 0.562494
vt 0.337082 0.562494
vt 0.337082 0.687506
vt 0.330000 0.687507
vt 0.656251 0.562494
vt 0.663333 0.562494
vt 0.663333 0.687507
vt 0.656251 0.687506
vt 0.992847 0.062493
vt 0.992847 0.187506
vt 0.007011 0.062493
vt 0.007011 0.187506
vt 0.337082 0.255311
vt 0.656252 0.255311
vt 0.656252 0.494689
vt 0.337082 0.494689
vt 0.337082 0.255311
vt 0.656252 0.255311
vt 0.656252 0.494689
vt 0.337082 0.494689
vt 0.337082 0.255311
vt 0.656252 0.255311
vt 0.656252 0.494689
vt 0.337082 0.494689
vt 0.337082 0.255311
vt 0.656252 0.255311
vt 0.656252 0.494689
vt 0.337082 0.494689
vn -0.104034 -0.994574 0.000004
vn -0.104034 -0.994574 0.000004
vn -0.104034 -0.994574 0.000004
vn -0.104034 -0.994574 0.000004
vn -0.104825 -0.978325 0.178584
vn -0.104825 -0.978325 0.178584
vn -0.104825 -0.978325 0.178584
vn -0.104825 -0.978325 0.178584
vn -0.999985 0.000015 -0.005509
vn -0.999985 0.000015 -0.005509
vn -0.999985 0.000015 -0.005509
vn -0.999985 0.000015 -0.005509
vn 0.218667 -0.975800 0.000000
vn 0.218667 -0.975800 0.000000
vn 0.218667 -0.975800 0.000000
vn 0.218667 -0.975800 0.000000
vn 0.515648 -0.000006 0.856800
vn 0.515648 -0.000006 0.856800
vn 0.515648 -0.000006 0.856800
vn 0.515648 -0.000006 0.856800
vn -0.107391 0.994217 -0.000001
vn -0.107391 0.994217 -0.000001
vn -0.107391 0.994217 -0.000001
vn -0.107391 0.994217 -0.000001
vn -0.106386 0.977613 0.181537
vn -0.106386 0.977613 0.181537
vn -0.106386 0.977613 0.181537
vn -0.106386 0.977613 0.181537
vn 0.218672 0.975798 -0.000000
vn 0.218672 0.975798 -0.000000
vn 0.218672 0.975798 -0.000000
vn 0.218672 0.975798 -0.000000
vn -0.999985 -0.000014 0.005435
vn -0.999985 -0.000014 0.005435
vn -0.999985 -0.000014 0.005435
vn -0.999985 -0.000014 0.005435
vn -0.106385 0.977613 -0.181535
vn -0.106385 0.977613 -0.181535
vn -0.106385 0.977613 -0.181535
vn -0.106385 0.977613 -0.181535
vn 0.515666 0.000012 -0.856789
vn 0.515666 0.000012 -0.856790
vn 0.515666 0.000012 -0.856789
vn 0.515666 0.000012 -0.856790
vn -0.104827 -0.978324 -0.178587
vn -0.104827 -0.978324 -0.178587
vn -0.104827 -0.978324 -0.178587
vn -0.104827 -0.978324 -0.178587
vn -0.503800 0.000005 0.863820
vn -0.503800 0.000005 0.863820
vn -0.503800 0.000005 0.863820
vn -0.503800 0.000005 0.863820
vn 0.000000 1.000000 -0.000000
vn 0.000000 1.000000 -0.000000
vn 0.000000 1.000000 -0.000000
vn 0.000000 1.000000 -0.000000
vn -0.503801 0.000003 -0.863820
vn -0.503801 0.000003 -0.863820
vn -0.503801 0.000003 -0.863820
vn -0.503801 0.000003 -0.863820
vn 0.000000 -1.000000 0.000000
vn 0.000000 -1.000000 0.000000
vn 0.000000 -1.000000 0.000000
vn 0.000000 -1.000000 0.000000
vn 1.000000 -0.000005 -0.000002
vn 1.000000 -0.000005 -0.000002
vn 1.000000 -0.000005 -0.000002
vn 1.000000 -0.000005 -0.000002
vn -0.996465 0.000011 0.084014
vn -0.996465 0.000011 0.084014
vn -0.996465 0.000011 0.084014
vn -0.996465 0.000011 0.084014
vn -0.103893 -0.994588 -0.000568
vn -0.103893 -0.994588 -0.000568
vn -0.103893 -0.994588 -0.000568
vn 0.114811 -0.974896 0.190777
vn 0.114811 -0.974896 0.190777
vn 0.114811 -0.974896 0.190777
vn -0.107238 0.994233 -0.000595
vn -0.107238 0.994233 -0.000595
vn -0.107238 0.994233 -0.000595
vn 0.114818 0.974896 0.190774
vn 0.114818 0.974896 0.190774
vn 0.114818 0.974896 0.190774
vn -0.107237 0.994233 0.000594
vn -0.107237 0.994233 0.000594
vn -0.107237 0.994233 0.000594
vn 0.114834 0.974892 -0.190783
vn 0.114834 0.974892 -0.190783
vn 0.114834 0.974892 -0.190783
vn -0.103894 -0.994588 0.000554
vn -0.103894 -0.994588 0.000554
vn -0.103894 -0.994588 0.000554
vn 0.114816 -0.974894 -0.190784
vn 0.114816 -0.974894 -0.190784
vn 0.114816 -0.974894 -0.190784
vn 0.000000 1.000000 -0.000000
vn 0.000000 1.000000 -0.000000
vn 0.000000 1.000000 -0.000000
vn 0.000000 1.000000 -0.000000
vn 0.000000 1.000000 -0.000000
vn 0.000000 1.000000 -0.000000
vn 0.000000 1.000000 -0.000000
vn 0.000000 1.000000 -0.000000
vn 0.000000 1.000000 -0.000000
vn 0.000000 1.000000 -0.000000
vn 0.000000 1.000000 -0.000000
vn 0.000000 1.000000 -0.000000
vn 0.000000 1.000000 0.000000
vn 0.000000 1.000000 0.000000
vn 0.000000 1.000000 0.000000
vn 0.000000 1.000000 0.000000
vn 0.447074 0.497041 -0.743690
vn 0.447074 0.497041 -0.743690
vn 0.447074 0.497041 -0.743690
vn 0.447074 0.497041 -0.743690
vn -0.700961 0.713200 -0.000001
vn -0.700961 0.713200 -0.000001
vn -0.700961 0.713200 -0.000001
vn -0.700961 0.713200 -0.000001
vn 0.447075 0.497039 0.743691
vn 0.447075 0.497039 0.743691
vn 0.447075 0.497039 0.743691
vn 0.447075 0.497039 0.743691
vn 0.700961 0.713199 0.000006
vn 0.700961 0.713199 0.000006
vn 0.700961 0.713199 0.000006
vn 0.700961 0.713199 0.000006
vn 0.000000 1.000000 -0.000000
vn 0.000000 1.000000 -0.000000
vn 0.000000 1.000000 -0.000000
vn 0.000000 1.000000 -0.000000
vn 0.000000 1.000000 -0.000000
vn 0.000000 1.000000 -0.000000
vn 0.000000 1.000000 -0.000000
vn 0.000000 1.000000 -0.000000
vn 0.000000 1.000000 -0.000000
vn 0.000000 1.000000 -0.000000
vn 0.000000 1.000000 -0.000000
vn 0.000000 1.000000 -0.000000
vn 0.000000 1.000000 -0.000000
vn 0.000000 1.000000 -0.000000
vn 0.000000 1.000000 -0.000000
vn 0.000000 1.000000 -0.000000
vn -0.359243 0.716823 0.597587
vn -0.359243 0.716823 0.597587
vn -0.359243 0.716823 0.597587
vn -0.359243 0.716823 0.597587
vn 0.631557 0.775330 0.000001
vn 0.631557 0.775330 0.000001
vn 0.631557 0.775330 0.000001
vn 0.631557 0.775330 0.000001
vn -0.359244 0.716821 -0.597588
vn -0.359244 0.716821 -0.597588
vn -0.359244 0.716821 -0.597588
vn -0.359244 0.716821 -0.597588
vn -0.474996 0.879988 -0.000004
vn -0.474996 0.879988 -0.000004
vn -0.474996 0.879988 -0.000004
vn -0.474996 0.879988 -0.000004
s off
g C_TRIFLOOR TRI
usemtl initialShadingGroup
f 1/1/1 3/2/2 19/3/3 21/4/4
f 2/5/5 1/6/6 6/7/7 5/8/8
f 3/9/9 2/5/10 8/10/11 7/11/12
f 4/12/13 6/13/14 22/14/15 24/15/16
f 5/8/17 4/16/18 12/17/19 11/18/20
f 7/19/21 9/20/22 14/21/23 13/22/24
f 9/20/25 8/10/26 11/18/27 10/23/28
f 10/23/29 12/24/30 18/25/31 17/26/32
f 13/27/33 15/28/34 20/29/35 19/30/36
f 15/28/37 14/21/38 17/26/39 16/31/40
f 16/31/41 18/32/42 24/33/43 23/34/44
f 21/4/45 20/29/46 23/34/47 22/14/48
f 2/5/49 5/8/50 11/18/51 8/10/52
f 38/51/53 37/52/54 39/53/55 40/54/56
f 15/28/57 16/31/58 23/34/59 20/29/60
f 21/4/61 22/14/62 6/13/63 1/1/64
f 4/16/65 24/35/66 18/36/67 12/17/68
f 19/37/69 3/9/70 7/11/71 13/38/72
f 1/6/73 2/5/74 3/9/75
f 4/16/76 5/8/77 6/7/78
f 7/11/79 8/10/80 9/20/81
f 10/23/82 11/18/83 12/17/84
f 13/22/85 14/21/86 15/28/87
f 16/31/88 17/26/89 18/25/90
f 19/30/91 20/29/92 21/4/93
f 22/14/94 23/34/95 24/33/96
f 9/20/97 10/23/98 25/40/99 26/39/100
f 10/23/101 17/26/102 27/41/103 25/40/104
f 17/26/105 14/21/106 28/42/107 27/41/108
f 14/21/109 9/20/110 26/39/111 28/42/112
f 26/39/113 25/40/114 29/44/115 30/43/116
f 25/40/117 27/41/118 31/45/119 29/44/120
f 27/41/121 28/42/122 32/46/123 31/45/124
f 28/42/125 26/39/126 30/43/127 32/46/128
f 30/43/129 29/44/130 33/48/131 34/47/132
f 29/44/133 31/45/134 35/49/135 33/48/136
f 31/45/137 32/46/138 36/50/139 35/49/140
f 32/46/141 30/43/142 34/47/143 36/50/144
f 34/47/145 33/48/146 37/52/147 38/51/148
f 33/48/149 35/49/150 39/53/151 37/52/152
f 35/49/153 36/50/154 40/54/155 39/53/156
f 36/50/157 34/47/158 38/51/159 40/54/160
