# This file uses centimeters as units for non-parametric coordinates.

mtllib W_TRIFLOOR.mtl
g default
v -2.438194 -0.191816 0.100038
v -2.930886 -0.147960 0.109964
v -2.931134 -0.147960 -0.006281
v 1.561563 -0.147960 2.501159
v 1.365856 -0.147960 2.618937
v 1.365856 -0.191815 2.394831
v -2.931126 0.155502 -0.006276
v -2.930886 0.155502 0.109964
v -2.451442 0.199357 0.100038
v 1.365860 0.199357 2.394833
v 1.365865 0.155502 2.618938
v 1.561566 0.155502 2.501155
v -2.931135 0.155501 -0.006329
v -2.451441 0.199357 -0.112648
v -2.930885 0.155502 -0.122573
v 1.365856 0.155502 -2.631546
v 1.365865 0.199356 -2.407450
v 1.561554 0.155501 -2.513760
v -2.931134 -0.147961 -0.006329
v -2.930879 -0.147960 -0.122579
v -2.438194 -0.191816 -0.112648
v 1.365856 -0.191816 -2.407445
v 1.365856 -0.147960 -2.631546
v 1.561554 -0.147961 -2.513768
v -0.543029 -0.063803 0.410393
v -0.543060 -0.063803 -0.434121
v -0.543029 0.249038 0.410393
v -0.543060 0.249038 -0.434121
v -0.855511 0.249038 0.273759
v -0.856528 0.249038 -0.296053
v -0.855511 -0.063803 0.273759
v -0.856528 -0.063803 -0.296053
v -0.085845 -0.063803 0.656008
v -0.086234 -0.063803 -0.686809
v -0.085845 0.249038 0.656008
v -0.086234 0.249038 -0.686809
v -0.379166 0.249038 0.504155
v -0.380178 0.249038 -0.532202
v -0.379166 -0.063803 0.504155
v -0.380178 -0.063803 -0.532202
v 0.364627 -0.063803 0.843312
v 0.365643 -0.063803 -0.875241
v 0.364627 0.249038 0.843312
v 0.365643 0.249038 -0.875241
v 0.059459 0.249038 0.684442
v 0.059709 0.249038 -0.713898
v 0.059459 -0.063803 0.684442
v 0.059709 -0.063803 -0.713898
v 1.194932 -0.115745 -1.589242
v 1.194932 -0.115745 -2.072341
v 1.194932 0.238018 -1.589242
v 1.194932 0.238018 -2.072341
v -1.673177 0.238018 0.003723
v -2.077519 0.238018 -0.213676
v -1.673177 -0.115744 0.003723
v -2.077519 -0.115744 -0.213676
v 1.194932 -0.115745 2.027803
v 1.194932 -0.115745 1.544705
v 1.194932 0.238018 2.027803
v 1.194932 0.238018 1.544705
v -2.077517 0.238018 0.260404
v -2.077519 0.238018 -0.213641
v -2.077517 -0.115745 0.260404
v -2.077519 -0.115745 -0.213641
v 1.194932 -0.115745 -1.589242
v 0.774854 -0.115745 -1.357900
v 1.194932 0.238018 -1.589242
v 0.774854 0.238018 -1.357900
v 1.194932 0.238018 1.544705
v 0.774854 0.238018 1.318346
v 1.194932 -0.115745 1.544705
v 0.774854 -0.115745 1.318346
vt 0.337082 0.994689
vt 0.330000 0.994689
vt 0.330000 0.755311
vt 0.337082 0.755311
vt 0.337082 0.062494
vt 0.337082 0.000000
vt 0.656251 0.000000
vt 0.656251 0.062494
vt 0.322989 0.062494
vt 0.337082 0.187507
vt 0.322989 0.187507
vt 0.663333 0.994689
vt 0.656251 0.994689
vt 0.656251 0.755311
vt 0.663333 0.755311
vt 0.670486 0.062494
vt 0.670486 0.187506
vt 0.656252 0.187506
vt 0.330000 0.255311
vt 0.337082 0.255311
vt 0.337082 0.494689
vt 0.330000 0.494689
vt 0.656252 0.255311
vt 0.663333 0.255312
vt 0.663333 0.494689
vt 0.656252 0.494689
vt 0.330000 0.562494
vt 0.337082 0.562494
vt 0.337082 0.687506
vt 0.330000 0.687507
vt 0.656251 0.562494
vt 0.663333 0.562494
vt 0.663333 0.687507
vt 0.656251 0.687506
vt 0.992847 0.062493
vt 0.992847 0.187506
vt 0.007011 0.062493
vt 0.007011 0.187506
vt 0.375000 0.000000
vt 0.625000 0.000000
vt 0.625000 0.250000
vt 0.375000 0.250000
vt 0.625000 0.500000
vt 0.375000 0.500000
vt 0.625000 0.750000
vt 0.375000 0.750000
vt 0.625000 1.000000
vt 0.375000 1.000000
vt 0.875000 0.000000
vt 0.875000 0.250000
vt 0.125000 0.000000
vt 0.125000 0.250000
vt 0.375000 0.000000
vt 0.625000 0.000000
vt 0.625000 0.250000
vt 0.375000 0.250000
vt 0.625000 0.500000
vt 0.375000 0.500000
vt 0.625000 0.750000
vt 0.375000 0.750000
vt 0.625000 1.000000
vt 0.375000 1.000000
vt 0.875000 0.000000
vt 0.875000 0.250000
vt 0.125000 0.000000
vt 0.125000 0.250000
vt 0.375000 0.000000
vt 0.625000 0.000000
vt 0.625000 0.250000
vt 0.375000 0.250000
vt 0.625000 0.500000
vt 0.375000 0.500000
vt 0.625000 0.750000
vt 0.375000 0.750000
vt 0.625000 1.000000
vt 0.375000 1.000000
vt 0.875000 0.000000
vt 0.875000 0.250000
vt 0.125000 0.000000
vt 0.125000 0.250000
vt 0.375000 0.000000
vt 0.625000 0.000000
vt 0.625000 0.250000
vt 0.375000 0.250000
vt 0.625000 0.500000
vt 0.375000 0.500000
vt 0.625000 0.750000
vt 0.375000 0.750000
vt 0.625000 1.000000
vt 0.375000 1.000000
vt 0.875000 0.000000
vt 0.875000 0.250000
vt 0.125000 0.000000
vt 0.125000 0.250000
vt 0.375000 0.000000
vt 0.625000 0.000000
vt 0.625000 0.250000
vt 0.375000 0.250000
vt 0.625000 0.500000
vt 0.375000 0.500000
vt 0.625000 0.750000
vt 0.375000 0.750000
vt 0.625000 1.000000
vt 0.375000 1.000000
vt 0.875000 0.000000
vt 0.875000 0.250000
vt 0.125000 0.000000
vt 0.125000 0.250000
vt 0.375000 0.000000
vt 0.625000 0.000000
vt 0.625000 0.250000
vt 0.375000 0.250000
vt 0.625000 0.500000
vt 0.375000 0.500000
vt 0.625000 0.750000
vt 0.375000 0.750000
vt 0.625000 1.000000
vt 0.375000 1.000000
vt 0.875000 0.000000
vt 0.875000 0.250000
vt 0.125000 0.000000
vt 0.125000 0.250000
vn -0.088617 -0.996066 0.000004
vn -0.088617 -0.996066 0.000004
vn -0.088617 -0.996066 0.000004
vn -0.088617 -0.996066 0.000004
vn -0.097041 -0.981735 0.163644
vn -0.097041 -0.981735 0.163644
vn -0.097041 -0.981735 0.163644
vn -0.097041 -0.981735 0.163644
vn -0.999998 0.000015 0.002098
vn -0.999998 0.000015 0.002098
vn -0.999998 0.000015 0.002098
vn -0.999998 0.000015 0.002098
vn 0.218667 -0.975800 0.000000
vn 0.218667 -0.975800 0.000000
vn 0.218667 -0.975800 0.000000
vn 0.218667 -0.975800 0.000000
vn 0.515648 -0.000006 0.856800
vn 0.515648 -0.000006 0.856800
vn 0.515648 -0.000006 0.856800
vn 0.515648 -0.000006 0.856800
vn -0.091045 0.995847 -0.000001
vn -0.091045 0.995847 -0.000001
vn -0.091045 0.995847 -0.000001
vn -0.091045 0.995847 -0.000001
vn -0.098382 0.981176 0.166178
vn -0.098382 0.981176 0.166178
vn -0.098382 0.981176 0.166178
vn -0.098382 0.981176 0.166178
vn 0.218672 0.975798 -0.000000
vn 0.218672 0.975798 -0.000000
vn 0.218672 0.975798 -0.000000
vn 0.218672 0.975798 -0.000000
vn -0.999998 -0.000013 -0.002172
vn -0.999998 -0.000013 -0.002172
vn -0.999998 -0.000013 -0.002172
vn -0.999998 -0.000013 -0.002172
vn -0.098381 0.981176 -0.166176
vn -0.098381 0.981176 -0.166176
vn -0.098381 0.981176 -0.166176
vn -0.098381 0.981176 -0.166176
vn 0.515666 0.000012 -0.856789
vn 0.515666 0.000012 -0.856790
vn 0.515666 0.000012 -0.856789
vn 0.515666 0.000012 -0.856790
vn -0.097043 -0.981735 -0.163647
vn -0.097043 -0.981734 -0.163647
vn -0.097043 -0.981734 -0.163647
vn -0.097043 -0.981735 -0.163647
vn -0.504252 0.000005 0.863557
vn -0.504252 0.000005 0.863557
vn -0.504252 0.000005 0.863557
vn -0.504252 0.000005 0.863557
vn 0.000000 1.000000 -0.000000
vn 0.000000 1.000000 -0.000000
vn 0.000000 1.000000 -0.000000
vn 0.000000 1.000000 -0.000000
vn -0.504252 0.000003 -0.863557
vn -0.504252 0.000003 -0.863557
vn -0.504252 0.000003 -0.863557
vn -0.504252 0.000003 -0.863557
vn 0.000000 -1.000000 0.000000
vn 0.000000 -1.000000 0.000000
vn 0.000000 -1.000000 0.000000
vn 0.000000 -1.000000 0.000000
vn 1.000000 -0.000005 -0.000002
vn 1.000000 -0.000005 -0.000002
vn 1.000000 -0.000005 -0.000002
vn 1.000000 -0.000005 -0.000002
vn -0.996465 0.000011 0.084014
vn -0.996465 0.000011 0.084014
vn -0.996465 0.000011 0.084014
vn -0.996465 0.000011 0.084014
vn -0.088659 -0.996062 0.000189
vn -0.088659 -0.996062 0.000189
vn -0.088659 -0.996062 0.000189
vn 0.114811 -0.974896 0.190777
vn 0.114811 -0.974896 0.190777
vn 0.114811 -0.974896 0.190777
vn -0.091086 0.995843 0.000188
vn -0.091087 0.995843 0.000188
vn -0.091086 0.995843 0.000188
vn 0.114818 0.974896 0.190774
vn 0.114818 0.974896 0.190774
vn 0.114818 0.974896 0.190774
vn -0.091086 0.995843 -0.000187
vn -0.091086 0.995843 -0.000187
vn -0.091086 0.995843 -0.000187
vn 0.114834 0.974892 -0.190783
vn 0.114834 0.974892 -0.190783
vn 0.114834 0.974892 -0.190783
vn -0.088660 -0.996062 -0.000203
vn -0.088660 -0.996062 -0.000203
vn -0.088660 -0.996062 -0.000203
vn 0.114816 -0.974894 -0.190784
vn 0.114816 -0.974894 -0.190784
vn 0.114816 -0.974894 -0.190784
vn 1.000000 0.000000 -0.000036
vn 1.000000 0.000000 -0.000036
vn 1.000000 0.000000 -0.000036
vn 1.000000 0.000000 -0.000036
vn 0.000000 1.000000 0.000000
vn 0.000000 1.000000 0.000000
vn 0.000000 1.000000 0.000000
vn 0.000000 1.000000 0.000000
vn -0.999999 0.000000 0.001783
vn -0.999999 0.000000 0.001783
vn -0.999999 0.000000 0.001783
vn -0.999999 0.000000 0.001783
vn 0.000000 -1.000000 -0.000000
vn 0.000000 -1.000000 -0.000000
vn 0.000000 -1.000000 -0.000000
vn 0.000000 -1.000000 -0.000000
vn -0.403087 0.000000 -0.915162
vn -0.403087 0.000000 -0.915162
vn -0.403087 0.000000 -0.915162
vn -0.403087 0.000000 -0.915162
vn -0.400631 0.000000 0.916240
vn -0.400631 0.000000 0.916240
vn -0.400631 0.000000 0.916240
vn -0.400631 0.000000 0.916240
vn 1.000000 0.000000 -0.000289
vn 1.000000 0.000000 -0.000289
vn 1.000000 0.000000 -0.000289
vn 1.000000 0.000000 -0.000289
vn 0.000000 1.000000 0.000000
vn 0.000000 1.000000 0.000000
vn 0.000000 1.000000 0.000000
vn 0.000000 1.000000 0.000000
vn -1.000000 0.000000 0.000976
vn -1.000000 0.000000 0.000976
vn -1.000000 0.000000 0.000976
vn -1.000000 0.000000 0.000976
vn 0.000000 -1.000000 0.000000
vn 0.000000 -1.000000 0.000000
vn 0.000000 -1.000000 0.000000
vn 0.000000 -1.000000 0.000000
vn -0.465510 0.000000 -0.885043
vn -0.465510 0.000000 -0.885043
vn -0.465510 0.000000 -0.885043
vn -0.465510 0.000000 -0.885043
vn -0.459745 0.000000 0.888051
vn -0.459745 0.000000 0.888051
vn -0.459745 0.000000 0.888051
vn -0.459745 0.000000 0.888051
vn 1.000000 0.000000 0.000591
vn 1.000000 0.000000 0.000591
vn 1.000000 0.000000 0.000591
vn 1.000000 0.000000 0.000591
vn 0.000000 1.000000 -0.000000
vn 0.000000 1.000000 -0.000000
vn 0.000000 1.000000 -0.000000
vn 0.000000 1.000000 -0.000000
vn -1.000000 0.000000 -0.000179
vn -1.000000 0.000000 -0.000179
vn -1.000000 0.000000 -0.000179
vn -1.000000 0.000000 -0.000179
vn 0.000000 -1.000000 0.000000
vn 0.000000 -1.000000 0.000000
vn 0.000000 -1.000000 0.000000
vn 0.000000 -1.000000 0.000000
vn -0.466483 0.000000 -0.884530
vn -0.466483 0.000000 -0.884530
vn -0.466483 0.000000 -0.884530
vn -0.466483 0.000000 -0.884530
vn -0.461772 0.000000 0.886999
vn -0.461772 0.000000 0.886999
vn -0.461772 0.000000 0.886999
vn -0.461772 0.000000 0.886999
vn 1.000000 0.000000 -0.000000
vn 1.000000 0.000000 -0.000000
vn 1.000000 0.000000 -0.000000
vn 1.000000 0.000000 -0.000000
vn 0.000000 1.000000 0.000000
vn 0.000000 1.000000 0.000000
vn 0.000000 1.000000 0.000000
vn 0.000000 1.000000 0.000000
vn -0.473553 0.000000 0.880765
vn -0.473553 0.000000 0.880765
vn -0.473553 0.000000 0.880765
vn -0.473553 0.000000 0.880765
vn -0.000000 -1.000000 0.000000
vn -0.000000 -1.000000 0.000000
vn -0.000000 -1.000000 0.000000
vn -0.000000 -1.000000 0.000000
vn -0.493872 0.000000 -0.869534
vn -0.493872 0.000000 -0.869534
vn -0.493872 0.000000 -0.869534
vn -0.493872 0.000000 -0.869534
vn 0.485543 0.000000 0.874213
vn 0.485543 0.000000 0.874213
vn 0.485543 0.000000 0.874213
vn 0.485543 0.000000 0.874213
vn 1.000000 0.000000 0.000000
vn 1.000000 0.000000 0.000000
vn 1.000000 0.000000 0.000000
vn 1.000000 0.000000 0.000000
vn 0.000000 1.000000 -0.000000
vn 0.000000 1.000000 -0.000000
vn 0.000000 1.000000 -0.000000
vn 0.000000 1.000000 -0.000000
vn -1.000000 0.000000 0.000004
vn -1.000000 0.000000 0.000004
vn -1.000000 0.000000 0.000004
vn -1.000000 0.000000 0.000004
vn 0.000000 -1.000000 0.000000
vn 0.000000 -1.000000 0.000000
vn 0.000000 -1.000000 0.000000
vn 0.000000 -1.000000 0.000000
vn 0.473318 0.000000 -0.880892
vn 0.473318 0.000000 -0.880892
vn 0.473318 0.000000 -0.880892
vn 0.473318 0.000000 -0.880892
vn -0.475207 0.000000 0.879874
vn -0.475207 0.000000 0.879874
vn -0.475207 0.000000 0.879874
vn -0.475207 0.000000 0.879874
vn -0.482398 0.000000 -0.875952
vn -0.482398 0.000000 -0.875952
vn -0.482398 0.000000 -0.875952
vn -0.482398 0.000000 -0.875952
vn 0.000000 1.000000 -0.000000
vn 0.000000 1.000000 -0.000000
vn 0.000000 1.000000 -0.000000
vn 0.000000 1.000000 -0.000000
vn -0.474364 0.000000 0.880329
vn -0.474364 0.000000 0.880329
vn -0.474364 0.000000 0.880329
vn -0.474364 0.000000 0.880329
vn 0.000000 -1.000000 0.000000
vn 0.000000 -1.000000 0.000000
vn 0.000000 -1.000000 0.000000
vn 0.000000 -1.000000 0.000000
vn -1.000000 0.000000 -0.000000
vn -1.000000 0.000000 -0.000000
vn -1.000000 0.000000 -0.000000
vn -1.000000 0.000000 -0.000000
vn 1.000000 0.000000 0.000000
vn 1.000000 0.000000 0.000000
vn 1.000000 0.000000 0.000000
vn 1.000000 0.000000 0.000000
s off
g W_TRIFLOOR TRI
usemtl initialShadingGroup
f 1/1/1 3/2/2 19/3/3 21/4/4
f 2/5/5 1/6/6 6/7/7 5/8/8
f 3/9/9 2/5/10 8/10/11 7/11/12
f 4/12/13 6/13/14 22/14/15 24/15/16
f 5/8/17 4/16/18 12/17/19 11/18/20
f 7/19/21 9/20/22 14/21/23 13/22/24
f 9/20/25 8/10/26 11/18/27 10/23/28
f 10/23/29 12/24/30 18/25/31 17/26/32
f 13/27/33 15/28/34 20/29/35 19/30/36
f 15/28/37 14/21/38 17/26/39 16/31/40
f 16/31/41 18/32/42 24/33/43 23/34/44
f 21/4/45 20/29/46 23/34/47 22/14/48
f 2/5/49 5/8/50 11/18/51 8/10/52
f 9/20/53 10/23/54 17/26/55 14/21/56
f 15/28/57 16/31/58 23/34/59 20/29/60
f 21/4/61 22/14/62 6/13/63 1/1/64
f 4/16/65 24/35/66 18/36/67 12/17/68
f 19/37/69 3/9/70 7/11/71 13/38/72
f 1/6/73 2/5/74 3/9/75
f 4/16/76 5/8/77 6/7/78
f 7/11/79 8/10/80 9/20/81
f 10/23/82 11/18/83 12/17/84
f 13/22/85 14/21/86 15/28/87
f 16/31/88 17/26/89 18/25/90
f 19/30/91 20/29/92 21/4/93
f 22/14/94 23/34/95 24/33/96
f 25/39/97 26/40/98 28/41/99 27/42/100
f 27/42/101 28/41/102 30/43/103 29/44/104
f 29/44/105 30/43/106 32/45/107 31/46/108
f 31/46/109 32/45/110 26/47/111 25/48/112
f 26/40/113 32/49/114 30/50/115 28/41/116
f 31/51/117 25/39/118 27/42/119 29/52/120
f 33/53/121 34/54/122 36/55/123 35/56/124
f 35/56/125 36/55/126 38/57/127 37/58/128
f 37/58/129 38/57/130 40/59/131 39/60/132
f 39/60/133 40/59/134 34/61/135 33/62/136
f 34/54/137 40/63/138 38/64/139 36/55/140
f 39/65/141 33/53/142 35/56/143 37/66/144
f 41/67/145 42/68/146 44/69/147 43/70/148
f 43/70/149 44/69/150 46/71/151 45/72/152
f 45/72/153 46/71/154 48/73/155 47/74/156
f 47/74/157 48/73/158 42/75/159 41/76/160
f 42/68/161 48/77/162 46/78/163 44/69/164
f 47/79/165 41/67/166 43/70/167 45/80/168
f 49/81/169 50/82/170 52/83/171 51/84/172
f 51/84/173 52/83/174 54/85/175 53/86/176
f 53/86/177 54/85/178 56/87/179 55/88/180
f 55/88/181 56/87/182 50/89/183 49/90/184
f 50/82/185 56/91/186 54/92/187 52/83/188
f 55/93/189 49/81/190 51/84/191 53/94/192
f 57/95/193 58/96/194 60/97/195 59/98/196
f 59/98/197 60/97/198 62/99/199 61/100/200
f 61/100/201 62/99/202 64/101/203 63/102/204
f 63/102/205 64/101/206 58/103/207 57/104/208
f 58/96/209 64/105/210 62/106/211 60/97/212
f 63/107/213 57/95/214 59/98/215 61/108/216
f 65/109/217 66/110/218 68/111/219 67/112/220
f 67/112/221 68/111/222 70/113/223 69/114/224
f 69/114/225 70/113/226 72/115/227 71/116/228
f 71/116/229 72/115/230 66/117/231 65/118/232
f 66/110/233 72/119/234 70/120/235 68/111/236
f 71/121/237 65/109/238 67/112/239 69/122/240
