# Blender v3.3.1 OBJ File: ''
# www.blender.org
o FabricLOD3
v 0.482178 4.242187 -1.471681
v 0.488037 4.230468 -1.493165
v 0.314697 4.167968 -1.499024
v 0.316406 4.152343 -1.519532
v 0.604004 3.666015 -1.526368
v 0.182129 4.183593 -1.526368
v 0.042725 4.253906 -1.577149
v 0.050110 4.269531 -1.559571
v 0.179077 4.167968 -1.547852
v -0.106934 3.681640 -1.557618
v 0.124084 3.642578 -1.548829
v 0.354492 3.626953 -1.539063
v 0.091736 3.169922 -1.567383
v -0.203735 3.193359 -1.562501
v 0.387939 3.160156 -1.569337
v 0.697266 3.183594 -1.562501
v 0.084167 2.697265 -1.689454
v -0.254883 2.707031 -1.679688
v -0.260986 2.166015 -1.959961
v 0.423584 2.693359 -1.694336
v 0.772949 2.705078 -1.688477
v 0.095337 2.162109 -1.964844
v -0.250000 1.682617 -2.000000
v 0.451660 2.162109 -1.967774
v 0.813965 2.166015 -1.963868
v 0.108704 1.690429 -2.000000
v -0.229736 1.258789 -1.985352
v 0.125854 1.278320 -1.985352
v 0.467529 1.693359 -2.000000
v 0.481445 1.285156 -1.985352
v 0.828613 1.684570 -2.000000
v 0.835449 1.261718 -1.985352
v 1.528320 4.410156 -0.245484
v 1.535156 4.468750 -0.086121
v 1.566406 4.480469 -0.079713
v 1.501953 4.394531 -0.247804
v 1.102539 4.082031 -0.162598
v 1.497070 4.425781 -0.379640
v 1.472656 4.500000 -0.514649
v 1.453125 4.484375 -0.508302
v 1.476562 4.406250 -0.377686
v 1.217773 4.062500 -0.568848
v 1.164062 4.031250 -0.300538
v 0.688965 3.873047 -0.361817
v 1.202148 4.027344 -0.436036
v 0.923828 3.900390 -0.732911
v 0.781738 3.818359 -0.485352
v 0.339600 3.806640 -0.667969
v 0.857910 3.833984 -0.610352
v 0.677734 3.861328 -0.951173
v 0.445557 3.759765 -0.779298
v 0.103760 3.912109 -1.126954
v 0.554688 3.787109 -0.877930
v 0.504883 3.939453 -1.234376
v 0.227173 3.863281 -1.180665
v 0.361328 3.871094 -1.220704
v 0.311768 4.156250 -1.465821
v 0.473877 4.226562 -1.442384
v 0.183716 4.171875 -1.489259
v 0.055237 4.250000 -1.524415
v 0.314697 4.167968 -1.499024
v 0.482178 4.242187 -1.471681
v 0.182129 4.183593 -1.526368
v 0.050110 4.269531 -1.559571
v 1.497070 4.425781 -0.379640
v 1.491211 4.464844 -0.524903
v 1.472656 4.500000 -0.514649
v 1.514648 4.378906 -0.383790
v 1.528320 4.410156 -0.245484
v 1.450195 3.921875 -0.678712
v 1.566406 4.480469 -0.079713
v 1.585938 4.437500 -0.070496
v 1.546875 4.363281 -0.242555
v 1.579102 3.914062 -0.011254
v 1.536133 3.863281 -0.249635
v 1.561523 3.406250 0.054656
v 1.494141 3.880859 -0.466553
v 1.517578 3.373047 -0.251221
v 1.457031 3.373047 -0.546387
v 1.384766 3.388672 -0.838380
v 1.488281 2.876953 -0.859376
v 1.529297 2.886719 -0.502930
v 1.832031 2.394531 -0.678711
v 1.555664 2.906250 -0.150757
v 1.561523 2.941406 0.200683
v 1.832031 2.423828 -0.310303
v 1.992188 1.956055 -0.477295
v 1.825195 2.458984 0.051361
v 1.815430 2.498047 0.409423
v 1.987305 2.005859 -0.124573
v 1.979492 1.561523 -0.356446
v 1.979492 1.625977 -0.015084
v 1.983398 2.052734 0.226928
v 1.979492 1.678711 0.327392
v 1.980469 2.085938 0.578125
v 1.979492 1.701172 0.672363
v -0.288818 3.261719 1.321288
v -0.095032 3.451172 1.283202
v -0.292236 3.470703 1.283202
v -0.092957 3.238281 1.325195
v -0.286621 3.062500 1.382812
v 0.097717 3.451172 1.283202
v 0.291260 3.468750 1.283202
v 0.290527 3.265625 1.326171
v 0.098389 3.242188 1.325195
v 0.288818 3.070313 1.391601
v 0.098022 3.041016 1.392578
v 0.283691 2.867188 1.508788
v -0.092041 3.035156 1.386718
v -0.285645 2.861328 1.501953
v 0.094543 2.841797 1.508788
v 0.276123 2.509766 1.725585
v -0.093323 2.835938 1.504882
v -0.287354 2.503906 1.725585
v 0.088623 2.490235 1.725585
v 0.273193 2.154297 1.946289
v -0.097473 2.484375 1.726562
v -0.289062 2.148438 1.946289
v 0.086243 2.140625 1.946289
v 0.270752 2.058594 1.972656
v -0.099915 2.136719 1.946289
v -0.291504 2.052735 1.972656
v 0.083618 2.048829 1.972656
v 0.268555 1.533203 1.972656
v -0.102600 2.046875 1.972656
v -0.108582 1.539063 1.972656
v -0.298828 1.531250 1.972656
v 0.079407 1.537110 1.972656
v -0.115601 1.181641 1.972656
v -0.309082 1.160157 1.972656
v 0.076111 1.175782 1.972656
v 0.269287 1.159180 1.972656
v -0.123352 0.705567 1.972656
v -0.320312 0.673828 1.972656
v 0.072937 0.696289 1.972656
v 0.270508 0.669922 1.972656
v -1.321289 3.261719 -0.288819
v -1.283203 3.451172 -0.095032
v -1.283203 3.470703 -0.292237
v -1.325195 3.238281 -0.092957
v -1.382812 3.062500 -0.286622
v -1.283203 3.451172 0.097717
v -1.283203 3.468750 0.291259
v -1.326172 3.265625 0.290527
v -1.325195 3.242188 0.098388
v -1.391602 3.070312 0.288818
v -1.392578 3.041016 0.098022
v -1.508789 2.867188 0.283691
v -1.386719 3.035156 -0.092042
v -1.501953 2.861328 -0.285645
v -1.508789 2.841797 0.094543
v -1.725586 2.509766 0.276123
v -1.504883 2.835938 -0.093323
v -1.725586 2.503906 -0.287354
v -1.725586 2.490234 0.088623
v -1.946289 2.154297 0.273193
v -1.726562 2.484375 -0.097474
v -1.946289 2.148438 -0.289063
v -1.946289 2.140625 0.086242
v -1.972656 2.058594 0.270752
v -1.946289 2.136719 -0.099915
v -1.972656 2.052734 -0.291504
v -1.972656 2.048828 0.083618
v -1.972656 1.533203 0.268554
v -1.972656 2.046875 -0.102600
v -1.972656 1.539062 -0.108582
v -1.972656 1.531250 -0.298828
v -1.972656 1.537109 0.079406
v -1.972656 1.181641 -0.115601
v -1.972656 1.160156 -0.309082
v -1.972656 1.175781 0.076111
v -1.972656 1.159180 0.269287
v -1.972656 0.705566 -0.123352
v -1.972656 0.673828 -0.320313
v -1.972656 0.696289 0.072937
v -1.972656 0.669922 0.270508
vt 0.988770 0.250977
vt 0.988770 0.250977
vt 0.988770 0.164062
vt 0.989746 0.164062
vt 0.854492 0.250977
vt 0.988770 0.082520
vt 0.989746 0.000000
vt 0.988770 0.000000
vt 0.989746 0.082520
vt 0.846680 0.000000
vt 0.850098 0.082520
vt 0.853027 0.164062
vt 0.667969 0.082520
vt 0.663574 0.000000
vt 0.666992 0.164062
vt 0.660645 0.250977
vt 0.490234 0.082520
vt 0.481689 0.000000
vt 0.315186 0.000000
vt 0.489014 0.164062
vt 0.478271 0.250977
vt 0.325928 0.082520
vt 0.155273 0.000000
vt 0.324951 0.164551
vt 0.312256 0.250977
vt 0.169800 0.082520
vt 0.000816 0.000000
vt 0.000816 0.082520
vt 0.169434 0.164062
vt 0.000816 0.164551
vt 0.154053 0.250977
vt 0.000816 0.250977
vt 0.009941 0.166992
vt 0.013542 0.250977
vt 0.009941 0.250977
vt 0.013542 0.166992
vt 0.247925 0.250977
vt 0.009941 0.083496
vt 0.009941 0.000000
vt 0.013542 0.000000
vt 0.013542 0.083496
vt 0.247925 0.000000
vt 0.247925 0.166992
vt 0.437500 0.250977
vt 0.247925 0.083496
vt 0.437500 0.000000
vt 0.437500 0.166992
vt 0.606934 0.250977
vt 0.437500 0.083496
vt 0.606934 0.000000
vt 0.606934 0.166992
vt 0.786621 0.250977
vt 0.606934 0.083496
vt 0.786621 0.000000
vt 0.786621 0.166992
vt 0.786621 0.083496
vt 0.984375 0.083496
vt 0.984375 0.000000
vt 0.984375 0.166992
vt 0.984375 0.250977
vt 0.989746 0.083496
vt 0.989746 0.000000
vt 0.989746 0.166992
vt 0.989746 0.250977
vt 0.988770 0.082520
vt 0.984863 0.000000
vt 0.988770 0.000000
vt 0.985352 0.082520
vt 0.988770 0.164062
vt 0.844727 0.000000
vt 0.988770 0.250488
vt 0.982910 0.250488
vt 0.984863 0.164062
vt 0.853027 0.250488
vt 0.851562 0.164062
vt 0.660645 0.250488
vt 0.848633 0.082520
vt 0.666992 0.164062
vt 0.667969 0.082520
vt 0.663574 0.000000
vt 0.481689 0.000000
vt 0.490234 0.082520
vt 0.314453 0.000000
vt 0.489014 0.164062
vt 0.478271 0.250488
vt 0.326660 0.082520
vt 0.155273 0.000000
vt 0.325684 0.164062
vt 0.311523 0.250488
vt 0.169800 0.082520
vt 0.000816 0.000000
vt 0.000816 0.082031
vt 0.169434 0.164062
vt 0.000816 0.164062
vt 0.154053 0.250488
vt 0.000816 0.250488
vt 0.963379 0.375488
vt 1.000000 0.334961
vt 1.000000 0.375977
vt 0.960938 0.332031
vt 0.922852 0.375488
vt 1.000000 0.288574
vt 1.000000 0.248047
vt 0.963379 0.250000
vt 0.961426 0.291504
vt 0.924805 0.249512
vt 0.920898 0.291016
vt 0.887695 0.249512
vt 0.919434 0.332031
vt 0.886719 0.375488
vt 0.883789 0.291016
vt 0.819824 0.250000
vt 0.882812 0.332031
vt 0.817871 0.375488
vt 0.815918 0.291504
vt 0.755859 0.250000
vt 0.814453 0.332031
vt 0.753906 0.375000
vt 0.752930 0.291016
vt 0.741699 0.250000
vt 0.751953 0.332031
vt 0.739746 0.375977
vt 0.739746 0.291504
vt 0.649902 0.250000
vt 0.739258 0.333008
vt 0.649902 0.332520
vt 0.648438 0.375488
vt 0.649902 0.291504
vt 0.587402 0.333008
vt 0.583984 0.375977
vt 0.586914 0.291504
vt 0.584961 0.250000
vt 0.500977 0.332031
vt 0.500977 0.375488
vt 0.500977 0.291016
vt 0.500977 0.250000
vt 0.963379 0.501465
vt 1.000000 0.460938
vt 1.000000 0.501709
vt 0.960938 0.458008
vt 0.922852 0.501221
vt 1.000000 0.414551
vt 1.000000 0.374023
vt 0.963379 0.375977
vt 0.961426 0.417480
vt 0.924805 0.375488
vt 0.920898 0.416992
vt 0.887695 0.375488
vt 0.919434 0.458008
vt 0.886719 0.501221
vt 0.883789 0.416992
vt 0.819824 0.375977
vt 0.882812 0.458008
vt 0.817871 0.501465
vt 0.815918 0.417480
vt 0.755859 0.375977
vt 0.814453 0.458008
vt 0.753906 0.500977
vt 0.752930 0.416992
vt 0.741699 0.375977
vt 0.751953 0.458008
vt 0.739746 0.501709
vt 0.739746 0.417480
vt 0.649902 0.375977
vt 0.739258 0.458984
vt 0.649902 0.458496
vt 0.648438 0.501465
vt 0.649902 0.417480
vt 0.587402 0.458984
vt 0.583984 0.501953
vt 0.586914 0.417480
vt 0.584961 0.375977
vt 0.500977 0.458008
vt 0.500977 0.501221
vt 0.500977 0.416992
vt 0.500977 0.375977
vn -0.2748 0.8106 -0.5171
vn -0.2535 0.7592 -0.5995
vn 0.1148 0.0818 -0.9900
vn 0.2124 0.7857 -0.5809
vn 0.5121 0.5238 -0.6807
vn 0.5272 0.6498 -0.5475
vn 0.2109 0.7761 -0.5944
vn 0.1633 -0.0763 -0.9836
vn 0.1999 -0.0191 -0.9796
vn 0.0377 -0.0021 -0.9993
vn 0.0450 0.0404 -0.9982
vn 0.0445 0.0403 -0.9982
vn 0.0441 0.0362 -0.9984
vn 0.0448 0.0361 -0.9983
vn -0.0155 0.0131 -0.9998
vn 0.0402 0.0675 -0.9969
vn -0.0045 0.0644 -0.9979
vn 0.0161 0.0778 -0.9968
vn 0.0038 0.2500 -0.9682
vn 0.0019 0.2500 -0.9682
vn -0.0212 0.2363 -0.9714
vn -0.0123 0.4601 -0.8878
vn 0.0017 0.2588 -0.9659
vn -0.0109 0.2579 -0.9661
vn 0.0076 0.2557 -0.9667
vn -0.0072 0.4574 -0.8892
vn -0.0075 0.4574 -0.8892
vn -0.0128 0.0823 -0.9965
vn -0.0004 0.4576 -0.8891
vn -0.0073 0.4573 -0.8893
vn 0.0047 0.4552 -0.8904
vn -0.0016 0.0743 -0.9972
vn -0.0082 0.0741 -0.9972
vn 0.0008 -0.0345 -0.9994
vn 0.0019 -0.0354 -0.9994
vn -0.0006 0.0686 -0.9976
vn 0.0003 -0.0355 -0.9994
vn 0.0100 0.0689 -0.9976
vn 0.0007 -0.0358 -0.9994
vn 0.0018 0.0749 -0.9972
vn -0.0009 -0.0359 -0.9994
vn -0.0023 -0.0347 -0.9994
vn -0.2740 0.9064 -0.3215
vn -0.4696 0.8350 -0.2869
vn -0.6298 0.7468 -0.2135
vn -0.5118 0.8315 0.2161
vn -0.4405 0.7507 0.4923
vn -0.5747 0.6528 0.4936
vn -0.6666 0.7194 0.1952
vn -0.8266 0.4051 0.3906
vn -0.5978 0.6283 -0.4979
vn -0.7316 0.6512 0.2018
vn -0.2357 0.8732 -0.4266
vn -0.8128 0.5797 0.0578
vn -0.7701 0.5937 -0.2336
vn -0.5420 0.8260 0.1549
vn -0.2080 0.8270 -0.5223
vn -0.4266 0.8926 -0.1457
vn 0.1118 0.9370 -0.3308
vn -0.5425 0.8255 0.1555
vn -0.4262 0.8924 -0.1482
vn -0.3821 0.8829 0.2729
vn 0.1003 0.9475 -0.3035
vn -0.1819 0.9832 0.0121
vn 0.4059 0.9139 0.0015
vn -0.3748 0.8871 0.2693
vn -0.1977 0.9788 0.0526
vn -0.2795 0.8681 0.4101
vn 0.3797 0.9246 0.0319
vn -0.0113 0.9667 0.2555
vn -0.3604 0.8385 0.4087
vn 0.0124 0.9728 0.2314
vn -0.2200 0.6136 0.7583
vn 0.1796 0.6590 0.7304
vn -0.3411 0.5271 0.7783
vn 0.5049 0.6449 0.5738
vn -0.0440 0.7033 0.7095
vn 0.2899 0.7464 0.5991
vn -0.4157 0.8685 0.2699
vn 0.0531 0.9402 0.3365
vn -0.4270 0.8425 0.3284
vn 0.0507 0.9530 0.2988
vn 0.4519 0.8560 0.2510
vn 0.4318 0.8137 0.3891
vn 0.8912 0.4459 0.0839
vn 0.9365 0.3463 0.0553
vn 0.9173 0.3592 -0.1718
vn 0.9837 -0.0239 -0.1779
vn 0.8811 0.3273 -0.3413
vn 0.8811 0.3274 -0.3413
vn 0.9198 0.3534 -0.1708
vn 0.9778 -0.0361 -0.2064
vn 0.9847 -0.0187 -0.1735
vn 0.9744 -0.0178 -0.2243
vn 0.9846 -0.0556 -0.1656
vn 0.9816 -0.0087 -0.1907
vn 0.9789 -0.0064 -0.2040
vn 0.9897 -0.0370 -0.1382
vn 0.9806 -0.0365 -0.1928
vn 0.9770 -0.0384 -0.2098
vn 0.9788 -0.0400 -0.2008
vn 0.9691 -0.0464 -0.2423
vn 0.9532 0.2020 -0.2251
vn 0.9838 0.1357 -0.1169
vn 0.9717 0.1266 -0.1993
vn 0.8285 0.5490 -0.1104
vn 0.9879 0.0489 -0.1472
vn 0.9949 0.0644 -0.0781
vn 0.9999 -0.0051 -0.0162
vn 0.8442 0.5344 -0.0425
vn 0.8505 0.5178 -0.0924
vn 0.9428 0.3322 -0.0264
vn 0.8672 0.4938 -0.0639
vn 0.8625 0.5050 -0.0328
vn 0.8733 0.4863 -0.0292
vn 0.9417 0.3346 -0.0342
vn 0.9395 0.3421 -0.0155
vn 0.9995 -0.0268 0.0176
vn 0.9998 -0.0195 0.0037
vn 0.9364 0.3490 -0.0361
vn 0.9998 -0.0167 0.0133
vn 0.9337 0.3578 -0.0136
vn 0.9999 -0.0100 0.0015
vn 0.9317 0.3623 -0.0265
vn 0.9999 -0.0080 0.0091
vn 1.0000 -0.0025 0.0002
vn 0.0178 0.1795 0.9836
vn 0.0036 0.1936 0.9811
vn 0.0163 0.2952 0.9553
vn 0.0000 0.1935 0.9811
vn -0.0188 0.2070 0.9782
vn -0.0290 0.1968 0.9800
vn -0.0040 0.1970 0.9804
vn -0.0436 0.3177 0.9472
vn -0.0065 0.3176 0.9482
vn -0.0439 0.3174 0.9473
vn -0.0723 0.4998 0.8631
vn -0.0384 0.2895 0.9564
vn 0.0215 0.2899 0.9568
vn 0.0543 0.5090 0.8590
vn -0.0676 0.5036 0.8613
vn -0.0421 0.5040 0.8627
vn -0.0696 0.5184 0.8523
vn 0.0541 0.5091 0.8590
vn -0.0338 0.5100 0.8595
vn 0.0570 0.5294 0.8465
vn -0.0547 0.5248 0.8495
vn -0.0341 0.5250 0.8504
vn -0.0549 0.5270 0.8481
vn 0.0504 0.5323 0.8451
vn -0.0124 0.5334 0.8457
vn 0.0498 0.5267 0.8486
vn -0.0390 0.5336 0.8448
vn -0.0124 0.5338 0.8455
vn -0.0195 0.2660 0.9638
vn 0.0331 0.5338 0.8450
vn -0.0112 0.5343 0.8452
vn 0.0164 0.2652 0.9641
vn -0.0144 0.2764 0.9609
vn -0.0058 0.2762 0.9611
vn 0.0000 0.0000 1.0000
vn 0.0087 0.2814 0.9596
vn -0.0030 0.2817 0.9595
vn -0.9836 0.1795 0.0178
vn -0.9811 0.1936 0.0036
vn -0.9553 0.2952 0.0163
vn -0.9811 0.1935 0.0000
vn -0.9782 0.2070 -0.0188
vn -0.9800 0.1968 -0.0290
vn -0.9804 0.1970 -0.0040
vn -0.9472 0.3177 -0.0436
vn -0.9482 0.3176 -0.0065
vn -0.9473 0.3174 -0.0439
vn -0.8631 0.4998 -0.0723
vn -0.9564 0.2895 -0.0384
vn -0.9568 0.2899 0.0215
vn -0.8590 0.5090 0.0543
vn -0.8613 0.5036 -0.0676
vn -0.8627 0.5040 -0.0421
vn -0.8523 0.5184 -0.0696
vn -0.8590 0.5091 0.0541
vn -0.8595 0.5100 -0.0338
vn -0.8465 0.5294 0.0570
vn -0.8495 0.5248 -0.0547
vn -0.8504 0.5250 -0.0341
vn -0.8481 0.5270 -0.0549
vn -0.8451 0.5323 0.0504
vn -0.8457 0.5334 -0.0124
vn -0.8486 0.5267 0.0498
vn -0.8448 0.5336 -0.0390
vn -0.8455 0.5338 -0.0124
vn -0.9638 0.2660 -0.0195
vn -0.8450 0.5338 0.0331
vn -0.8452 0.5343 -0.0112
vn -0.9641 0.2652 0.0164
vn -0.9609 0.2764 -0.0144
vn -0.9611 0.2762 -0.0058
vn -1.0000 0.0000 0.0000
vn -0.9596 0.2814 0.0087
vn -0.9595 0.2817 -0.0030
s off
f 1/1/1 2/2/1 3/3/1
f 3/3/2 2/2/2 4/4/2
f 2/2/3 5/5/3 4/4/3
f 4/4/4 6/6/4 3/3/4
f 6/6/5 7/7/5 8/8/5
f 9/9/6 7/7/6 6/6/6
f 9/9/7 6/6/7 4/4/7
f 7/7/8 9/9/8 10/10/8
f 9/9/9 4/4/9 11/11/9
f 10/10/10 9/9/10 11/11/10
f 11/11/11 4/4/11 12/12/11
f 4/4/12 5/5/12 12/12/12
f 13/13/13 10/10/13 11/11/13
f 12/12/14 13/13/14 11/11/14
f 14/14/15 10/10/15 13/13/15
f 5/5/16 15/15/16 12/12/16
f 15/15/17 13/13/17 12/12/17
f 16/16/18 15/15/18 5/5/18
f 17/17/19 14/14/19 13/13/19
f 15/15/20 17/17/20 13/13/20
f 18/18/21 14/14/21 17/17/21
f 17/17/22 19/19/22 18/18/22
f 16/16/23 20/20/23 15/15/23
f 20/20/24 17/17/24 15/15/24
f 21/21/25 20/20/25 16/16/25
f 22/22/26 19/19/26 17/17/26
f 20/20/27 22/22/27 17/17/27
f 22/22/28 23/23/28 19/19/28
f 21/21/29 24/24/29 20/20/29
f 24/24/30 22/22/30 20/20/30
f 25/25/31 24/24/31 21/21/31
f 26/26/32 23/23/32 22/22/32
f 24/24/33 26/26/33 22/22/33
f 26/26/34 27/27/34 23/23/34
f 28/28/35 27/27/35 26/26/35
f 29/29/36 26/26/36 24/24/36
f 29/29/37 28/28/37 26/26/37
f 25/25/38 29/29/38 24/24/38
f 30/30/39 28/28/39 29/29/39
f 31/31/40 29/29/40 25/25/40
f 31/31/41 30/30/41 29/29/41
f 32/32/42 30/30/42 31/31/42
f 33/33/43 34/34/43 35/35/43
f 36/36/44 34/34/44 33/33/44
f 36/36/45 37/37/45 34/34/45
f 38/38/46 36/36/46 33/33/46
f 39/39/47 40/40/47 38/38/47
f 38/38/48 40/40/48 41/41/48
f 41/41/49 36/36/49 38/38/49
f 40/40/50 42/42/50 41/41/50
f 43/43/51 37/37/51 36/36/51
f 41/41/52 43/43/52 36/36/52
f 43/43/53 44/44/53 37/37/53
f 41/41/54 42/42/54 45/45/54
f 45/45/55 43/43/55 41/41/55
f 42/42/56 46/46/56 45/45/56
f 47/47/57 44/44/57 43/43/57
f 45/45/58 47/47/58 43/43/58
f 47/47/59 48/48/59 44/44/59
f 45/45/60 46/46/60 49/49/60
f 49/49/61 47/47/61 45/45/61
f 46/46/62 50/50/62 49/49/62
f 51/51/63 48/48/63 47/47/63
f 49/49/64 51/51/64 47/47/64
f 51/51/65 52/52/65 48/48/65
f 49/49/66 50/50/66 53/53/66
f 53/53/67 51/51/67 49/49/67
f 50/50/68 54/54/68 53/53/68
f 55/55/69 52/52/69 51/51/69
f 53/53/70 55/55/70 51/51/70
f 53/53/71 54/54/71 56/56/71
f 56/56/72 55/55/72 53/53/72
f 54/54/73 57/57/73 56/56/73
f 56/56/74 57/57/74 55/55/74
f 58/58/75 57/57/75 54/54/75
f 55/55/76 59/59/76 52/52/76
f 55/55/77 57/57/77 59/59/77
f 52/52/78 59/59/78 60/60/78
f 58/58/79 61/61/79 57/57/79
f 61/61/80 59/59/80 57/57/80
f 62/62/81 61/61/81 58/58/81
f 63/63/82 59/59/82 61/61/82
f 63/63/83 60/60/83 59/59/83
f 64/64/84 60/60/84 63/63/84
f 65/65/85 66/66/85 67/67/85
f 68/68/86 66/66/86 65/65/86
f 69/69/87 68/68/87 65/65/87
f 66/66/88 68/68/88 70/70/88
f 71/71/89 72/72/89 69/69/89
f 69/69/90 72/72/90 73/73/90
f 73/73/91 68/68/91 69/69/91
f 72/72/92 74/74/92 73/73/92
f 73/73/93 74/74/93 75/75/93
f 73/73/94 75/75/94 68/68/94
f 74/74/95 76/76/95 75/75/95
f 68/68/96 75/75/96 77/77/96
f 70/70/97 68/68/97 77/77/97
f 75/75/98 76/76/98 78/78/98
f 78/78/99 77/77/99 75/75/99
f 79/79/100 70/70/100 77/77/100
f 79/79/101 77/77/101 78/78/101
f 80/80/102 70/70/102 79/79/102
f 79/79/103 81/81/103 80/80/103
f 82/82/104 81/81/104 79/79/104
f 78/78/105 82/82/105 79/79/105
f 82/82/106 83/83/106 81/81/106
f 76/76/107 84/84/107 78/78/107
f 84/84/108 82/82/108 78/78/108
f 85/85/109 84/84/109 76/76/109
f 86/86/110 83/83/110 82/82/110
f 84/84/111 86/86/111 82/82/111
f 86/86/112 87/87/112 83/83/112
f 85/85/113 88/88/113 84/84/113
f 88/88/114 86/86/114 84/84/114
f 89/89/115 88/88/115 85/85/115
f 90/90/116 87/87/116 86/86/116
f 88/88/117 90/90/117 86/86/117
f 90/90/118 91/91/118 87/87/118
f 92/92/119 91/91/119 90/90/119
f 93/93/120 90/90/120 88/88/120
f 93/93/121 92/92/121 90/90/121
f 89/89/122 93/93/122 88/88/122
f 94/94/123 92/92/123 93/93/123
f 95/95/124 93/93/124 89/89/124
f 95/95/125 94/94/125 93/93/125
f 96/96/126 94/94/126 95/95/126
f 97/97/127 98/98/127 99/99/127
f 100/100/128 98/98/128 97/97/128
f 101/101/129 100/100/129 97/97/129
f 100/100/130 102/102/130 98/98/130
f 103/103/131 102/102/131 104/104/131
f 104/104/132 102/102/132 105/105/132
f 105/105/133 102/102/133 100/100/133
f 105/105/134 106/106/134 104/104/134
f 100/100/135 107/107/135 105/105/135
f 107/107/136 106/106/136 105/105/136
f 106/106/137 107/107/137 108/108/137
f 109/109/138 107/107/138 100/100/138
f 109/109/139 100/100/139 101/101/139
f 110/110/140 109/109/140 101/101/140
f 108/108/141 107/107/141 111/111/141
f 107/107/142 109/109/142 111/111/142
f 111/111/143 112/112/143 108/108/143
f 113/113/144 109/109/144 110/110/144
f 111/111/145 109/109/145 113/113/145
f 114/114/146 113/113/146 110/110/146
f 115/115/147 112/112/147 111/111/147
f 113/113/148 115/115/148 111/111/148
f 112/112/149 115/115/149 116/116/149
f 117/117/150 113/113/150 114/114/150
f 117/117/151 115/115/151 113/113/151
f 118/118/152 117/117/152 114/114/152
f 116/116/153 115/115/153 119/119/153
f 115/115/154 117/117/154 119/119/154
f 119/119/155 120/120/155 116/116/155
f 121/121/156 117/117/156 118/118/156
f 119/119/157 117/117/157 121/121/157
f 122/122/158 121/121/158 118/118/158
f 123/123/159 120/120/159 119/119/159
f 121/121/160 123/123/160 119/119/160
f 123/123/161 124/124/161 120/120/161
f 125/125/162 121/121/162 122/122/162
f 125/125/163 123/123/163 121/121/163
f 122/122/161 126/126/161 125/125/161
f 127/127/161 126/126/161 122/122/161
f 125/125/161 128/128/161 123/123/161
f 126/126/161 128/128/161 125/125/161
f 128/128/161 124/124/161 123/123/161
f 126/126/161 127/127/161 129/129/161
f 129/129/161 128/128/161 126/126/161
f 129/129/161 127/127/161 130/130/161
f 131/131/161 124/124/161 128/128/161
f 131/131/161 128/128/161 129/129/161
f 132/132/161 124/124/161 131/131/161
f 130/130/161 133/133/161 129/129/161
f 133/133/161 131/131/161 129/129/161
f 134/134/161 133/133/161 130/130/161
f 135/135/161 131/131/161 133/133/161
f 135/135/161 132/132/161 131/131/161
f 136/136/161 132/132/161 135/135/161
f 137/137/164 138/138/164 139/139/164
f 140/140/165 138/138/165 137/137/165
f 141/141/166 140/140/166 137/137/166
f 140/140/167 142/142/167 138/138/167
f 143/143/168 142/142/168 144/144/168
f 144/144/169 142/142/169 145/145/169
f 145/145/170 142/142/170 140/140/170
f 145/145/171 146/146/171 144/144/171
f 140/140/172 147/147/172 145/145/172
f 147/147/173 146/146/173 145/145/173
f 146/146/174 147/147/174 148/148/174
f 149/149/175 147/147/175 140/140/175
f 149/149/176 140/140/176 141/141/176
f 150/150/177 149/149/177 141/141/177
f 148/148/178 147/147/178 151/151/178
f 147/147/179 149/149/179 151/151/179
f 151/151/180 152/152/180 148/148/180
f 153/153/181 149/149/181 150/150/181
f 151/151/182 149/149/182 153/153/182
f 154/154/183 153/153/183 150/150/183
f 155/155/184 152/152/184 151/151/184
f 153/153/185 155/155/185 151/151/185
f 152/152/186 155/155/186 156/156/186
f 157/157/187 153/153/187 154/154/187
f 157/157/188 155/155/188 153/153/188
f 158/158/189 157/157/189 154/154/189
f 156/156/190 155/155/190 159/159/190
f 155/155/191 157/157/191 159/159/191
f 159/159/192 160/160/192 156/156/192
f 161/161/193 157/157/193 158/158/193
f 159/159/194 157/157/194 161/161/194
f 162/162/195 161/161/195 158/158/195
f 163/163/196 160/160/196 159/159/196
f 161/161/197 163/163/197 159/159/197
f 163/163/198 164/164/198 160/160/198
f 165/165/199 161/161/199 162/162/199
f 165/165/200 163/163/200 161/161/200
f 162/162/198 166/166/198 165/165/198
f 167/167/198 166/166/198 162/162/198
f 165/165/198 168/168/198 163/163/198
f 166/166/198 168/168/198 165/165/198
f 168/168/198 164/164/198 163/163/198
f 166/166/198 167/167/198 169/169/198
f 169/169/198 168/168/198 166/166/198
f 169/169/198 167/167/198 170/170/198
f 171/171/198 164/164/198 168/168/198
f 171/171/198 168/168/198 169/169/198
f 172/172/198 164/164/198 171/171/198
f 170/170/198 173/173/198 169/169/198
f 173/173/198 171/171/198 169/169/198
f 174/174/198 173/173/198 170/170/198
f 175/175/198 171/171/198 173/173/198
f 175/175/198 172/172/198 171/171/198
f 176/176/198 172/172/198 175/175/198
