# This file uses centimeters as units for non-parametric coordinates.

mtllib M_ROOF.mtl
g default
v -2.543022 -0.000001 -2.551762
v -2.656263 0.043855 -2.551762
v -2.543026 0.043855 -2.665000
v -2.543026 0.043855 2.665005
v -2.656264 0.043855 2.551762
v -2.543024 0.000000 2.551762
v -2.543026 0.343245 -2.664995
v -2.656263 0.343245 -2.551762
v -1.872626 1.230459 -1.858383
v -1.872626 1.230459 1.858388
v -2.656262 0.343245 2.551767
v -2.543023 0.343245 2.665007
v 2.560498 0.343244 -2.665000
v 1.885356 1.230459 -1.858383
v 2.673735 0.343245 -2.551762
v 2.673737 0.343245 2.551762
v 1.885356 1.230458 1.858388
v 2.560497 0.343244 2.665000
v 2.560499 0.043854 -2.665000
v 2.673737 0.043855 -2.551757
v 2.560498 -0.000001 -2.551762
v 2.560499 -0.000001 2.551762
v 2.673737 0.043855 2.551762
v 2.560501 0.043854 2.665000
vt 0.337082 0.994689
vt 0.330000 0.994689
vt 0.330000 0.755311
vt 0.337082 0.755311
vt 0.337082 0.062494
vt 0.337082 0.000000
vt 0.656251 0.000000
vt 0.656251 0.062494
vt 0.322989 0.062494
vt 0.337082 0.187507
vt 0.322989 0.187507
vt 0.663333 0.994689
vt 0.656251 0.994689
vt 0.656251 0.755311
vt 0.663333 0.755311
vt 0.670486 0.062494
vt 0.670486 0.187506
vt 0.656252 0.187506
vt 0.330000 0.255311
vt 0.337082 0.255311
vt 0.337082 0.494689
vt 0.330000 0.494689
vt 0.656252 0.255311
vt 0.663333 0.255312
vt 0.663333 0.494689
vt 0.656252 0.494689
vt 0.330000 0.562494
vt 0.337082 0.562494
vt 0.337082 0.687506
vt 0.330000 0.687507
vt 0.656251 0.562494
vt 0.663333 0.562494
vt 0.663333 0.687507
vt 0.656251 0.687506
vt 0.992847 0.062493
vt 0.992847 0.187506
vt 0.007011 0.062493
vt 0.007011 0.187506
vn -0.000000 -0.932509 -0.361148
vn -0.000000 -0.932509 -0.361148
vn -0.000000 -0.932509 -0.361148
vn -0.000000 -0.932509 -0.361148
vn -0.361141 -0.932511 -0.000000
vn -0.361141 -0.932511 -0.000000
vn -0.361141 -0.932511 -0.000000
vn -0.361141 -0.932511 -0.000000
vn -0.707102 0.000006 -0.707112
vn -0.707102 0.000006 -0.707112
vn -0.707102 0.000006 -0.707112
vn -0.707102 0.000006 -0.707112
vn -0.000000 -0.932513 0.361137
vn -0.000000 -0.932513 0.361137
vn -0.000000 -0.932513 0.361137
vn -0.000000 -0.932513 0.361137
vn -0.707117 -0.000002 0.707097
vn -0.707117 -0.000002 0.707097
vn -0.707117 -0.000002 0.707097
vn -0.707117 -0.000002 0.707097
vn -0.000000 0.672698 -0.739917
vn -0.000000 0.672698 -0.739917
vn -0.000000 0.672698 -0.739917
vn -0.000000 0.672698 -0.739917
vn -0.749502 0.662002 0.000000
vn -0.749502 0.662002 0.000000
vn -0.749502 0.662002 0.000000
vn -0.749502 0.662002 0.000000
vn 0.000001 0.672699 0.739916
vn 0.000001 0.672699 0.739916
vn 0.000001 0.672699 0.739916
vn 0.000001 0.672699 0.739916
vn 0.707116 -0.000002 -0.707098
vn 0.707116 -0.000002 -0.707098
vn 0.707116 -0.000002 -0.707098
vn 0.707116 -0.000002 -0.707098
vn 0.747515 0.664244 -0.000000
vn 0.747515 0.664244 -0.000000
vn 0.747515 0.664244 -0.000000
vn 0.747515 0.664244 -0.000000
vn 0.707107 0.000005 0.707107
vn 0.707107 0.000005 0.707107
vn 0.707107 0.000005 0.707107
vn 0.707107 0.000005 0.707107
vn 0.361149 -0.932508 -0.000000
vn 0.361149 -0.932508 -0.000000
vn 0.361149 -0.932508 -0.000000
vn 0.361149 -0.932508 -0.000000
vn -1.000000 0.000004 0.000000
vn -1.000000 0.000004 0.000000
vn -1.000000 0.000004 0.000000
vn -1.000000 0.000004 0.000000
vn 0.000000 1.000000 0.000000
vn 0.000000 1.000000 0.000000
vn 0.000000 1.000000 0.000000
vn 0.000000 1.000000 0.000000
vn 1.000000 0.000003 -0.000000
vn 1.000000 0.000003 -0.000000
vn 1.000000 0.000003 -0.000000
vn 1.000000 0.000003 -0.000000
vn -0.000000 -1.000000 0.000000
vn -0.000000 -1.000000 0.000000
vn -0.000000 -1.000000 0.000000
vn -0.000000 -1.000000 0.000000
vn 0.000001 -0.000004 1.000000
vn 0.000001 -0.000004 1.000000
vn 0.000001 -0.000004 1.000000
vn 0.000001 -0.000004 1.000000
vn -0.000000 0.000008 -1.000000
vn -0.000000 0.000008 -1.000000
vn -0.000000 0.000008 -1.000000
vn -0.000000 0.000008 -1.000000
vn -0.339671 -0.877068 -0.339669
vn -0.339671 -0.877068 -0.339669
vn -0.339671 -0.877068 -0.339669
vn -0.339668 -0.877076 0.339653
vn -0.339668 -0.877076 0.339653
vn -0.339668 -0.877076 0.339653
vn -0.457787 0.762132 -0.457806
vn -0.457787 0.762132 -0.457806
vn -0.457787 0.762132 -0.457806
vn -0.457798 0.762131 0.457796
vn -0.457798 0.762131 0.457796
vn -0.457798 0.762131 0.457796
vn 0.456943 0.763153 -0.456947
vn 0.456943 0.763153 -0.456947
vn 0.456943 0.763153 -0.456947
vn 0.456937 0.763153 0.456952
vn 0.456937 0.763153 0.456952
vn 0.456937 0.763153 0.456952
vn 0.339690 -0.877061 -0.339668
vn 0.339690 -0.877061 -0.339668
vn 0.339690 -0.877061 -0.339668
vn 0.339680 -0.877066 0.339666
vn 0.339680 -0.877066 0.339666
vn 0.339680 -0.877066 0.339666
s off
g M_ROOF ROOFS
usemtl initialShadingGroup
f 1/1/1 3/2/2 19/3/3 21/4/4
f 2/5/5 1/6/6 6/7/7 5/8/8
f 3/9/9 2/5/10 8/10/11 7/11/12
f 4/12/13 6/13/14 22/14/15 24/15/16
f 5/8/17 4/16/18 12/17/19 11/18/20
f 7/19/21 9/20/22 14/21/23 13/22/24
f 9/20/25 8/10/26 11/18/27 10/23/28
f 10/23/29 12/24/30 18/25/31 17/26/32
f 13/27/33 15/28/34 20/29/35 19/30/36
f 15/28/37 14/21/38 17/26/39 16/31/40
f 16/31/41 18/32/42 24/33/43 23/34/44
f 21/4/45 20/29/46 23/34/47 22/14/48
f 2/5/49 5/8/50 11/18/51 8/10/52
f 9/20/53 10/23/54 17/26/55 14/21/56
f 15/28/57 16/31/58 23/34/59 20/29/60
f 21/4/61 22/14/62 6/13/63 1/1/64
f 4/16/65 24/35/66 18/36/67 12/17/68
f 19/37/69 3/9/70 7/11/71 13/38/72
f 1/6/73 2/5/74 3/9/75
f 4/16/76 5/8/77 6/7/78
f 7/11/79 8/10/80 9/20/81
f 10/23/82 11/18/83 12/17/84
f 13/22/85 14/21/86 15/28/87
f 16/31/88 17/26/89 18/25/90
f 19/30/91 20/29/92 21/4/93
f 22/14/94 23/34/95 24/33/96
