# Blender v3.3.1 OBJ File: ''
# www.blender.org
o Mushroom_LOD3
v 0.003826 0.324379 0.009849
v -0.033203 0.408973 -0.589844
v 0.299072 0.397865 -0.510254
v -0.010834 0.453529 -0.563965
v 0.003826 0.327064 0.010193
v 0.302246 0.442787 -0.484619
v -0.024521 0.333839 0.016830
v 0.521973 0.376869 -0.297119
v 0.604004 0.348488 0.003719
v 0.520508 0.422645 -0.273926
v 0.598633 0.393959 0.017105
v 0.003826 0.324379 0.009849
v 0.302002 0.274574 0.529297
v 0.002197 0.250946 0.612305
v 0.003826 0.327064 0.010193
v 0.014526 0.300179 0.601562
v 0.522949 0.310341 0.307129
v 0.604004 0.348488 0.003719
v 0.307861 0.322853 0.522949
v -0.024521 0.333839 0.016830
v 0.598633 0.393959 0.017105
v 0.520996 0.357338 0.309082
v 0.003826 0.327064 0.010193
v -0.612305 0.304665 0.017105
v -0.527832 0.351662 -0.290527
v -0.572266 0.355263 0.019867
v -0.322510 0.385536 -0.509277
v 0.003826 0.324379 0.009849
v -0.494141 0.399452 -0.274902
v -0.024521 0.333839 0.016830
v -0.033203 0.408973 -0.589844
v -0.288574 0.430458 -0.486084
v -0.010834 0.453529 -0.563965
v 0.003826 0.327064 0.010193
v -0.525879 0.266228 0.321289
v -0.612305 0.304665 0.017105
v -0.572266 0.355263 0.019867
v -0.296631 0.253342 0.536133
v 0.003826 0.324379 0.009849
v -0.484863 0.314796 0.314209
v -0.024521 0.333839 0.016830
v 0.002197 0.250946 0.612305
v -0.276855 0.303017 0.522461
v 0.014526 0.300179 0.601562
vt 0.458496 0.240234
vt 0.068604 0.024414
vt 0.190552 0.479980
vt 0.237793 0.024414
vt 0.830078 0.579590
vt 0.337158 0.395020
vt 0.978516 0.024414
vt 0.523438 0.812744
vt 0.978516 0.934692
vt 0.607910 0.666260
vt 0.978516 0.765381
vt 0.458252 0.240234
vt 0.190552 0.479980
vt 0.068604 0.024414
vt 0.830078 0.579590
vt 0.237793 0.024414
vt 0.523438 0.812744
vt 0.978516 0.934631
vt 0.336914 0.395020
vt 0.978516 0.024414
vt 0.978516 0.765381
vt 0.607910 0.666260
vt 0.830078 0.579590
vt 0.978516 0.934631
vt 0.523438 0.812744
vt 0.978516 0.765381
vt 0.190552 0.479980
vt 0.458496 0.240234
vt 0.607910 0.666260
vt 0.978516 0.024414
vt 0.068604 0.024414
vt 0.336914 0.395020
vt 0.237793 0.024414
vt 0.830078 0.579590
vt 0.523438 0.812744
vt 0.978516 0.934631
vt 0.978516 0.765381
vt 0.190552 0.479980
vt 0.458496 0.240234
vt 0.607910 0.666260
vt 0.978516 0.024414
vt 0.068604 0.024414
vt 0.336914 0.395020
vt 0.237793 0.024414
vn 0.0004 -0.9902 -0.1397
vn 0.2260 0.4019 -0.8873
vn 0.8717 -0.0621 0.4861
vn 0.2320 0.4697 -0.8518
vn -0.0174 0.9794 0.2014
vn 0.0231 -0.9923 -0.1219
vn 0.6679 0.3327 -0.6657
vn 0.0344 -0.9941 -0.1032
vn -0.0709 0.9833 0.1674
vn 0.6663 0.3539 -0.6564
vn 0.9567 0.1554 -0.2462
vn -0.0954 0.9878 0.1230
vn 0.9539 0.1828 -0.2381
vn 0.0447 -0.9917 -0.1208
vn 0.8681 0.0629 -0.4923
vn 0.2534 0.1452 0.9564
vn 0.0378 -0.9918 -0.1220
vn 0.0342 -0.9927 -0.1157
vn 0.2507 0.0962 0.9633
vn 0.7085 0.0068 0.7057
vn -0.0606 0.9963 0.0614
vn 0.9643 0.0367 0.2622
vn -0.0839 0.9935 0.0766
vn 0.7083 0.0001 0.7059
vn -0.0956 0.9905 0.0988
vn 0.9651 0.0293 0.2603
vn 0.0344 -0.9893 -0.1417
vn -0.7755 0.6201 -0.1182
vn 0.0268 -0.9914 -0.1284
vn -0.8483 -0.0672 0.5253
vn -0.7924 0.5980 -0.1204
vn -0.6261 0.6030 -0.4943
vn 0.0395 0.9866 0.1584
vn 0.0406 -0.9890 -0.1420
vn 0.0298 0.9844 0.1735
vn -0.5764 0.6740 -0.4621
vn -0.2605 0.5910 -0.7635
vn -0.0249 0.9792 0.2012
vn -0.2642 0.5802 -0.7705
vn 0.0345 -0.9903 -0.1349
vn -0.7583 0.5842 0.2893
vn 0.0486 -0.9926 -0.1114
vn -0.8703 0.0624 -0.4885
vn -0.7074 0.6409 0.2982
vn -0.5514 0.5563 0.6217
vn 0.0395 0.9914 0.1246
vn 0.0229 -0.9924 -0.1209
vn -0.0029 0.9982 0.0594
vn -0.6270 0.4286 0.6505
vn -0.2295 0.3422 0.9112
vn -0.0060 0.9983 0.0579
vn -0.2502 0.2658 0.9310
s off
f 1/1/1 2/2/1 3/3/1
f 2/2/2 4/4/2 3/3/2
f 1/1/3 3/3/3 5/5/3
f 3/3/4 4/4/4 6/6/4
f 6/6/5 4/4/5 7/7/5
f 3/3/6 8/8/6 5/5/6
f 3/3/7 6/6/7 8/8/7
f 5/5/8 8/8/8 9/9/8
f 10/10/9 6/6/9 7/7/9
f 8/8/10 6/6/10 10/10/10
f 8/8/11 10/10/11 9/9/11
f 11/11/12 10/10/12 7/7/12
f 9/9/13 10/10/13 11/11/13
f 12/12/14 13/13/14 14/14/14
f 12/12/15 15/15/15 13/13/15
f 14/14/16 13/13/16 16/16/16
f 15/15/17 17/17/17 13/13/17
f 15/15/18 18/18/18 17/17/18
f 16/16/19 13/13/19 19/19/19
f 13/13/20 17/17/20 19/19/20
f 16/16/21 19/19/21 20/20/21
f 18/18/22 21/21/22 17/17/22
f 19/19/23 22/22/23 20/20/23
f 19/19/24 17/17/24 22/22/24
f 22/22/25 21/21/25 20/20/25
f 17/17/26 21/21/26 22/22/26
f 23/23/27 24/24/27 25/25/27
f 24/24/28 26/26/28 25/25/28
f 25/25/29 27/27/29 23/23/29
f 28/28/30 23/23/30 27/27/30
f 25/25/31 26/26/31 29/29/31
f 25/25/32 29/29/32 27/27/32
f 29/29/33 26/26/33 30/30/33
f 28/28/34 27/27/34 31/31/34
f 32/32/35 29/29/35 30/30/35
f 27/27/36 29/29/36 32/32/36
f 27/27/37 32/32/37 31/31/37
f 33/33/38 32/32/38 30/30/38
f 31/31/39 32/32/39 33/33/39
f 34/34/40 35/35/40 36/36/40
f 36/36/41 35/35/41 37/37/41
f 35/35/42 34/34/42 38/38/42
f 39/39/43 38/38/43 34/34/43
f 37/37/44 35/35/44 40/40/44
f 35/35/45 38/38/45 40/40/45
f 37/37/46 40/40/46 41/41/46
f 39/39/47 42/42/47 38/38/47
f 40/40/48 43/43/48 41/41/48
f 40/40/49 38/38/49 43/43/49
f 38/38/50 42/42/50 43/43/50
f 44/44/51 41/41/51 43/43/51
f 43/43/52 42/42/52 44/44/52
o CapFill3
v -0.009589 -0.001060 -0.033102
v 0.590236 0.365691 0.007906
v 0.570033 0.347134 0.158303
v -0.009589 -0.001060 -0.033102
v 0.512429 0.327171 0.298315
v -0.009589 -0.001060 -0.033102
v 0.420427 0.307048 0.418703
v -0.009589 -0.001060 -0.033102
v 0.300305 0.288177 0.510929
v -0.009589 -0.001060 -0.033102
v 0.161073 0.271655 0.568552
v -0.009589 -0.001060 -0.033102
v 0.011918 0.259855 0.588557
v -0.136912 0.256909 0.569657
v -0.009589 -0.001060 -0.033102
v -0.009589 -0.001060 -0.033102
v -0.276826 0.261312 0.513121
v -0.009589 -0.001060 -0.033102
v -0.398586 0.264898 0.423160
v -0.009589 -0.001060 -0.033102
v -0.493592 0.272541 0.304997
v -0.009589 -0.001060 -0.033102
v -0.555291 0.286396 0.166494
v -0.009589 -0.001060 -0.033102
v -0.577677 0.308653 0.015253
v -0.009589 -0.001060 -0.033102
v -0.561297 0.331474 -0.135399
v -0.009589 -0.001060 -0.033102
v -0.506696 0.355051 -0.275955
v -0.009589 -0.001060 -0.033102
v -0.417424 0.377768 -0.396634
v -0.009589 -0.001060 -0.033102
v -0.301397 0.396252 -0.487717
v -0.009589 -0.001060 -0.033102
v -0.170901 0.412439 -0.544203
v -0.009589 -0.001060 -0.033102
v -0.015723 0.422953 -0.564339
v -0.009589 -0.001060 -0.033102
v 0.146876 0.422463 -0.544230
v -0.009589 -0.001060 -0.033102
v 0.297575 0.409067 -0.486134
v -0.009589 -0.001060 -0.033102
v 0.420973 0.396385 -0.395976
v -0.009589 -0.001060 -0.033102
v 0.512975 0.390260 -0.279220
v -0.009589 -0.001060 -0.033102
v 0.570033 0.381045 -0.142268
v -0.009589 -0.001060 -0.033102
v 0.590236 0.365691 0.007906
vt 0.011925 -2.898438
vt 1.000000 -3.007812
vt 1.000000 -2.716797
vt 0.013138 -2.607422
vt 1.000000 -2.423828
vt 0.010559 -2.285156
vt 1.000000 -2.132812
vt 0.003220 -1.937500
vt 1.000000 -1.839844
vt -0.005280 -1.601562
vt 1.000000 -1.546875
vt -0.000513 -1.320312
vt 1.000000 -1.253906
vt 1.000000 -0.961914
vt 0.023422 -1.101562
vt 0.043579 -0.840820
vt 1.000000 -0.669922
vt 0.026962 -0.522461
vt 1.000000 -0.376953
vt 0.039795 -0.195312
vt 1.000000 -0.084961
vt 0.047882 0.081055
vt 1.000000 0.207520
vt 0.052094 0.337891
vt 1.000000 0.500000
vt 0.053192 0.621338
vt 1.000000 0.792603
vt 0.051208 0.901123
vt 1.000000 1.085083
vt 0.045380 1.194092
vt 1.000000 1.377686
vt 0.035004 1.519531
vt 1.000000 1.669922
vt 0.025406 1.857422
vt 1.000000 1.962402
vt 0.036407 2.134766
vt 1.000000 2.254883
vt 0.072021 2.349609
vt 1.000000 2.547852
vt 0.098267 2.606445
vt 1.000000 2.839844
vt 0.019470 2.938477
vt 1.000000 3.132812
vt 0.028519 3.285156
vt 1.000000 3.423828
vt 0.032806 3.607422
vt 1.000000 3.716797
vt 0.033112 3.898438
vt 1.000000 4.009766
vn 0.5231 -0.8516 -0.0348
vn 0.4938 -0.8659 0.0797
vn 0.4358 -0.8807 0.1858
vn 0.3519 -0.8947 0.2752
vn 0.2485 -0.9068 0.3405
vn 0.1235 -0.9165 0.3804
vn -0.0310 -0.9213 0.3877
vn -0.1729 -0.9182 0.3564
vn -0.2580 -0.9141 0.3128
vn -0.3546 -0.9072 0.2265
vn -0.4336 -0.8951 0.1036
vn -0.4816 -0.8745 -0.0574
vn -0.4826 -0.8567 -0.1822
vn -0.4467 -0.8377 -0.3141
vn -0.3759 -0.8196 -0.4324
vn -0.2819 -0.8048 -0.5224
vn -0.1575 -0.7914 -0.5906
vn -0.0279 -0.7814 -0.6234
vn 0.0747 -0.7790 -0.6226
vn 0.1616 -0.7836 -0.5999
vn 0.2987 -0.7994 -0.5212
vn 0.4314 -0.8169 -0.3828
vn 0.4962 -0.8276 -0.2624
vn 0.5230 -0.8379 -0.1560
s off
f 45/45/53 46/46/53 47/47/53
f 48/48/54 47/47/54 49/49/54
f 50/50/55 49/49/55 51/51/55
f 52/52/56 51/51/56 53/53/56
f 54/54/57 53/53/57 55/55/57
f 56/56/58 55/55/58 57/57/58
f 58/58/59 59/59/59 57/57/59
f 60/60/60 58/58/60 61/61/60
f 62/62/61 61/61/61 63/63/61
f 64/64/62 63/63/62 65/65/62
f 66/66/63 65/65/63 67/67/63
f 68/68/64 67/67/64 69/69/64
f 70/70/65 69/69/65 71/71/65
f 72/72/66 71/71/66 73/73/66
f 74/74/67 73/73/67 75/75/67
f 76/76/68 75/75/68 77/77/68
f 78/78/69 77/77/69 79/79/69
f 80/80/70 79/79/70 81/81/70
f 82/82/71 81/81/71 83/83/71
f 84/84/72 83/83/72 85/85/72
f 86/86/73 85/85/73 87/87/73
f 88/88/74 87/87/74 89/89/74
f 90/90/75 89/89/75 91/91/75
f 92/92/76 91/91/76 93/93/76
