# This file uses centimeters as units for non-parametric coordinates.

v 0.298230 0.477392 0.100829
v 0.344566 0.480885 0.249668
v 0.200289 0.493184 0.181013
v 0.354470 0.730576 0.237440
v 0.208899 0.732553 0.172880
v 0.209390 0.986404 0.170507
v 0.203021 1.243477 0.173075
v 0.005886 1.009830 -0.083130
v 0.005579 1.264835 -0.040398
v 0.172777 1.257161 0.018094
v 0.297661 1.250246 0.115514
v 0.004993 1.507344 0.001765
v 0.156059 1.505047 0.041964
v 0.269922 1.504562 0.119982
v 0.290616 1.503376 0.205288
v 0.184185 1.494091 0.176364
v 0.002894 1.727154 0.040225
v 0.129980 1.730782 0.066219
v 0.226838 1.739257 0.121835
v 0.244945 1.742611 0.197755
v 0.000617 1.907549 0.074235
v 0.092524 1.918670 0.090525
v 0.007019 1.490833 0.125742
v 0.009677 1.244705 0.108004
v -0.296288 0.486650 0.097965
v -0.177652 0.744771 -0.028723
v -0.168620 0.496778 -0.041252
v 0.020043 0.494149 -0.152683
v 0.167596 1.941008 0.123973
v 0.044331 2.043650 0.103747
v -0.095738 2.073915 0.121849
v -0.006175 2.127434 0.123031
v -0.176155 1.003016 -0.007334
v -0.168791 1.258493 0.015804
v -0.152933 1.503624 0.040192
v -0.229196 1.733754 0.119574
v -0.128385 1.727671 0.064888
v -0.168941 1.932688 0.122655
v -0.092782 1.914537 0.089642
v 0.153774 1.728696 0.178926
v 0.181865 1.950010 0.184362
v 0.088848 2.081702 0.123614
v 0.112510 2.118772 0.157004
v 0.009093 0.484745 0.107181
v 0.016822 0.734290 0.079574
v 0.010059 0.990357 0.092611
v 0.008570 0.241085 -0.114964
v 0.001133 0.071087 0.044719
v -0.003965 0.093706 0.263531
v 0.006307 1.721390 0.142956
v -0.179269 1.492448 0.174032
v -0.331436 1.252785 0.219701
v -0.197027 1.245809 0.170270
v -0.307252 0.995919 0.110258
v -0.348648 0.994064 0.229237
v -0.202820 0.991378 0.167116
v -0.308301 0.739883 0.105828
v -0.351767 0.741660 0.237031
v -0.199777 0.738325 0.167579
v -0.343901 0.489887 0.245313
v -0.193047 0.497190 0.176561
v -0.068987 2.078697 0.183999
v 0.006714 0.750492 -0.120247
v 0.180273 0.998215 -0.004546
v 0.181723 0.738139 -0.024988
v 0.175029 0.491475 -0.034145
v 0.310079 0.988036 0.112651
v 0.312103 0.728798 0.107672
v 0.327545 1.249033 0.214271
v 0.347476 0.987863 0.226632
v 0.111074 1.930517 0.178286
v -0.120860 2.102834 0.155636
v -0.010075 2.170340 0.139012
v -0.297565 1.252229 0.114158
v -0.291230 1.501188 0.205264
v -0.269990 1.502001 0.119403
v -0.149968 1.724583 0.176261
v -0.248572 1.736368 0.194205
v -0.195799 1.945199 0.171599
v 0.055126 2.078003 0.178195
v 0.003701 1.916391 0.157820
v -0.111254 1.926465 0.178032
v -0.048282 2.040663 0.102667
v 0.235230 0.230578 0.081485
v 0.271022 0.234004 0.263222
v 0.002287 0.287113 0.172445
v -0.234316 0.235088 0.078388
v -0.272616 0.236087 0.263092
v 0.156263 0.304924 -0.030714
v -0.000940 2.036164 0.168254
v -0.003634 2.090097 0.111507
v -0.015476 2.168754 0.184330
v -0.001093 2.012547 0.094164
v -0.168684 0.323301 0.195162
v -0.150016 0.307909 -0.037445
v 0.172166 0.320704 0.197435
vn 0.871688 -0.116914 -0.475911
vn 0.837892 0.000301 -0.545836
vn 0.581219 0.023585 0.813406
vn 0.764536 -0.095851 0.637414
vn 0.648439 -0.030406 -0.760659
vn 0.605264 0.054258 -0.794173
vn 0.729754 -0.602984 -0.322289
vn 0.626109 -0.291457 -0.723215
vn 0.678233 -0.518350 0.520878
vn -0.401827 0.030587 0.915205
vn -0.386173 0.122036 0.914318
vn -0.300450 0.291314 0.908221
vn -0.017233 0.027522 0.999473
vn -0.007181 0.144212 0.989521
vn -0.001275 0.349143 0.937069
vn 0.528335 0.045410 0.847821
vn -0.371797 -0.013848 0.928211
vn 0.813723 0.043994 -0.579586
vn -0.006728 -0.030603 0.999509
vn -0.321510 -0.030562 0.946413
vn -0.009044 -0.046499 0.998877
vn 0.536531 0.067684 0.841162
vn -0.273427 -0.042916 0.960935
vn -0.007177 -0.055847 0.998414
vn 0.556267 0.100945 0.824850
vn 0.009904 0.122359 -0.992437
vn 0.544095 0.082948 -0.834913
vn 0.005313 0.094848 -0.995478
vn 0.008331 0.137991 -0.990399
vn 0.481329 0.106471 -0.870050
vn -0.526286 0.084672 -0.846081
vn -0.463808 0.108240 -0.879299
vn -0.579998 0.051310 -0.813000
vn 0.006572 0.147879 -0.988984
vn 0.415446 0.129143 -0.900403
vn -0.399813 0.128464 -0.907550
vn 0.770569 0.131937 -0.623551
vn 0.791040 0.083657 -0.606018
vn 0.004217 0.160853 -0.986969
vn 0.348862 0.152643 -0.924660
vn -0.335501 0.150256 -0.929980
vn 0.740551 0.188015 -0.645162
vn 0.598674 0.163644 0.784098
vn -0.222807 -0.042199 0.973949
vn -0.007752 -0.058961 0.998230
vn 0.003285 0.172358 -0.985029
vn 0.286061 0.175638 -0.941977
vn -0.276496 0.172341 -0.945436
vn 0.675097 0.252499 -0.693173
vn 0.647075 0.279780 0.709237
vn -0.136738 -0.015165 0.990491
vn -0.203708 0.199951 -0.958396
vn 0.003728 0.175867 -0.984407
vn 0.207521 0.209221 -0.955595
vn 0.512560 0.335312 -0.790473
vn 0.261181 -0.037996 0.964542
vn 0.312561 -0.029910 0.949427
vn 0.192359 -0.031044 0.980834
vn 0.355423 -0.013539 0.934608
vn -0.869084 -0.108676 -0.482579
vn -0.609863 -0.027521 -0.792029
vn -0.593002 -0.278339 -0.755564
vn -0.732536 -0.586093 -0.346246
vn -0.836155 0.002822 -0.548485
vn -0.752410 -0.086263 0.653023
vn -0.542677 0.018904 0.839728
vn -0.690024 -0.508452 0.515114
vn 0.031278 -0.010392 -0.999457
vn -0.811284 0.040768 -0.583229
vn 0.002156 -0.431145 -0.902280
vn 0.692204 0.605606 0.392550
vn 0.000022 0.285747 -0.958305
vn -0.011691 0.426060 -0.904620
vn -0.466918 0.308643 -0.828690
vn -0.623092 0.227747 -0.748256
vn -0.766227 0.541609 0.345769
vn -0.036616 0.998492 -0.040891
vn -0.677084 0.271465 0.684006
vn -0.787700 0.083233 -0.610410
vn -0.763582 0.129717 -0.632548
vn -0.716245 0.172293 -0.676246
vn -0.565127 0.155420 0.810232
vn -0.519788 0.104581 0.847870
vn -0.000931 -0.065571 0.997847
vn 0.056185 0.093635 0.994020
vn -0.038651 0.401679 0.914965
vn 0.377380 0.026589 0.925677
vn 0.364760 0.114377 0.924050
vn 0.292896 0.285669 0.912472
vn -0.006829 -0.945457 -0.325675
vn -0.015208 -0.836677 0.547486
vn 0.086135 -0.007841 0.996253
vn -0.503468 0.065696 0.861513
vn -0.497116 0.032670 0.867069
vn -0.101540 0.086100 0.991099
vn 0.020882 -0.087643 0.995933
s 1
f 1//1 68//2 4//3 2//4
f 1//1 66//5 65//6 68//2
f 1//1 84//7 89//8 66//5
f 1//1 2//4 85//9 84//7
f 2//4 4//3 5//10 3//11
f 2//4 3//11 96//12 85//9
f 3//11 5//10 45//13 44//14
f 3//11 44//14 86//15 96//12
f 4//3 70//16 6//17 5//10
f 4//3 68//2 67//18 70//16
f 5//10 6//17 46//19 45//13
f 6//17 7//20 24//21 46//19
f 6//17 70//16 69//22 7//20
f 7//20 16//23 23//24 24//21
f 7//20 69//22 15//25 16//23
f 8//26 64//27 65//6 63//28
f 8//26 9//29 10//30 64//27
f 8//26 33//31 34//32 9//29
f 8//26 63//28 26//33 33//31
f 9//29 12//34 13//35 10//30
f 9//29 34//32 35//36 12//34
f 10//30 13//35 14//37 11//38
f 10//30 11//38 67//18 64//27
f 11//38 69//22 70//16 67//18
f 11//38 14//37 15//25 69//22
f 12//34 17//39 18//40 13//35
f 12//34 35//36 37//41 17//39
f 13//35 18//40 19//42 14//37
f 14//37 19//42 20//43 15//25
f 15//25 20//43 40//44 16//23
f 16//23 40//44 50//45 23//24
f 17//39 21//46 22//47 18//40
f 17//39 37//41 39//48 21//46
f 18//40 22//47 29//49 19//42
f 19//42 29//49 41//50 20//43
f 20//43 41//50 71//51 40//44
f 21//46 39//48 83//52 93//53
f 21//46 93//53 30//54 22//47
f 22//47 30//54 42//55 29//49
f 23//24 51//56 53//57 24//21
f 23//24 50//45 77//58 51//56
f 24//21 53//57 56//59 46//19
f 25//60 27//61 95//62 87//63
f 25//60 57//64 26//33 27//61
f 25//60 60//65 58//66 57//64
f 25//60 87//63 88//67 60//65
f 26//33 63//28 28//68 27//61
f 26//33 57//64 54//69 33//31
f 27//61 28//68 47//70 95//62
f 28//68 66//5 89//8 47//70
f 28//68 63//28 65//6 66//5
f 29//49 42//55 43//71 41//50
f 30//54 91//72 32//73 42//55
f 30//54 93//53 83//52 91//72
f 31//74 83//52 39//48 38//75
f 31//74 32//73 91//72 83//52
f 31//74 72//76 73//77 32//73
f 31//74 38//75 79//78 72//76
f 32//73 73//77 43//71 42//55
f 33//31 54//69 74//79 34//32
f 34//32 74//79 76//80 35//36
f 35//36 76//80 36//81 37//41
f 36//81 38//75 39//48 37//41
f 36//81 78//82 79//78 38//75
f 36//81 76//80 75//83 78//82
f 40//44 71//51 81//84 50//45
f 41//50 43//71 80//85 71//51
f 43//71 73//77 92//86 80//85
f 44//14 45//13 59//87 61//88
f 44//14 61//88 94//89 86//15
f 45//13 46//19 56//59 59//87
f 47//70 48//90 87//63 95//62
f 47//70 89//8 84//7 48//90
f 48//90 84//7 85//9 49//91
f 48//90 49//91 88//67 87//63
f 49//91 85//9 96//12 86//15
f 49//91 86//15 94//89 88//67
f 50//45 81//84 82//92 77//58
f 51//56 75//83 52//93 53//57
f 51//56 77//58 78//82 75//83
f 52//93 55//94 56//59 53//57
f 52//93 74//79 54//69 55//94
f 52//93 75//83 76//80 74//79
f 54//69 57//64 58//66 55//94
f 55//94 58//66 59//87 56//59
f 58//66 60//65 61//88 59//87
f 60//65 88//67 94//89 61//88
f 62//95 90//96 80//85 92//86
f 62//95 82//92 81//84 90//96
f 62//95 72//76 79//78 82//92
f 62//95 92//86 73//77 72//76
f 64//27 67//18 68//2 65//6
f 71//51 80//85 90//96 81//84
f 77//58 82//92 79//78 78//82
