# This file uses centimeters as units for non-parametric coordinates.

v -0.264240 0.008945 0.253077
v 0.291065 0.008945 0.253077
v -0.264240 0.423377 0.253077
v 0.291065 0.423377 0.253077
v -0.264240 0.423377 -0.302228
v 0.291065 0.423377 -0.302228
v -0.264240 0.008945 -0.302228
v 0.291065 0.008945 -0.302228
v -0.030288 1.520053 -0.048735
v 0.057113 1.520053 -0.048735
v -0.017059 1.741552 -0.034639
v 0.043884 1.741552 -0.034639
v -0.017059 1.741552 -0.095582
v 0.043884 1.741552 -0.095582
v -0.030288 1.546293 -0.132104
v 0.057113 1.546293 -0.132104
v -0.037348 1.302902 -0.247170
v 0.064172 1.302902 -0.247170
v 0.064172 1.272423 -0.150332
v -0.037348 1.272423 -0.150332
v -0.047308 1.084034 -0.267087
v 0.074133 1.084034 -0.267087
v 0.074133 1.117623 -0.150382
v -0.047308 1.117623 -0.150382
v -0.137587 0.728465 -0.199100
v 0.166509 0.728465 -0.199100
v 0.133714 0.936347 0.000271
v -0.106890 0.936347 0.000271
v -0.107801 0.570076 0.106485
v 0.134626 0.570076 0.106485
v 0.134626 0.747327 0.271874
v -0.107801 0.747327 0.271874
v -0.019924 0.463421 0.299177
v 0.154900 0.463421 0.299177
v 0.154900 0.591244 0.418446
v -0.019924 0.591244 0.418446
v 0.059397 0.427738 0.304108
v 0.201755 0.427738 0.304108
v 0.201755 0.359087 0.428819
v 0.059397 0.359087 0.428819
v 0.188930 0.366504 0.290229
v 0.303975 0.366504 0.290229
v 0.303975 0.251965 0.279444
v 0.188930 0.251965 0.279444
v 0.309063 0.428184 0.251462
v 0.402720 0.428184 0.251462
v 0.402720 0.391802 0.165160
v 0.309063 0.391802 0.165160
v 0.328375 0.516667 0.273771
v 0.422032 0.516667 0.273771
v 0.422032 0.576260 0.201520
v 0.328375 0.576260 0.201520
v 0.277540 0.574825 0.354729
v 0.308066 0.574825 0.354729
v 0.308066 0.604831 0.360342
v 0.277540 0.604831 0.360342
v -0.029432 1.851032 -0.059957
v 0.056256 1.851032 -0.059957
v 0.047705 1.769882 -0.113105
v -0.020881 1.769882 -0.113105
v -0.029432 1.840116 -0.140797
v 0.056256 1.840116 -0.140797
v 0.058143 1.787670 -0.203078
v -0.031318 1.787670 -0.203078
v 0.166808 0.665801 -0.081204
v -0.137885 0.667685 -0.083088
v -0.107188 0.874492 0.089151
v 0.134013 0.874492 0.089151
v 0.016205 0.728465 -0.199100
v 0.016212 0.667685 -0.083088
v 0.016227 0.570076 0.106485
v 0.069517 0.463421 0.299177
v 0.132229 0.427738 0.304108
v 0.247788 0.366504 0.290229
v 0.356978 0.428184 0.251462
v 0.376291 0.516667 0.273771
v 0.293157 0.574825 0.354729
v 0.293157 0.604831 0.360342
v 0.376291 0.576260 0.201520
v 0.356978 0.391802 0.165160
v 0.247788 0.251965 0.279444
v 0.132229 0.359087 0.428819
v 0.069517 0.591244 0.418446
v 0.016227 0.747327 0.271874
v 0.016212 0.874492 0.089151
v 0.016205 0.936347 0.000271
v 0.014822 1.117623 -0.150382
v 0.014591 1.272423 -0.150332
v 0.014427 1.520053 -0.048735
v 0.014120 1.741552 -0.034639
v 0.014407 1.851032 -0.059957
v 0.014407 1.840116 -0.140797
v 0.014451 1.787670 -0.203078
v 0.014208 1.769882 -0.113105
v 0.014120 1.741552 -0.095582
v 0.014427 1.546293 -0.132104
v 0.014591 1.302902 -0.247170
v 0.014822 1.084034 -0.267087
v -0.129084 0.688660 -0.181908
v -0.048315 0.688660 -0.181908
v -0.048311 0.653709 -0.095099
v -0.129280 0.653709 -0.095099
v -0.123208 0.422667 -0.233809
v -0.054093 0.422667 -0.233809
v -0.054089 0.423724 -0.170576
v -0.123376 0.423724 -0.170576
v 0.068098 0.675032 -0.179444
v 0.183501 0.675032 -0.179444
v 0.183730 0.655452 -0.095209
v 0.068104 0.655452 -0.095209
v 0.082274 0.423191 -0.234105
v 0.169381 0.423191 -0.234105
v 0.169554 0.422064 -0.168838
v 0.082278 0.422064 -0.168838
vt 0.375000 0.000000
vt 0.625000 0.000000
vt 0.375000 0.250000
vt 0.625000 0.250000
vt 0.375000 0.500000
vt 0.625000 0.500000
vt 0.375000 0.750000
vt 0.625000 0.750000
vt 0.375000 1.000000
vt 0.625000 1.000000
vt 0.875000 0.000000
vt 0.875000 0.250000
vt 0.125000 0.000000
vt 0.125000 0.250000
vt 0.375000 0.000000
vt 0.502902 0.000000
vt 0.502902 0.250000
vt 0.375000 0.250000
vt 0.375000 0.250000
vt 0.502902 0.250000
vt 0.502902 0.500000
vt 0.375000 0.500000
vt 0.375000 0.500000
vt 0.502902 0.500000
vt 0.502902 0.750000
vt 0.375000 0.750000
vt 0.375000 0.750000
vt 0.502902 0.750000
vt 0.502902 1.000000
vt 0.375000 1.000000
vt 0.625000 0.000000
vt 0.875000 0.000000
vt 0.875000 0.250000
vt 0.625000 0.250000
vt 0.125000 0.000000
vt 0.125000 0.250000
vt 0.502902 0.750000
vt 0.375000 0.750000
vt 0.625000 0.750000
vt 0.625000 1.000000
vt 0.625000 1.000000
vt 0.625000 0.750000
vt 0.502902 1.000000
vt 0.375000 1.000000
vt 0.375000 1.000000
vt 0.502902 1.000000
vt 0.502902 0.750000
vt 0.375000 0.750000
vt 0.625000 1.000000
vt 0.625000 0.750000
vt 0.375000 1.000000
vt 0.502902 1.000000
vt 0.502902 0.750000
vt 0.375000 0.750000
vt 0.625000 1.000000
vt 0.625000 0.750000
vt 0.375000 1.000000
vt 0.502902 1.000000
vt 0.375000 0.750000
vt 0.502902 0.750000
vt 0.502902 0.750000
vt 0.375000 0.750000
vt 0.625000 1.000000
vt 0.625000 0.750000
vt 0.375000 1.000000
vt 0.502902 1.000000
vt 0.375000 0.750000
vt 0.375000 0.750000
vt 0.502902 0.750000
vt 0.502902 0.750000
vt 0.375000 0.750000
vt 0.625000 0.750000
vt 0.625000 1.000000
vt 0.625000 1.000000
vt 0.625000 0.750000
vt 0.502902 1.000000
vt 0.375000 1.000000
vt 0.375000 1.000000
vt 0.502902 1.000000
vt 0.502902 0.750000
vt 0.375000 0.750000
vt 0.625000 1.000000
vt 0.625000 0.750000
vt 0.375000 1.000000
vt 0.502902 1.000000
vt 0.502902 0.750000
vt 0.375000 0.750000
vt 0.625000 1.000000
vt 0.625000 0.750000
vt 0.375000 1.000000
vt 0.502902 1.000000
vt 0.502902 0.750000
vt 0.375000 0.750000
vt 0.625000 1.000000
vt 0.625000 0.750000
vt 0.375000 1.000000
vt 0.502902 1.000000
vt 0.502902 0.750000
vt 0.375000 0.750000
vt 0.625000 1.000000
vt 0.625000 0.750000
vt 0.375000 1.000000
vt 0.502902 1.000000
vt 0.625000 1.000000
vt 0.625000 0.750000
vt 0.502902 0.250000
vt 0.375000 0.250000
vt 0.625000 0.500000
vt 0.625000 0.500000
vt 0.625000 0.250000
vt 0.375000 0.500000
vt 0.502902 0.500000
vt 0.625000 0.500000
vt 0.625000 0.250000
vt 0.502902 0.750000
vt 0.502902 0.750000
vt 0.625000 0.750000
vt 0.625000 0.750000
vt 0.502902 0.750000
vt 0.502902 0.750000
vt 0.375000 0.750000
vt 0.502902 0.750000
vt 0.375000 0.750000
vt 0.625000 0.750000
vt 0.502902 0.750000
vt 0.625000 0.750000
vt 0.502902 0.750000
vn 0.000000 0.000000 1.000000
vn 0.000000 0.000000 1.000000
vn 0.000000 0.000000 1.000000
vn 0.000000 0.000000 1.000000
vn 0.000000 1.000000 0.000000
vn 0.000000 1.000000 0.000000
vn 0.000000 1.000000 0.000000
vn 0.000000 1.000000 0.000000
vn 0.000000 0.000000 -1.000000
vn 0.000000 0.000000 -1.000000
vn 0.000000 0.000000 -1.000000
vn 0.000000 0.000000 -1.000000
vn 0.000000 -1.000000 0.000000
vn 0.000000 -1.000000 0.000000
vn 0.000000 -1.000000 0.000000
vn 0.000000 -1.000000 0.000000
vn 1.000000 0.000000 0.000000
vn 1.000000 0.000000 0.000000
vn 1.000000 0.000000 0.000000
vn 1.000000 0.000000 0.000000
vn -1.000000 0.000000 0.000000
vn -1.000000 0.000000 0.000000
vn -1.000000 0.000000 0.000000
vn -1.000000 0.000000 0.000000
vn 0.000000 -0.262359 0.964970
vn 0.000000 -0.258202 0.966091
vn 0.000000 0.033132 0.999451
vn 0.000000 0.035106 0.999384
vn 0.000002 0.764916 -0.644131
vn 0.000001 0.764915 -0.644132
vn 0.000001 0.764915 -0.644131
vn 0.000002 0.764916 -0.644131
vn -0.000000 0.093716 -0.995599
vn -0.000000 0.096019 -0.995380
vn -0.000000 0.340665 -0.940185
vn 0.000000 0.344000 -0.938970
vn 0.000000 -0.183883 0.982948
vn 0.000000 -0.183884 0.982948
vn 0.000000 -0.183884 0.982948
vn 0.000000 -0.183883 0.982948
vn 0.999227 0.038234 0.009121
vn 0.999193 0.039098 0.009200
vn 0.999858 0.013504 0.010136
vn 0.999672 0.023438 0.010370
vn -0.999193 0.039098 0.009200
vn -0.999227 0.038234 0.009121
vn -0.999672 0.023438 0.010370
vn -0.999857 0.013504 0.010136
vn 0.000000 0.266235 -0.963908
vn 0.000000 0.262369 -0.964968
vn 0.999251 0.038502 0.003821
vn 0.999297 0.037254 0.004209
vn 0.000000 -0.224611 0.974449
vn 0.000000 -0.229904 0.973213
vn -0.999297 0.037254 0.004209
vn -0.999251 0.038502 0.003821
vn 0.000000 0.090627 -0.995885
vn 0.000000 0.090627 -0.995885
vn 0.998580 0.053278 -0.000776
vn 0.998580 0.053278 -0.000776
vn 0.000000 -0.000324 1.000000
vn 0.000000 -0.000324 1.000000
vn -0.998580 0.053278 -0.000776
vn -0.998580 0.053278 -0.000776
vn 0.000000 -0.187802 -0.982207
vn 0.000000 -0.187802 -0.982207
vn 0.000000 -0.187802 -0.982207
vn 0.000000 -0.187802 -0.982207
vn 0.967224 0.239983 -0.082982
vn 0.967224 0.239983 -0.082982
vn 0.967224 0.239983 -0.082982
vn 0.967224 0.239983 -0.082982
vn 0.000000 0.639158 0.769075
vn 0.000000 0.639158 0.769076
vn 0.000000 0.639158 0.769076
vn 0.000000 0.639158 0.769076
vn -0.968126 0.235325 -0.085756
vn -0.968126 0.235325 -0.085756
vn -0.968126 0.235325 -0.085756
vn -0.968126 0.235325 -0.085756
vn 0.000000 -0.999860 0.016711
vn 0.000000 -0.999860 0.016711
vn 0.000000 -0.999860 0.016711
vn 0.000000 -0.999860 0.016711
vn 0.992846 0.103534 0.059481
vn 0.992846 0.103534 0.059481
vn 0.996037 0.041469 0.078677
vn 0.995848 0.050015 0.076057
vn 0.000000 0.820793 0.571225
vn 0.000000 0.820793 0.571225
vn 0.000000 0.820793 0.571225
vn 0.000000 0.820793 0.571225
vn -0.993696 0.097445 0.055430
vn -0.993696 0.097445 0.055430
vn -0.996381 0.046973 0.070835
vn -0.996560 0.038438 0.073417
vn 0.000000 -0.874920 -0.484268
vn 0.000000 -0.874920 -0.484268
vn 0.000000 -0.874920 -0.484268
vn 0.000000 -0.874920 -0.484268
vn 0.995528 0.064449 -0.069072
vn 0.995528 0.064449 -0.069072
vn 0.995528 0.064449 -0.069072
vn 0.995528 0.064449 -0.069072
vn 0.000000 0.684546 0.728969
vn 0.000000 0.684546 0.728969
vn 0.000000 0.684546 0.728969
vn 0.000000 0.684546 0.728969
vn -0.924824 -0.259513 0.278126
vn -0.924824 -0.259513 0.278126
vn -0.924824 -0.259513 0.278126
vn -0.924824 -0.259513 0.278126
vn 0.000000 -0.136902 -0.990585
vn 0.000000 -0.136902 -0.990585
vn 0.000000 -0.136902 -0.990585
vn 0.000000 -0.136902 -0.990585
vn 0.942352 0.325195 -0.078870
vn 0.942352 0.325195 -0.078870
vn 0.942352 0.325195 -0.078870
vn 0.942352 0.325195 -0.078870
vn 0.000000 0.044639 0.999003
vn 0.000000 0.044639 0.999003
vn 0.000000 0.044639 0.999003
vn 0.000000 0.044639 0.999003
vn -0.857059 -0.500703 0.121435
vn -0.857059 -0.500703 0.121435
vn -0.857059 -0.500703 0.121435
vn -0.857059 -0.500703 0.121435
vn 0.000000 0.221055 -0.975261
vn 0.000000 0.221055 -0.975261
vn 0.000000 0.221055 -0.975261
vn 0.000000 0.221055 -0.975261
vn 0.743859 0.352953 0.567537
vn 0.743859 0.352953 0.567537
vn 0.743859 0.352953 0.567537
vn 0.743859 0.352953 0.567537
vn 0.000000 -0.812637 0.582771
vn 0.000000 -0.812637 0.582770
vn 0.000000 -0.812637 0.582771
vn 0.000000 -0.812637 0.582771
vn -0.659917 -0.396787 -0.638020
vn -0.659917 -0.396787 -0.638020
vn -0.659917 -0.396787 -0.638020
vn -0.659917 -0.396787 -0.638020
vn 0.000000 0.532140 0.846656
vn 0.000000 0.532140 0.846656
vn 0.000000 0.532140 0.846656
vn 0.000000 0.532140 0.846656
vn 0.769223 -0.345702 0.537389
vn 0.769223 -0.345702 0.537389
vn 0.769223 -0.345702 0.537389
vn 0.769223 -0.345702 0.537389
vn 0.000000 -0.632812 -0.774305
vn 0.000000 -0.632812 -0.774305
vn 0.000000 -0.632812 -0.774305
vn 0.000000 -0.632812 -0.774305
vn -0.703365 0.384574 -0.597814
vn -0.703365 0.384574 -0.597813
vn -0.703365 0.384574 -0.597813
vn -0.703365 0.384574 -0.597813
vn 0.000000 -0.244481 0.969654
vn 0.000000 -0.244481 0.969654
vn 0.000000 -0.244481 0.969654
vn 0.000000 -0.244481 0.969654
vn 0.990523 -0.135897 -0.019895
vn 0.990523 -0.135897 -0.019895
vn 0.990523 -0.135897 -0.019895
vn 0.990523 -0.135897 -0.019895
vn 0.000000 0.193397 -0.981121
vn 0.000000 0.193397 -0.981121
vn 0.000000 0.193397 -0.981121
vn 0.000000 0.193397 -0.981121
vn -0.990523 0.135896 0.019895
vn -0.990523 0.135896 0.019895
vn -0.990523 0.135896 0.019895
vn -0.990523 0.135896 0.019895
vn 0.000000 -0.812159 0.583436
vn 0.000000 -0.812159 0.583436
vn 0.000000 -0.812159 0.583436
vn 0.000000 -0.812159 0.583436
vn 0.730981 0.407238 0.547561
vn 0.730981 0.407238 0.547561
vn 0.730981 0.407238 0.547561
vn 0.730981 0.407238 0.547561
vn 0.000000 0.984202 -0.177050
vn 0.000000 0.984202 -0.177049
vn 0.000000 0.984202 -0.177049
vn 0.000000 0.984202 -0.177049
vn -0.923160 -0.229410 -0.308458
vn -0.923160 -0.229410 -0.308458
vn -0.923160 -0.229410 -0.308458
vn -0.923160 -0.229410 -0.308458
vn 0.000000 0.225305 0.974288
vn 0.000000 0.225305 0.974288
vn 0.993793 -0.105928 0.033997
vn 0.993792 -0.105512 0.035293
vn -0.000002 -0.526025 -0.850469
vn -0.000001 -0.526025 -0.850469
vn -0.993792 -0.105511 0.035292
vn -0.993793 -0.105928 0.033996
vn -0.000000 0.991007 -0.133811
vn 0.000001 0.991007 -0.133809
vn 0.000001 0.991007 -0.133809
vn -0.000000 0.991007 -0.133811
vn 0.993510 -0.098586 0.056739
vn 0.993510 -0.098586 0.056739
vn -0.000003 -0.981012 -0.193949
vn -0.000006 -0.981012 -0.193950
vn -0.000006 -0.981012 -0.193950
vn -0.000003 -0.981012 -0.193948
vn -0.993510 -0.098585 0.056738
vn -0.993510 -0.098585 0.056738
vn 0.000000 -0.889069 -0.457773
vn -0.001481 -0.889444 -0.457041
vn -0.001489 -0.889447 -0.457037
vn 0.000000 -0.889069 -0.457773
vn -0.996531 0.006731 0.082948
vn -0.996531 0.006731 0.082948
vn 0.000000 0.820793 0.571225
vn 0.000000 0.820793 0.571226
vn 0.995993 0.007083 0.089146
vn 0.995993 0.007083 0.089146
vn 0.000000 -0.999851 -0.017274
vn 0.000000 -0.999851 -0.017274
vn 0.000000 -0.999851 -0.017274
vn 0.000000 -0.999851 -0.017274
vn -0.003036 -0.889836 -0.456271
vn -0.003036 -0.889836 -0.456271
vn 0.000000 -0.874920 -0.484268
vn 0.000000 -0.874920 -0.484268
vn 0.000000 -0.136902 -0.990585
vn 0.000000 -0.136902 -0.990585
vn 0.000000 0.221055 -0.975261
vn 0.000000 0.221055 -0.975261
vn 0.000000 0.532140 0.846656
vn 0.000000 0.532140 0.846656
vn 0.000000 -0.244480 0.969654
vn 0.000000 -0.244480 0.969654
vn 0.000000 -0.812159 0.583436
vn 0.000000 -0.812159 0.583436
vn 0.000000 -0.183884 0.982948
vn 0.000000 -0.183884 0.982948
vn 0.000000 0.984202 -0.177050
vn 0.000000 0.984202 -0.177050
vn 0.000000 0.193397 -0.981121
vn 0.000000 0.193397 -0.981121
vn 0.000000 -0.632812 -0.774305
vn 0.000000 -0.632812 -0.774305
vn 0.000000 -0.812637 0.582771
vn 0.000000 -0.812637 0.582771
vn 0.000000 0.044639 0.999003
vn 0.000000 0.044639 0.999003
vn 0.000000 0.684546 0.728969
vn 0.000000 0.684546 0.728969
vn 0.000000 0.820793 0.571225
vn 0.000000 0.820793 0.571226
vn 0.000000 0.820793 0.571225
vn 0.000000 0.639158 0.769075
vn 0.000000 0.639158 0.769075
vn 0.000000 -0.224611 0.974449
vn 0.000000 -0.000324 1.000000
vn 0.000000 -0.262359 0.964970
vn 0.000000 0.035106 0.999384
vn 0.000001 0.225305 0.974288
vn 0.000001 0.991007 -0.133807
vn 0.000001 0.991007 -0.133807
vn 0.000000 0.764914 -0.644132
vn 0.000000 0.764914 -0.644132
vn 0.000000 -0.981012 -0.193947
vn 0.000000 -0.981012 -0.193947
vn -0.000000 0.093716 -0.995599
vn 0.000000 -0.526024 -0.850470
vn -0.000000 0.344000 -0.938970
vn 0.000000 0.262369 -0.964967
vn 0.000000 0.090627 -0.995885
vn 0.000000 -0.187802 -0.982207
vn 0.000000 -0.187802 -0.982207
vn 0.000000 -0.396513 -0.918029
vn 0.000000 -0.396513 -0.918029
vn 0.000000 -0.396513 -0.918029
vn 0.000000 -0.396513 -0.918029
vn 0.338516 -0.850930 -0.401654
vn 0.338516 -0.850930 -0.401654
vn 0.338516 -0.850930 -0.401654
vn 0.338516 -0.850930 -0.401654
vn 0.000000 -0.651794 0.758396
vn 0.000000 -0.651794 0.758396
vn 0.000000 -0.360551 0.932739
vn 0.000000 -0.377516 0.926003
vn -0.937916 -0.312789 -0.149920
vn -0.937917 -0.312789 -0.149920
vn -0.937917 -0.312789 -0.149920
vn -0.937917 -0.312789 -0.149920
vn 0.000000 0.191511 -0.981491
vn 0.000000 0.191511 -0.981491
vn 0.000000 0.191511 -0.981491
vn 0.000000 0.191511 -0.981491
vn 0.999745 -0.022004 -0.005027
vn 0.999745 -0.022004 -0.005027
vn 0.999745 -0.022004 -0.005027
vn 0.999745 -0.022004 -0.005027
vn 0.000000 -0.311820 0.950141
vn 0.000000 -0.311820 0.950141
vn -0.999734 -0.021856 -0.007358
vn -0.999734 -0.021856 -0.007358
vn -0.999734 -0.021856 -0.007358
vn -0.999734 -0.021856 -0.007358
vn 0.000000 -0.345261 -0.938507
vn 0.000000 -0.345261 -0.938507
vn 0.000000 -0.345261 -0.938507
vn 0.000000 -0.345261 -0.938507
vn 0.859655 0.473984 0.190613
vn 0.859655 0.473984 0.190613
vn 0.859655 0.473984 0.190613
vn 0.859655 0.473984 0.190613
vn -0.009964 -0.769354 0.638744
vn -0.009964 -0.769354 0.638744
vn -0.009964 -0.769354 0.638744
vn -0.009964 -0.769354 0.638744
vn -0.488711 -0.809691 -0.324903
vn -0.488712 -0.809691 -0.324903
vn -0.488712 -0.809691 -0.324903
vn -0.488711 -0.809691 -0.324903
vn 0.000000 0.212109 -0.977246
vn 0.000000 0.212109 -0.977246
vn 0.000000 0.212109 -0.977246
vn 0.000000 0.212109 -0.977246
vn 0.998406 -0.055479 -0.010370
vn 0.998406 -0.055479 -0.010370
vn 0.998406 -0.055479 -0.010370
vn 0.998406 -0.055479 -0.010370
vn 0.000000 -0.300864 0.953667
vn 0.000000 -0.300864 0.953667
vn 0.000000 -0.300864 0.953667
vn 0.000000 -0.300864 0.953667
vn -0.998385 -0.056288 -0.007734
vn -0.998385 -0.056288 -0.007734
vn -0.998385 -0.056288 -0.007734
vn -0.998385 -0.056288 -0.007734
s off
f 1/1/1 2/2/2 4/4/3 3/3/4
f 3/3/5 4/4/6 6/6/7 5/5/8
f 5/5/9 6/6/10 8/8/11 7/7/12
f 7/7/13 8/8/14 2/10/15 1/9/16
f 2/2/17 8/11/18 6/12/19 4/4/20
f 7/13/21 1/1/22 3/3/23 5/14/24
s 1
f 9/15/25 89/16/26 90/17/27 11/18/28
s 2
f 61/19/29 92/20/30 93/21/31 64/22/32
s 3
f 13/23/33 95/24/34 96/25/35 15/26/36
s 4
f 53/27/37 77/28/38 78/29/39 56/30/40
s 5
f 10/31/41 16/32/42 14/33/43 12/34/44
s 6
f 15/35/45 9/15/46 11/18/47 13/36/48
s 3
f 15/26/36 96/25/35 97/37/49 17/38/50
s 5
f 16/39/42 10/40/41 19/41/51 18/42/52
s 1
f 89/43/26 9/44/25 20/45/53 88/46/54
s 6
f 9/44/46 15/26/45 17/38/55 20/45/56
s 3
f 17/38/50 97/37/49 98/47/57 21/48/58
s 5
f 18/42/52 19/41/51 23/49/59 22/50/60
s 1
f 88/46/54 20/45/53 24/51/61 87/52/62
s 6
f 20/45/56 17/38/55 21/48/63 24/51/64
s 7
f 21/48/65 98/47/66 69/53/67 25/54/68
s off
f 22/50/69 23/49/70 27/55/71 26/56/72
s 8
f 87/52/73 24/51/74 28/57/75 86/58/76
s off
f 24/51/77 21/48/78 25/54/79 28/57/80
f 103/59/81 104/60/82 105/61/83 106/62/84
s 9
f 26/56/85 27/55/86 68/63/87 65/64/88
s 10
f 86/58/89 28/57/90 67/65/91 85/66/92
s 11
f 28/57/93 25/54/94 66/67/95 67/65/96
s 12
f 29/68/97 71/69/98 72/70/99 33/71/100
s off
f 30/72/101 31/73/102 35/74/103 34/75/104
s 13
f 84/76/105 32/77/106 36/78/107 83/79/108
s off
f 32/77/109 29/68/110 33/71/111 36/78/112
s 14
f 33/71/113 72/70/114 73/80/115 37/81/116
s off
f 34/75/117 35/74/118 39/82/119 38/83/120
s 15
f 83/79/121 36/78/122 40/84/123 82/85/124
s off
f 36/78/125 33/71/126 37/81/127 40/84/128
s 16
f 37/81/129 73/80/130 74/86/131 41/87/132
s off
f 38/83/133 39/82/134 43/88/135 42/89/136
s 17
f 82/85/137 40/84/138 44/90/139 81/91/140
s off
f 40/84/141 37/81/142 41/87/143 44/90/144
s 18
f 41/87/145 74/86/146 75/92/147 45/93/148
s off
f 42/89/149 43/88/150 47/94/151 46/95/152
s 19
f 81/91/153 44/90/154 48/96/155 80/97/156
s off
f 44/90/157 41/87/158 45/93/159 48/96/160
s 20
f 45/93/161 75/92/162 76/98/163 49/99/164
s off
f 46/95/165 47/94/166 51/100/167 50/101/168
s 21
f 80/97/169 48/96/170 52/102/171 79/103/172
s off
f 48/96/173 45/93/174 49/99/175 52/102/176
s 22
f 49/99/177 76/98/178 77/28/179 53/27/180
s off
f 50/101/181 51/100/182 55/104/183 54/105/184
s 23
f 79/103/185 52/102/186 56/30/187 78/29/188
s off
f 52/102/189 49/99/190 53/27/191 56/30/192
s 1
f 11/18/28 90/17/27 91/106/193 57/107/194
s 5
f 12/34/44 14/108/43 59/109/195 58/110/196
s 3
f 95/24/34 13/23/33 60/111/197 94/112/198
s 6
f 13/23/48 11/18/47 57/107/199 60/111/200
s 24
f 57/107/201 91/106/202 92/20/203 61/19/204
s 5
f 58/110/196 59/109/195 63/113/205 62/114/206
s 25
f 94/112/207 60/111/208 64/22/209 93/21/210
s 6
f 60/111/200 57/107/199 61/19/211 64/22/212
s 26
f 66/67/213 70/115/214 71/69/215 29/68/216
s 11
f 67/65/96 66/67/95 29/68/217 32/77/218
s 10
f 85/66/92 67/65/91 32/77/219 84/76/220
s 9
f 65/64/88 68/63/87 31/73/221 30/72/222
s off
f 111/116/223 112/117/224 113/118/225 114/119/226
s 26
f 71/69/215 70/115/214 65/64/227 30/72/228
s 12
f 72/70/99 71/69/98 30/72/229 34/75/230
s 14
f 73/80/115 72/70/114 34/75/231 38/83/232
s 16
f 74/86/131 73/80/130 38/83/233 42/89/234
s 18
f 75/92/147 74/86/146 42/89/235 46/95/236
s 20
f 76/98/163 75/92/162 46/95/237 50/101/238
s 22
f 77/28/179 76/98/178 50/101/239 54/105/240
s 4
f 78/29/39 77/28/38 54/105/241 55/104/242
s 23
f 51/100/243 79/103/185 78/29/188 55/104/244
s 21
f 47/94/245 80/97/169 79/103/172 51/100/246
s 19
f 43/88/247 81/91/153 80/97/156 47/94/248
s 17
f 39/82/249 82/85/137 81/91/140 43/88/250
s 15
f 35/74/251 83/79/121 82/85/124 39/82/252
s 13
f 31/73/253 84/76/105 83/79/108 35/74/254
s 10
f 68/63/255 85/66/92 84/76/220 31/73/256
f 27/55/257 86/58/89 85/66/92 68/63/255
s 8
f 23/49/258 87/52/73 86/58/76 27/55/259
s 1
f 19/41/260 88/46/54 87/52/62 23/49/261
f 10/40/262 89/43/26 88/46/54 19/41/260
f 90/17/27 89/16/26 10/31/262 12/34/263
f 91/106/193 90/17/27 12/34/263 58/110/264
s 24
f 92/20/203 91/106/202 58/110/265 62/114/266
s 2
f 93/21/31 92/20/30 62/114/267 63/113/268
s 25
f 59/109/269 94/112/207 93/21/210 63/113/270
s 3
f 14/108/271 95/24/34 94/112/198 59/109/272
f 96/25/35 95/24/34 14/108/271 16/39/273
f 97/37/49 96/25/35 16/39/273 18/42/274
f 98/47/57 97/37/49 18/42/274 22/50/275
s 7
f 69/53/67 98/47/66 22/50/276 26/56/277
s off
f 25/54/278 69/53/279 100/120/280 99/121/281
f 69/53/282 70/115/283 101/122/284 100/120/285
s 27
f 70/115/286 66/67/287 102/123/288 101/122/289
s off
f 66/67/290 25/54/291 99/121/292 102/123/293
f 99/121/294 100/120/295 104/60/296 103/59/297
f 100/120/298 101/122/299 105/61/300 104/60/301
s 27
f 101/122/289 102/123/288 106/62/302 105/61/303
s off
f 102/123/304 99/121/305 103/59/306 106/62/307
f 69/53/308 26/56/309 108/124/310 107/125/311
f 26/56/312 65/64/313 109/126/314 108/124/315
f 65/64/316 70/115/317 110/127/318 109/126/319
f 70/115/320 69/53/321 107/125/322 110/127/323
f 107/125/324 108/124/325 112/117/326 111/116/327
f 108/124/328 109/126/329 113/118/330 112/117/331
f 109/126/332 110/127/333 114/119/334 113/118/335
f 110/127/336 107/125/337 111/116/338 114/119/339
