# This file uses centimeters as units for non-parametric coordinates.

mtllib BUILDDECALVIS4.mtl
g default
v 0.467603 0.000000 -0.036913
v 0.557876 0.000000 -0.107312
v 0.612297 0.000000 -0.284791
v 0.509508 0.000000 -0.513031
v 0.203118 0.000000 -0.673629
v -0.163347 0.000000 -0.707767
v -0.404504 0.000000 -0.597908
v -0.564595 0.000000 -0.420038
v -0.665729 0.000000 -0.142793
v -0.700000 0.000000 0.190723
v -0.665740 0.000000 0.462492
v -0.566312 0.000000 0.608083
v -0.411450 0.000000 0.680010
v -0.183466 0.000000 0.732930
v 0.160687 0.000000 0.754499
v 0.463666 0.000000 0.666910
v 0.644645 0.000000 0.458259
v 0.729829 0.000000 0.199499
v 0.615481 0.000000 0.052303
v 0.461874 0.000000 0.014698
v 0.467603 0.076008 -0.036913
v 0.557876 0.076008 -0.107312
v 0.612297 0.076008 -0.284791
v 0.509508 0.076008 -0.513031
v 0.203118 0.076008 -0.673629
v -0.163347 0.076008 -0.707767
v -0.404504 0.076008 -0.597908
v -0.564595 0.076008 -0.420038
v -0.665729 0.076008 -0.142793
v -0.700000 0.076008 0.190723
v -0.665740 0.076008 0.462492
v -0.566312 0.076008 0.608083
v -0.411450 0.076008 0.680010
v -0.183466 0.076008 0.732930
v 0.160687 0.076008 0.754499
v 0.463666 0.076008 0.666910
v 0.644645 0.076008 0.458259
v 0.729829 0.076008 0.199499
v 0.615481 0.076008 0.052303
v 0.461874 0.076008 0.014698
v 0.025495 0.000000 -0.026182
v 0.025495 0.076008 -0.026182
v -0.096189 0.000000 -0.400336
v -0.187478 0.000000 -0.400336
v -0.229091 0.000000 -0.322394
v -0.184075 0.000000 -0.244452
v -0.091254 0.000000 -0.244452
v -0.044641 0.000000 -0.322394
v -0.096189 0.130000 -0.400336
v -0.187478 0.130000 -0.400336
v -0.229091 0.130000 -0.322394
v -0.184075 0.130000 -0.244452
v -0.091254 0.130000 -0.244452
v -0.044641 0.130000 -0.322394
v -0.138116 0.000000 -0.322394
v -0.138116 0.130000 -0.322394
v 0.524733 0.000000 -0.385363
v 0.211940 0.000000 -0.228602
v 0.124230 0.000000 -0.096631
v 0.317396 0.000000 -0.081383
v 0.567891 0.000000 -0.173469
v 0.613004 0.000000 -0.288501
v 0.524733 0.130000 -0.385363
v 0.211940 0.130000 -0.228602
v 0.122646 0.130000 -0.096631
v 0.315261 0.130000 -0.081383
v 0.567891 0.130000 -0.173469
v 0.613004 0.130000 -0.288501
v 0.456522 0.000000 -0.254932
v 0.456522 0.130000 -0.254932
vt 0.648603 0.107966
vt 0.626409 0.064408
vt 0.591842 0.029841
vt 0.548284 0.007647
vt 0.500000 -0.000000
vt 0.451716 0.007647
vt 0.408159 0.029841
vt 0.373591 0.064409
vt 0.351397 0.107966
vt 0.343750 0.156250
vt 0.351397 0.204534
vt 0.373591 0.248091
vt 0.408159 0.282659
vt 0.451716 0.304853
vt 0.500000 0.312500
vt 0.548284 0.304853
vt 0.591841 0.282659
vt 0.626409 0.248091
vt 0.648603 0.204534
vt 0.656250 0.156250
vt 0.375000 0.312500
vt 0.387500 0.312500
vt 0.400000 0.312500
vt 0.412500 0.312500
vt 0.425000 0.312500
vt 0.437500 0.312500
vt 0.450000 0.312500
vt 0.462500 0.312500
vt 0.475000 0.312500
vt 0.487500 0.312500
vt 0.500000 0.312500
vt 0.512500 0.312500
vt 0.525000 0.312500
vt 0.537500 0.312500
vt 0.550000 0.312500
vt 0.562500 0.312500
vt 0.575000 0.312500
vt 0.587500 0.312500
vt 0.600000 0.312500
vt 0.612500 0.312500
vt 0.625000 0.312500
vt 0.375000 0.688440
vt 0.387500 0.688440
vt 0.400000 0.688440
vt 0.412500 0.688440
vt 0.425000 0.688440
vt 0.437500 0.688440
vt 0.450000 0.688440
vt 0.462500 0.688440
vt 0.475000 0.688440
vt 0.487500 0.688440
vt 0.500000 0.688440
vt 0.512500 0.688440
vt 0.525000 0.688440
vt 0.537500 0.688440
vt 0.550000 0.688440
vt 0.562500 0.688440
vt 0.575000 0.688440
vt 0.587500 0.688440
vt 0.600000 0.688440
vt 0.612500 0.688440
vt 0.625000 0.688440
vt 0.648603 0.795466
vt 0.626409 0.751908
vt 0.591842 0.717341
vt 0.548284 0.695147
vt 0.500000 0.687500
vt 0.451716 0.695147
vt 0.408159 0.717341
vt 0.373591 0.751909
vt 0.351397 0.795466
vt 0.343750 0.843750
vt 0.351397 0.892034
vt 0.373591 0.935591
vt 0.408159 0.970159
vt 0.451716 0.992353
vt 0.500000 1.000000
vt 0.548284 0.992353
vt 0.591841 0.970159
vt 0.626409 0.935591
vt 0.648603 0.892034
vt 0.656250 0.843750
vt 0.500000 0.150000
vt 0.500000 0.837500
vt 0.375000 0.312500
vt 0.416667 0.312500
vt 0.416667 0.688440
vt 0.375000 0.688440
vt 0.458333 0.312500
vt 0.458333 0.688440
vt 0.500000 0.312500
vt 0.500000 0.688440
vt 0.541667 0.312500
vt 0.541667 0.688440
vt 0.583333 0.312500
vt 0.583333 0.688440
vt 0.625000 0.312500
vt 0.625000 0.688440
vt 0.421875 0.020934
vt 0.578125 0.020934
vt 0.500000 0.150000
vt 0.343750 0.156250
vt 0.421875 0.291566
vt 0.578125 0.291566
vt 0.656250 0.156250
vt 0.578125 0.979066
vt 0.421875 0.979066
vt 0.500000 0.837500
vt 0.343750 0.843750
vt 0.421875 0.708434
vt 0.578125 0.708434
vt 0.656250 0.843750
vt 0.375000 0.312500
vt 0.416667 0.312500
vt 0.416667 0.688440
vt 0.375000 0.688440
vt 0.458333 0.312500
vt 0.458333 0.688440
vt 0.500000 0.312500
vt 0.500000 0.688440
vt 0.541667 0.312500
vt 0.541667 0.688440
vt 0.583333 0.312500
vt 0.583333 0.688440
vt 0.625000 0.312500
vt 0.625000 0.688440
vt 0.421875 0.020934
vt 0.578125 0.020934
vt 0.500000 0.150000
vt 0.343750 0.156250
vt 0.421875 0.291566
vt 0.578125 0.291566
vt 0.656250 0.156250
vt 0.578125 0.979066
vt 0.421875 0.979066
vt 0.500000 0.837500
vt 0.343750 0.843750
vt 0.421875 0.708434
vt 0.578125 0.708434
vt 0.656250 0.843750
vn 0.785890 0.000000 0.618366
vn 0.863629 0.000000 0.504127
vn 0.863629 0.000000 0.504127
vn 0.785890 0.000000 0.618366
vn 0.992969 0.000000 -0.118376
vn 0.992969 0.000000 -0.118376
vn 0.688859 0.000000 -0.724896
vn 0.688859 0.000000 -0.724896
vn 0.278009 0.000000 -0.960579
vn 0.278009 0.000000 -0.960579
vn -0.123663 0.000000 -0.992324
vn -0.123663 0.000000 -0.992324
vn -0.582745 0.000000 -0.812655
vn -0.582745 0.000000 -0.812655
vn -0.867289 0.000000 -0.497805
vn -0.867289 0.000000 -0.497805
vn -0.976295 0.000000 -0.216444
vn -0.976295 0.000000 -0.216444
vn -1.000000 0.000000 -0.000017
vn -1.000000 0.000000 -0.000017
vn -0.952336 0.000000 0.305051
vn -0.952336 0.000000 0.305051
vn -0.650025 0.000000 0.759913
vn -0.650025 0.000000 0.759913
vn -0.310032 0.000000 0.950726
vn -0.310032 0.000000 0.950726
vn -0.129104 0.000000 0.991631
vn -0.129104 0.000000 0.991631
vn 0.101492 0.000000 0.994836
vn 0.101492 0.000000 0.994836
vn 0.522076 0.000000 0.852899
vn 0.522076 0.000000 0.852899
vn 0.868987 0.000000 0.494836
vn 0.868987 0.000000 0.494836
vn 0.997429 0.000000 -0.071656
vn 0.997429 0.000000 -0.071656
vn 0.567743 0.000000 -0.823206
vn 0.567743 0.000000 -0.823206
vn 0.516578 0.000000 -0.856240
vn 0.516578 0.000000 -0.856240
vn 0.000000 -1.000000 0.000000
vn 0.000000 -1.000000 0.000000
vn 0.000000 -1.000000 0.000000
vn 0.000000 -1.000000 0.000000
vn 0.000000 -1.000000 0.000000
vn 0.000000 -1.000000 0.000000
vn 0.000000 -1.000000 0.000000
vn 0.000000 -1.000000 0.000000
vn 0.000000 -1.000000 0.000000
vn 0.000000 -1.000000 0.000000
vn 0.000000 -1.000000 0.000000
vn 0.000000 -1.000000 0.000000
vn 0.000000 -1.000000 0.000000
vn 0.000000 -1.000000 0.000000
vn 0.000000 -1.000000 0.000000
vn 0.000000 -1.000000 0.000000
vn 0.000000 -1.000000 0.000000
vn 0.000000 -1.000000 0.000000
vn 0.000000 -1.000000 0.000000
vn 0.000000 -1.000000 0.000000
vn 0.000000 -1.000000 0.000000
vn 0.000000 1.000000 0.000000
vn 0.000000 1.000000 -0.000000
vn 0.000000 1.000000 -0.000000
vn 0.000000 1.000000 0.000000
vn 0.000000 1.000000 0.000000
vn 0.000000 1.000000 0.000000
vn 0.000000 1.000000 0.000000
vn 0.000000 1.000000 0.000000
vn 0.000000 1.000000 0.000000
vn 0.000000 1.000000 -0.000000
vn 0.000000 1.000000 -0.000000
vn 0.000000 1.000000 0.000000
vn 0.000000 1.000000 0.000000
vn 0.000000 1.000000 0.000000
vn 0.000000 1.000000 0.000000
vn 0.000000 1.000000 -0.000000
vn 0.000000 1.000000 -0.000000
vn 0.000000 1.000000 0.000000
vn 0.000000 1.000000 0.000000
vn 0.000000 1.000000 0.000000
vn 0.000000 1.000000 0.000000
vn 0.000000 0.000000 -1.000000
vn 0.000000 0.000000 -1.000000
vn 0.000000 0.000000 -1.000000
vn 0.000000 0.000000 -1.000000
vn -0.882144 0.000000 -0.470980
vn -0.882144 0.000000 -0.470980
vn -0.882144 0.000000 -0.470980
vn -0.882144 0.000000 -0.470980
vn -0.865944 0.000000 0.500141
vn -0.865944 0.000000 0.500141
vn -0.865944 0.000000 0.500141
vn -0.865944 0.000000 0.500141
vn 0.000000 0.000000 1.000000
vn 0.000000 0.000000 1.000000
vn 0.000000 0.000000 1.000000
vn 0.000000 0.000000 1.000000
vn 0.858231 0.000000 0.513263
vn 0.858231 0.000000 0.513263
vn 0.858231 0.000000 0.513263
vn 0.858231 0.000000 0.513263
vn 0.834086 0.000000 -0.551634
vn 0.834086 0.000000 -0.551634
vn 0.834086 0.000000 -0.551634
vn 0.834086 0.000000 -0.551634
vn 0.000000 -1.000000 0.000000
vn 0.000000 -1.000000 0.000000
vn 0.000000 -1.000000 0.000000
vn 0.000000 -1.000000 0.000000
vn 0.000000 -1.000000 0.000000
vn 0.000000 -1.000000 0.000000
vn 0.000000 -1.000000 0.000000
vn 0.000000 1.000000 0.000000
vn 0.000000 1.000000 0.000000
vn 0.000000 1.000000 -0.000000
vn 0.000000 1.000000 0.000000
vn 0.000000 1.000000 0.000000
vn 0.000000 1.000000 -0.000000
vn 0.000000 1.000000 -0.000000
vn -0.448047 0.000000 -0.894010
vn -0.448047 0.000000 -0.894010
vn -0.448047 0.000000 -0.894010
vn -0.448047 0.000000 -0.894010
vn -0.830522 -0.005061 -0.556963
vn -0.830522 -0.005061 -0.556963
vn -0.830522 -0.005061 -0.556963
vn -0.830522 -0.005061 -0.556963
vn -0.078801 -0.001127 0.996890
vn -0.078801 -0.001127 0.996890
vn -0.078801 -0.001127 0.996890
vn -0.078801 -0.001127 0.996890
vn 0.343746 0.002822 0.939058
vn 0.343746 0.002822 0.939058
vn 0.343746 0.002822 0.939058
vn 0.343746 0.002822 0.939058
vn 0.930968 0.000000 0.365102
vn 0.930968 0.000000 0.365102
vn 0.930968 0.000000 0.365102
vn 0.930968 0.000000 0.365102
vn 0.739122 0.000000 -0.673572
vn 0.739122 0.000000 -0.673572
vn 0.739122 0.000000 -0.673572
vn 0.739122 0.000000 -0.673572
vn 0.000000 -1.000000 0.000000
vn 0.000000 -1.000000 0.000000
vn 0.000000 -1.000000 0.000000
vn 0.000000 -1.000000 0.000000
vn 0.000000 -1.000000 0.000000
vn 0.000000 -1.000000 0.000000
vn 0.000000 -1.000000 0.000000
vn 0.000000 1.000000 -0.000000
vn 0.000000 1.000000 -0.000000
vn 0.000000 1.000000 -0.000000
vn 0.000000 1.000000 0.000000
vn 0.000000 1.000000 0.000000
vn 0.000000 1.000000 0.000000
vn 0.000000 1.000000 0.000000
s 1
g BUILDDECALVIS4 DECALS
usemtl initialShadingGroup
f 1/21/1 2/22/2 22/43/3 21/42/4
f 2/22/2 3/23/5 23/44/6 22/43/3
f 3/23/5 4/24/7 24/45/8 23/44/6
f 4/24/7 5/25/9 25/46/10 24/45/8
f 5/25/9 6/26/11 26/47/12 25/46/10
f 6/26/11 7/27/13 27/48/14 26/47/12
f 7/27/13 8/28/15 28/49/16 27/48/14
f 8/28/15 9/29/17 29/50/18 28/49/16
f 9/29/17 10/30/19 30/51/20 29/50/18
f 10/30/19 11/31/21 31/52/22 30/51/20
f 11/31/21 12/32/23 32/53/24 31/52/22
f 12/32/23 13/33/25 33/54/26 32/53/24
f 13/33/25 14/34/27 34/55/28 33/54/26
f 14/34/27 15/35/29 35/56/30 34/55/28
f 15/35/29 16/36/31 36/57/32 35/56/30
f 16/36/31 17/37/33 37/58/34 36/57/32
f 17/37/33 18/38/35 38/59/36 37/58/34
f 18/38/35 19/39/37 39/60/38 38/59/36
f 19/39/37 20/40/39 40/61/40 39/60/38
f 20/40/39 1/41/1 21/62/4 40/61/40
s 2
f 2/2/41 1/1/42 41/83/43
f 3/3/44 2/2/41 41/83/43
f 4/4/45 3/3/44 41/83/43
f 5/5/46 4/4/45 41/83/43
f 6/6/47 5/5/46 41/83/43
f 7/7/48 6/6/47 41/83/43
f 8/8/49 7/7/48 41/83/43
f 9/9/50 8/8/49 41/83/43
f 10/10/51 9/9/50 41/83/43
f 11/11/52 10/10/51 41/83/43
f 12/12/53 11/11/52 41/83/43
f 13/13/54 12/12/53 41/83/43
f 14/14/55 13/13/54 41/83/43
f 15/15/56 14/14/55 41/83/43
f 16/16/57 15/15/56 41/83/43
f 17/17/58 16/16/57 41/83/43
f 18/18/59 17/17/58 41/83/43
f 19/19/60 18/18/59 41/83/43
f 20/20/61 19/19/60 41/83/43
f 1/1/42 20/20/61 41/83/43
s 3
f 21/81/62 22/80/63 42/84/64
f 22/80/63 23/79/65 42/84/64
f 23/79/65 24/78/66 42/84/64
f 24/78/66 25/77/67 42/84/64
f 25/77/67 26/76/68 42/84/64
f 26/76/68 27/75/69 42/84/64
f 27/75/69 28/74/70 42/84/64
f 28/74/70 29/73/71 42/84/64
f 29/73/71 30/72/72 42/84/64
f 30/72/72 31/71/73 42/84/64
f 31/71/73 32/70/74 42/84/64
f 32/70/74 33/69/75 42/84/64
f 33/69/75 34/68/76 42/84/64
f 34/68/76 35/67/77 42/84/64
f 35/67/77 36/66/78 42/84/64
f 36/66/78 37/65/79 42/84/64
f 37/65/79 38/64/80 42/84/64
f 38/64/80 39/63/81 42/84/64
f 39/63/81 40/82/82 42/84/64
f 40/82/82 21/81/62 42/84/64
s off
f 43/85/83 44/86/84 50/87/85 49/88/86
f 44/86/87 45/89/88 51/90/89 50/87/90
f 45/89/91 46/91/92 52/92/93 51/90/94
f 46/91/95 47/93/96 53/94/97 52/92/98
f 47/93/99 48/95/100 54/96/101 53/94/102
f 48/95/103 43/97/104 49/98/105 54/96/106
s 4
f 44/99/107 43/100/108 55/101/109
f 45/102/110 44/99/107 55/101/109
f 46/103/111 45/102/110 55/101/109
f 47/104/112 46/103/111 55/101/109
f 48/105/113 47/104/112 55/101/109
f 43/100/108 48/105/113 55/101/109
s 5
f 49/106/114 50/107/115 56/108/116
f 50/107/115 51/109/117 56/108/116
f 51/109/117 52/110/118 56/108/116
f 52/110/118 53/111/119 56/108/116
f 53/111/119 54/112/120 56/108/116
f 54/112/120 49/106/114 56/108/116
s off
f 57/113/121 58/114/122 64/115/123 63/116/124
f 58/114/125 59/117/126 65/118/127 64/115/128
f 59/117/129 60/119/130 66/120/131 65/118/132
f 60/119/133 61/121/134 67/122/135 66/120/136
f 61/121/137 62/123/138 68/124/139 67/122/140
f 62/123/141 57/125/142 63/126/143 68/124/144
s 6
f 58/127/145 57/128/146 69/129/147
f 59/130/148 58/127/145 69/129/147
f 60/131/149 59/130/148 69/129/147
f 61/132/150 60/131/149 69/129/147
f 62/133/151 61/132/150 69/129/147
f 57/128/146 62/133/151 69/129/147
s 7
f 63/134/152 64/135/153 70/136/154
f 64/135/153 65/137/155 70/136/154
f 65/137/155 66/138/156 70/136/154
f 66/138/156 67/139/157 70/136/154
f 67/139/157 68/140/158 70/136/154
f 68/140/158 63/134/152 70/136/154
