# This file uses centimeters as units for non-parametric coordinates.

mtllib BUILDDECAL2.mtl
g default
v -1.598007 0.000000 0.214755
v -0.958804 0.000000 0.214755
v -0.799004 0.000000 0.110793
v 0.799004 0.000000 0.110793
v 0.958804 0.000000 0.214755
v 1.598007 0.000000 0.214755
v -1.598007 0.000000 -0.006830
v -0.958804 0.000000 -0.006830
v -0.799004 0.000000 -0.006830
v 0.799004 0.000000 -0.006830
v 0.958804 0.000000 -0.006830
v 1.598007 0.000000 -0.006830
v -1.598007 0.053788 0.214755
v -0.958804 0.053788 0.214755
v -0.958804 0.053788 -0.006830
v -1.598007 0.053788 -0.006830
v -0.799004 0.053788 0.110793
v -0.799004 0.053788 -0.006830
v 0.799004 0.053788 0.110793
v 0.799004 0.053788 -0.006830
v 0.958804 0.053788 0.214755
v 0.958804 0.053788 -0.006830
v 1.598007 0.053788 0.214755
v 1.598007 0.053788 -0.006830
vt 0.000000 0.000000
vt 0.200000 0.000000
vt 0.400000 0.000000
vt 0.600000 0.000000
vt 0.800000 0.000000
vt 1.000000 0.000000
vt 0.000000 0.051724
vt 0.200000 0.051724
vt 0.400000 0.051724
vt 0.600000 0.051724
vt 0.800000 0.051724
vt 1.000000 0.051724
vt 0.000000 0.000000
vt 0.200000 0.000000
vt 0.200000 0.051724
vt 0.000000 0.051724
vt 0.400000 0.000000
vt 0.400000 0.051724
vt 0.600000 0.000000
vt 0.600000 0.051724
vt 0.800000 0.000000
vt 0.800000 0.051724
vt 1.000000 0.000000
vt 1.000000 0.051724
vt 0.000000 0.000000
vt 0.200000 0.000000
vt 0.200000 0.051724
vt 0.000000 0.051724
vt 0.400000 0.000000
vt 0.400000 0.051724
vt 0.600000 0.000000
vt 0.600000 0.051724
vt 0.800000 0.000000
vt 0.800000 0.051724
vt 1.000000 0.000000
vt 1.000000 0.051724
vn 0.000000 1.000000 0.000000
vn 0.000000 1.000000 0.000000
vn 0.000000 1.000000 0.000000
vn 0.000000 1.000000 0.000000
vn 0.000000 1.000000 0.000000
vn 0.000000 1.000000 0.000000
vn 0.000000 1.000000 0.000000
vn 0.000000 1.000000 0.000000
vn 0.000000 1.000000 0.000000
vn 0.000000 1.000000 0.000000
vn 0.000000 1.000000 0.000000
vn 0.000000 1.000000 0.000000
vn 0.000000 -1.000000 0.000000
vn 0.000000 -1.000000 0.000000
vn 0.000000 -1.000000 0.000000
vn 0.000000 -1.000000 0.000000
vn 0.000000 -1.000000 0.000000
vn 0.000000 -1.000000 0.000000
vn 0.000000 -1.000000 0.000000
vn 0.000000 -1.000000 0.000000
vn 0.000000 -1.000000 0.000000
vn 0.000000 -1.000000 0.000000
vn 0.000000 -1.000000 0.000000
vn 0.000000 -1.000000 0.000000
vn 0.000000 0.000000 1.000000
vn 0.129028 0.000000 0.991641
vn 0.129028 0.000000 0.991641
vn 0.000000 0.000000 1.000000
vn 0.000000 0.000000 -1.000000
vn 0.000000 0.000000 -1.000000
vn 0.000000 0.000000 -1.000000
vn 0.000000 0.000000 -1.000000
vn -1.000000 0.000000 0.000000
vn -1.000000 0.000000 0.000000
vn -1.000000 0.000000 0.000000
vn -1.000000 0.000000 0.000000
vn 0.059040 0.000000 0.998256
vn 0.059040 0.000000 0.998256
vn 0.000000 0.000000 -1.000000
vn 0.000000 0.000000 -1.000000
vn -0.059040 0.000000 0.998256
vn -0.059040 0.000000 0.998256
vn 0.000000 0.000000 -1.000000
vn 0.000000 0.000000 -1.000000
vn -0.129028 0.000000 0.991641
vn -0.129028 0.000000 0.991641
vn 0.000000 0.000000 -1.000000
vn 0.000000 0.000000 -1.000000
vn 0.000000 0.000000 1.000000
vn 0.000000 0.000000 1.000000
vn 1.000000 0.000000 0.000000
vn 1.000000 0.000000 0.000000
vn 1.000000 0.000000 0.000000
vn 1.000000 0.000000 0.000000
vn 0.000000 0.000000 -1.000000
vn 0.000000 0.000000 -1.000000
s 1
g BUILDDECAL2 DECALS
usemtl initialShadingGroup
f 13/25/1 14/26/2 15/27/3 16/28/4
f 14/26/2 17/29/5 18/30/6 15/27/3
f 17/29/5 19/31/7 20/32/8 18/30/6
f 19/31/7 21/33/9 22/34/10 20/32/8
f 21/33/9 23/35/11 24/36/12 22/34/10
s 2
f 1/13/13 7/16/14 8/15/15 2/14/16
f 2/14/16 8/15/15 9/18/17 3/17/18
f 3/17/18 9/18/17 10/20/19 4/19/20
f 4/19/20 10/20/19 11/22/21 5/21/22
f 5/21/22 11/22/21 12/24/23 6/23/24
s 3
f 1/1/25 2/2/26 14/26/27 13/25/28
s 4
f 8/8/29 7/7/30 16/28/31 15/27/32
s off
f 7/7/33 1/1/34 13/25/35 16/28/36
s 3
f 2/2/26 3/3/37 17/29/38 14/26/27
s 4
f 9/9/39 8/8/29 15/27/32 18/30/40
s 3
f 3/3/37 4/4/41 19/31/42 17/29/38
s 4
f 10/10/43 9/9/39 18/30/40 20/32/44
s 3
f 4/4/41 5/5/45 21/33/46 19/31/42
s 4
f 11/11/47 10/10/43 20/32/44 22/34/48
s 3
f 5/5/45 6/6/49 23/35/50 21/33/46
s off
f 6/6/51 12/12/52 24/36/53 23/35/54
s 4
f 12/12/55 11/11/47 22/34/48 24/36/56
