# This file uses centimeters as units for non-parametric coordinates.

mtllib BUILDDECALNUM1.mtl
g default
v -0.159561 0.000000 -0.304263
v 0.155106 0.000000 -0.304263
v -0.159561 0.100000 -0.304263
v 0.155106 0.100000 -0.304263
v -0.159561 0.100000 -0.419027
v 0.155106 0.100000 -0.419027
v -0.159561 0.000000 -0.419027
v 0.155106 0.000000 -0.419027
v 0.155106 0.000000 -0.282791
v 0.043203 0.000000 -0.282791
v -0.016394 0.000000 -0.213777
v -0.083992 0.000000 -0.154999
v -0.159561 0.000000 -0.106471
v -0.159561 0.000000 0.035945
v -0.095742 0.000000 -0.003318
v -0.040811 0.000000 -0.046943
v 0.005231 0.000000 -0.094943
v 0.005231 0.000000 0.653071
v 0.155106 0.000000 0.653071
v 0.155106 0.100000 -0.282791
v 0.043203 0.100000 -0.282791
v -0.016394 0.100000 -0.213777
v -0.083992 0.100000 -0.154999
v -0.159561 0.100000 -0.106471
v -0.159561 0.100000 0.035945
v -0.095742 0.100000 -0.003318
v -0.040811 0.100000 -0.046943
v 0.005231 0.100000 -0.094943
v 0.005231 0.100000 0.653071
v 0.155106 0.100000 0.653071
vt 0.375000 0.000000
vt 0.625000 0.000000
vt 0.375000 0.250000
vt 0.625000 0.250000
vt 0.375000 0.500000
vt 0.625000 0.500000
vt 0.375000 0.750000
vt 0.625000 0.750000
vt 0.375000 1.000000
vt 0.625000 1.000000
vt 0.875000 0.000000
vt 0.875000 0.250000
vt 0.125000 0.000000
vt 0.125000 0.250000
vt 0.655364 0.631391
vt 0.621374 0.631391
vt 0.621374 0.487587
vt 0.629986 0.444985
vt 0.655364 0.444985
vt 0.538668 0.959410
vt 0.538668 0.984788
vt 0.515989 0.984788
vt 0.515989 0.959410
vt 0.485761 0.900383
vt 0.485761 0.884731
vt 0.508440 0.884731
vt 0.508440 0.900383
vt 0.485761 0.871401
vt 0.508440 0.871401
vt 0.485761 0.860395
vt 0.508440 0.860395
vt 0.485761 0.828096
vt 0.508440 0.828096
vt 0.145709 0.886657
vt 0.145709 0.895562
vt 0.123030 0.895562
vt 0.123030 0.886657
vt 0.145709 0.905456
vt 0.123030 0.905456
vt 0.145709 0.916342
vt 0.123030 0.916342
vt 0.442692 0.806439
vt 0.442692 0.662635
vt 0.465371 0.662635
vt 0.465371 0.806439
vt 0.665755 0.661098
vt 0.665755 0.847504
vt 0.643076 0.847504
vt 0.643076 0.661098
vt 0.722397 0.603741
vt 0.727934 0.641577
vt 0.712604 0.628247
vt 0.709939 0.593848
vt 0.000000 0.667223
vt 1.000000 0.667223
vt 1.000000 0.000000
vt 0.000000 0.000000
vt 0.766829 0.657229
vt 0.741450 0.657229
vt 0.732839 0.614627
vt 0.732839 0.470823
vt 0.766829 0.470823
vt 0.616470 0.460637
vt 0.610932 0.498473
vt 0.598475 0.508367
vt 0.601139 0.473967
vt 0.695465 0.617242
vt 0.695465 0.584943
vt 0.584001 0.517271
vt 0.584001 0.484972
vn 0.000000 0.000000 1.000000
vn 0.000000 0.000000 1.000000
vn 0.000000 0.000000 1.000000
vn 0.000000 0.000000 1.000000
vn 0.000000 1.000000 0.000000
vn 0.000000 1.000000 0.000000
vn 0.000000 1.000000 0.000000
vn 0.000000 1.000000 0.000000
vn 0.000000 0.000000 -1.000000
vn 0.000000 0.000000 -1.000000
vn 0.000000 0.000000 -1.000000
vn 0.000000 0.000000 -1.000000
vn 0.000000 -1.000000 0.000000
vn 0.000000 -1.000000 0.000000
vn 0.000000 -1.000000 0.000000
vn 0.000000 -1.000000 0.000000
vn 1.000000 0.000000 0.000000
vn 1.000000 0.000000 0.000000
vn 1.000000 0.000000 0.000000
vn 1.000000 0.000000 0.000000
vn -1.000000 0.000000 0.000000
vn -1.000000 0.000000 0.000000
vn -1.000000 0.000000 0.000000
vn -1.000000 0.000000 0.000000
vn 0.000000 -1.000000 0.000000
vn 0.000000 -1.000000 0.000000
vn 0.000000 -1.000000 0.000000
vn 0.000000 -1.000000 0.000000
vn 0.000000 -1.000000 0.000000
vn 0.000000 0.000000 -1.000000
vn 0.000000 0.000000 -1.000000
vn 0.000000 0.000000 -1.000000
vn 0.000000 0.000000 -1.000000
vn -0.756854 0.000000 -0.653584
vn -0.756854 0.000000 -0.653584
vn -0.756854 0.000000 -0.653584
vn -0.756854 0.000000 -0.653584
vn -0.656163 0.000000 -0.754620
vn -0.656163 0.000000 -0.754620
vn -0.656163 0.000000 -0.754620
vn -0.656163 0.000000 -0.754620
vn -0.540343 0.000000 -0.841445
vn -0.540343 0.000000 -0.841445
vn -0.540343 0.000000 -0.841445
vn -0.540343 0.000000 -0.841445
vn -1.000000 0.000000 0.000000
vn -1.000000 0.000000 0.000000
vn -1.000000 0.000000 0.000000
vn -1.000000 0.000000 0.000000
vn 0.524005 0.000000 0.851715
vn 0.524005 0.000000 0.851715
vn 0.524005 0.000000 0.851715
vn 0.524005 0.000000 0.851715
vn 0.621913 0.000000 0.783086
vn 0.621913 0.000000 0.783086
vn 0.621913 0.000000 0.783086
vn 0.621913 0.000000 0.783086
vn 0.721675 0.000000 0.692232
vn 0.721675 0.000000 0.692232
vn 0.721675 0.000000 0.692232
vn 0.721675 0.000000 0.692232
vn -1.000000 0.000000 0.000000
vn -1.000000 0.000000 0.000000
vn -1.000000 0.000000 0.000000
vn -1.000000 0.000000 0.000000
vn 1.000000 0.000000 0.000000
vn 1.000000 0.000000 0.000000
vn 1.000000 0.000000 0.000000
vn 1.000000 0.000000 0.000000
vn 0.000000 1.000000 0.000000
vn 0.000000 1.000000 0.000000
vn 0.000000 1.000000 0.000000
vn 0.000000 1.000000 0.000000
vn 0.000000 0.000000 1.000000
vn 0.000000 0.000000 1.000000
vn 0.000000 0.000000 1.000000
vn 0.000000 0.000000 1.000000
vn 0.000000 1.000000 0.000000
vn 0.000000 1.000000 0.000000
vn 0.000000 1.000000 0.000000
vn 0.000000 1.000000 0.000000
vn 0.000000 1.000000 0.000000
vn 0.000000 -1.000000 0.000000
vn 0.000000 -1.000000 0.000000
vn 0.000000 -1.000000 0.000000
vn 0.000000 -1.000000 0.000000
vn 0.000000 -1.000000 0.000000
vn 0.000000 -1.000000 0.000000
vn 0.000000 -1.000000 0.000000
vn 0.000000 -1.000000 0.000000
vn 0.000000 1.000000 0.000000
vn 0.000000 1.000000 0.000000
vn 0.000000 1.000000 0.000000
vn 0.000000 1.000000 0.000000
vn 0.000000 1.000000 -0.000000
vn 0.000000 1.000000 -0.000000
vn 0.000000 1.000000 -0.000000
vn 0.000000 1.000000 -0.000000
vn 0.000000 -1.000000 0.000000
vn 0.000000 -1.000000 0.000000
vn 0.000000 -1.000000 0.000000
vn 0.000000 -1.000000 0.000000
s off
g BUILDDECALNUM1 DECALS
usemtl initialShadingGroup
f 1/1/1 2/2/2 4/4/3 3/3/4
f 3/3/5 4/4/6 6/6/7 5/5/8
f 5/5/9 6/6/10 8/8/11 7/7/12
f 7/7/13 8/8/14 2/10/15 1/9/16
f 2/2/17 8/11/18 6/12/19 4/4/20
f 7/13/21 1/1/22 3/3/23 5/14/24
f 19/15/25 18/16/26 17/17/27 10/18/28 9/19/29
f 9/20/30 10/21/31 21/22/32 20/23/33
f 10/24/34 11/25/35 22/26/36 21/27/37
f 11/25/38 12/28/39 23/29/40 22/26/41
f 12/28/42 13/30/43 24/31/44 23/29/45
f 13/30/46 14/32/47 25/33/48 24/31/49
f 14/34/50 15/35/51 26/36/52 25/37/53
f 15/35/54 16/38/55 27/39/56 26/36/57
f 16/38/58 17/40/59 28/41/60 27/39/61
f 17/42/62 18/43/63 29/44/64 28/45/65
f 19/46/66 9/47/67 20/48/68 30/49/69
f 27/50/70 22/51/71 23/52/72 26/53/73
f 30/54/74 29/55/75 18/56/76 19/57/77
f 20/58/78 21/59/79 28/60/80 29/61/81 30/62/82
f 11/63/83 16/64/84 15/65/85 12/66/86
f 10/18/87 17/17/88 16/64/89 11/63/90
f 28/60/91 21/59/92 22/51/93 27/50/94
f 26/53/95 23/52/96 24/67/97 25/68/98
f 12/66/99 15/65/100 14/69/101 13/70/102
