# This file uses centimeters as units for non-parametric coordinates.

mtllib BUILDDECAL.mtl
g default
v -0.457493 0.000000 0.437774
v 0.457493 0.000000 0.437774
v -0.457493 0.087555 0.437774
v 0.457493 0.087555 0.437774
v -0.457493 0.087555 0.326866
v 0.457493 0.087555 0.326866
v -0.457493 0.000000 0.326866
v 0.457493 0.000000 0.326866
v -0.326846 0.000000 -0.177428
v -0.326846 0.000000 -0.369014
v -0.326846 0.087555 -0.177428
v -0.326846 0.087555 -0.369014
v -0.454209 0.087555 -0.177428
v -0.454209 0.087555 -0.369014
v -0.454209 0.000000 -0.177428
v -0.454209 0.000000 -0.369014
v -0.457493 0.000000 0.292893
v 0.457493 0.000000 0.292893
v -0.457493 0.087555 0.292893
v 0.457493 0.087555 0.292893
v -0.457493 0.087555 0.164033
v 0.457493 0.087555 0.164033
v -0.457493 0.000000 0.164033
v 0.457493 0.000000 0.164033
v -0.323103 0.087555 0.164033
v -0.323103 0.000000 0.164033
v -0.323103 0.000000 0.292893
v -0.323103 0.087555 0.292893
v -0.323103 0.087555 0.051737
v -0.323103 0.000000 0.051737
v -0.457493 0.000000 0.051737
v -0.457493 0.087555 0.051737
v -0.103777 0.000000 0.117607
v 0.077309 0.000000 0.117607
v -0.103777 0.087555 0.117607
v 0.077309 0.087555 0.117607
v 0.298063 0.087555 -0.407494
v 0.457493 0.087555 -0.407494
v 0.298063 0.000000 -0.407494
v 0.457493 0.000000 -0.407494
v 0.457493 0.087555 -0.301069
v 0.276407 0.087555 -0.301069
v 0.276407 0.000000 -0.301069
v 0.457493 0.000000 -0.301069
v -0.142651 0.000000 -0.407494
v -0.142651 0.000000 -0.301069
v -0.142651 0.087555 -0.301069
v -0.142651 0.087555 -0.407494
v -0.326846 0.000000 0.004913
v -0.326846 0.000000 -0.105261
v -0.326846 0.087555 0.004913
v -0.326846 0.087555 -0.105261
v -0.454209 0.087555 0.004913
v -0.454209 0.087555 -0.105261
v -0.454209 0.000000 0.004913
v -0.454209 0.000000 -0.105261
vt 0.375000 0.000000
vt 0.625000 0.000000
vt 0.375000 0.250000
vt 0.625000 0.250000
vt 0.375000 0.500000
vt 0.625000 0.500000
vt 0.375000 0.750000
vt 0.625000 0.750000
vt 0.375000 1.000000
vt 0.625000 1.000000
vt 0.875000 0.000000
vt 0.875000 0.250000
vt 0.125000 0.000000
vt 0.125000 0.250000
vt 0.375000 0.000000
vt 0.625000 0.000000
vt 0.625000 0.250000
vt 0.375000 0.250000
vt 0.625000 0.500000
vt 0.375000 0.500000
vt 0.625000 0.750000
vt 0.375000 0.750000
vt 0.625000 1.000000
vt 0.375000 1.000000
vt 0.875000 0.000000
vt 0.875000 0.250000
vt 0.125000 0.000000
vt 0.125000 0.250000
vt 0.375000 0.000000
vt 0.411719 0.000000
vt 0.411719 0.250000
vt 0.375000 0.250000
vt 0.411719 0.500000
vt 0.375000 0.500000
vt 0.375000 0.750000
vt 0.411719 0.750000
vt 0.411719 1.000000
vt 0.375000 1.000000
vt 0.625000 0.000000
vt 0.875000 0.000000
vt 0.875000 0.250000
vt 0.625000 0.250000
vt 0.125000 0.000000
vt 0.125000 0.250000
vt 0.625000 0.500000
vt 0.625000 0.750000
vt 0.625000 1.000000
vt 0.411719 0.500000
vt 0.411719 0.750000
vt 0.125000 0.000000
vt 0.375000 0.500000
vt 0.375000 0.000000
vt 0.625000 0.000000
vt 0.625000 0.250000
vt 0.375000 0.250000
vt 0.625000 0.460319
vt 0.375000 0.460319
vt 0.375000 0.500000
vt 0.625000 0.500000
vt 0.625000 0.750000
vt 0.375000 0.750000
vt 0.375000 0.789681
vt 0.625000 0.789681
vt 0.625000 1.000000
vt 0.375000 1.000000
vt 0.835319 0.000000
vt 0.835319 0.250000
vt 0.164681 0.000000
vt 0.164681 0.250000
vt 0.125000 0.000000
vt 0.164681 0.000000
vt 0.164681 0.250000
vt 0.125000 0.250000
vt 0.875000 0.000000
vt 0.875000 0.250000
vt 0.125000 0.000000
vt 0.125000 0.250000
vt 0.375000 0.000000
vt 0.625000 0.000000
vt 0.625000 0.250000
vt 0.375000 0.250000
vt 0.625000 0.500000
vt 0.375000 0.500000
vt 0.625000 0.750000
vt 0.375000 0.750000
vt 0.625000 1.000000
vt 0.375000 1.000000
vt 0.875000 0.000000
vt 0.875000 0.250000
vt 0.125000 0.000000
vt 0.125000 0.250000
vn 0.000000 0.000000 1.000000
vn 0.000000 0.000000 1.000000
vn 0.000000 0.000000 1.000000
vn 0.000000 0.000000 1.000000
vn 0.000000 1.000000 0.000000
vn 0.000000 1.000000 0.000000
vn 0.000000 1.000000 0.000000
vn 0.000000 1.000000 0.000000
vn 0.000000 0.000000 -1.000000
vn 0.000000 0.000000 -1.000000
vn 0.000000 0.000000 -1.000000
vn 0.000000 0.000000 -1.000000
vn 0.000000 -1.000000 0.000000
vn 0.000000 -1.000000 0.000000
vn 0.000000 -1.000000 0.000000
vn 0.000000 -1.000000 0.000000
vn 1.000000 0.000000 0.000000
vn 1.000000 0.000000 0.000000
vn 1.000000 0.000000 0.000000
vn 1.000000 0.000000 0.000000
vn -1.000000 0.000000 0.000000
vn -1.000000 0.000000 0.000000
vn -1.000000 0.000000 0.000000
vn -1.000000 0.000000 0.000000
vn 1.000000 0.000000 -0.000000
vn 1.000000 0.000000 -0.000000
vn 1.000000 0.000000 -0.000000
vn 1.000000 0.000000 -0.000000
vn 0.000000 1.000000 0.000000
vn 0.000000 1.000000 0.000000
vn 0.000000 1.000000 0.000000
vn 0.000000 1.000000 0.000000
vn -1.000000 0.000000 0.000000
vn -1.000000 0.000000 0.000000
vn -1.000000 0.000000 0.000000
vn -1.000000 0.000000 0.000000
vn 0.000000 -1.000000 0.000000
vn 0.000000 -1.000000 0.000000
vn 0.000000 -1.000000 0.000000
vn 0.000000 -1.000000 0.000000
vn 0.000000 0.000000 -1.000000
vn 0.000000 0.000000 -1.000000
vn 0.000000 0.000000 -1.000000
vn 0.000000 0.000000 -1.000000
vn 0.000000 0.000000 1.000000
vn 0.000000 0.000000 1.000000
vn 0.000000 0.000000 1.000000
vn 0.000000 0.000000 1.000000
vn 0.000000 0.000000 1.000000
vn 0.000000 0.000000 1.000000
vn 0.000000 0.000000 1.000000
vn 0.000000 0.000000 1.000000
vn 0.000000 1.000000 0.000000
vn 0.000000 1.000000 0.000000
vn 0.000000 1.000000 0.000000
vn 0.000000 1.000000 0.000000
vn 0.000000 -1.000000 0.000000
vn 0.000000 -1.000000 0.000000
vn 0.000000 -1.000000 0.000000
vn 0.000000 -1.000000 0.000000
vn 1.000000 0.000000 0.000000
vn 1.000000 0.000000 0.000000
vn 1.000000 0.000000 0.000000
vn 1.000000 0.000000 0.000000
vn -1.000000 0.000000 0.000000
vn -1.000000 0.000000 0.000000
vn -1.000000 0.000000 0.000000
vn -1.000000 0.000000 0.000000
vn 0.000000 0.000000 -1.000000
vn 0.000000 0.000000 -1.000000
vn 0.000000 0.000000 -1.000000
vn 0.000000 0.000000 -1.000000
vn 0.000000 -1.000000 0.000000
vn 0.000000 -1.000000 0.000000
vn 0.000000 0.000000 1.000000
vn 0.000000 0.000000 1.000000
vn 0.000000 1.000000 0.000000
vn 0.000000 1.000000 0.000000
vn 0.000000 0.000000 -1.000000
vn 0.000000 0.000000 -1.000000
vn 0.000000 0.000000 -1.000000
vn 0.000000 0.000000 -1.000000
vn 1.000000 0.000000 0.000000
vn 1.000000 0.000000 0.000000
vn 1.000000 0.000000 0.000000
vn 1.000000 0.000000 0.000000
vn 0.000000 -1.000000 0.000000
vn 0.000000 -1.000000 0.000000
vn -1.000000 0.000000 0.000000
vn -1.000000 0.000000 0.000000
vn 0.000000 1.000000 0.000000
vn 0.000000 1.000000 0.000000
vn 0.000000 0.000000 1.000000
vn 0.000000 0.000000 1.000000
vn 0.000000 0.000000 1.000000
vn 0.000000 0.000000 1.000000
vn 0.000000 1.000000 0.000000
vn 0.000000 1.000000 0.000000
vn 0.000000 1.000000 0.000000
vn 0.000000 1.000000 0.000000
vn 0.000000 0.000000 -1.000000
vn 0.000000 0.000000 -1.000000
vn 0.000000 0.000000 -1.000000
vn 0.000000 0.000000 -1.000000
vn 0.000000 -1.000000 0.000000
vn 0.000000 -1.000000 0.000000
vn 0.000000 -1.000000 0.000000
vn 0.000000 -1.000000 0.000000
vn 0.740318 0.000000 0.672256
vn 0.809987 0.000000 0.586448
vn 0.809987 0.000000 0.586448
vn 0.740318 0.000000 0.672256
vn -0.740318 0.000000 -0.672256
vn -0.740318 0.000000 -0.672256
vn -0.740318 0.000000 -0.672256
vn -0.740318 0.000000 -0.672256
vn 0.000000 1.000000 -0.000000
vn 0.000000 1.000000 0.000000
vn -1.000000 0.000000 0.000000
vn -1.000000 0.000000 0.000000
vn -1.000000 0.000000 0.000000
vn -1.000000 0.000000 0.000000
vn 0.000000 -1.000000 0.000000
vn 0.000000 -1.000000 0.000000
vn 1.000000 0.000000 0.000000
vn 1.000000 0.000000 0.000000
vn 0.000000 -1.000000 0.000000
vn 0.000000 -1.000000 0.000000
vn 0.000000 0.000000 1.000000
vn 0.000000 0.000000 1.000000
vn 0.000000 0.000000 1.000000
vn 0.000000 0.000000 1.000000
vn 0.000000 1.000000 0.000000
vn 0.000000 1.000000 0.000000
vn 0.000000 0.000000 -1.000000
vn 0.000000 0.000000 -1.000000
vn 1.000000 0.000000 0.000000
vn 1.000000 0.000000 0.000000
vn 1.000000 0.000000 0.000000
vn 1.000000 0.000000 0.000000
vn 0.000000 1.000000 0.000000
vn 0.000000 1.000000 0.000000
vn 0.000000 1.000000 0.000000
vn 0.000000 1.000000 0.000000
vn -1.000000 0.000000 0.000000
vn -1.000000 0.000000 0.000000
vn -1.000000 0.000000 0.000000
vn -1.000000 0.000000 0.000000
vn 0.000000 -1.000000 0.000000
vn 0.000000 -1.000000 0.000000
vn 0.000000 -1.000000 0.000000
vn 0.000000 -1.000000 0.000000
vn 0.000000 0.000000 -1.000000
vn 0.000000 0.000000 -1.000000
vn 0.000000 0.000000 -1.000000
vn 0.000000 0.000000 -1.000000
vn 0.000000 0.000000 1.000000
vn 0.000000 0.000000 1.000000
vn 0.000000 0.000000 1.000000
vn 0.000000 0.000000 1.000000
s off
g BUILDDECAL DECALS
usemtl initialShadingGroup
f 1/1/1 2/2/2 4/4/3 3/3/4
f 3/3/5 4/4/6 6/6/7 5/5/8
f 5/5/9 6/6/10 8/8/11 7/7/12
f 7/7/13 8/8/14 2/10/15 1/9/16
f 2/2/17 8/11/18 6/12/19 4/4/20
f 7/13/21 1/1/22 3/3/23 5/14/24
f 9/15/25 10/16/26 12/17/27 11/18/28
f 11/18/29 12/17/30 14/19/31 13/20/32
f 13/20/33 14/19/34 16/21/35 15/22/36
f 15/22/37 16/21/38 10/23/39 9/24/40
f 10/16/41 16/25/42 14/26/43 12/17/44
f 15/27/45 9/15/46 11/18/47 13/28/48
s 1
f 17/29/49 27/30/50 28/31/51 19/32/52
s 2
f 19/32/53 28/31/54 25/33/55 21/34/56
s 3
f 23/35/57 26/36/58 27/37/59 17/38/60
s off
f 18/39/61 24/40/62 22/41/63 20/42/64
s 4
f 23/43/65 17/29/66 19/32/67 21/44/68
s off
f 25/33/69 22/45/70 24/46/71 26/36/72
s 3
f 27/37/59 26/36/58 24/46/73 18/47/74
s 1
f 28/31/51 27/30/50 18/39/75 20/42/76
s 2
f 25/33/55 28/31/54 20/42/77 22/45/78
s off
f 29/48/79 30/49/80 31/50/81 32/51/82
f 25/33/83 26/36/84 30/49/85 29/48/86
s 3
f 26/36/58 23/43/57 31/50/87 30/49/88
s 4
f 23/43/65 21/34/68 32/51/89 31/50/90
s 2
f 21/34/56 25/33/55 29/48/91 32/51/92
s off
f 33/52/93 34/53/94 36/54/95 35/55/96
s 5
f 35/55/97 36/54/98 41/56/99 42/57/100
s 6
f 37/58/101 38/59/102 40/60/103 39/61/104
s 7
f 43/62/105 44/63/106 34/64/107 33/65/108
s 8
f 34/53/109 44/66/110 41/67/111 36/54/112
s off
f 43/68/113 33/52/114 35/55/115 42/69/116
s 5
f 42/57/100 41/56/99 38/59/117 37/58/118
s off
f 45/70/119 46/71/120 47/72/121 48/73/122
s 7
f 39/61/123 40/60/124 44/63/106 43/62/105
s 8
f 41/67/111 44/66/110 40/74/125 38/75/126
s 7
f 39/76/123 43/68/105 46/71/127 45/70/128
s off
f 43/68/129 42/69/130 47/72/131 46/71/132
s 5
f 42/69/100 37/77/118 48/73/133 47/72/134
s 6
f 37/77/101 39/76/104 45/70/135 48/73/136
s off
f 49/78/137 50/79/138 52/80/139 51/81/140
f 51/81/141 52/80/142 54/82/143 53/83/144
f 53/83/145 54/82/146 56/84/147 55/85/148
f 55/85/149 56/84/150 50/86/151 49/87/152
f 50/79/153 56/88/154 54/89/155 52/80/156
f 55/90/157 49/78/158 51/81/159 53/91/160
