# This file uses centimeters as units for non-parametric coordinates.

mtllib BUILDDECALNMS.mtl
g default
v 0.000572 -0.000036 0.988853
v 0.142789 -0.000035 0.701978
v 0.276093 -0.000035 0.415104
v 0.409195 -0.000034 0.128229
v 0.542297 -0.000033 -0.148551
v -0.125651 -0.000036 0.702001
v 0.000550 -0.000035 0.415126
v 0.142781 -0.000035 0.128251
v 0.275965 -0.000034 -0.102984
v 0.409066 0.000037 -0.307637
v -0.256571 -0.000036 0.415148
v -0.125659 -0.000036 0.128274
v 0.000529 -0.000035 -0.102971
v 0.142773 -0.000034 -0.307625
v 0.275836 -0.000033 -0.466724
v -0.389802 -0.000036 0.128296
v -0.256700 -0.000036 -0.102959
v -0.125667 -0.000035 -0.307613
v 0.000507 -0.000034 -0.466712
v 0.142765 -0.000033 -0.625811
v -0.523033 -0.000037 -0.148502
v -0.389931 -0.000036 -0.307601
v -0.256829 -0.000035 -0.466700
v -0.125675 -0.000034 -0.625799
v 0.000486 -0.000033 -0.784898
v 0.000354 0.033585 0.989003
v 0.142705 0.033585 0.702128
v 0.000332 0.033585 0.415278
v -0.125735 0.033585 0.702150
v 0.274786 0.033586 0.415262
v 0.142697 0.033586 0.128420
v 0.407900 0.033587 0.128411
v 0.274664 0.033587 -0.102784
v 0.541013 0.033588 -0.148354
v 0.407771 0.033588 -0.307421
v -0.125743 0.033585 0.128443
v -0.257879 0.033585 0.415306
v 0.142689 0.033587 -0.307389
v 0.274529 0.033588 -0.466471
v -0.258015 0.033585 -0.102760
v -0.391121 0.033584 0.128477
v -0.125752 0.033586 -0.307377
v 0.000289 0.033587 -0.466451
v 0.142681 0.033588 -0.625541
v -0.391250 0.033585 -0.307384
v -0.524363 0.033584 -0.148305
v -0.258136 0.033586 -0.466447
v -0.125760 0.033587 -0.625529
v 0.000268 0.033588 -0.784628
v 0.000282 0.033499 0.124284
v 0.142690 0.033499 0.047357
v -0.125774 0.033499 0.047359
v 0.192934 0.033499 -0.073971
v 0.142858 0.033499 -0.192705
v -0.125970 0.033499 -0.192705
v -0.179209 0.033499 -0.073955
v 0.000230 0.033499 -0.269608
v 0.000269 0.060397 0.124581
v 0.142701 0.060460 0.047616
v 0.000284 0.060492 -0.073690
v -0.125764 0.060429 0.047640
v 0.193353 0.060380 -0.073749
v 0.142870 0.060545 -0.192444
v -0.125958 0.060534 -0.192421
v -0.178818 0.060597 -0.073689
v 0.000225 0.060587 -0.269308
vt 0.000000 0.000000
vt 0.250000 0.000000
vt 0.500000 0.000000
vt 0.750000 0.000000
vt 1.000000 0.000000
vt 0.000000 0.250000
vt 0.250000 0.250000
vt 0.500000 0.250000
vt 0.750000 0.250000
vt 1.000000 0.250000
vt 0.000000 0.500000
vt 0.250000 0.500000
vt 0.500000 0.500000
vt 0.750000 0.500000
vt 1.000000 0.500000
vt 0.000000 0.750000
vt 0.250000 0.750000
vt 0.500000 0.750000
vt 0.750000 0.750000
vt 1.000000 0.750000
vt 0.000000 1.000000
vt 0.250000 1.000000
vt 0.500000 1.000000
vt 0.750000 1.000000
vt 1.000000 1.000000
vt 0.000000 0.000000
vt 0.250000 0.000000
vt 0.250000 0.250000
vt 0.000000 0.250000
vt 0.500000 0.000000
vt 0.500000 0.250000
vt 0.750000 0.000000
vt 0.750000 0.250000
vt 1.000000 0.000000
vt 1.000000 0.250000
vt 0.250000 0.500000
vt 0.000000 0.500000
vt 0.500000 0.500000
vt 0.750000 0.500000
vt 1.000000 0.500000
vt 0.250000 0.750000
vt 0.000000 0.750000
vt 0.500000 0.750000
vt 0.750000 0.750000
vt 1.000000 0.750000
vt 0.250000 1.000000
vt 0.000000 1.000000
vt 0.500000 1.000000
vt 0.750000 1.000000
vt 1.000000 1.000000
vt 0.000000 0.000000
vt 0.250000 0.000000
vt 0.000000 0.250000
vt 0.500000 0.000000
vt 0.750000 0.000000
vt 1.000000 0.000000
vt 1.000000 0.250000
vt 0.000000 0.500000
vt 1.000000 0.500000
vt 0.000000 0.750000
vt 1.000000 0.750000
vt 0.250000 1.000000
vt 0.000000 1.000000
vt 0.500000 1.000000
vt 0.750000 1.000000
vt 1.000000 1.000000
vt 0.250000 0.250000
vt 0.500000 0.250000
vt 0.250000 0.500000
vt 0.750000 0.250000
vt 0.750000 0.500000
vt 0.500000 0.750000
vt 0.250000 0.750000
vt 0.750000 0.750000
vt 0.250000 0.250000
vt 0.500000 0.250000
vt 0.250000 0.500000
vt 0.750000 0.250000
vt 0.750000 0.500000
vt 0.500000 0.750000
vt 0.250000 0.750000
vt 0.750000 0.750000
vn -0.000003 1.000000 0.000001
vn -0.000003 1.000000 0.000001
vn -0.000003 1.000000 0.000001
vn -0.000003 1.000000 0.000001
vn -0.000003 1.000000 0.000001
vn -0.000003 1.000000 0.000001
vn -0.000003 1.000000 0.000002
vn -0.000003 1.000000 0.000002
vn -0.000003 1.000000 0.000002
vn -0.000003 1.000000 0.000002
vn -0.000003 1.000000 0.000001
vn -0.000003 1.000000 0.000001
vn -0.000116 1.000000 0.000481
vn 0.000215 1.000000 0.000420
vn 0.000201 1.000000 0.000447
vn 0.000185 1.000000 0.000463
vn 0.000578 1.000000 0.000354
vn 0.000261 1.000000 0.000422
vn -0.000003 1.000000 0.000002
vn -0.000003 1.000000 0.000002
vn -0.000003 1.000000 0.000002
vn -0.000003 1.000000 0.000002
vn 0.000234 1.000000 0.000466
vn 0.000587 1.000000 0.000439
vn -0.000040 1.000000 0.000487
vn -0.000003 1.000000 0.000002
vn -0.000003 1.000000 0.000002
vn -0.000003 1.000000 0.000002
vn -0.000004 1.000000 0.000002
vn -0.000003 1.000000 0.000002
vn -0.000003 1.000000 0.000002
vn -0.000003 1.000000 0.000002
vn -0.000003 1.000000 0.000002
vn 0.000003 -1.000000 -0.000001
vn 0.000004 -1.000000 -0.000001
vn 0.000004 -1.000000 -0.000001
vn 0.000003 -1.000000 -0.000001
vn 0.000003 -1.000000 -0.000002
vn 0.000003 -1.000000 -0.000001
vn 0.000034 -1.000000 -0.000053
vn -0.000004 -1.000000 -0.000045
vn 0.000135 -1.000000 -0.000074
vn -0.000024 -1.000000 -0.000161
vn 0.000004 -1.000000 -0.000001
vn 0.000004 -1.000000 -0.000002
vn 0.000004 -1.000000 -0.000002
vn 0.000079 -1.000000 -0.000002
vn 0.000126 -1.000000 -0.000002
vn 0.000004 -1.000000 -0.000002
vn 0.000004 -1.000000 -0.000002
vn 0.000004 -1.000000 -0.000002
vn 0.000004 -1.000000 -0.000002
vn 0.000003 -1.000000 -0.000003
vn 0.000004 -1.000000 -0.000002
vn 0.000004 -1.000000 -0.000002
vn 0.000004 -1.000000 -0.000002
vn 0.000004 -1.000000 -0.000003
vn 0.000003 -1.000000 -0.000003
vn 0.895860 0.002043 0.444331
vn 0.901760 0.009427 0.432135
vn 0.901722 0.009379 0.432214
vn 0.895860 0.002043 0.444331
vn -0.912118 -0.013354 0.409710
vn -0.915369 -0.005909 0.402572
vn -0.915369 -0.005909 0.402572
vn -0.912131 -0.013326 0.409683
vn 0.907069 0.025026 0.420237
vn 0.907081 0.024815 0.420225
vn 0.903696 0.032545 0.426937
vn 0.903776 0.032557 0.426767
vn 0.900731 0.032113 0.433188
vn 0.900731 0.032113 0.433188
vn 0.766202 0.033372 -0.641733
vn 0.766180 0.033768 -0.641738
vn 0.766179 0.033779 -0.641738
vn 0.766202 0.033372 -0.641733
vn -0.907590 -0.029068 0.418850
vn -0.907571 -0.029197 0.418882
vn 0.767235 0.027610 -0.640771
vn 0.767261 0.027449 -0.640747
vn -0.903433 -0.037720 0.427067
vn -0.903388 -0.037723 0.427162
vn 0.756678 0.014677 -0.653623
vn 0.756743 0.014712 -0.653547
vn -0.766690 -0.025861 -0.641496
vn -0.766690 -0.026270 -0.641479
vn -0.766690 -0.026270 -0.641479
vn -0.766690 -0.025876 -0.641496
vn -0.900395 -0.037925 0.433418
vn -0.900395 -0.037925 0.433418
vn -0.768448 -0.018099 -0.639657
vn -0.768381 -0.018381 -0.639729
vn -0.776938 -0.004782 -0.629558
vn -0.776871 -0.004844 -0.629641
vn 0.745202 0.008698 -0.666782
vn 0.745202 0.008698 -0.666782
vn -0.783707 0.001462 -0.621130
vn -0.783707 0.001462 -0.621130
vn -0.000598 1.000000 -0.000466
vn -0.000664 1.000000 -0.000489
vn -0.001084 0.999999 -0.000641
vn -0.000598 1.000000 -0.000466
vn 0.000736 1.000000 -0.000491
vn 0.000669 1.000000 -0.000464
vn 0.000669 1.000000 -0.000464
vn 0.001159 0.999999 -0.000665
vn -0.001610 0.999998 -0.000830
vn -0.001610 0.999998 -0.000830
vn -0.001082 0.999999 0.000609
vn -0.000542 1.000000 0.000569
vn -0.000837 1.000000 0.000591
vn -0.001082 0.999999 0.000609
vn 0.000595 1.000000 0.000568
vn 0.001073 0.999999 0.000618
vn 0.001073 0.999999 0.000618
vn 0.000873 0.999999 0.000597
vn 0.001620 0.999998 -0.000853
vn 0.001620 0.999998 -0.000853
vn -0.000467 1.000000 0.000563
vn -0.000467 1.000000 0.000563
vn 0.000522 1.000000 0.000561
vn 0.000522 1.000000 0.000561
vn 0.475317 -0.009050 0.879768
vn 0.475317 -0.009050 0.879768
vn 0.475317 -0.009050 0.879768
vn 0.475317 -0.009050 0.879768
vn -0.520968 -0.009192 0.853527
vn -0.520968 -0.009192 0.853527
vn -0.520968 -0.009192 0.853527
vn -0.520968 -0.009192 0.853527
vn 0.923328 -0.010791 0.383861
vn 0.923328 -0.010791 0.383861
vn 0.923328 -0.010791 0.383860
vn 0.923328 -0.010791 0.383860
vn 0.920809 -0.003867 -0.389994
vn 0.920809 -0.003867 -0.389994
vn 0.920809 -0.003867 -0.389994
vn 0.920809 -0.003867 -0.389994
vn -0.912967 0.010922 -0.407887
vn -0.912967 0.010922 -0.407887
vn -0.912967 0.010922 -0.407887
vn -0.912967 0.010922 -0.407887
vn -0.915691 0.002715 0.401874
vn -0.915691 0.002715 0.401874
vn -0.915691 0.002715 0.401874
vn -0.915691 0.002715 0.401874
vn 0.474461 0.009056 -0.880230
vn 0.474461 0.009056 -0.880230
vn 0.474461 0.009056 -0.880230
vn 0.474461 0.009056 -0.880230
vn -0.520333 0.009272 -0.853913
vn -0.520333 0.009272 -0.853913
vn -0.520333 0.009272 -0.853913
vn -0.520333 0.009272 -0.853913
s 1
g BUILDDECALNMS DECALS
usemtl initialShadingGroup
f 26/51/1 27/52/2 28/7/3 29/53/4
f 27/52/2 30/54/5 31/8/6 28/7/3
f 30/54/5 32/55/7 33/9/8 31/8/6
f 32/55/7 34/56/9 35/57/10 33/9/8
f 29/53/4 28/7/3 36/12/11 37/58/12
s 2
f 58/75/13 59/76/14 60/13/15 61/77/16
f 59/76/14 62/78/17 63/79/18 60/13/15
s 1
f 33/9/8 35/57/10 39/59/19 38/14/20
f 37/58/12 36/12/11 40/17/21 41/60/22
s 2
f 61/77/16 60/13/15 64/80/23 65/81/24
f 60/13/15 63/79/18 66/82/25 64/80/23
s 1
f 38/14/20 39/59/19 44/61/26 43/19/27
f 41/60/22 40/17/21 45/62/28 46/63/29
f 40/17/21 42/18/30 47/64/31 45/62/28
f 42/18/30 43/19/27 48/65/32 47/64/31
f 43/19/27 44/61/26 49/66/33 48/65/32
s 3
f 1/26/34 6/29/35 7/28/36 2/27/37
f 2/27/37 7/28/36 8/31/38 3/30/39
f 3/30/39 8/31/38 9/33/40 4/32/41
f 4/32/41 9/33/40 10/35/42 5/34/43
f 6/29/35 11/37/44 12/36/45 7/28/36
f 7/28/36 12/36/45 13/38/46 8/31/38
f 8/31/38 13/38/46 14/39/47 9/33/40
f 9/33/40 14/39/47 15/40/48 10/35/42
f 11/37/44 16/42/49 17/41/50 12/36/45
f 12/36/45 17/41/50 18/43/51 13/38/46
f 13/38/46 18/43/51 19/44/52 14/39/47
f 14/39/47 19/44/52 20/45/53 15/40/48
f 16/42/49 21/47/54 22/46/55 17/41/50
f 17/41/50 22/46/55 23/48/56 18/43/51
f 18/43/51 23/48/56 24/49/57 19/44/52
f 19/44/52 24/49/57 25/50/58 20/45/53
s 4
f 1/1/59 2/2/60 27/52/61 26/51/62
s 5
f 6/6/63 1/1/64 26/51/65 29/53/66
s 4
f 2/2/60 3/3/67 30/54/68 27/52/61
f 3/3/67 4/4/69 32/55/70 30/54/68
f 4/4/69 5/5/71 34/56/72 32/55/70
s 6
f 5/5/73 10/10/74 35/57/75 34/56/76
s 5
f 11/11/77 6/6/63 29/53/66 37/58/78
s 6
f 10/10/74 15/15/79 39/59/80 35/57/75
s 5
f 16/16/81 11/11/77 37/58/78 41/60/82
s 6
f 15/15/79 20/20/83 44/61/84 39/59/80
s 7
f 22/22/85 21/21/86 46/63/87 45/62/88
s 5
f 21/21/89 16/16/81 41/60/82 46/63/90
s 7
f 23/23/91 22/22/85 45/62/88 47/64/92
f 24/24/93 23/23/91 47/64/92 48/65/94
s 6
f 20/20/83 25/25/95 49/66/96 44/61/84
s 7
f 25/25/97 24/24/93 48/65/94 49/66/98
s 8
f 28/7/99 31/8/100 51/68/101 50/67/102
s 9
f 36/12/103 28/7/104 50/67/105 52/69/106
s 8
f 31/8/100 33/9/107 53/70/108 51/68/101
s 10
f 33/9/109 38/14/110 54/71/111 53/70/112
s 11
f 42/18/113 40/17/114 56/73/115 55/72/116
s 9
f 40/17/117 36/12/103 52/69/106 56/73/118
s 10
f 38/14/110 43/19/119 57/74/120 54/71/111
s 11
f 43/19/121 42/18/113 55/72/116 57/74/122
s off
f 50/67/123 51/68/124 59/76/125 58/75/126
f 52/69/127 50/67/128 58/75/129 61/77/130
f 51/68/131 53/70/132 62/78/133 59/76/134
f 53/70/135 54/71/136 63/79/137 62/78/138
f 55/72/139 56/73/140 65/81/141 64/80/142
f 56/73/143 52/69/144 61/77/145 65/81/146
f 54/71/147 57/74/148 66/82/149 63/79/150
f 57/74/151 55/72/152 64/80/153 66/82/154
