# This file uses centimeters as units for non-parametric coordinates.

mtllib BUILDDECALNUM8.mtl
g default
v 0.104797 -0.000115 0.311789
v 0.055908 0.066985 0.550490
v 0.178628 0.100000 0.477829
v 0.141086 0.070786 0.488278
v 0.001517 0.100000 0.175492
v 0.027364 0.083270 -0.180301
v -0.241809 0.000192 0.078676
v 0.144829 0.089824 -0.048897
v 0.113586 0.000459 -0.137700
v -0.083117 0.100000 0.103745
v -0.156262 0.100000 -0.092380
v -0.121269 0.076245 -0.099074
v -0.122391 0.000268 -0.096443
v 0.103449 0.100000 0.247208
v 0.084977 0.077172 0.295913
v -0.222620 -0.000681 0.330841
v 0.212873 -0.000681 0.442007
v 0.098483 0.000358 0.047138
v 0.114703 -0.000339 -0.136248
v 0.141117 -0.000456 -0.033468
v 0.203416 -0.000681 -0.042299
v 0.037025 0.089905 -0.286906
v 0.036044 0.000519 -0.286996
v 0.033502 -0.000340 -0.287228
v -0.152962 0.000493 -0.252181
v -0.270053 0.000321 -0.088088
v -0.144025 -0.000396 -0.257933
v -0.268893 -0.000515 -0.097695
v -0.221908 -0.000681 0.067923
v 0.026400 -0.000681 -0.214221
v -0.273597 0.000066 0.300830
v -0.300164 0.000056 0.484079
v -0.302799 0.076529 0.462390
v -0.193387 0.100000 0.426792
v -0.204692 0.075045 0.617641
v -0.149491 0.100000 0.535473
v -0.140642 0.000670 0.498056
v -0.027809 0.076591 0.668287
v -0.036677 0.100000 0.580487
v -0.052815 0.063710 0.553155
v 0.153397 0.077598 0.638204
v 0.090697 0.100000 0.568891
v 0.288962 0.083809 0.495056
v 0.242943 0.000015 0.059228
v 0.223941 0.085070 0.086348
v 0.210798 0.000448 -0.221101
v 0.208958 -0.000453 -0.223356
v -0.271386 0.077488 -0.077042
v -0.212040 0.100000 0.063642
v -0.162375 0.000122 0.161973
v -0.160752 0.069351 0.163230
v -0.240255 0.071662 0.081093
v 0.280247 0.082625 0.286859
v 0.181861 0.100000 0.351104
v -0.097504 -0.000681 0.128037
v -0.053131 -0.000480 0.065440
v -0.113740 -0.000478 0.000278
v -0.262546 0.072657 0.285731
v -0.174524 0.100000 0.299567
v -0.166623 0.000681 0.397965
v -0.161487 -0.000215 0.376272
v -0.109046 -0.000248 0.289269
v -0.121790 0.067315 0.304338
v -0.057974 0.000378 0.062947
v -0.136797 0.100000 0.009043
v -0.116154 0.078161 -0.009175
v -0.115517 0.000298 -0.006679
v -0.058954 0.085597 0.062443
v 0.109411 0.089173 0.033683
v -0.065550 0.000320 -0.164545
v -0.066741 0.078155 -0.163723
v 0.142588 0.000426 -0.039581
v 0.167652 -0.000681 0.301907
v 0.114132 0.089676 -0.136991
v 0.279080 0.087984 -0.050098
v 0.211057 0.089710 -0.220783
v 0.278086 0.000310 -0.067298
v -0.219908 -0.000681 0.478712
v -0.125826 -0.000681 0.584106
v -0.185471 0.000055 0.630277
v -0.004612 0.000044 0.669716
v 0.176185 0.000044 0.625426
v 0.271729 -0.000242 0.274698
v 0.136132 -0.000681 -0.155301
v -0.156624 -0.000681 0.030577
v -0.166115 -0.000681 -0.087265
v -0.124604 -0.000486 -0.089066
v -0.093154 -0.000681 -0.189641
v 0.026622 0.000395 -0.180380
v -0.068558 -0.000467 -0.162469
v 0.025903 -0.000391 -0.180457
v -0.152504 -0.000225 0.479092
v 0.015142 -0.000681 0.610183
v 0.147516 -0.000681 0.560035
v 0.297963 0.000001 0.474323
v -0.074463 -0.000194 0.546006
v 0.033613 -0.000169 0.555974
v 0.126544 -0.000151 0.506973
v 0.154062 0.074914 0.385115
v 0.157622 -0.000120 0.411167
v 0.029497 0.000393 0.096873
v 0.042871 0.100000 0.102516
v -0.034785 0.085491 0.244682
v 0.155373 0.089594 0.166065
v -0.130421 0.100000 0.179253
v -0.155012 -0.000621 0.194591
v -0.250172 0.100000 -0.049750
v -0.141685 0.100000 -0.218319
v 0.051749 -0.000681 0.144697
v -0.019886 -0.000470 0.243325
v 0.261781 -0.000681 -0.091057
v 0.140320 -0.000681 0.109587
v -0.268893 0.000000 -0.304263
v 0.278540 0.000000 -0.304263
v -0.268893 0.100000 -0.304263
v 0.278540 0.100000 -0.304263
v -0.268893 0.100000 -0.419027
v 0.278540 0.100000 -0.419027
v -0.268893 0.000000 -0.419027
v 0.278540 0.000000 -0.419027
vt 0.375000 0.000000
vt 0.625000 0.000000
vt 0.625000 0.250000
vt 0.375000 0.250000
vt 0.625000 0.500000
vt 0.375000 0.500000
vt 0.625000 0.750000
vt 0.375000 0.750000
vt 0.625000 1.000000
vt 0.375000 1.000000
vt 0.875000 0.000000
vt 0.875000 0.250000
vt 0.125000 0.000000
vt 0.125000 0.250000
vn -0.440088 -0.013739 0.897850
vn -0.440088 -0.013739 0.897850
vn -0.440088 -0.013739 0.897850
vn -0.440088 -0.013739 0.897850
vn -0.839508 0.020598 0.542957
vn -0.839508 0.020598 0.542957
vn -0.839508 0.020598 0.542957
vn -0.839508 0.020598 0.542957
vn -0.010289 -0.999938 0.004194
vn -0.010289 -0.999938 0.004194
vn -0.010289 -0.999938 0.004194
vn -0.010289 -0.999938 0.004194
vn -0.002427 -0.999988 0.004157
vn -0.002427 -0.999988 0.004157
vn -0.002427 -0.999988 0.004157
vn -0.002427 -0.999988 0.004157
vn -0.529509 -0.007277 -0.848273
vn -0.529509 -0.007277 -0.848273
vn -0.529509 -0.007277 -0.848273
vn -0.529509 -0.007277 -0.848273
vn -0.506354 0.659545 -0.555524
vn -0.506354 0.659545 -0.555524
vn -0.506354 0.659545 -0.555524
vn -0.506354 0.659545 -0.555524
vn -0.057164 0.578796 -0.813466
vn -0.057164 0.578796 -0.813466
vn -0.057164 0.578796 -0.813466
vn -0.057164 0.578796 -0.813466
vn 0.033644 0.001420 -0.999433
vn 0.033644 0.001420 -0.999433
vn 0.033644 0.001420 -0.999433
vn 0.033644 0.001420 -0.999433
vn -0.651722 0.757768 -0.032345
vn -0.651722 0.757768 -0.032345
vn -0.651722 0.757768 -0.032345
vn -0.651722 0.757768 -0.032345
vn 0.157442 0.987510 -0.006069
vn 0.157442 0.987510 -0.006069
vn 0.157442 0.987510 -0.006069
vn 0.157442 0.987510 -0.006069
vn 0.138815 0.977570 0.158388
vn 0.138815 0.977570 0.158388
vn 0.138815 0.977570 0.158388
vn 0.138815 0.977570 0.158388
vn -0.976361 0.007229 -0.216025
vn -0.976361 0.007229 -0.216025
vn -0.976361 0.007229 -0.216025
vn -0.976361 0.007229 -0.216025
vn -0.105539 0.961076 0.255334
vn -0.105539 0.961076 0.255334
vn -0.105539 0.961076 0.255334
vn -0.105539 0.961076 0.255334
vn 0.002891 0.994839 0.101423
vn 0.002891 0.994839 0.101423
vn 0.002891 0.994839 0.101423
vn 0.002891 0.994839 0.101423
vn -0.001227 0.992063 -0.125740
vn -0.001227 0.992062 -0.125740
vn -0.001227 0.992062 -0.125740
vn -0.001227 0.992062 -0.125740
vn 0.065774 0.997455 -0.027537
vn 0.065774 0.997455 -0.027537
vn 0.065774 0.997455 -0.027537
vn 0.065774 0.997455 -0.027537
vn -0.443573 -0.000790 0.896238
vn -0.443573 -0.000790 0.896238
vn -0.443573 -0.000790 0.896238
vn -0.443573 -0.000790 0.896238
vn 0.171566 -0.005046 0.985160
vn 0.171566 -0.005046 0.985160
vn 0.171566 -0.005046 0.985160
vn 0.171566 -0.005046 0.985160
vn 0.064308 0.986849 0.148306
vn 0.064308 0.986849 0.148306
vn 0.064308 0.986848 0.148306
vn 0.064308 0.986849 0.148305
vn -0.031166 0.999360 0.017558
vn -0.031166 0.999360 0.017558
vn -0.031166 0.999360 0.017558
vn -0.031166 0.999360 0.017558
vn -0.721138 -0.001813 0.692790
vn -0.721138 -0.001813 0.692789
vn -0.721138 -0.001813 0.692790
vn -0.721138 -0.001813 0.692790
vn -0.132506 -0.986875 0.092301
vn -0.132506 -0.986875 0.092301
vn -0.132506 -0.986875 0.092301
vn -0.132506 -0.986875 0.092301
vn -0.067131 -0.997642 0.014308
vn -0.067131 -0.997642 0.014308
vn -0.067131 -0.997642 0.014308
vn -0.067131 -0.997642 0.014308
vn -0.983648 -0.014798 0.179492
vn -0.983648 -0.014798 0.179492
vn -0.983648 -0.014798 0.179492
vn -0.983648 -0.014798 0.179492
vn -0.905072 0.012568 -0.425073
vn -0.905072 0.012568 -0.425073
vn -0.905072 0.012568 -0.425073
vn -0.905072 0.012568 -0.425073
vn -0.951849 0.029554 0.305138
vn -0.951849 0.029554 0.305138
vn -0.951849 0.029554 0.305138
vn -0.951849 0.029554 0.305138
vn 0.008818 0.999957 0.002735
vn 0.008818 0.999957 0.002735
vn 0.008818 0.999957 0.002735
vn 0.008818 0.999957 0.002735
vn 0.018896 0.999531 0.024086
vn 0.018896 0.999531 0.024086
vn 0.018896 0.999531 0.024086
vn 0.018896 0.999531 0.024086
vn -0.558992 0.814595 0.154799
vn -0.558992 0.814595 0.154799
vn -0.558992 0.814595 0.154799
vn -0.558992 0.814595 0.154799
vn -0.369018 0.554729 0.745722
vn -0.369018 0.554729 0.745722
vn -0.369018 0.554728 0.745722
vn -0.369018 0.554729 0.745722
vn 0.354960 0.893036 -0.276570
vn 0.354960 0.893036 -0.276570
vn 0.354960 0.893036 -0.276570
vn 0.354960 0.893036 -0.276570
vn 0.000000 1.000000 0.000000
vn 0.000000 1.000000 0.000000
vn 0.000000 1.000000 0.000000
vn 0.000000 1.000000 0.000000
vn 0.608177 0.789125 -0.086037
vn 0.608177 0.789125 -0.086037
vn 0.608177 0.789125 -0.086037
vn 0.608177 0.789125 -0.086037
vn 0.000000 1.000000 -0.000000
vn 0.000000 1.000000 -0.000000
vn 0.000000 1.000000 -0.000000
vn 0.000000 1.000000 -0.000000
vn -0.207286 0.969142 -0.133404
vn -0.207286 0.969142 -0.133404
vn -0.207286 0.969142 -0.133404
vn -0.207286 0.969142 -0.133404
vn 0.331251 0.934617 0.129477
vn 0.331251 0.934617 0.129477
vn 0.331251 0.934617 0.129477
vn 0.331251 0.934617 0.129477
vn 0.997770 -0.005362 -0.066527
vn 0.997770 -0.005362 -0.066527
vn 0.997770 -0.005362 -0.066527
vn 0.997770 -0.005362 -0.066527
vn 0.766023 0.007902 0.642764
vn 0.766023 0.007902 0.642764
vn 0.766023 0.007902 0.642764
vn 0.766023 0.007902 0.642764
vn 0.505133 0.762978 0.403367
vn 0.505133 0.762978 0.403367
vn 0.505133 0.762978 0.403367
vn 0.505133 0.762978 0.403367
vn 0.635529 -0.769520 -0.062775
vn 0.635529 -0.769521 -0.062775
vn 0.635529 -0.769520 -0.062775
vn 0.635529 -0.769521 -0.062775
vn 0.113527 0.990924 -0.071977
vn 0.113527 0.990924 -0.071977
vn 0.113527 0.990924 -0.071977
vn 0.113527 0.990924 -0.071977
vn -0.376316 0.877358 0.297706
vn -0.376316 0.877358 0.297706
vn -0.376316 0.877358 0.297706
vn -0.376315 0.877358 0.297706
vn 0.007314 -0.999973 -0.000379
vn 0.007314 -0.999973 -0.000379
vn 0.007314 -0.999973 -0.000379
vn 0.007314 -0.999973 -0.000379
vn 0.004690 -0.999986 0.002398
vn 0.004690 -0.999986 0.002398
vn 0.004690 -0.999986 0.002398
vn 0.004690 -0.999986 0.002398
vn -0.014771 -0.999841 -0.010024
vn -0.014771 -0.999841 -0.010024
vn -0.014771 -0.999841 -0.010024
vn -0.014771 -0.999841 -0.010024
vn -0.011155 -0.999937 -0.000836
vn -0.011155 -0.999938 -0.000836
vn -0.011155 -0.999937 -0.000836
vn -0.011155 -0.999938 -0.000836
vn 0.007661 -0.999956 0.005485
vn 0.007661 -0.999956 0.005485
vn 0.007661 -0.999956 0.005485
vn 0.007661 -0.999956 0.005485
vn 0.005946 -0.999982 -0.000536
vn 0.005946 -0.999982 -0.000536
vn 0.005946 -0.999982 -0.000536
vn 0.005946 -0.999982 -0.000536
vn -0.009462 -0.999946 -0.004413
vn -0.009462 -0.999946 -0.004413
vn -0.009462 -0.999946 -0.004413
vn -0.009462 -0.999946 -0.004413
vn -0.655096 0.053246 -0.753667
vn -0.655096 0.053246 -0.753667
vn -0.655096 0.053246 -0.753667
vn -0.655096 0.053246 -0.753667
vn -0.008032 -0.999863 -0.014502
vn -0.008032 -0.999863 -0.014502
vn -0.008032 -0.999863 -0.014502
vn -0.008032 -0.999863 -0.014502
vn -0.034096 -0.999387 -0.007937
vn -0.034096 -0.999387 -0.007937
vn -0.034096 -0.999387 -0.007937
vn -0.034096 -0.999387 -0.007937
vn -0.006079 -0.999979 0.002097
vn -0.006079 -0.999979 0.002097
vn -0.006079 -0.999979 0.002097
vn -0.006079 -0.999979 0.002097
vn -0.004898 -0.999939 0.009936
vn -0.004898 -0.999939 0.009936
vn -0.004898 -0.999939 0.009936
vn -0.004898 -0.999939 0.009936
vn 0.003359 -0.999993 0.001395
vn 0.003359 -0.999993 0.001395
vn 0.003359 -0.999993 0.001395
vn 0.003359 -0.999993 0.001395
vn 0.015472 -0.999859 0.006574
vn 0.015472 -0.999859 0.006574
vn 0.015472 -0.999859 0.006574
vn 0.015472 -0.999859 0.006574
vn 0.000635 -0.999999 -0.001243
vn 0.000635 -0.999999 -0.001243
vn 0.000635 -0.999999 -0.001243
vn 0.000635 -0.999999 -0.001243
vn 0.353996 -0.000325 -0.935247
vn 0.353996 -0.000325 -0.935247
vn 0.353996 -0.000325 -0.935247
vn 0.353996 -0.000325 -0.935247
vn -0.261166 0.187158 -0.946976
vn -0.261166 0.187158 -0.946976
vn -0.261166 0.187158 -0.946976
vn -0.261167 0.187158 -0.946976
vn 0.315865 0.417830 -0.851850
vn 0.315865 0.417830 -0.851850
vn 0.315864 0.417830 -0.851849
vn 0.315865 0.417830 -0.851850
vn -0.059282 0.939374 -0.337731
vn -0.059282 0.939374 -0.337731
vn -0.059282 0.939374 -0.337731
vn -0.059282 0.939374 -0.337731
vn -0.000583 -0.999991 -0.004253
vn -0.000583 -0.999991 -0.004253
vn -0.000583 -0.999991 -0.004253
vn -0.000583 -0.999991 -0.004253
vn 0.001080 -0.999994 -0.003427
vn 0.001080 -0.999994 -0.003427
vn 0.001080 -0.999994 -0.003427
vn 0.001080 -0.999994 -0.003427
vn -0.678899 0.532033 -0.506001
vn -0.678899 0.532033 -0.506001
vn -0.678899 0.532033 -0.506001
vn -0.678899 0.532033 -0.506001
vn -0.769538 0.197665 -0.607240
vn -0.769538 0.197665 -0.607240
vn -0.769538 0.197665 -0.607240
vn -0.769538 0.197665 -0.607240
vn -0.001954 -0.999996 -0.001924
vn -0.001954 -0.999996 -0.001924
vn -0.001954 -0.999996 -0.001924
vn -0.001954 -0.999996 -0.001924
vn -0.001051 -0.999999 -0.000378
vn -0.001051 -0.999999 -0.000378
vn -0.001051 -0.999999 -0.000378
vn -0.001051 -0.999999 -0.000378
vn -0.000180 -1.000000 0.000373
vn -0.000180 -1.000000 0.000373
vn -0.000180 -1.000000 0.000373
vn -0.000180 -1.000000 0.000373
vn 0.001854 -0.999970 0.007537
vn 0.001854 -0.999970 0.007537
vn 0.001854 -0.999970 0.007537
vn 0.001854 -0.999970 0.007537
vn -0.775081 0.007604 -0.631816
vn -0.775081 0.007604 -0.631816
vn -0.775081 0.007604 -0.631816
vn -0.775081 0.007604 -0.631816
vn -0.983125 0.010434 -0.182636
vn -0.983125 0.010434 -0.182636
vn -0.983125 0.010434 -0.182636
vn -0.983125 0.010434 -0.182636
vn -0.008065 -0.999945 0.006689
vn -0.008065 -0.999945 0.006689
vn -0.008065 -0.999945 0.006689
vn -0.008065 -0.999945 0.006689
vn -0.816855 0.012823 0.576701
vn -0.816855 0.012823 0.576701
vn -0.816855 0.012823 0.576701
vn -0.816855 0.012823 0.576701
vn -0.203697 0.972249 0.115064
vn -0.203697 0.972249 0.115064
vn -0.203697 0.972249 0.115064
vn -0.203697 0.972249 0.115064
vn -0.255164 0.964912 -0.061933
vn -0.255164 0.964912 -0.061933
vn -0.255164 0.964912 -0.061933
vn -0.255164 0.964912 -0.061933
vn 0.824778 0.429730 0.367525
vn 0.824778 0.429730 0.367525
vn 0.824778 0.429730 0.367525
vn 0.824778 0.429730 0.367525
vn 0.914155 0.265914 -0.305957
vn 0.914155 0.265914 -0.305957
vn 0.914155 0.265914 -0.305957
vn 0.914155 0.265914 -0.305957
vn -0.087831 0.964149 0.250403
vn -0.087831 0.964149 0.250403
vn -0.087831 0.964149 0.250403
vn -0.087831 0.964149 0.250403
vn -0.244222 0.021620 0.969478
vn -0.244222 0.021620 0.969478
vn -0.244222 0.021620 0.969478
vn -0.244222 0.021620 0.969478
vn 0.307086 0.396534 -0.865135
vn 0.307086 0.396534 -0.865135
vn 0.307086 0.396534 -0.865135
vn 0.307086 0.396534 -0.865135
vn 0.974142 0.151251 -0.167841
vn 0.974142 0.151251 -0.167841
vn 0.974142 0.151251 -0.167841
vn 0.974142 0.151251 -0.167841
vn 0.586772 0.022735 -0.809433
vn 0.586772 0.022735 -0.809433
vn 0.586772 0.022735 -0.809433
vn 0.586772 0.022735 -0.809433
vn 0.032779 0.963421 0.265980
vn 0.032779 0.963421 0.265980
vn 0.032779 0.963421 0.265980
vn 0.032779 0.963421 0.265980
vn 0.201264 -0.012075 0.979463
vn 0.201264 -0.012075 0.979463
vn 0.201264 -0.012075 0.979463
vn 0.201264 -0.012075 0.979463
vn 0.752567 0.011517 0.658415
vn 0.752567 0.011517 0.658415
vn 0.752567 0.011517 0.658415
vn 0.752567 0.011517 0.658415
vn 0.996148 0.019750 -0.085437
vn 0.996148 0.019750 -0.085437
vn 0.996148 0.019750 -0.085437
vn 0.996148 0.019750 -0.085437
vn 0.945645 0.015244 0.324843
vn 0.945645 0.015244 0.324843
vn 0.945645 0.015244 0.324843
vn 0.945645 0.015244 0.324843
vn 0.562862 -0.345373 0.750936
vn 0.562862 -0.345373 0.750936
vn 0.562862 -0.345373 0.750936
vn 0.562862 -0.345373 0.750936
vn 0.079412 0.996368 -0.030743
vn 0.079412 0.996368 -0.030743
vn 0.079412 0.996368 -0.030743
vn 0.079412 0.996368 -0.030743
vn 0.256028 -0.960536 -0.108718
vn 0.256028 -0.960536 -0.108718
vn 0.256028 -0.960536 -0.108718
vn 0.256028 -0.960536 -0.108718
vn 0.922573 0.031539 -0.384532
vn 0.922573 0.031539 -0.384532
vn 0.922573 0.031539 -0.384532
vn 0.922573 0.031539 -0.384532
vn -0.721719 0.663165 0.198330
vn -0.721718 0.663165 0.198330
vn -0.721719 0.663165 0.198330
vn -0.721719 0.663165 0.198330
vn -0.607624 0.615232 0.502277
vn -0.607624 0.615232 0.502277
vn -0.607625 0.615232 0.502277
vn -0.607625 0.615232 0.502277
vn -0.377896 0.894404 -0.239241
vn -0.377896 0.894404 -0.239241
vn -0.377896 0.894404 -0.239241
vn -0.377896 0.894404 -0.239241
vn 0.736841 0.160081 -0.656840
vn 0.736841 0.160081 -0.656840
vn 0.736841 0.160081 -0.656840
vn 0.736841 0.160081 -0.656840
vn 0.002591 -0.999995 -0.001921
vn 0.002591 -0.999995 -0.001921
vn 0.002591 -0.999995 -0.001921
vn 0.002591 -0.999995 -0.001921
vn 0.000144 -0.999996 0.002696
vn 0.000144 -0.999996 0.002696
vn 0.000144 -0.999996 0.002696
vn 0.000144 -0.999996 0.002696
vn -0.000007 -1.000000 0.000060
vn -0.000007 -1.000000 0.000060
vn -0.000007 -1.000000 0.000060
vn -0.000007 -1.000000 0.000060
vn 0.597938 -0.606722 -0.523792
vn 0.597938 -0.606722 -0.523792
vn 0.597938 -0.606722 -0.523792
vn 0.597938 -0.606722 -0.523792
vn 0.031608 -0.997966 -0.055357
vn 0.031608 -0.997966 -0.055357
vn 0.031608 -0.997966 -0.055357
vn 0.031608 -0.997966 -0.055357
vn 0.004564 -0.999990 -0.000408
vn 0.004564 -0.999990 -0.000408
vn 0.004564 -0.999990 -0.000408
vn 0.004564 -0.999990 -0.000408
vn 0.191517 0.952757 0.235745
vn 0.191517 0.952757 0.235745
vn 0.191517 0.952757 0.235745
vn 0.191517 0.952757 0.235745
vn 0.883418 -0.020650 0.468130
vn 0.883418 -0.020650 0.468130
vn 0.883418 -0.020650 0.468130
vn 0.883418 -0.020650 0.468130
vn 0.514081 0.000798 0.857741
vn 0.514081 0.000798 0.857741
vn 0.514081 0.000798 0.857741
vn 0.514081 0.000798 0.857741
vn 0.776255 -0.003902 -0.630407
vn 0.776255 -0.003902 -0.630407
vn 0.776255 -0.003902 -0.630407
vn 0.776255 -0.003902 -0.630407
vn 0.363988 0.001489 -0.931403
vn 0.363988 0.001489 -0.931403
vn 0.363988 0.001489 -0.931403
vn 0.363988 0.001489 -0.931403
vn 0.136782 0.638252 0.757578
vn 0.136782 0.638252 0.757578
vn 0.136782 0.638252 0.757578
vn 0.136782 0.638252 0.757578
vn 0.002182 -0.999998 -0.000310
vn 0.002182 -0.999998 -0.000310
vn 0.002182 -0.999998 -0.000310
vn 0.002182 -0.999998 -0.000310
vn 0.006075 -0.999964 -0.005891
vn 0.006075 -0.999964 -0.005891
vn 0.006075 -0.999964 -0.005891
vn 0.006075 -0.999964 -0.005891
vn 0.001504 -0.999952 -0.009691
vn 0.001504 -0.999952 -0.009691
vn 0.001504 -0.999952 -0.009691
vn 0.001504 -0.999952 -0.009691
vn -0.002470 -0.999925 0.011967
vn -0.002470 -0.999925 0.011967
vn -0.002470 -0.999925 0.011967
vn -0.002470 -0.999925 0.011967
vn 0.003426 -0.999930 0.011363
vn 0.003426 -0.999930 0.011363
vn 0.003426 -0.999930 0.011363
vn 0.003426 -0.999930 0.011363
vn 0.004859 -0.999982 0.003457
vn 0.004859 -0.999982 0.003457
vn 0.004859 -0.999982 0.003457
vn 0.004859 -0.999982 0.003457
vn -0.004156 -0.999945 -0.009622
vn -0.004156 -0.999945 -0.009622
vn -0.004156 -0.999945 -0.009622
vn -0.004156 -0.999945 -0.009622
vn 0.000000 0.000000 1.000000
vn 0.000000 0.000000 1.000000
vn 0.000000 0.000000 1.000000
vn 0.000000 0.000000 1.000000
vn 0.000000 1.000000 0.000000
vn 0.000000 1.000000 0.000000
vn 0.000000 1.000000 0.000000
vn 0.000000 1.000000 0.000000
vn 0.000000 0.000000 -1.000000
vn 0.000000 0.000000 -1.000000
vn 0.000000 0.000000 -1.000000
vn 0.000000 0.000000 -1.000000
vn 0.000000 -1.000000 0.000000
vn 0.000000 -1.000000 0.000000
vn 0.000000 -1.000000 0.000000
vn 0.000000 -1.000000 0.000000
vn 1.000000 0.000000 0.000000
vn 1.000000 0.000000 0.000000
vn 1.000000 0.000000 0.000000
vn 1.000000 0.000000 0.000000
vn -1.000000 0.000000 0.000000
vn -1.000000 0.000000 0.000000
vn -1.000000 0.000000 0.000000
vn -1.000000 0.000000 0.000000
s off
g BUILDDECALNUM8 DECALS
usemtl initialShadingGroup
f 1//1 15//2 103//3 110//4
f 1//5 100//6 99//7 15//8
f 1//9 73//10 17//11 100//12
f 1//13 110//14 109//15 73//16
f 2//17 4//18 98//19 97//20
f 2//21 42//22 3//23 4//24
f 2//25 40//26 39//27 42//28
f 2//29 97//30 96//31 40//32
f 3//33 54//34 99//35 4//36
f 3//37 43//38 53//39 54//40
f 3//41 42//42 41//43 43//44
f 4//45 99//46 100//47 98//48
f 5//49 103//50 15//51 14//52
f 5//53 10//54 105//55 103//56
f 5//57 102//58 68//59 10//60
f 5//61 14//62 104//63 102//64
f 6//65 89//66 9//67 74//68
f 6//69 71//70 70//71 89//72
f 6//73 22//74 108//75 71//76
f 6//77 74//78 76//79 22//80
f 7//81 50//82 51//83 52//84
f 7//85 29//86 106//87 50//88
f 7//89 26//90 28//91 29//92
f 7//93 52//94 48//95 26//96
f 8//97 72//98 18//99 69//100
f 8//101 74//102 9//103 72//104
f 8//105 75//106 76//107 74//108
f 8//109 69//110 45//111 75//112
f 9//113 19//114 20//115 72//116
f 9//117 89//118 91//119 19//120
f 10//121 68//122 66//123 65//124
f 10//125 65//126 49//127 105//128
f 11//129 65//130 66//131 12//132
f 11//133 107//134 49//135 65//136
f 11//137 108//138 48//139 107//140
f 11//141 12//142 71//143 108//144
f 12//145 66//146 67//147 13//148
f 12//149 13//150 70//151 71//152
f 13//153 87//154 90//155 70//156
f 13//157 67//158 57//159 87//160
f 14//161 54//162 53//163 104//164
f 14//165 15//166 99//167 54//168
f 16//169 61//170 92//171 78//172
f 16//173 106//174 62//175 61//176
f 16//177 31//178 50//179 106//180
f 16//181 78//182 32//183 31//184
f 17//185 95//186 82//187 94//188
f 17//189 73//190 83//191 95//192
f 17//193 94//194 98//195 100//196
f 18//197 101//198 102//199 69//200
f 18//201 112//202 109//203 101//204
f 18//205 72//206 20//207 112//208
f 19//209 84//210 21//211 20//212
f 19//213 91//214 30//215 84//216
f 20//217 21//218 44//219 112//220
f 21//221 111//222 77//223 44//224
f 21//225 84//226 47//227 111//228
f 22//229 76//230 46//231 23//232
f 22//233 23//234 25//235 108//236
f 23//237 46//238 47//239 24//240
f 23//241 24//242 27//243 25//244
f 24//245 30//246 88//247 27//248
f 24//249 47//250 84//251 30//252
f 25//253 27//254 28//255 26//256
f 25//257 26//258 48//259 108//260
f 27//261 88//262 86//263 28//264
f 28//265 86//266 85//267 29//268
f 29//269 85//270 55//271 106//272
f 30//273 91//274 90//275 88//276
f 31//277 58//278 51//279 50//280
f 31//281 32//282 33//283 58//284
f 32//285 78//286 79//287 80//288
f 32//289 80//290 35//291 33//292
f 33//293 35//294 36//295 34//296
f 33//297 34//298 59//299 58//300
f 34//301 60//302 63//303 59//304
f 34//305 36//306 37//307 60//308
f 35//309 38//310 39//311 36//312
f 35//313 80//314 81//315 38//316
f 36//317 39//318 40//319 37//320
f 37//321 92//322 61//323 60//324
f 37//325 40//326 96//327 92//328
f 38//329 41//330 42//331 39//332
f 38//333 81//334 82//335 41//336
f 41//337 82//338 95//339 43//340
f 43//341 95//342 83//343 53//344
f 44//345 77//346 75//347 45//348
f 44//349 45//350 104//351 112//352
f 45//353 69//354 102//355 104//356
f 46//357 77//358 111//359 47//360
f 46//361 76//362 75//363 77//364
f 48//365 52//366 49//367 107//368
f 49//369 52//370 51//371 105//372
f 51//373 58//374 59//375 105//376
f 53//377 83//378 112//379 104//380
f 55//381 85//382 57//383 56//384
f 55//385 110//386 62//387 106//388
f 55//389 56//390 109//391 110//392
f 56//393 57//394 67//395 64//396
f 56//397 64//398 101//399 109//400
f 57//401 85//402 86//403 87//404
f 59//405 63//406 103//407 105//408
f 60//409 61//410 62//411 63//412
f 62//413 110//414 103//415 63//416
f 64//417 67//418 66//419 68//420
f 64//421 68//422 102//423 101//424
f 70//425 90//426 91//427 89//428
f 73//429 109//430 112//431 83//432
f 78//433 92//434 96//435 79//436
f 79//437 96//438 97//439 93//440
f 79//441 93//442 81//443 80//444
f 81//445 93//446 94//447 82//448
f 86//449 88//450 90//451 87//452
f 93//453 97//454 98//455 94//456
f 113/1/457 114/2/458 116/3/459 115/4/460
f 115/4/461 116/3/462 118/5/463 117/6/464
f 117/6/465 118/5/466 120/7/467 119/8/468
f 119/8/469 120/7/470 114/9/471 113/10/472
f 114/2/473 120/11/474 118/12/475 116/3/476
f 119/13/477 113/1/478 115/4/479 117/14/480
