# This file uses centimeters as units for non-parametric coordinates.

mtllib BUILDDECALVIS1.mtl
g default
v 0.626019 0.000119 -0.011382
v 0.626021 0.000119 0.011526
v 0.626019 0.066609 -0.011382
v 0.626021 0.066609 0.011526
v 0.000000 0.000119 -0.833621
v 0.000000 0.000119 0.833744
v 0.000000 0.066609 0.832937
v 0.000000 0.066609 -0.834427
v 0.666548 0.000119 -0.046096
v 0.666550 0.000119 0.046240
v 0.666548 0.066609 -0.046096
v 0.666550 0.066609 0.046240
v 0.700561 0.000119 -0.006166
v 0.700563 0.000119 0.006306
v 0.700561 0.066609 -0.006166
v 0.700563 0.066609 0.006306
v -0.626019 0.000119 -0.011382
v -0.626021 0.000119 0.011526
v -0.626019 0.066609 -0.011382
v -0.626021 0.066609 0.011526
v -0.666548 0.000119 -0.046096
v -0.666550 0.000119 0.046240
v -0.666548 0.066609 -0.046096
v -0.666550 0.066609 0.046240
v -0.700561 0.000119 -0.006166
v -0.700563 0.000119 0.006306
v -0.700561 0.066609 -0.006166
v -0.700563 0.066609 0.006306
v -0.679601 0.000000 0.467849
v -0.428124 0.000000 0.782997
v -0.679601 0.036137 0.467849
v -0.428124 0.036137 0.782997
v 0.374147 0.036137 -0.740101
v 0.633256 0.036137 -0.436401
v 0.374147 0.000000 -0.740101
v 0.633256 0.000000 -0.436401
vt 0.885860 0.849970
vt 0.722046 0.279271
vt 0.722084 0.279401
vt 0.885860 0.849970
vt 1.000000 0.002898
vt 1.000000 1.000000
vt 1.000000 0.002670
vt 0.722046 0.279271
vt 0.885860 0.849970
vt 1.000000 1.000000
vt 1.000000 0.002670
vt 1.000000 1.000000
vt 0.000000 0.000000
vt 1.000000 0.000000
vt 1.000000 1.000000
vt 0.000000 1.000000
vt 0.000000 0.000000
vt 1.000000 0.000000
vt 1.000000 1.000000
vt 0.000000 1.000000
vt 0.000000 0.000000
vt 1.000000 0.000000
vt 1.000000 1.000000
vt 0.000000 1.000000
vt 0.000000 0.000000
vt 1.000000 0.000000
vt 1.000000 1.000000
vt 0.000000 1.000000
vt 0.000000 0.000000
vt 1.000000 0.000000
vt 1.000000 1.000000
vt 0.000000 1.000000
vt 0.000000 0.000000
vt 1.000000 0.000000
vt 1.000000 1.000000
vt 0.000000 1.000000
vt 0.000000 0.000000
vt 1.000000 0.000000
vt 1.000000 1.000000
vt 0.000000 1.000000
vt 0.000000 0.000000
vt 1.000000 0.000000
vt 1.000000 1.000000
vt 0.000000 1.000000
vt 0.885860 0.849970
vt 0.722046 0.279271
vt 0.722084 0.279401
vt 0.885860 0.849970
vt 1.000000 0.002898
vt 1.000000 1.000000
vt 1.000000 0.002670
vt 0.722046 0.279271
vt 0.885860 0.849970
vt 1.000000 1.000000
vt 1.000000 0.002670
vt 1.000000 1.000000
vt 0.000000 0.000000
vt 1.000000 0.000000
vt 1.000000 1.000000
vt 0.000000 1.000000
vt 0.000000 0.000000
vt 1.000000 0.000000
vt 1.000000 1.000000
vt 0.000000 1.000000
vt 0.000000 0.000000
vt 1.000000 0.000000
vt 1.000000 1.000000
vt 0.000000 1.000000
vt 0.000000 0.000000
vt 1.000000 0.000000
vt 1.000000 1.000000
vt 0.000000 1.000000
vt 0.000000 0.000000
vt 1.000000 0.000000
vt 1.000000 1.000000
vt 0.000000 1.000000
vt 0.000000 0.000000
vt 1.000000 0.000000
vt 1.000000 1.000000
vt 0.000000 1.000000
vt 0.000000 0.000000
vt 1.000000 0.000000
vt 1.000000 1.000000
vt 0.000000 1.000000
vt 0.000000 0.000000
vt 1.000000 0.000000
vt 1.000000 1.000000
vt 0.000000 1.000000
vt 0.375000 0.000000
vt 0.625000 0.000000
vt 0.625000 0.250000
vt 0.375000 0.250000
vt 0.625000 0.500000
vt 0.375000 0.500000
vt 0.625000 0.750000
vt 0.375000 0.750000
vt 0.625000 1.000000
vt 0.375000 1.000000
vt 0.875000 0.000000
vt 0.875000 0.250000
vt 0.125000 0.000000
vt 0.125000 0.250000
vn 0.795779 -0.003671 -0.605576
vn 0.795779 -0.003671 -0.605576
vn 0.795779 -0.003671 -0.605576
vn 0.795779 -0.003671 -0.605576
vn -0.000001 1.000000 -0.000000
vn -0.000001 1.000000 -0.000000
vn -0.000001 1.000000 -0.000000
vn -0.000001 1.000000 -0.000000
vn 0.000000 -1.000000 0.000000
vn 0.000000 -1.000000 0.000000
vn 0.000000 -1.000000 0.000000
vn 0.000000 -1.000000 0.000000
vn 0.795484 0.003675 0.605964
vn 0.795484 0.003675 0.605964
vn 0.795484 0.003675 0.605964
vn 0.795484 0.003675 0.605964
vn 0.000000 -1.000000 0.000000
vn 0.000000 -1.000000 0.000000
vn 0.000000 -1.000000 0.000000
vn 0.000000 -1.000000 0.000000
vn -0.650509 0.000000 -0.759498
vn -0.650509 0.000000 -0.759498
vn -0.650509 0.000000 -0.759498
vn -0.650509 0.000000 -0.759498
vn -0.650509 0.000000 0.759498
vn -0.650509 0.000000 0.759498
vn -0.650509 0.000000 0.759498
vn -0.650509 0.000000 0.759498
vn 0.000000 1.000000 0.000000
vn 0.000000 1.000000 0.000000
vn 0.000000 1.000000 0.000000
vn 0.000000 1.000000 0.000000
vn 0.000000 -1.000000 0.000000
vn 0.000000 -1.000000 0.000000
vn 0.000000 -1.000000 0.000000
vn 0.000000 -1.000000 0.000000
vn 0.761261 0.000000 -0.648446
vn 0.761261 0.000000 -0.648446
vn 0.761261 0.000000 -0.648446
vn 0.761261 0.000000 -0.648446
vn 0.761292 0.000000 0.648410
vn 0.761292 0.000000 0.648410
vn 0.761292 0.000000 0.648410
vn 0.761292 0.000000 0.648410
vn 0.000000 1.000000 0.000000
vn 0.000000 1.000000 0.000000
vn 0.000000 1.000000 0.000000
vn 0.000000 1.000000 0.000000
vn 1.000000 0.000000 -0.000167
vn 1.000000 0.000000 -0.000167
vn 1.000000 0.000000 -0.000167
vn 1.000000 0.000000 -0.000167
vn -0.795779 -0.003671 -0.605576
vn -0.795779 -0.003671 -0.605576
vn -0.795779 -0.003671 -0.605576
vn -0.795779 -0.003671 -0.605576
vn 0.000001 1.000000 -0.000000
vn 0.000001 1.000000 -0.000000
vn 0.000001 1.000000 -0.000000
vn 0.000001 1.000000 -0.000000
vn 0.000000 -1.000000 0.000000
vn 0.000000 -1.000000 0.000000
vn 0.000000 -1.000000 0.000000
vn 0.000000 -1.000000 0.000000
vn -0.795484 0.003675 0.605964
vn -0.795484 0.003675 0.605964
vn -0.795484 0.003675 0.605964
vn -0.795484 0.003675 0.605964
vn 0.000000 -1.000000 0.000000
vn 0.000000 -1.000000 0.000000
vn 0.000000 -1.000000 0.000000
vn 0.000000 -1.000000 0.000000
vn 0.650509 0.000000 -0.759498
vn 0.650509 0.000000 -0.759498
vn 0.650509 0.000000 -0.759498
vn 0.650509 0.000000 -0.759498
vn 0.650509 0.000000 0.759498
vn 0.650509 0.000000 0.759498
vn 0.650509 0.000000 0.759498
vn 0.650509 0.000000 0.759498
vn 0.000000 1.000000 0.000000
vn 0.000000 1.000000 0.000000
vn 0.000000 1.000000 0.000000
vn 0.000000 1.000000 0.000000
vn 0.000000 -1.000000 0.000000
vn 0.000000 -1.000000 0.000000
vn 0.000000 -1.000000 0.000000
vn 0.000000 -1.000000 0.000000
vn -0.761261 0.000000 -0.648446
vn -0.761261 0.000000 -0.648446
vn -0.761261 0.000000 -0.648446
vn -0.761261 0.000000 -0.648446
vn -0.761292 0.000000 0.648410
vn -0.761292 0.000000 0.648410
vn -0.761292 0.000000 0.648410
vn -0.761292 0.000000 0.648410
vn 0.000000 1.000000 0.000000
vn 0.000000 1.000000 0.000000
vn 0.000000 1.000000 0.000000
vn 0.000000 1.000000 0.000000
vn -1.000000 0.000000 -0.000167
vn -1.000000 0.000000 -0.000167
vn -1.000000 0.000000 -0.000167
vn -1.000000 0.000000 -0.000167
vn -0.781644 0.000000 0.623725
vn -0.781644 0.000000 0.623725
vn -0.781644 0.000000 0.623725
vn -0.781644 0.000000 0.623725
vn 0.000000 1.000000 0.000000
vn 0.000000 1.000000 0.000000
vn 0.000000 1.000000 0.000000
vn 0.000000 1.000000 0.000000
vn 0.760746 0.000000 -0.649050
vn 0.760746 0.000000 -0.649050
vn 0.760746 0.000000 -0.649050
vn 0.760746 0.000000 -0.649050
vn 0.000000 -1.000000 0.000000
vn 0.000000 -1.000000 0.000000
vn 0.000000 -1.000000 0.000000
vn 0.000000 -1.000000 0.000000
vn 0.754289 0.000000 0.656543
vn 0.754289 0.000000 0.656543
vn 0.754289 0.000000 0.656543
vn 0.754289 0.000000 0.656543
vn -0.753568 0.000000 -0.657371
vn -0.753568 0.000000 -0.657371
vn -0.753568 0.000000 -0.657371
vn -0.753568 0.000000 -0.657371
s off
g BUILDDECALVIS1 DECALS
usemtl initialShadingGroup
f 1/1/1 5/2/2 8/3/3 3/4/4
f 8/3/5 7/5/6 4/6/7 3/4/8
f 6/7/9 5/8/10 1/9/11 2/10/12
f 7/5/13 6/11/14 2/12/15 4/6/16
f 2/13/17 1/14/18 9/15/19 10/16/20
f 1/17/21 3/18/22 11/19/23 9/20/24
f 4/21/25 2/22/26 10/23/27 12/24/28
f 3/25/29 4/26/30 12/27/31 11/28/32
f 10/29/33 9/30/34 13/31/35 14/32/36
f 9/33/37 11/34/38 15/35/39 13/36/40
f 12/37/41 10/38/42 14/39/43 16/40/44
f 11/41/45 12/42/46 16/43/47 15/44/48
f 14/32/49 13/36/50 15/44/51 16/40/52
f 17/45/53 19/48/54 8/47/55 5/46/56
f 8/47/57 19/48/58 20/50/59 7/49/60
f 6/51/61 18/54/62 17/53/63 5/52/64
f 7/49/65 20/50/66 18/56/67 6/55/68
f 18/57/69 22/60/70 21/59/71 17/58/72
f 17/61/73 21/64/74 23/63/75 19/62/76
f 20/65/77 24/68/78 22/67/79 18/66/80
f 19/69/81 23/72/82 24/71/83 20/70/84
f 22/73/85 26/76/86 25/75/87 21/74/88
f 21/77/89 25/80/90 27/79/91 23/78/92
f 24/81/93 28/84/94 26/83/95 22/82/96
f 23/85/97 27/88/98 28/87/99 24/86/100
f 26/76/101 28/84/102 27/88/103 25/80/104
f 29/89/105 30/90/106 32/91/107 31/92/108
f 31/92/109 32/91/110 34/93/111 33/94/112
f 33/94/113 34/93/114 36/95/115 35/96/116
f 35/96/117 36/95/118 30/97/119 29/98/120
f 30/90/121 36/99/122 34/100/123 32/91/124
f 35/101/125 29/89/126 31/92/127 33/102/128
