# This file uses centimeters as units for non-parametric coordinates.

mtllib BUILDDECALSIMP2.mtl
g default
v -0.629856 -0.000119 -0.850201
v -0.001610 0.000119 -0.392545
v 0.629379 0.000119 -0.847557
v -0.001685 0.000119 -0.050021
v 0.629381 0.000119 -0.507083
v -0.629858 -0.000119 -0.510676
v 0.629379 0.066609 -0.847557
v 0.629381 0.066609 -0.507083
v -0.629858 0.066258 -0.510996
v -0.001829 0.066609 -0.050737
v -0.001754 0.066609 -0.393262
v -0.629856 0.066258 -0.850519
v -0.629856 -0.000119 0.073168
v -0.001610 0.000119 0.530824
v 0.629379 0.000119 0.075812
v -0.001685 0.000119 0.873348
v 0.629381 0.000119 0.416286
v -0.629858 -0.000119 0.412693
v 0.629379 0.066609 0.075812
v 0.629381 0.066609 0.416286
v -0.629858 0.066258 0.412374
v -0.001829 0.066609 0.872632
v -0.001754 0.066609 0.530107
v -0.629856 0.066258 0.072850
v 0.629379 0.000119 -0.385873
v 0.629381 0.000119 -0.045398
v 0.629379 0.066609 -0.385873
v 0.629381 0.066609 -0.045398
v 0.782168 0.000119 -0.257196
v 0.782097 0.000119 0.083069
v 0.782168 0.066609 -0.257196
v 0.782097 0.066609 0.083069
v 0.000000 0.000119 0.068534
v 0.000000 0.000119 0.411025
v 0.000000 0.066609 0.410257
v 0.000000 0.066609 0.067766
v -0.629379 0.000119 -0.385873
v -0.629381 0.000119 -0.045398
v -0.629379 0.066609 -0.385873
v -0.629381 0.066609 -0.045398
v -0.782168 0.000119 -0.257196
v -0.782097 0.000119 0.083069
v -0.782168 0.066609 -0.257196
v -0.782097 0.066609 0.083069
vt 0.885860 0.849970
vt 1.000000 1.000000
vt 0.000000 0.000000
vt 1.000000 0.000000
vt 0.721627 0.277811
vt 0.150284 0.114105
vt 0.885860 0.849970
vt 1.000000 1.000000
vt 0.000000 0.000000
vt 1.000000 0.000000
vt 0.721627 0.277811
vt 0.150284 0.114105
vt 1.000000 1.000000
vt 0.885860 0.849970
vt 0.000000 0.000000
vt 1.000000 0.000000
vt 0.721627 0.277811
vt 0.150284 0.114105
vt 0.000000 0.000000
vt 1.000000 0.000000
vt 0.721627 0.277811
vt 0.150284 0.114105
vt 1.000000 1.000000
vt 0.885860 0.849970
vt 0.000000 0.000000
vt 0.150284 0.114105
vt 0.721627 0.277811
vt 1.000000 0.000000
vt 0.885860 0.849970
vt 1.000000 1.000000
vt 0.000000 0.000000
vt 1.000000 0.000000
vt 0.721627 0.277811
vt 0.150284 0.114105
vt 1.000000 1.000000
vt 0.885860 0.849970
vt 0.885860 0.849970
vt 0.722046 0.279271
vt 0.722084 0.279401
vt 0.885860 0.849970
vt 0.000000 0.000000
vt 1.000000 0.000000
vt 1.000000 1.000000
vt 0.000000 1.000000
vt 0.000000 0.000000
vt 1.000000 0.000000
vt 1.000000 1.000000
vt 0.000000 1.000000
vt 0.000000 0.000000
vt 1.000000 0.000000
vt 1.000000 1.000000
vt 0.000000 1.000000
vt 0.000000 0.000000
vt 1.000000 0.000000
vt 1.000000 1.000000
vt 0.000000 1.000000
vt 1.000000 0.002898
vt 1.000000 1.000000
vt 1.000000 0.002670
vt 0.722046 0.279271
vt 0.885860 0.849970
vt 1.000000 1.000000
vt 1.000000 0.002670
vt 1.000000 1.000000
vt 0.885860 0.849970
vt 0.885860 0.849970
vt 0.722084 0.279401
vt 0.722046 0.279271
vt 0.000000 0.000000
vt 0.000000 1.000000
vt 1.000000 1.000000
vt 1.000000 0.000000
vt 0.000000 0.000000
vt 0.000000 1.000000
vt 1.000000 1.000000
vt 1.000000 0.000000
vt 0.000000 0.000000
vt 0.000000 1.000000
vt 1.000000 1.000000
vt 1.000000 0.000000
vt 0.000000 0.000000
vt 0.000000 1.000000
vt 1.000000 1.000000
vt 1.000000 0.000000
vt 1.000000 1.000000
vt 1.000000 0.002898
vt 1.000000 0.002670
vt 1.000000 1.000000
vt 0.885860 0.849970
vt 0.722046 0.279271
vt 1.000000 1.000000
vt 1.000000 0.002670
vn -0.000558 1.000000 -0.000000
vn -0.000278 1.000000 -0.000000
vn -0.000279 1.000000 -0.000000
vn -0.000558 1.000000 -0.000000
vn -0.000001 1.000000 0.000000
vn -0.000001 1.000000 0.000000
vn 0.000380 -1.000000 0.000000
vn 0.000380 -1.000000 0.000000
vn 0.000190 -1.000000 0.000000
vn 0.000189 -1.000000 0.000000
vn 0.000000 -1.000000 0.000000
vn 0.000000 -1.000000 0.000000
vn -0.591231 0.005650 0.806483
vn -0.001920 0.006587 0.999976
vn -0.003394 0.006588 0.999973
vn -0.591231 0.005650 0.806483
vn 0.001171 -0.006581 -0.999978
vn 0.588671 -0.005654 -0.808353
vn 0.588671 -0.005654 -0.808353
vn 0.002636 -0.006581 -0.999975
vn 0.586226 0.005000 0.810132
vn 0.586226 0.005000 0.810132
vn -0.584543 -0.005006 -0.811348
vn -0.584543 -0.005006 -0.811348
vn 1.000000 0.000000 -0.000006
vn 1.000000 0.000000 -0.000006
vn 1.000000 0.000000 -0.000006
vn 1.000000 0.000000 -0.000006
vn -1.000000 0.000001 -0.000006
vn -1.000000 0.000001 -0.000006
vn -1.000000 0.000001 -0.000006
vn -1.000000 0.000001 -0.000006
vn -0.000558 1.000000 -0.000000
vn -0.000278 1.000000 -0.000000
vn -0.000279 1.000000 -0.000000
vn -0.000558 1.000000 -0.000000
vn -0.000001 1.000000 0.000000
vn -0.000001 1.000000 0.000000
vn 0.000380 -1.000000 0.000000
vn 0.000380 -1.000000 0.000000
vn 0.000190 -1.000000 0.000000
vn 0.000189 -1.000000 0.000000
vn 0.000000 -1.000000 0.000000
vn 0.000000 -1.000000 0.000000
vn -0.591231 0.005643 0.806483
vn -0.001919 0.006581 0.999977
vn -0.003393 0.006581 0.999973
vn -0.591231 0.005643 0.806483
vn 0.001171 -0.006582 -0.999978
vn 0.588672 -0.005656 -0.808353
vn 0.588671 -0.005656 -0.808353
vn 0.002636 -0.006583 -0.999975
vn 0.586227 0.004997 0.810132
vn 0.586227 0.004997 0.810132
vn -0.584543 -0.005006 -0.811348
vn -0.584543 -0.005006 -0.811348
vn 1.000000 0.000000 -0.000006
vn 1.000000 0.000000 -0.000006
vn 1.000000 0.000000 -0.000006
vn 1.000000 0.000000 -0.000006
vn -1.000000 0.000000 -0.000006
vn -1.000000 0.000000 -0.000006
vn -1.000000 0.000000 -0.000006
vn -1.000000 0.000000 -0.000006
vn -0.384051 -0.004291 -0.923302
vn -0.585037 -0.004684 -0.810993
vn -0.585037 -0.004684 -0.810993
vn -0.384051 -0.004291 -0.923302
vn 0.000000 -1.000000 0.000000
vn 0.000000 -1.000000 0.000000
vn 0.000000 -1.000000 0.000000
vn 0.000000 -1.000000 0.000000
vn 0.644171 0.000000 -0.764881
vn 0.644171 0.000000 -0.764881
vn 0.386317 0.004289 0.922356
vn 0.386317 0.004289 0.922356
vn -0.643740 0.000000 0.765244
vn -0.643740 0.000000 0.765244
vn -0.000001 1.000000 0.000000
vn -0.000001 1.000000 0.000000
vn -0.000000 1.000000 0.000000
vn -0.000000 1.000000 0.000000
vn 0.000000 1.000000 -0.000000
vn 0.000000 1.000000 -0.000000
vn 0.000000 -1.000000 0.000000
vn 0.000000 -1.000000 0.000000
vn 0.586740 0.004679 0.809762
vn 0.586740 0.004679 0.809762
vn 0.384051 -0.004291 -0.923302
vn 0.384051 -0.004291 -0.923302
vn 0.585037 -0.004684 -0.810993
vn 0.585037 -0.004684 -0.810993
vn 0.000000 -1.000000 0.000000
vn 0.000000 -1.000000 0.000000
vn 0.000000 -1.000000 0.000000
vn 0.000000 -1.000000 0.000000
vn -0.644171 0.000000 -0.764881
vn -0.644171 0.000000 -0.764881
vn -0.386317 0.004289 0.922356
vn 0.643740 0.000000 0.765244
vn 0.643740 0.000000 0.765244
vn -0.386317 0.004289 0.922356
vn 0.000001 1.000000 0.000000
vn 0.000000 1.000000 0.000000
vn 0.000000 1.000000 0.000000
vn 0.000001 1.000000 0.000000
vn -0.586740 0.004679 0.809762
vn -0.586740 0.004679 0.809762
vn 1.000000 0.000000 0.000211
vn 1.000000 0.000000 0.000211
vn 1.000000 0.000000 0.000211
vn 1.000000 0.000000 0.000211
vn -1.000000 0.000000 0.000211
vn -1.000000 0.000000 0.000211
vn -1.000000 0.000000 0.000211
vn -1.000000 0.000000 0.000211
s 1
g BUILDDECALSIMP2 DECALS
usemtl initialShadingGroup
f 9/15/1 10/16/2 11/17/3 12/18/4
f 10/16/2 8/13/5 7/14/6 11/17/3
s 2
f 6/9/7 1/12/8 2/11/9 4/10/10
f 4/10/10 2/11/9 3/7/11 5/8/12
s 3
f 6/3/13 4/4/14 10/16/15 9/15/16
s 4
f 2/5/17 1/6/18 12/18/19 11/17/20
s 3
f 4/4/14 5/2/21 8/13/22 10/16/15
s 4
f 3/1/23 2/5/17 11/17/20 7/14/24
s off
f 5/8/25 3/1/26 7/14/27 8/13/28
f 6/3/29 9/15/30 12/18/31 1/12/32
s 5
f 21/19/33 22/20/34 23/21/35 24/22/36
f 22/20/34 20/23/37 19/24/38 23/21/35
s 6
f 18/25/39 13/26/40 14/27/41 16/28/42
f 16/28/42 14/27/41 15/29/43 17/30/44
s 7
f 18/31/45 16/32/46 22/20/47 21/19/48
s 8
f 14/33/49 13/34/50 24/22/51 23/21/52
s 7
f 16/32/46 17/35/53 20/23/54 22/20/47
s 8
f 15/36/55 14/33/49 23/21/52 19/24/56
s off
f 17/30/57 15/36/58 19/24/59 20/23/60
f 18/31/61 21/19/62 24/22/63 13/26/64
s 9
f 25/37/65 33/38/66 36/39/67 27/40/68
s 10
f 26/41/69 25/42/70 29/43/71 30/44/72
s 9
f 25/45/65 27/46/68 31/47/73 29/48/74
s 11
f 28/49/75 26/50/76 30/51/77 32/52/78
s 12
f 27/53/79 28/54/80 32/55/81 31/56/82
f 36/39/83 35/57/84 28/58/80 27/40/79
s 10
f 34/59/85 33/60/86 25/61/70 26/62/69
s 11
f 35/57/87 34/63/88 26/64/76 28/58/75
s 13
f 37/65/89 39/66/90 36/67/91 33/68/92
s 10
f 38/69/93 42/70/94 41/71/95 37/72/96
s 13
f 37/73/89 41/74/97 43/75/98 39/76/90
s 14
f 40/77/99 44/78/100 42/79/101 38/80/102
s 12
f 39/81/103 43/82/104 44/83/105 40/84/106
f 36/67/83 39/66/103 40/85/106 35/86/84
s 10
f 34/87/85 38/88/93 37/89/96 33/90/86
s 14
f 35/86/107 40/85/99 38/91/102 34/92/108
s off
f 30/44/109 29/48/110 31/56/111 32/52/112
f 42/79/113 44/83/114 43/75/115 41/71/116
